<svg xmlns="http://www.w3.org/2000/svg" width="180" height="33" viewBox="0 0 180 33" fill="none">
  <g clip-path="url(#clip0_1430_79304)">
    <path d="M72.8498 17.4135H72.921L77.5148 2.61133H82.1968V22.6978H78.6107V8.9836H78.536L74.1254 22.7114H71.6928L67.2822 8.95657H67.2076V22.6978H63.6011V2.61133H68.3035L72.8498 17.4135Z" fill="#1AA1E5"/>
    <path d="M90.0102 22.9754C88.0289 22.9754 86.4818 22.2929 85.3689 20.9279C84.2561 19.5629 83.6986 17.8037 83.6963 15.6504V15.1098C83.6963 12.8776 84.2369 11.0474 85.318 9.61934C85.8292 8.92819 86.5031 8.37285 87.2806 8.00224C88.058 7.63163 88.915 7.45713 89.7761 7.49412C91.5607 7.49412 92.9303 8.10792 93.8848 9.33552C94.8393 10.5631 95.3165 12.2165 95.3165 14.2955V16.3802H87.3944L87.3571 16.4613C87.3705 17.354 87.6595 18.2211 88.1849 18.9446C88.4496 19.267 88.7879 19.5217 89.1715 19.6875C89.5551 19.8532 89.973 19.9252 90.3902 19.8974C91.0792 19.9127 91.7663 19.8192 92.4259 19.6204C93.0379 19.4131 93.6214 19.1305 94.163 18.7791L95.1333 21.2624C94.4997 21.8071 93.7656 22.2237 92.9721 22.4889C92.0212 22.8229 91.0185 22.9876 90.0102 22.9754ZM89.7761 10.589C89.4504 10.5744 89.1264 10.6435 88.8352 10.7896C88.5441 10.9358 88.2956 11.1541 88.1137 11.4236C87.6887 12.0874 87.4454 12.8503 87.408 13.6366L87.4317 13.7076H91.805V13.4035C91.8436 12.6839 91.6766 11.968 91.3232 11.3391C91.1547 11.0899 90.9225 10.89 90.6506 10.7599C90.3786 10.6299 90.0768 10.5744 89.7761 10.5992V10.589Z" fill="#1AA1E5"/>
    <path d="M96.5615 15.3597C96.5615 13.0058 97.0139 11.1059 97.9186 9.65976C98.2996 8.98731 98.8569 8.43059 99.531 8.04913C100.205 7.66766 100.971 7.47578 101.746 7.494C102.376 7.48611 102.997 7.65343 103.537 7.97715C104.1 8.32874 104.578 8.79937 104.938 9.35567V1.17578H108.538V22.6983H105.485L105.179 20.8636C104.814 21.498 104.306 22.0384 103.693 22.4415C103.102 22.8071 102.417 22.9926 101.722 22.9753C100.965 22.9987 100.216 22.8237 99.5482 22.468C98.8807 22.1122 98.3188 21.5881 97.9186 20.9481C97.0139 19.5966 96.5615 17.8216 96.5615 15.6232V15.3597ZM100.138 15.6469C100.087 16.7067 100.288 17.7635 100.724 18.7316C100.897 19.0867 101.171 19.3831 101.512 19.5833C101.853 19.7835 102.246 19.8787 102.641 19.8567C103.117 19.8726 103.587 19.7556 103.998 19.5189C104.399 19.2709 104.726 18.921 104.945 18.5053V12.1161C104.727 11.6788 104.404 11.3016 104.005 11.018C103.612 10.7533 103.146 10.6164 102.672 10.6261C102.255 10.6184 101.845 10.7406 101.501 10.9756C101.157 11.2106 100.895 11.5467 100.752 11.937C100.306 13.0216 100.099 14.1887 100.144 15.3597L100.138 15.6469Z" fill="#1AA1E5"/>
    <path d="M115.181 16.4476H114.272V22.6983H110.686V1.17578H114.272V13.3865H115.069L118.251 7.77105H122.404L118.068 14.5724L122.981 22.6983H118.866L115.181 16.4476Z" fill="#1AA1E5"/>
    <path d="M121.96 15.0963C121.96 12.8708 122.513 11.0474 123.619 9.62612C124.725 8.2048 126.256 7.49414 128.213 7.49414C130.178 7.49414 131.718 8.20255 132.83 9.61936C133.943 11.0362 134.5 12.8618 134.5 15.0963V15.3868C134.5 17.6393 133.945 19.4672 132.837 20.8705C131.729 22.2738 130.199 22.9755 128.247 22.9755C126.281 22.9755 124.744 22.2704 123.636 20.8604C122.528 19.4503 121.972 17.6224 121.97 15.3767L121.96 15.0963ZM125.533 15.3868C125.484 16.5133 125.704 17.6352 126.174 18.6608C126.368 19.0342 126.662 19.3472 127.023 19.5657C127.384 19.7841 127.799 19.8996 128.221 19.8996C128.644 19.8996 129.058 19.7841 129.419 19.5657C129.78 19.3472 130.074 19.0342 130.269 18.6608C130.74 17.6379 130.961 16.5181 130.913 15.3936V15.103C130.957 13.9857 130.734 12.8741 130.262 11.8595C130.084 11.474 129.797 11.1495 129.434 10.9265C129.072 10.7034 128.652 10.5919 128.226 10.6059C127.799 10.5887 127.376 10.7 127.013 10.9254C126.65 11.1508 126.363 11.4798 126.191 11.8696C125.72 12.8789 125.495 13.9842 125.533 15.0963V15.3868Z" fill="#1AA1E5"/>
    <path d="M139.514 22.6983H135.928V1.17578H139.514V22.6983Z" fill="#1AA1E5"/>
    <path d="M145.604 22.6983H142.018V1.17578H145.604V22.6983Z" fill="#1AA1E5"/>
    <path d="M155.759 22.6984C155.623 22.3465 155.51 21.9865 155.419 21.6206C155.323 21.2397 155.255 20.8524 155.216 20.4617C154.868 21.1639 154.368 21.7811 153.753 22.2693C153.138 22.7468 152.375 22.9965 151.596 22.9755C150.205 22.9755 149.131 22.5734 148.376 21.7693C147.62 20.9651 147.244 19.8715 147.246 18.4885C147.246 17.0289 147.748 15.8959 148.752 15.0895C149.757 14.2831 151.22 13.8811 153.143 13.8833H155.158V12.6974C155.195 12.0987 155.016 11.5065 154.653 11.0283C154.465 10.8226 154.233 10.6621 153.973 10.5591C153.714 10.4561 153.435 10.4132 153.156 10.4336C152.909 10.4163 152.662 10.4497 152.428 10.5316C152.195 10.6136 151.981 10.7424 151.799 10.91C151.636 11.0845 151.511 11.29 151.43 11.5142C151.349 11.7383 151.314 11.9764 151.328 12.2142H147.887L147.86 12.1298C147.832 11.5098 147.95 10.8918 148.206 10.3256C148.461 9.75936 148.846 9.26057 149.329 8.86928C150.365 7.95252 151.722 7.49414 153.401 7.49414C154.984 7.49414 156.275 7.94464 157.275 8.84563C158.275 9.74662 158.768 11.0395 158.754 12.7244V18.8906C158.752 19.551 158.799 20.2106 158.897 20.8638C158.991 21.4874 159.14 22.1015 159.345 22.6984H155.759ZM152.481 19.9954C153.08 20.0025 153.665 19.8177 154.15 19.4683C154.603 19.1741 154.958 18.7517 155.168 18.2554V16.1572H153.153C152.851 16.127 152.546 16.1622 152.26 16.2604C151.973 16.3587 151.711 16.5176 151.492 16.7263C151.272 16.935 151.101 17.1885 150.99 17.4693C150.878 17.7502 150.829 18.0518 150.846 18.3534C150.834 18.573 150.867 18.7928 150.941 18.9999C151.016 19.207 151.131 19.3972 151.28 19.5596C151.439 19.712 151.627 19.8306 151.834 19.9078C152.041 19.9851 152.261 20.0195 152.481 20.0089V19.9954Z" fill="#1AA1E5"/>
    <path d="M165.106 4.11523V7.77101H167.352V10.599H165.106V18.2011C165.069 18.6413 165.189 19.0803 165.445 19.4411C165.549 19.5633 165.68 19.6603 165.828 19.7247C165.975 19.7891 166.136 19.8192 166.296 19.8128C166.461 19.8151 166.626 19.8038 166.788 19.779C166.95 19.7509 167.11 19.7113 167.267 19.6607L167.562 22.5732C167.222 22.7049 166.871 22.8089 166.514 22.8841C166.147 22.9539 165.774 22.9879 165.401 22.9854C164.162 22.9854 163.212 22.607 162.544 21.8434C161.876 21.0798 161.543 19.8702 161.543 18.2147V10.599H159.603V7.77101H161.543V4.11523H165.106Z" fill="#1AA1E5"/>
    <path d="M174.694 22.9754C172.712 22.9754 171.165 22.2929 170.053 20.9279C168.94 19.5629 168.382 17.8037 168.38 15.6504V15.1098C168.38 12.8776 168.92 11.0474 170.002 9.61934C170.513 8.92819 171.187 8.37285 171.964 8.00224C172.742 7.63163 173.599 7.45713 174.46 7.49412C176.248 7.49412 177.615 8.10905 178.572 9.33552C179.529 10.562 180 12.2176 180 14.2955V16.3802H172.078L172.041 16.4613C172.055 17.3544 172.345 18.2215 172.872 18.9446C173.136 19.2674 173.474 19.5225 173.858 19.6882C174.242 19.854 174.66 19.9258 175.077 19.8974C175.766 19.9128 176.453 19.8193 177.113 19.6204C177.726 19.4132 178.311 19.1306 178.853 18.7791L179.817 21.2624C179.182 21.8075 178.447 22.2241 177.652 22.4889C176.702 22.8228 175.701 22.9875 174.694 22.9754ZM174.46 10.589C174.134 10.5747 173.81 10.6439 173.519 10.7901C173.228 10.9362 172.979 11.1543 172.797 11.4236C172.372 12.0874 172.129 12.8503 172.092 13.6366L172.115 13.7076H176.489V13.4035C176.527 12.6843 176.361 11.969 176.01 11.3391C175.841 11.0894 175.609 10.8891 175.336 10.759C175.063 10.6289 174.761 10.5737 174.46 10.5992V10.589Z" fill="#1AA1E5"/>
    <path d="M68.534 26.4086H67.8012C67.7654 26.2137 67.6891 26.0284 67.5773 25.8646C67.4712 25.7122 67.3392 25.5796 67.1871 25.4727C67.0331 25.3654 66.8623 25.2843 66.6816 25.2328C66.493 25.1784 66.2977 25.1511 66.1014 25.1517C65.7449 25.1456 65.3944 25.2434 65.093 25.4331C64.7916 25.6228 64.5525 25.8961 64.405 26.2194C64.2326 26.6292 64.1438 27.0691 64.1438 27.5134C64.1438 27.9578 64.2326 28.3977 64.405 28.8075C64.5599 29.1343 64.8046 29.4108 65.1107 29.6048C65.4103 29.7856 65.7546 29.8792 66.1048 29.8751C66.3011 29.8757 66.4964 29.8484 66.685 29.7941C66.8651 29.7411 67.0357 29.6602 67.1905 29.5542C67.3426 29.446 67.4747 29.3122 67.5807 29.1589C67.6919 28.9959 67.7682 28.8119 67.8046 28.6183H68.534C68.4853 28.9045 68.3841 29.1794 68.2355 29.4291C68.0924 29.6625 67.9072 29.8676 67.6892 30.0339C67.4756 30.1994 67.2344 30.3264 66.9768 30.409C66.6982 30.4972 66.4073 30.5405 66.115 30.5374C65.6302 30.546 65.1528 30.4184 64.7375 30.1691C64.3271 29.9177 63.9966 29.5557 63.7842 29.1251C63.556 28.6182 63.438 28.0689 63.438 27.5134C63.438 26.9579 63.556 26.4087 63.7842 25.9018C63.994 25.4697 64.3221 25.1055 64.7307 24.851C65.1466 24.6032 65.6236 24.4757 66.1082 24.4827C66.4007 24.4806 66.6916 24.5251 66.97 24.6145C67.2358 24.699 67.484 24.8306 67.7028 25.003C67.9207 25.1694 68.1059 25.3744 68.2491 25.6078C68.3931 25.8548 68.4898 26.1263 68.534 26.4086Z" fill="#1AA1E5"/>
    <path d="M71.3871 30.5638C71.1175 30.5698 70.85 30.5168 70.6033 30.4084C70.3779 30.3092 70.1851 30.1487 70.0469 29.9455C69.904 29.7268 69.8318 29.4698 69.84 29.2089C69.8304 28.9925 69.8834 28.7779 69.9926 28.5906C70.0941 28.4328 70.2358 28.3046 70.4032 28.219C70.5823 28.1244 70.7743 28.0561 70.9732 28.0163C71.1801 27.969 71.3871 27.9352 71.6008 27.9081L72.2794 27.827C72.4096 27.8209 72.5375 27.79 72.656 27.7358C72.6963 27.7126 72.729 27.6782 72.75 27.6368C72.7711 27.5954 72.7797 27.5488 72.7747 27.5027V27.4824C72.7843 27.3595 72.7682 27.236 72.7273 27.1197C72.6864 27.0033 72.6217 26.8967 72.5372 26.8067C72.4395 26.7211 72.3254 26.656 72.2018 26.6154C72.0782 26.5747 71.9477 26.5593 71.8179 26.5702C71.5414 26.5539 71.2672 26.6287 71.0376 26.783C70.8701 26.9003 70.7329 27.0555 70.6373 27.2358L69.9587 27.006C70.0607 26.7597 70.2242 26.5434 70.4337 26.3776C70.6257 26.2287 70.8462 26.1207 71.0817 26.06C71.3088 26.0004 71.5425 25.9698 71.7772 25.9688C71.9469 25.971 72.116 25.988 72.2828 26.0194C72.4775 26.0563 72.6645 26.126 72.8358 26.2255C73.0238 26.3389 73.1783 26.4997 73.2836 26.6918C73.4117 26.9533 73.4724 27.2424 73.4601 27.5331V30.4489H72.7611V29.861H72.7272C72.6659 29.977 72.5856 30.0821 72.4897 30.1719C72.3631 30.2914 72.2145 30.3855 72.052 30.4489C71.8402 30.5307 71.6142 30.5697 71.3871 30.5638ZM71.4922 29.9556C71.735 29.9627 71.9755 29.9081 72.1912 29.7968C72.3683 29.7036 72.5171 29.5648 72.622 29.3948C72.7173 29.2353 72.7677 29.0532 72.7679 28.8677V28.2393C72.7134 28.2872 72.6463 28.3188 72.5745 28.3305C72.4633 28.3631 72.35 28.3879 72.2353 28.4048L71.8621 28.4555L71.5669 28.4927C71.3951 28.5116 71.2258 28.5478 71.0614 28.6008C70.9182 28.6462 70.7879 28.725 70.6814 28.8305C70.5822 28.9431 70.531 29.0898 70.5389 29.2394C70.5331 29.3442 70.5551 29.4488 70.6027 29.5425C70.6504 29.6362 70.722 29.7158 70.8103 29.7732C71.0139 29.9013 71.2516 29.9649 71.4922 29.9556Z" fill="#1AA1E5"/>
    <path d="M77.1315 26.0361V26.6138H74.7803V26.0361H77.1315ZM75.4656 24.9785H76.1645V29.1952C76.1548 29.3431 76.184 29.491 76.2493 29.6243C76.2985 29.7123 76.3781 29.7795 76.4733 29.8135C76.5669 29.8464 76.6657 29.8624 76.765 29.8608C76.8282 29.8668 76.8918 29.8668 76.955 29.8608L77.0738 29.8405L77.2129 30.452C77.1484 30.4738 77.0827 30.4918 77.0161 30.5061C76.9098 30.5256 76.8019 30.5346 76.6938 30.5331C76.4949 30.5317 76.2985 30.4891 76.117 30.4081C75.9321 30.3203 75.774 30.185 75.659 30.0162C75.5311 29.8282 75.4669 29.6045 75.4758 29.3776L75.4656 24.9785Z" fill="#1AA1E5"/>
    <path d="M79.9335 30.5643C79.6637 30.5692 79.3961 30.515 79.1497 30.4055C78.9243 30.3062 78.7315 30.1458 78.5933 29.9426C78.4504 29.7239 78.3782 29.4668 78.3864 29.206C78.3768 28.9896 78.4298 28.775 78.539 28.5877C78.6414 28.4306 78.7828 28.3026 78.9496 28.2161C79.1292 28.1225 79.321 28.0542 79.5195 28.0133C79.7265 27.966 79.9369 27.9322 80.1472 27.9052L80.8258 27.8241C80.956 27.818 81.0838 27.787 81.2024 27.7329C81.243 27.7098 81.2761 27.6755 81.2978 27.6342C81.3194 27.5928 81.3287 27.5462 81.3245 27.4998V27.4795C81.3337 27.3564 81.317 27.2327 81.2755 27.1163C81.2341 27 81.1687 26.8935 81.0836 26.8037C80.9859 26.7181 80.8718 26.6531 80.7482 26.6124C80.6246 26.5718 80.494 26.5564 80.3643 26.5672C80.0878 26.551 79.8136 26.6258 79.584 26.7801C79.4165 26.8974 79.2793 27.0525 79.1837 27.2328L78.5051 27.0031C78.6083 26.7574 78.7716 26.5413 78.9801 26.3746C79.172 26.2258 79.3926 26.1177 79.6281 26.057C79.8551 25.9975 80.0889 25.9668 80.3236 25.9658C80.4933 25.9681 80.6624 25.985 80.8292 26.0165C81.0239 26.0534 81.2109 26.1231 81.3822 26.2226C81.5731 26.3359 81.7301 26.4981 81.8368 26.6922C81.9664 26.9532 82.0272 27.2427 82.0132 27.5335V30.4494H81.3347V29.8615H81.2974C81.236 29.9775 81.1558 30.0825 81.0599 30.1723C80.9332 30.2918 80.7846 30.3859 80.6222 30.4494C80.4029 30.5343 80.1685 30.5734 79.9335 30.5643ZM80.0386 29.9561C80.2814 29.9636 80.5221 29.909 80.7375 29.7973C80.9147 29.7041 81.0635 29.5652 81.1684 29.3952C81.2647 29.236 81.3163 29.054 81.3177 28.8681V28.2397C81.2613 28.2867 81.1934 28.3182 81.1209 28.3309C81.0098 28.3639 80.8964 28.3888 80.7817 28.4053L80.4084 28.4559L80.1133 28.4931C79.9415 28.5121 79.7722 28.5483 79.6078 28.6012C79.4652 28.6458 79.3358 28.7247 79.2312 28.831C79.1808 28.8861 79.142 28.9506 79.1169 29.0208C79.0919 29.091 79.0811 29.1654 79.0853 29.2398C79.0794 29.3447 79.1015 29.4492 79.1491 29.543C79.1968 29.6367 79.2684 29.7162 79.3567 29.7736C79.5604 29.9013 79.7981 29.9649 80.0386 29.9561Z" fill="#1AA1E5"/>
    <path d="M84.4021 24.5635V30.4627H83.7065V24.5635H84.4021Z" fill="#1AA1E5"/>
    <path d="M87.937 30.5541C87.5583 30.5629 87.185 30.4632 86.8615 30.2669C86.5493 30.075 86.2986 29.7984 86.1389 29.4695C85.9688 29.0917 85.8809 28.6824 85.8809 28.2684C85.8809 27.8544 85.9688 27.445 86.1389 27.0672C86.2967 26.7383 86.5449 26.4607 86.8547 26.2665C87.1817 26.0785 87.5527 25.9795 87.9302 25.9795C88.3078 25.9795 88.6787 26.0785 89.0057 26.2665C89.3181 26.4597 89.5687 26.7374 89.7284 27.0672C89.8985 27.445 89.9864 27.8544 89.9864 28.2684C89.9864 28.6824 89.8985 29.0917 89.7284 29.4695C89.5686 29.7984 89.3179 30.075 89.0057 30.2669C88.6844 30.4625 88.3135 30.5622 87.937 30.5541ZM87.937 29.9425C88.2118 29.954 88.4823 29.8718 88.7038 29.7094C88.9085 29.5522 89.0639 29.34 89.1516 29.0979C89.346 28.5641 89.346 27.9794 89.1516 27.4457C89.0624 27.2024 88.9074 26.9884 88.7038 26.8273C88.478 26.6734 88.2107 26.591 87.937 26.591C87.6633 26.591 87.3961 26.6734 87.1703 26.8273C86.9676 26.9894 86.8129 27.2031 86.7224 27.4457C86.5325 27.9802 86.5325 28.5634 86.7224 29.0979C86.8121 29.339 86.9671 29.5507 87.1703 29.7094C87.3917 29.8718 87.6622 29.954 87.937 29.9425Z" fill="#1AA1E5"/>
    <path d="M93.3011 32.2127C93.0066 32.2183 92.7133 32.176 92.4325 32.0877C92.2117 32.0138 92.0069 31.8992 91.8286 31.7498C91.6782 31.626 91.5487 31.4788 91.4452 31.314L92.0016 30.9356C92.0627 31.0167 92.1441 31.1079 92.2391 31.2126C92.3528 31.3281 92.4875 31.4209 92.6361 31.4863C92.8512 31.5731 93.0828 31.6123 93.3146 31.6012C93.6364 31.6147 93.9541 31.5247 94.2205 31.3444C94.3425 31.2483 94.4388 31.1237 94.5009 30.9817C94.5631 30.8396 94.5891 30.6846 94.5767 30.5301V29.6415H94.5191C94.4525 29.7458 94.38 29.8462 94.3019 29.9422C94.1915 30.0732 94.0552 30.1802 93.9016 30.2565C93.6804 30.3564 93.4385 30.4027 93.1959 30.3916C92.8509 30.3973 92.5109 30.3098 92.212 30.1382C91.9193 29.9628 91.6837 29.7071 91.5334 29.4016C91.3541 29.0361 91.2667 28.6325 91.279 28.2258C91.2687 27.8179 91.3535 27.4131 91.5266 27.0433C91.6737 26.7233 91.909 26.4514 92.2052 26.2594C92.5095 26.0685 92.8635 25.9709 93.223 25.979C93.4667 25.9682 93.7093 26.0181 93.9287 26.1243C94.0846 26.2089 94.2219 26.3238 94.3325 26.4621L94.5496 26.7561H94.6175V26.0364H95.296V30.5876C95.3169 30.9031 95.2328 31.2167 95.0568 31.4799C94.8808 31.7431 94.6227 31.9413 94.3223 32.0438C93.9956 32.1636 93.6491 32.2209 93.3011 32.2127ZM93.2773 29.7801C93.5268 29.7885 93.7734 29.7239 93.9864 29.5942C94.1842 29.4633 94.3379 29.2761 94.4275 29.057C94.5322 28.7891 94.5829 28.5032 94.5767 28.2157C94.582 27.9272 94.5313 27.6404 94.4275 27.371C94.3401 27.1426 94.1895 26.9434 93.9932 26.7966C93.7819 26.6554 93.5317 26.5833 93.2773 26.5905C93.0143 26.581 92.7555 26.6582 92.5411 26.8102C92.341 26.9604 92.188 27.1644 92.1 27.398C91.9991 27.6587 91.9496 27.9364 91.9541 28.2157C91.9477 28.4944 91.9985 28.7715 92.1034 29.03C92.1934 29.2525 92.3467 29.4439 92.5445 29.5807C92.7633 29.7214 93.0205 29.7911 93.2807 29.7801H93.2773Z" fill="#1AA1E5"/>
    <path d="M99.8152 28.6513V26.0361H100.514V30.4623H99.8152V29.7122H99.7677C99.6564 29.9429 99.4854 30.14 99.2724 30.2832C99.0206 30.4493 98.7226 30.5321 98.4208 30.5197C98.1577 30.525 97.8978 30.4608 97.6676 30.3339C97.4411 30.2077 97.2588 30.0155 97.1451 29.7831C97.0102 29.49 96.9463 29.1694 96.9585 28.8472V26.0361H97.654V28.8033C97.6468 28.9437 97.6677 29.084 97.7155 29.2163C97.7633 29.3485 97.8369 29.47 97.9322 29.5737C98.0247 29.6687 98.1362 29.7434 98.2595 29.7929C98.3829 29.8424 98.5152 29.8655 98.6481 29.8608C98.8321 29.8594 99.0133 29.8154 99.1774 29.7325C99.3616 29.6419 99.5185 29.5043 99.632 29.3338C99.7613 29.1301 99.8252 28.892 99.8152 28.6513Z" fill="#1AA1E5"/>
    <path d="M102.56 25.3001C102.434 25.3001 102.312 25.2517 102.221 25.1649C102.172 25.1232 102.134 25.0711 102.109 25.0126C102.084 24.9541 102.072 24.8907 102.075 24.8271C102.071 24.7634 102.083 24.6998 102.108 24.6412C102.133 24.5826 102.172 24.5306 102.221 24.4892C102.316 24.4025 102.441 24.3545 102.57 24.3545C102.699 24.3545 102.824 24.4025 102.92 24.4892C102.968 24.5306 103.007 24.5826 103.032 24.6412C103.057 24.6998 103.069 24.7634 103.065 24.8271C103.068 24.8907 103.057 24.9541 103.031 25.0126C103.006 25.0711 102.968 25.1232 102.92 25.1649C102.872 25.2103 102.815 25.2457 102.754 25.2689C102.692 25.2921 102.626 25.3027 102.56 25.3001ZM102.221 30.4628V26.0366H102.916V30.4628H102.221Z" fill="#1AA1E5"/>
    <path d="M105.291 27.8001V30.4626H104.613V26.0364H105.291V26.7122H105.352C105.458 26.4893 105.625 26.3007 105.834 26.1682C106.09 26.0221 106.381 25.9507 106.676 25.9621C106.955 25.9555 107.232 26.0194 107.48 26.1479C107.713 26.2712 107.901 26.4637 108.019 26.6987C108.155 26.9915 108.22 27.3121 108.209 27.6346V30.4457H107.514V27.7055C107.532 27.4093 107.432 27.1178 107.235 26.8946C107.136 26.7947 107.017 26.7168 106.885 26.6661C106.754 26.6154 106.613 26.5931 106.472 26.6007C106.265 26.597 106.061 26.6459 105.878 26.7426C105.704 26.8372 105.561 26.9805 105.468 27.1548C105.354 27.3512 105.293 27.5735 105.291 27.8001Z" fill="#1AA1E5"/>
    <path d="M111.71 32.2125C111.416 32.2213 111.123 32.1825 110.842 32.0976C110.621 32.0236 110.416 31.909 110.238 31.7597C110.087 31.6358 109.958 31.4887 109.854 31.3239L110.411 30.9455C110.472 31.0265 110.553 31.1178 110.648 31.2225C110.762 31.3379 110.897 31.4308 111.045 31.4962C111.26 31.583 111.492 31.6222 111.724 31.6111C112.045 31.6246 112.363 31.5345 112.63 31.3543C112.75 31.2574 112.845 31.1325 112.906 30.9905C112.967 30.8486 112.992 30.6939 112.979 30.54V29.6413H112.921C112.855 29.7455 112.782 29.8459 112.704 29.942C112.594 30.0729 112.458 30.1799 112.304 30.2562C112.083 30.3561 111.841 30.4025 111.598 30.3913C111.253 30.3971 110.913 30.3095 110.614 30.1379C110.317 29.9623 110.077 29.7039 109.926 29.3946C109.746 29.0291 109.659 28.6255 109.671 28.2188C109.662 27.8081 109.749 27.4009 109.926 27.0295C110.073 26.7095 110.308 26.4377 110.604 26.2456C110.908 26.0547 111.262 25.9572 111.622 25.9652C111.866 25.9548 112.108 26.0047 112.328 26.1105C112.483 26.1942 112.62 26.3093 112.728 26.4484C112.823 26.57 112.894 26.668 112.945 26.7423H113.016V26.0362H113.695V30.5873C113.716 30.9028 113.632 31.2165 113.456 31.4797C113.28 31.7429 113.022 31.941 112.721 32.0435C112.398 32.1621 112.055 32.2194 111.71 32.2125ZM111.686 29.7798C111.936 29.7883 112.182 29.7237 112.395 29.594C112.593 29.4638 112.746 29.2762 112.833 29.0567C112.941 28.7895 112.993 28.5033 112.986 28.2154C112.991 27.9269 112.94 27.6401 112.837 27.3708C112.749 27.1413 112.597 26.9419 112.399 26.7964C112.183 26.6573 111.932 26.5833 111.674 26.5833C111.417 26.5833 111.166 26.6573 110.95 26.7964C110.75 26.9467 110.597 27.1506 110.509 27.3843C110.408 27.645 110.359 27.9226 110.363 28.2019C110.357 28.4806 110.408 28.7577 110.512 29.0162C110.602 29.2387 110.756 29.4301 110.954 29.5669C111.17 29.7117 111.426 29.7861 111.686 29.7798Z" fill="#1AA1E5"/>
    <path d="M118.815 27.8003V30.4627H118.119V24.5635H118.815V26.7292H118.876C118.977 26.5046 119.144 26.3152 119.354 26.1853C119.613 26.0356 119.91 25.964 120.209 25.9792C120.49 25.9721 120.769 26.0348 121.02 26.1616C121.255 26.2814 121.445 26.4733 121.563 26.709C121.702 27.0032 121.769 27.3265 121.756 27.6516V30.4627H121.061V27.7057C121.078 27.4085 120.979 27.1162 120.782 26.8914C120.681 26.7918 120.56 26.7144 120.427 26.6644C120.293 26.6143 120.151 26.5927 120.009 26.6008C119.796 26.5972 119.585 26.646 119.395 26.7428C119.216 26.8352 119.068 26.9787 118.971 27.155C118.863 27.3527 118.809 27.5753 118.815 27.8003Z" fill="#1AA1E5"/>
    <path d="M125.353 30.5538C124.957 30.5645 124.566 30.4663 124.223 30.27C123.908 30.0823 123.655 29.8061 123.497 29.476C123.318 29.1043 123.229 28.6956 123.239 28.2833C123.23 27.869 123.318 27.4583 123.497 27.0839C123.654 26.7531 123.901 26.4724 124.209 26.273C124.531 26.0725 124.905 25.9703 125.285 25.979C125.523 25.9801 125.759 26.0201 125.984 26.0973C126.218 26.1743 126.432 26.3012 126.611 26.4689C126.813 26.6567 126.968 26.8879 127.066 27.1447C127.186 27.4794 127.242 27.8335 127.232 28.1887V28.4759H123.731V27.8914H126.52C126.525 27.6575 126.474 27.4258 126.371 27.2156C126.272 27.0233 126.121 26.862 125.936 26.7494C125.738 26.6336 125.511 26.5751 125.281 26.5804C125.027 26.5742 124.777 26.6436 124.562 26.7798C124.364 26.9098 124.204 27.0892 124.097 27.3001C123.991 27.5095 123.935 27.741 123.935 27.9759V28.3813C123.925 28.6739 123.986 28.9645 124.111 29.2294C124.221 29.4502 124.395 29.6336 124.61 29.7564C124.993 29.9512 125.437 29.9888 125.848 29.8612C125.993 29.8133 126.125 29.7337 126.235 29.6281C126.346 29.5208 126.431 29.3904 126.486 29.2463L127.164 29.4287C127.094 29.65 126.972 29.8516 126.808 30.0166C126.629 30.1903 126.415 30.3239 126.181 30.4085C125.916 30.506 125.635 30.5552 125.353 30.5538Z" fill="#1AA1E5"/>
    <path d="M130.045 30.5643C129.776 30.5698 129.51 30.5167 129.264 30.4088C129.039 30.3096 128.846 30.1492 128.708 29.946C128.565 29.7273 128.493 29.4702 128.501 29.2094C128.492 28.993 128.545 28.7784 128.654 28.5911C128.755 28.4333 128.897 28.305 129.064 28.2194C129.243 28.1253 129.433 28.0571 129.631 28.0167C129.841 27.9694 130.048 27.9356 130.259 27.9086L130.937 27.8275C131.067 27.8207 131.195 27.7898 131.314 27.7363C131.353 27.7124 131.386 27.6779 131.407 27.6367C131.428 27.5954 131.437 27.5492 131.432 27.5031V27.4829C131.442 27.36 131.426 27.2365 131.385 27.1201C131.344 27.0038 131.279 26.8972 131.195 26.8071C131.097 26.7218 130.983 26.657 130.859 26.6164C130.736 26.5757 130.605 26.5602 130.476 26.5706C130.198 26.5549 129.923 26.6296 129.692 26.7835C129.526 26.9017 129.39 27.0567 129.295 27.2362L128.627 27.0301C128.729 26.7838 128.892 26.5674 129.102 26.4017C129.294 26.2528 129.514 26.1448 129.75 26.0841C129.977 26.0243 130.21 25.9937 130.445 25.9928C130.617 25.9856 130.79 25.9935 130.961 26.0165C131.155 26.0529 131.341 26.1226 131.51 26.2226C131.695 26.3369 131.846 26.4993 131.945 26.6922C132.076 26.9528 132.138 27.2424 132.125 27.5335V30.4494H131.426V29.8615H131.392C131.33 29.9775 131.25 30.0825 131.154 30.1723C131.026 30.2916 130.876 30.3856 130.713 30.4494C130.5 30.5321 130.273 30.5712 130.045 30.5643ZM130.15 29.9561C130.393 29.9632 130.633 29.9085 130.849 29.7973C131.025 29.7032 131.174 29.5645 131.28 29.3952C131.375 29.2357 131.425 29.0537 131.426 28.8681V28.2397C131.371 28.2876 131.304 28.3192 131.232 28.3309C131.121 28.3635 131.008 28.3884 130.893 28.4053L130.52 28.4559L130.225 28.4931C130.053 28.5121 129.884 28.5483 129.719 28.6012C129.576 28.6458 129.445 28.7247 129.339 28.831C129.24 28.9435 129.189 29.0902 129.197 29.2398C129.191 29.3447 129.213 29.4492 129.26 29.543C129.308 29.6367 129.38 29.7162 129.468 29.7736C129.672 29.9017 129.909 29.9653 130.15 29.9561Z" fill="#1AA1E5"/>
    <path d="M134.513 24.5635V30.4627H133.814V24.5635H134.513Z" fill="#1AA1E5"/>
    <path d="M138.177 26.0361V26.6138H135.826V26.0361H138.177ZM136.512 24.9785H137.21V29.1952C137.201 29.3431 137.23 29.491 137.295 29.6243C137.344 29.7123 137.424 29.7795 137.519 29.8135C137.613 29.8464 137.712 29.8624 137.811 29.8608C137.874 29.8668 137.938 29.8668 138.001 29.8608L138.12 29.8405L138.262 30.452C138.215 30.452 138.147 30.4858 138.062 30.5061C137.956 30.5256 137.848 30.5346 137.74 30.5331C137.541 30.5313 137.345 30.4888 137.163 30.4081C136.976 30.3263 136.816 30.1955 136.698 30.0297C136.568 29.8428 136.502 29.6186 136.512 29.3911V24.9785Z" fill="#1AA1E5"/>
    <path d="M140.437 27.8003V30.4627H139.741V24.5635H140.437V26.7292H140.494C140.599 26.5051 140.766 26.3161 140.976 26.1853C141.235 26.0356 141.532 25.964 141.831 25.9792C142.112 25.9721 142.391 26.0348 142.642 26.1616C142.877 26.2814 143.068 26.4733 143.185 26.709C143.324 27.0032 143.391 27.3265 143.378 27.6516V30.4627H142.683V27.7057C142.692 27.5582 142.672 27.4104 142.623 27.2707C142.575 27.1309 142.499 27.0021 142.401 26.8914C142.3 26.7922 142.18 26.7151 142.047 26.6651C141.914 26.6151 141.773 26.5932 141.631 26.6008C141.418 26.597 141.207 26.6457 141.017 26.7428C140.838 26.8352 140.69 26.9787 140.593 27.155C140.485 27.3527 140.431 27.5753 140.437 27.8003Z" fill="#1AA1E5"/>
    <path d="M147.826 30.4628V26.0366H148.505V26.7124H148.552C148.639 26.4904 148.798 26.3037 149.003 26.1819C149.222 26.0426 149.477 25.9709 149.736 25.9758H149.926H150.099V26.6516L149.94 26.6245C149.852 26.6108 149.764 26.604 149.675 26.6043C149.47 26.6017 149.268 26.6481 149.085 26.7394C148.919 26.8247 148.779 26.9517 148.678 27.1077C148.578 27.2677 148.526 27.453 148.528 27.6415V30.4425L147.826 30.4628Z" fill="#1AA1E5"/>
    <path d="M153.099 30.5538C152.703 30.5645 152.312 30.4663 151.969 30.27C151.653 30.0818 151.4 29.8058 151.24 29.476C151.06 29.1042 150.972 28.6955 150.982 28.2833C150.973 27.8689 151.061 27.4583 151.24 27.0838C151.397 26.753 151.644 26.4723 151.952 26.2729C152.274 26.0728 152.648 25.9707 153.028 25.979C153.265 25.9798 153.502 26.0198 153.726 26.0972C153.961 26.1745 154.176 26.3013 154.357 26.4689C154.557 26.6578 154.711 26.8887 154.809 27.1446C154.929 27.4794 154.985 27.8334 154.975 28.1887V28.4759H151.48V27.8913H154.266C154.273 27.6573 154.222 27.4251 154.117 27.2156C154.018 27.0288 153.872 26.8714 153.693 26.7595C153.493 26.6441 153.265 26.5857 153.034 26.5905C152.78 26.5843 152.53 26.6537 152.315 26.7899C152.117 26.9199 151.957 27.0993 151.85 27.3102C151.743 27.5196 151.688 27.7511 151.687 27.986V28.3813C151.677 28.6743 151.739 28.9653 151.867 29.2293C151.977 29.4492 152.149 29.6324 152.363 29.7564C152.746 29.9512 153.19 29.9888 153.601 29.8611C153.746 29.8133 153.878 29.7336 153.988 29.628C154.099 29.5214 154.185 29.3908 154.239 29.2462L154.917 29.4287C154.846 29.6502 154.723 29.8517 154.558 30.0166C154.378 30.1906 154.163 30.3243 153.927 30.4085C153.662 30.506 153.381 30.5552 153.099 30.5538Z" fill="#1AA1E5"/>
    <path d="M158.3 30.5534C157.913 30.5644 157.53 30.4622 157.201 30.2594C156.892 30.0618 156.646 29.7805 156.492 29.4485C156.326 29.076 156.241 28.6732 156.241 28.266C156.241 27.8587 156.326 27.456 156.492 27.0834C156.65 26.7533 156.898 26.4737 157.207 26.2759C157.528 26.0755 157.901 25.9733 158.28 25.982C158.576 25.9773 158.87 26.0372 159.141 26.1576C159.389 26.2636 159.606 26.4297 159.772 26.6408C159.937 26.8517 160.042 27.1024 160.078 27.3672H159.379C159.324 27.1577 159.205 26.9701 159.04 26.83C158.833 26.6638 158.572 26.5795 158.307 26.5935C158.052 26.5876 157.803 26.6595 157.591 26.7996C157.382 26.9453 157.218 27.1451 157.116 27.3774C156.998 27.6539 156.94 27.9521 156.946 28.2525C156.94 28.5579 156.997 28.8614 157.112 29.1444C157.212 29.3817 157.377 29.5865 157.587 29.7357C157.8 29.8778 158.051 29.951 158.307 29.9452C158.475 29.9475 158.642 29.9165 158.799 29.854C158.943 29.7957 159.072 29.7043 159.175 29.5871C159.279 29.4683 159.353 29.3272 159.392 29.1748H160.091C160.053 29.4293 159.953 29.6705 159.799 29.8776C159.64 30.0902 159.43 30.2607 159.189 30.3743C158.91 30.4998 158.606 30.561 158.3 30.5534Z" fill="#1AA1E5"/>
    <path d="M163.358 30.5536C162.979 30.5624 162.604 30.4628 162.28 30.2664C161.969 30.0734 161.72 29.797 161.56 29.469C161.39 29.0912 161.302 28.6819 161.302 28.2679C161.302 27.8538 161.39 27.4445 161.56 27.0667C161.72 26.7378 161.969 26.4602 162.28 26.266C162.607 26.0777 162.979 25.9785 163.357 25.9785C163.735 25.9785 164.106 26.0777 164.434 26.266C164.746 26.4592 164.997 26.7369 165.157 27.0667C165.327 27.4445 165.415 27.8538 165.415 28.2679C165.415 28.6819 165.327 29.0912 165.157 29.469C164.997 29.7979 164.746 30.0745 164.434 30.2664C164.11 30.4627 163.737 30.5624 163.358 30.5536ZM163.358 29.942C163.633 29.9535 163.904 29.8713 164.125 29.7089C164.328 29.5501 164.483 29.3385 164.573 29.0973C164.763 28.5628 164.763 27.9796 164.573 27.4451C164.483 27.2025 164.328 26.9889 164.125 26.8268C163.905 26.662 163.634 26.5784 163.358 26.5903C163.082 26.5787 162.81 26.6623 162.588 26.8268C162.386 26.9881 162.232 27.2021 162.144 27.4451C161.949 27.9789 161.949 28.5636 162.144 29.0973C162.231 29.3391 162.385 29.5512 162.588 29.7089C162.811 29.8708 163.083 29.9529 163.358 29.942Z" fill="#1AA1E5"/>
    <path d="M166.894 30.4627V26.0366H167.572V26.7123H167.603C167.689 26.4903 167.848 26.3036 168.054 26.1819C168.271 26.0431 168.525 25.9713 168.783 25.9758H168.977H169.15V26.6515L168.99 26.6245C168.903 26.6108 168.814 26.604 168.726 26.6042C168.521 26.6017 168.318 26.648 168.135 26.7394C167.969 26.8237 167.828 26.9509 167.728 27.1077C167.628 27.2677 167.576 27.453 167.579 27.6415V30.4425L166.894 30.4627Z" fill="#1AA1E5"/>
    <path d="M171.976 30.554C171.622 30.5601 171.274 30.4626 170.975 30.2735C170.679 30.0778 170.443 29.8025 170.297 29.4795C170.134 29.0952 170.049 28.6822 170.049 28.2649C170.049 27.8476 170.134 27.4345 170.297 27.0502C170.443 26.7277 170.678 26.4534 170.975 26.2596C171.28 26.0687 171.634 25.9711 171.993 25.9792C172.236 25.9683 172.477 26.0183 172.696 26.1244C172.85 26.2081 172.985 26.3232 173.093 26.4623C173.183 26.584 173.254 26.6819 173.306 26.7563H173.371V24.5635H174.049V30.4627H173.371V29.787H173.289C173.238 29.8681 173.164 29.9694 173.072 30.0911C172.962 30.2309 172.823 30.346 172.665 30.4289C172.449 30.5257 172.213 30.5686 171.976 30.554ZM172.071 29.9424C172.325 29.9502 172.574 29.8755 172.78 29.7295C172.981 29.5762 173.133 29.3686 173.218 29.1315C173.419 28.5653 173.419 27.9475 173.218 27.3813C173.132 27.1495 172.98 26.9476 172.78 26.8002C172.572 26.6558 172.322 26.5824 172.068 26.5907C171.805 26.5811 171.546 26.6583 171.332 26.8103C171.132 26.9648 170.979 27.1719 170.891 27.4084C170.789 27.6772 170.74 27.9626 170.745 28.2497C170.74 28.5425 170.79 28.8337 170.894 29.1079C170.979 29.3533 171.132 29.5699 171.335 29.7329C171.55 29.8839 171.809 29.9578 172.071 29.9424Z" fill="#1AA1E5"/>
    <path d="M179.057 27.0299L178.429 27.2022C178.386 27.0954 178.328 26.9953 178.256 26.9049C178.173 26.8013 178.068 26.718 177.947 26.6616C177.79 26.594 177.62 26.5617 177.449 26.567C177.209 26.5613 176.973 26.626 176.77 26.7529C176.687 26.8012 176.617 26.8701 176.569 26.953C176.52 27.0358 176.493 27.1298 176.492 27.2259C176.489 27.3026 176.505 27.3789 176.538 27.4483C176.571 27.5176 176.62 27.5781 176.682 27.6246C176.86 27.7449 177.061 27.8288 177.272 27.8712L177.951 28.03C178.287 28.0935 178.599 28.2451 178.857 28.4692C178.957 28.5684 179.035 28.6872 179.086 28.8181C179.138 28.949 179.161 29.0891 179.155 29.2295C179.157 29.4731 179.078 29.7106 178.931 29.9052C178.77 30.1145 178.556 30.2777 178.31 30.3782C178.017 30.4987 177.702 30.5574 177.384 30.5505C176.98 30.5665 176.58 30.4643 176.234 30.2566C176.085 30.1599 175.956 30.034 175.857 29.8864C175.758 29.7389 175.69 29.5729 175.657 29.3984L176.319 29.2362C176.368 29.4532 176.496 29.6445 176.678 29.7734C176.882 29.8981 177.118 29.9604 177.357 29.9525C177.631 29.9665 177.902 29.8957 178.134 29.7498C178.219 29.6981 178.29 29.6263 178.34 29.5409C178.39 29.4554 178.419 29.3589 178.422 29.2599C178.423 29.1872 178.409 29.1151 178.38 29.0483C178.351 28.9814 178.309 28.9212 178.256 28.8713C178.11 28.7503 177.934 28.6699 177.747 28.6382L176.991 28.4659C176.652 28.4056 176.338 28.2509 176.085 28.0199C175.911 27.8271 175.808 27.5807 175.795 27.3218C175.781 27.0629 175.857 26.8072 176.01 26.5974C176.165 26.3971 176.369 26.241 176.604 26.1447C176.874 26.0315 177.165 25.9752 177.459 25.9791C177.834 25.9587 178.206 26.0607 178.517 26.2697C178.772 26.4612 178.961 26.7269 179.057 27.0299Z" fill="#1AA1E5"/>
    <path d="M42.8066 12.1976C42.8066 17.411 42.7387 32.8518 42.7387 32.8518H35.1525L35.2509 12.2719C35.2509 12.2719 34.6639 9.79872 32.9099 8.83916C32.2444 8.46225 31.5017 8.24058 30.7377 8.19083C29.9737 8.14109 29.2084 8.26457 28.4993 8.55197C26.2533 9.38652 25.6086 12.0794 25.6086 12.0794L25.6459 18.0563H30.7351V25.4523H25.6459L25.6222 32.8078L21.0216 32.845H17.069L17.0928 25.4523L11.9493 25.4794V18.0563L17.0758 18.036L17.103 12.0557C17.103 12.0557 16.5872 9.35273 14.3446 8.5148C13.6354 8.22789 12.8701 8.10468 12.1062 8.15442C11.3424 8.20416 10.5997 8.42556 9.93403 8.802C8.14265 9.74466 7.5557 12.2348 7.5557 12.2348L7.65748 32.8146H0.0712482C0.0712482 32.8146 0 17.3738 0 12.1638C0 9.20744 2.60904 5.13946 5.56414 2.64934C9.54047 -0.702355 16.0919 -0.337452 19.617 2.53446C20.8079 3.50754 19.9563 2.77435 21.1166 3.72715C21.1166 3.72715 22.4737 2.76084 22.6705 2.5919C24.7255 0.897386 27.3143 -0.0219438 29.9822 -0.00464301C32.6502 0.0126578 35.2267 0.965483 37.2594 2.68651C40.2009 5.17663 42.8066 9.24461 42.8066 12.1976Z" fill="#1AA1E5"/>
    <path d="M62.1826 0.189453H52.7812L43.5698 13.5523C43.5698 13.5523 46.1415 22.0363 47.597 25.486C49.4732 29.9256 52.3469 32.2907 54.4776 32.8077C56.2588 33.2401 62.1826 32.8077 62.1826 32.8077V25.0907H57.6091C56.0858 25.0907 55.5565 24.7967 54.749 23.5128C53.9415 22.2289 52.1569 15.4275 52.1569 15.4275L62.1826 0.189453Z" fill="#1CC990"/>
  </g>
  <defs>
    <clipPath id="clip0_1430_79304">
      <rect width="180" height="33" fill="white"/>
    </clipPath>
  </defs>
</svg>