<svg width="38" height="38" viewBox="0 0 38 38" fill="none" xmlns="http://www.w3.org/2000/svg">
<path d="M19 0.961914C9.05388 0.961914 0.960632 9.05291 0.960632 19.0002C0.960632 28.9474 9.05388 37.0384 19 37.0384C28.9461 37.0384 37.0394 28.9474 37.0394 19.0002C37.0394 9.05291 28.9461 0.961914 19 0.961914ZM19 35.8369C9.71651 35.8369 2.16438 28.2837 2.16438 19.0002C2.16438 9.71666 9.71651 2.16341 19 2.16341C28.2835 2.16341 35.8356 9.71666 35.8356 19.0002C35.8356 28.2837 28.2835 35.8369 19 35.8369Z" fill="#699BF7"/>
<path d="M22.9375 8.87553H19.936C16.1133 8.83728 15.625 11.2032 15.625 13.7637V15.6255H13.9375C13.8612 15.6153 13.7836 15.6229 13.7108 15.6475C13.6379 15.6722 13.5716 15.7133 13.5172 15.7678C13.4628 15.8222 13.4217 15.8884 13.397 15.9613C13.3724 16.0342 13.3648 16.1118 13.375 16.188V19.563C13.3648 19.6393 13.3724 19.7169 13.397 19.7898C13.4217 19.8627 13.4628 19.9289 13.5172 19.9833C13.5716 20.0377 13.6379 20.0789 13.7108 20.1035C13.7836 20.1282 13.8612 20.1357 13.9375 20.1255H15.625V28.563C15.6156 28.6394 15.6239 28.717 15.649 28.7897C15.6742 28.8625 15.7157 28.9285 15.7703 28.9828C15.8249 29.0371 15.8911 29.0781 15.964 29.1029C16.0369 29.1276 16.1145 29.1354 16.1909 29.1255H19.6278C19.9596 29.1638 20.2285 28.8949 20.1228 28.563L20.125 20.1255H22.9375C23.0138 20.1357 23.0914 20.1282 23.1643 20.1035C23.2372 20.0789 23.3034 20.0377 23.3578 19.9833C23.4122 19.9289 23.4533 19.8627 23.478 19.7898C23.5027 19.7169 23.5102 19.6393 23.5 19.563V16.188C23.5102 16.1118 23.5027 16.0342 23.478 15.9613C23.4533 15.8884 23.4122 15.8222 23.3578 15.7678C23.3034 15.7133 23.2372 15.6722 23.1643 15.6475C23.0914 15.6229 23.0138 15.6153 22.9375 15.6255H20.1216L20.125 13.938C20.2341 13.2192 20.2341 13.3362 20.9013 13.3755H22.9139C23.0703 13.3407 23.2368 13.3598 23.3538 13.2462C23.4708 13.1325 23.5383 12.9773 23.4989 12.813V9.43803C23.5093 9.36182 23.5019 9.28424 23.4774 9.21134C23.4529 9.13844 23.4118 9.07219 23.3575 9.01775C23.3032 8.96331 23.237 8.92215 23.1642 8.89748C23.0913 8.87281 23.0137 8.8653 22.9375 8.87553V8.87553ZM22.3356 12.1875L20.9249 12.1335C19.1778 12.1335 19.0315 13.0819 19.0315 14.0528L19.027 16.1858C19.0269 16.2648 19.0423 16.343 19.0724 16.416C19.1025 16.489 19.1468 16.5554 19.2026 16.6113C19.2584 16.6672 19.3246 16.7116 19.3976 16.7418C19.4706 16.7721 19.5488 16.7877 19.6278 16.7877H22.375V18.9612H19.63C19.4706 18.9612 19.3177 19.0244 19.2048 19.137C19.092 19.2497 19.0284 19.4025 19.0281 19.5619L19.027 28.0005H16.75V19.563C16.75 19.2312 16.5239 18.9623 16.1909 18.9623H14.5V16.7888H16.1909C16.2698 16.7889 16.348 16.7735 16.421 16.7434C16.4939 16.7132 16.5603 16.669 16.6161 16.6133C16.7286 16.4997 16.7489 16.3467 16.7489 16.1869V13.7625C16.7489 11.2403 17.2585 10.0388 19.9349 10.0388H22.3345V12.1875H22.3356Z" fill="#699BF7"/>
</svg>
