<svg width="36" height="36" viewBox="0 0 36 36" fill="none" xmlns="http://www.w3.org/2000/svg">
<path d="M17.9648 0.140625C22.8164 0.140625 23.4141 0.175781 25.3125 0.246094C27.1758 0.316406 28.4766 0.632812 29.6367 1.08984C30.832 1.54688 31.8164 2.14453 32.8008 3.12891C33.7852 4.11328 34.3828 5.09766 34.8398 6.29297C35.2969 7.45312 35.6133 8.75391 35.6836 10.6172C35.7539 12.5156 35.7891 13.1133 35.7891 17.9648C35.7891 22.8164 35.7539 23.4141 35.6836 25.3125C35.6133 27.1758 35.2969 28.4766 34.8398 29.6367C34.3828 30.832 33.7852 31.8164 32.8008 32.8008C31.8164 33.7852 30.832 34.3828 29.6367 34.8398C28.4766 35.2969 27.1758 35.6133 25.3125 35.6836C23.4141 35.7539 22.8164 35.7891 17.9648 35.7891C13.1133 35.7891 12.5156 35.7539 10.6172 35.6836C8.75391 35.6133 7.45312 35.2969 6.29297 34.8398C5.09766 34.3828 4.11328 33.7852 3.12891 32.8008C2.14453 31.8164 1.54688 30.832 1.08984 29.6367C0.632812 28.4766 0.316406 27.1758 0.246094 25.3125C0.175781 23.4141 0.140625 22.8164 0.140625 17.9648C0.140625 13.1133 0.175781 12.5156 0.246094 10.6172C0.316406 8.75391 0.632812 7.45312 1.08984 6.29297C1.54688 5.09766 2.14453 4.11328 3.12891 3.12891C4.11328 2.14453 5.09766 1.54688 6.29297 1.08984C7.45312 0.632812 8.75391 0.316406 10.6172 0.246094C12.5156 0.175781 13.1133 0.140625 17.9648 0.140625ZM17.9648 2.46094C12.9023 2.46094 12.3047 2.49609 10.3359 2.56641C8.50781 2.63672 7.48828 2.98828 6.82031 3.23438C5.09766 3.9375 3.9375 5.09766 3.23438 6.82031C2.98828 7.48828 2.63672 8.50781 2.56641 10.3359C2.49609 12.3047 2.46094 12.9023 2.46094 17.9648C2.46094 23.0273 2.49609 23.625 2.56641 25.5938C2.63672 27.4219 2.98828 28.4414 3.23438 29.1094C3.9375 30.832 5.09766 31.9922 6.82031 32.6953C7.48828 32.9414 8.50781 33.293 10.3359 33.3633C12.3047 33.4336 12.9023 33.4688 17.9648 33.4688C23.0273 33.4688 23.625 33.4336 25.5938 33.3633C27.4219 33.293 28.4414 32.9414 29.1094 32.6953C30.832 31.9922 31.9922 30.832 32.6953 29.1094C32.9414 28.4414 33.293 27.4219 33.3633 25.5938C33.4336 23.625 33.4688 23.0273 33.4688 17.9648C33.4688 12.9023 33.4336 12.3047 33.3633 10.3359C33.293 8.50781 32.9414 7.48828 32.6953 6.82031C31.9922 5.09766 30.832 3.9375 29.1094 3.23438C28.4414 2.98828 27.4219 2.63672 25.5938 2.56641C23.625 2.49609 23.0273 2.46094 17.9648 2.46094ZM17.9648 25.1016C21.9023 25.1016 25.1016 21.9023 25.1016 17.9648C25.1016 14.0273 21.9023 10.8281 17.9648 10.8281C14.0273 10.8281 10.8281 14.0273 10.8281 17.9648C10.8281 21.9023 14.0273 25.1016 17.9648 25.1016ZM17.9648 8.82422C23.0273 8.82422 27.1055 12.9023 27.1055 17.9648C27.1055 23.0273 23.0273 27.1055 17.9648 27.1055C12.9023 27.1055 8.82422 23.0273 8.82422 17.9648C8.82422 12.9023 12.9023 8.82422 17.9648 8.82422ZM29.6367 8.47266C29.6367 9.66797 28.6523 10.582 27.457 10.582C26.2617 10.582 25.3477 9.66797 25.3477 8.47266C25.3477 7.27734 26.2617 6.29297 27.457 6.29297C28.6523 6.29297 29.6367 7.27734 29.6367 8.47266Z" fill="#F24E1E"/>
</svg>
