<svg width="37" height="30" viewBox="0 0 37 30" fill="none" xmlns="http://www.w3.org/2000/svg">
<path d="M36.2982 3.60804C34.9391 4.21016 33.4974 4.60539 32.0212 4.78059C33.5588 3.859 34.7395 2.39963 35.2954 0.6608C33.8337 1.52821 32.2345 2.13935 30.5668 2.46782C29.2084 1.02064 27.2732 0.116211 25.1313 0.116211C21.0187 0.116211 17.6844 3.45038 17.6844 7.56265C17.6844 8.14638 17.7503 8.71464 17.8772 9.2598C11.6884 8.94915 6.20137 5.98461 2.52849 1.47931C1.88763 2.57912 1.52041 3.85843 1.52041 5.22295C1.52041 7.80652 2.83516 10.0857 4.83317 11.4211C3.65063 11.3841 2.4941 11.0647 1.46015 10.4896C1.45972 10.5208 1.45972 10.552 1.45972 10.5833C1.45972 14.1913 4.02656 17.2011 7.43304 17.8852C6.33648 18.1834 5.18625 18.227 4.07023 18.0128C5.01777 20.9712 7.76794 23.124 11.0264 23.1843C8.47784 25.1815 5.26688 26.372 1.77817 26.372C1.17701 26.372 0.584356 26.3367 0.00177002 26.2679C3.29723 28.3808 7.21144 29.6136 11.4167 29.6136C25.114 29.6136 32.6039 18.2666 32.6039 8.42626C32.6039 8.10327 32.5968 7.78214 32.5824 7.46284C34.0402 6.40894 35.2985 5.10359 36.2982 3.60804Z" fill="#55ACEE"/>
</svg>
