<svg width="705" height="447" viewBox="0 0 705 447" fill="none" xmlns="http://www.w3.org/2000/svg">
<path opacity="0.2" d="M210.837 57.8677L210.336 57.7524L51.2422 361.534L612.079 401.02L612.712 401.064L633.261 154.462L633.302 153.978L210.837 57.8677ZM371.948 253.227L53.4495 359.994L210.806 59.5292L371.948 253.227ZM372.882 254.141L609.79 399.699L55.1511 360.652L372.882 254.141ZM373.175 252.795L212.272 59.3805L630.628 154.555L373.175 252.795ZM611.581 399.411L374.293 253.618L631.921 155.312L611.581 399.411Z" fill="#346ACF"/>
<path d="M704.941 159.598C704.434 171.293 700.83 182.702 694.438 192.85C688.045 202.998 679.053 211.584 668.231 217.873C657.409 224.162 645.078 227.969 632.292 228.966C619.506 229.964 606.646 228.124 594.809 223.602C589.258 221.481 583.993 218.783 579.118 215.562C569.801 209.427 562.046 201.529 556.384 192.409V192.401C550.347 182.645 546.872 171.746 546.233 160.56C545.593 149.373 547.807 138.203 552.699 127.928C557.592 117.654 565.03 108.553 574.429 101.343C583.829 94.1322 594.933 89.0077 606.87 86.3718C618.808 83.7359 631.252 83.6604 643.227 86.1514C655.202 88.6423 666.38 93.6317 675.883 100.728C685.387 107.824 692.957 116.833 697.999 127.048C703.041 137.262 705.417 148.404 704.941 159.597L704.941 159.598Z" fill="white"/>
<path opacity="0.09" d="M704.941 159.598C704.434 171.293 700.83 182.702 694.438 192.85C688.045 202.998 679.053 211.584 668.231 217.873C657.409 224.162 645.078 227.969 632.292 228.966C619.506 229.964 606.646 228.124 594.809 223.602C589.258 221.481 583.993 218.783 579.118 215.562C569.801 209.427 562.046 201.529 556.384 192.409V192.401C550.347 182.645 546.872 171.746 546.233 160.56C545.593 149.373 547.807 138.203 552.699 127.928C557.592 117.654 565.03 108.553 574.429 101.343C583.829 94.1322 594.933 89.0077 606.87 86.3718C618.808 83.7359 631.252 83.6604 643.227 86.1514C655.202 88.6423 666.38 93.6317 675.883 100.728C685.387 107.824 692.957 116.833 697.999 127.048C703.041 137.262 705.417 148.404 704.941 159.597L704.941 159.598Z" fill="#346ACF"/>
<path d="M644.346 101.613C644.346 101.613 663.337 101.825 656.789 125.696L655.006 125.775L651.385 125.936" fill="#0C0C0C"/>
<path d="M623.14 150.741C623.228 150.733 623.578 165.622 642.553 164.996C655.69 164.565 660.9 152.056 661.2 152.066C659.8 151.743 657.438 151.259 656.824 150.933C654.805 149.849 652.297 148.707 651.788 145.03C651.495 142.911 652.603 132.163 652.493 130.025L632.213 133.407C632.303 137.916 633.825 148.415 626.855 150.018C625.695 150.283 624.447 150.52 623.14 150.741Z" fill="#BE8C78"/>
<path opacity="0.52" d="M631.397 145.909C631.752 144.995 631.996 144.047 632.124 143.084C632.438 140.888 632.489 138.666 632.274 136.46C636.382 136.101 640.297 134.699 643.575 132.413C643.895 133.681 645.715 139.251 645.092 140.426C643.923 142.648 638.717 146.169 631.397 145.909Z" fill="#0C0C0C"/>
<path d="M636.001 143.279C643.951 142.76 653.542 138.345 653.875 128.52L654.176 119.656C654.509 109.832 649.119 101.709 638.981 101.423C628.839 101.135 620.988 108.886 620.655 118.71L620.523 122.634C620.502 123.983 620.583 125.331 620.764 126.67C621.214 130.21 621.913 135.592 624.469 139.267C626.881 142.737 630.923 143.609 636.001 143.279Z" fill="#BE8C78"/>
<path d="M653.144 131.497C656.226 131.583 658.827 128.647 658.922 125.836C659.017 123.026 656.571 121.404 653.49 121.317L651.837 123.156L650.494 131.422L653.144 131.497Z" fill="#BE8C78"/>
<path d="M621.177 129.636C621.733 130.238 622.447 130.704 623.251 130.991C624.055 131.277 624.925 131.376 625.782 131.277C627.615 131.067 628.831 131.753 630.361 131.615C631.646 131.5 631.868 130.958 634.06 130.84C642.522 130.383 648.872 129.896 649.285 120.212L654.669 115.849C654.669 115.849 657.076 142.687 641.16 146.254C631.38 148.445 622.208 147.644 621.028 139.267C620.07 132.46 621.177 129.636 621.177 129.636Z" fill="#0C0C0C"/>
<path d="M625.186 124.032C625.876 124.032 626.436 123.522 626.436 122.892C626.436 122.263 625.876 121.752 625.186 121.752C624.496 121.752 623.937 122.263 623.937 122.892C623.937 123.522 624.496 124.032 625.186 124.032Z" fill="#0C0C0C"/>
<path d="M636.35 123.82C637.04 123.82 637.6 123.309 637.6 122.68C637.6 122.05 637.04 121.54 636.35 121.54C635.66 121.54 635.101 122.05 635.101 122.68C635.101 123.309 635.66 123.82 636.35 123.82Z" fill="#0C0C0C"/>
<path d="M650.167 126.928C650.167 126.928 649.404 113.007 644.799 112.071C641.731 111.448 634.186 115.307 627.295 113.99C624.28 113.413 621.395 114.047 621.076 115.347C620.95 115.861 618.564 111.3 623.415 105.751C627.276 101.332 639.834 100.089 645.42 101.652C660.888 105.979 654.113 121.941 654.113 121.941L653.324 126.722L650.167 126.928Z" fill="#0C0C0C"/>
<path d="M657.197 115.703C661.75 115.703 665.441 112.336 665.441 108.184C665.441 104.031 661.75 100.665 657.197 100.665C652.644 100.665 648.953 104.031 648.953 108.184C648.953 112.336 652.644 115.703 657.197 115.703Z" fill="#0C0C0C"/>
<g opacity="0.52">
<path d="M630.512 131.168H630.493C629.499 131.142 627.838 130.998 627.857 130.32C627.874 129.759 629.748 123.741 629.962 123.056C629.98 122.997 630.023 122.948 630.082 122.918C630.14 122.888 630.21 122.881 630.274 122.897C630.339 122.914 630.393 122.954 630.426 123.007C630.459 123.061 630.467 123.124 630.448 123.183C629.616 125.848 628.375 129.951 628.362 130.331C628.455 130.494 629.478 130.677 630.506 130.704C630.573 130.704 630.638 130.727 630.686 130.77C630.734 130.813 630.761 130.871 630.762 130.932C630.763 130.993 630.737 131.052 630.69 131.096C630.643 131.14 630.579 131.165 630.512 131.165V131.168Z" fill="#0C0C0C"/>
</g>
<path d="M627.489 119.02C626.463 118.742 625.374 118.722 624.337 118.962C623.826 119.076 623.337 119.26 622.887 119.507C622.44 119.749 622.029 120.042 621.664 120.378C621.6 120.43 621.562 120.503 621.557 120.58C621.552 120.658 621.582 120.734 621.639 120.792C621.695 120.85 621.775 120.885 621.86 120.889C621.945 120.893 622.029 120.867 622.092 120.815L622.112 120.8C622.453 120.519 622.831 120.279 623.238 120.084C623.639 119.891 624.069 119.754 624.514 119.677C625.394 119.521 626.303 119.578 627.15 119.845L627.182 119.856C627.242 119.877 627.305 119.887 627.369 119.886C627.434 119.884 627.497 119.871 627.555 119.847C627.614 119.823 627.666 119.788 627.71 119.745C627.753 119.702 627.787 119.652 627.809 119.597C627.832 119.542 627.841 119.484 627.839 119.426C627.836 119.367 627.82 119.31 627.793 119.257C627.765 119.204 627.727 119.157 627.679 119.118C627.631 119.079 627.575 119.049 627.515 119.029L627.489 119.02Z" fill="#0C0C0C"/>
<path d="M634.852 119.846C635.666 119.505 636.565 119.367 637.457 119.446C637.909 119.482 638.352 119.58 638.771 119.738C639.197 119.895 639.599 120.101 639.968 120.35L639.988 120.362C640.057 120.403 640.14 120.418 640.221 120.405C640.302 120.392 640.374 120.351 640.422 120.29C640.471 120.23 640.492 120.155 640.482 120.08C640.472 120.006 640.431 119.938 640.367 119.891C639.967 119.589 639.527 119.334 639.057 119.132C638.582 118.926 638.076 118.786 637.556 118.717C636.497 118.572 635.416 118.689 634.424 119.056C634.308 119.102 634.216 119.188 634.168 119.295C634.12 119.402 634.121 119.522 634.17 119.629C634.218 119.736 634.311 119.821 634.428 119.866C634.545 119.911 634.677 119.912 634.795 119.869L634.818 119.86L634.852 119.846Z" fill="#0C0C0C"/>
<path d="M685.478 187.917C684.772 192.785 684.082 199.471 683.466 206.383C681.058 208.72 678.484 210.909 675.76 212.936C674.029 214.219 672.242 215.439 670.399 216.595C660.435 222.798 649.055 226.855 637.119 228.457C625.183 230.06 613.004 229.167 601.503 225.845C601.346 219.424 601.132 210.763 600.92 202.828C600.677 193.674 600.431 185.479 600.299 182.786C599.754 172.098 596.648 164.968 598.996 159.137C599.698 157.411 600.827 155.856 602.295 154.592C607.766 149.709 621.355 149.82 626.806 150.013C626.901 150.016 625.217 161.49 643.15 161.351C656.331 161.253 657.32 151.093 657.32 151.093C657.32 151.093 663.816 151.709 668.129 152.392C675.185 153.519 679.772 155.88 683.341 159.404C686.672 162.691 688.636 166.18 685.478 187.917Z" fill="#346ACF"/>
<path d="M580.048 151.144L580.591 138.902C580.603 138.633 580.554 138.364 580.446 138.114C580.338 137.863 580.174 137.635 579.965 137.445C579.755 137.255 579.504 137.107 579.228 137.011C578.953 136.914 578.658 136.871 578.363 136.885C577.819 136.925 577.311 137.147 576.938 137.509C576.564 137.872 576.351 138.347 576.34 138.845L576.224 141.47L572.433 133.063C572.03 132.121 570.874 131.201 569.746 131.684C569.298 131.844 568.924 132.137 568.682 132.516C568.441 132.895 568.348 133.337 568.418 133.771C568.408 133.772 568.397 133.774 568.387 133.777C568.38 133.781 568.373 133.785 568.367 133.79L567.745 132.338C567.629 132.069 567.45 131.827 567.219 131.63C566.988 131.432 566.711 131.284 566.41 131.196C566.108 131.109 565.789 131.083 565.475 131.122C565.162 131.161 564.861 131.264 564.597 131.422C564.185 131.679 563.883 132.057 563.74 132.493C563.598 132.929 563.624 133.396 563.814 133.816L564.078 134.434C564.062 134.449 564.049 134.467 564.04 134.486C563.755 134.107 563.331 133.833 562.845 133.712C562.359 133.591 561.841 133.632 561.385 133.827C560.892 134.055 560.512 134.443 560.32 134.915C560.127 135.387 560.137 135.908 560.347 136.374L561.004 137.908C560.978 137.893 560.949 137.883 560.918 137.88C560.887 137.876 560.855 137.88 560.826 137.89C560.792 137.904 560.763 137.926 560.743 137.955C560.386 137.681 559.94 137.521 559.475 137.501C559.009 137.481 558.549 137.601 558.165 137.842C557.768 138.103 557.479 138.479 557.345 138.909C557.211 139.339 557.24 139.797 557.427 140.21L562.975 153.158C563.751 154.969 565.102 156.528 566.856 157.634C568.61 158.74 570.686 159.344 572.818 159.367C574.656 159.386 576.431 158.752 577.765 157.597C579.098 156.443 579.886 154.86 579.961 153.184L580.048 151.144Z" fill="#BE8C78"/>
<g opacity="0.2">
<path d="M572.124 142.11C572.076 142.127 572.022 142.126 571.975 142.107C571.928 142.089 571.89 142.054 571.871 142.011L568.278 134.011C568.267 133.988 568.261 133.965 568.26 133.94C568.259 133.916 568.264 133.892 568.273 133.869C568.283 133.846 568.298 133.826 568.316 133.808C568.335 133.791 568.357 133.777 568.382 133.768C568.407 133.759 568.433 133.754 568.46 133.755C568.486 133.755 568.513 133.761 568.537 133.771C568.561 133.781 568.583 133.795 568.601 133.813C568.619 133.831 568.633 133.852 568.642 133.875L572.234 141.875C572.244 141.897 572.249 141.92 572.249 141.944C572.249 141.967 572.244 141.991 572.234 142.012C572.224 142.034 572.209 142.054 572.191 142.07C572.172 142.087 572.151 142.1 572.127 142.109L572.124 142.11Z" fill="#0C0C0C"/>
</g>
<g opacity="0.2">
<path d="M568.299 143.653C568.251 143.67 568.197 143.669 568.15 143.65C568.102 143.632 568.065 143.597 568.046 143.553L564.037 134.625C564.018 134.581 564.019 134.532 564.039 134.489C564.059 134.446 564.097 134.412 564.144 134.394C564.192 134.378 564.245 134.38 564.292 134.398C564.339 134.416 564.376 134.449 564.397 134.492L568.406 143.42C568.426 143.464 568.425 143.513 568.405 143.557C568.385 143.601 568.347 143.635 568.299 143.653V143.653Z" fill="#0C0C0C"/>
</g>
<g opacity="0.2">
<path d="M564.166 145.345C564.118 145.362 564.065 145.361 564.018 145.342C563.97 145.324 563.933 145.289 563.914 145.245L560.716 138.123C560.696 138.08 560.696 138.03 560.716 137.987C560.736 137.943 560.775 137.908 560.823 137.89C560.871 137.872 560.925 137.873 560.973 137.891C561.021 137.909 561.059 137.944 561.079 137.988L564.278 145.108C564.298 145.152 564.298 145.201 564.278 145.245C564.257 145.289 564.219 145.323 564.171 145.341L564.166 145.345Z" fill="#0C0C0C"/>
</g>
<path d="M624.481 170.337L591.814 216.145C590.625 217.81 589.034 219.204 587.162 220.22C584.378 218.82 581.692 217.265 579.118 215.563C573.631 211.952 568.673 207.717 564.364 202.959L557.503 154.438L584.963 150.425L588.094 173.78L600.64 156.189L624.481 170.337Z" fill="#346ACF"/>
<path d="M628.311 133.667C631.307 133.848 634.284 133.114 636.772 131.579C636.858 131.526 636.959 131.497 637.063 131.495C637.167 131.492 637.269 131.517 637.359 131.566C637.448 131.615 637.52 131.686 637.566 131.77C637.613 131.855 637.632 131.95 637.621 132.045C637.421 133.659 636.547 136.628 632.833 137.006C630.436 137.25 628.698 135.57 627.823 134.454C627.762 134.376 627.727 134.285 627.721 134.19C627.716 134.095 627.74 134.001 627.792 133.918C627.843 133.836 627.919 133.768 628.011 133.724C628.103 133.679 628.207 133.659 628.311 133.667Z" fill="white"/>
<path d="M694.337 193.066C689.51 200.657 683.216 207.388 675.761 212.936C674.03 214.219 672.242 215.439 670.4 216.595L657.641 172.324L686.375 165.431L694.337 193.066Z" fill="#346ACF"/>
<path d="M670.679 216.422C670.588 216.476 670.489 216.537 670.4 216.595C670.31 216.652 670.218 216.71 670.127 216.764L660.402 183.038L661.016 182.892L670.679 216.422Z" fill="#0C0C0C"/>
<path d="M600.998 204.913C600.918 204.91 600.844 204.88 600.787 204.829C600.731 204.778 600.698 204.71 600.695 204.638L600.068 192.07C600.064 191.994 600.094 191.919 600.15 191.862C600.207 191.806 600.286 191.772 600.37 191.769C600.453 191.765 600.535 191.792 600.597 191.844C600.659 191.896 600.696 191.968 600.7 192.044L601.326 204.612C601.33 204.688 601.3 204.763 601.244 204.819C601.188 204.876 601.109 204.909 601.025 204.913H600.998Z" fill="#0C0C0C"/>
<path d="M364.673 321.211C409.398 321.211 445.655 288.143 445.655 247.352C445.655 206.56 409.398 173.492 364.673 173.492C319.948 173.492 283.691 206.56 283.691 247.352C283.691 288.143 319.948 321.211 364.673 321.211Z" fill="white"/>
<path opacity="0.09" d="M445.657 247.35C445.657 261.957 440.907 276.237 432.009 288.383C423.111 300.529 410.463 309.996 395.666 315.586C380.869 321.176 364.586 322.639 348.877 319.789C333.169 316.939 318.739 309.905 307.414 299.575C296.089 289.246 288.376 276.086 285.251 261.759C282.127 247.431 283.73 232.581 289.86 219.085C295.989 205.589 306.368 194.054 319.686 185.939C333.003 177.823 348.659 173.491 364.676 173.491C375.321 173.455 385.87 175.341 395.712 179.04C405.555 182.739 414.498 188.178 422.026 195.044C429.553 201.909 435.517 210.066 439.572 219.043C443.628 228.02 445.696 237.64 445.657 247.35Z" fill="#346ACF"/>
<path d="M328.826 203.788C328.826 203.788 328.012 214.937 325.261 218.983C317.343 230.628 315.049 243.729 322.978 250.575C330.907 257.422 381.483 257.515 385.314 241.772C388.537 228.518 381.617 227.093 379.933 216.16C379.171 211.213 377.074 200.839 377.074 200.839" fill="#0A0A0A" fill-opacity="0.9"/>
<path d="M372.222 239.462C372.135 239.451 371.167 254.113 352.492 252.837C339.564 251.954 334.955 239.443 334.658 239.443C336.052 239.173 338.399 238.78 339.02 238.479C341.055 237.481 343.574 236.444 344.23 232.838C344.609 230.762 343.967 220.128 344.167 218.025L364.011 222.065C363.734 226.504 361.793 236.801 368.595 238.622C369.724 238.922 370.943 239.199 372.222 239.462Z" fill="#BE8C78"/>
<path opacity="0.5" d="M364.286 234.413C363.975 233.5 363.775 232.557 363.689 231.604C363.471 229.428 363.514 227.237 363.818 225.07C359.785 224.574 355.985 223.056 352.851 220.689C352.482 221.93 350.456 227.353 351.018 228.534C352.08 230.762 357.061 234.413 364.286 234.413Z" fill="#0C0C0C"/>
<path d="M361.72 229.846C353.896 230.538 343.773 227.682 341.676 218.179L339.783 209.605C337.687 200.102 341.459 191.394 351.269 189.593C361.079 187.792 370.112 194.148 372.208 203.653L373.047 207.449C373.851 211.095 375.679 228.614 361.72 229.846Z" fill="#BE8C78"/>
<path opacity="0.1" d="M356.747 217.395C358.034 217.255 358.987 216.443 358.874 215.582C358.761 214.72 357.626 214.136 356.339 214.276C355.051 214.416 354.099 215.228 354.212 216.089C354.325 216.951 355.46 217.536 356.747 217.395Z" fill="#0C0C0C"/>
<path opacity="0.1" d="M370.353 213.95C370.468 214.809 371.603 215.391 372.89 215.255C373.113 215.231 373.332 215.185 373.545 215.12C373.604 214.094 373.608 213.107 373.575 212.194C373.217 212.113 372.846 212.093 372.481 212.137C371.193 212.274 370.241 213.086 370.353 213.95Z" fill="#0C0C0C"/>
<path opacity="0.5" d="M364.662 216.608H364.681C365.079 216.532 365.471 216.436 365.857 216.32C366.433 216.147 367.184 215.856 367.082 215.381C366.962 214.839 364.048 209.296 363.715 208.665C363.684 208.613 363.632 208.574 363.57 208.556C363.509 208.538 363.442 208.543 363.384 208.568C363.325 208.594 363.28 208.639 363.257 208.694C363.234 208.749 363.235 208.81 363.26 208.864C364.503 211.228 366.506 215.107 366.586 215.471C366.523 215.641 365.568 215.973 364.581 216.155C364.519 216.168 364.464 216.202 364.428 216.251C364.392 216.3 364.378 216.359 364.388 216.417C364.399 216.475 364.433 216.527 364.484 216.562C364.534 216.598 364.598 216.615 364.662 216.609V216.608Z" fill="#0C0C0C"/>
<path d="M331.957 212.682L340.752 211.115C347.396 208.579 349.281 198.022 349.281 198.022C349.281 198.022 357.48 205.143 377.075 200.837C377.075 200.837 372.818 175.888 343.884 183.461C334.555 185.902 327.946 194.576 328.929 206.064C329.617 214.116 331.957 212.682 331.957 212.682Z" fill="#0A0A0A" fill-opacity="0.9"/>
<path d="M342.925 220.962C339.944 221.51 336.885 219.044 336.288 216.325C335.691 213.606 337.773 211.663 340.755 211.116L342.693 212.656L345.491 220.492L342.925 220.962Z" fill="#BE8C78"/>
<path d="M365.83 204.244C366.576 203.762 367.449 203.47 368.359 203.397C368.816 203.357 369.277 203.38 369.726 203.465C370.179 203.549 370.619 203.685 371.036 203.869L371.049 203.874C371.095 203.891 371.146 203.891 371.192 203.875C371.238 203.858 371.276 203.826 371.297 203.785C371.318 203.745 371.321 203.698 371.305 203.655C371.29 203.612 371.257 203.576 371.213 203.555C370.772 203.343 370.304 203.182 369.818 203.077C369.33 202.968 368.826 202.927 368.325 202.955C367.309 203.007 366.327 203.305 365.48 203.82C365.447 203.839 365.419 203.864 365.397 203.893C365.375 203.923 365.359 203.955 365.352 203.99C365.344 204.025 365.344 204.061 365.351 204.096C365.359 204.13 365.374 204.163 365.396 204.193C365.418 204.222 365.446 204.247 365.479 204.266C365.512 204.285 365.548 204.298 365.587 204.304C365.625 204.31 365.664 204.309 365.702 204.301C365.74 204.293 365.776 204.278 365.807 204.257L365.813 204.253L365.83 204.244Z" fill="#0C0C0C"/>
<path d="M357.796 205.256C356.797 205.075 355.764 205.142 354.803 205.449C354.328 205.599 353.88 205.813 353.475 206.084C353.072 206.351 352.706 206.663 352.388 207.013C352.355 207.048 352.339 207.093 352.342 207.138C352.345 207.184 352.368 207.227 352.405 207.257C352.442 207.288 352.491 207.305 352.541 207.303C352.591 207.302 352.638 207.283 352.673 207.25L352.683 207.241C352.99 206.925 353.34 206.646 353.723 206.41C354.103 206.174 354.519 205.991 354.958 205.869C355.83 205.619 356.758 205.585 357.649 205.769L357.671 205.773C357.709 205.782 357.748 205.785 357.786 205.78C357.824 205.775 357.861 205.763 357.894 205.745C357.927 205.727 357.956 205.703 357.979 205.675C358.002 205.646 358.019 205.614 358.028 205.58C358.037 205.546 358.038 205.51 358.032 205.475C358.026 205.441 358.012 205.407 357.992 205.377C357.971 205.348 357.944 205.322 357.913 205.301C357.881 205.281 357.846 205.267 357.808 205.259L357.796 205.256Z" fill="#0C0C0C"/>
<path d="M340.758 210.984C346.67 208.977 348.631 205.253 349.236 202.482C349.627 200.634 349.59 198.732 349.129 196.897L348.945 196.944C349.4 198.754 349.436 200.631 349.048 202.455C348.452 205.18 346.52 208.844 340.691 210.822L340.758 210.984Z" fill="#0C0C0C"/>
<path d="M415.506 236.542L419.045 225.588C419.123 225.348 419.255 225.124 419.433 224.933C419.61 224.741 419.829 224.585 420.077 224.475C420.324 224.365 420.593 224.303 420.868 224.293C421.143 224.283 421.417 224.326 421.673 224.418C422.14 224.601 422.515 224.936 422.726 225.357C422.938 225.779 422.97 226.257 422.817 226.699L422.058 229.047L428.16 222.661C428.825 221.939 430.146 221.442 430.983 222.176C431.326 222.439 431.56 222.8 431.649 223.201C431.738 223.601 431.675 224.017 431.471 224.38C431.48 224.384 431.488 224.389 431.496 224.395C431.501 224.4 431.506 224.405 431.51 224.412L432.535 223.299C432.725 223.094 432.963 222.929 433.232 222.818C433.5 222.707 433.793 222.651 434.088 222.656C434.382 222.661 434.672 222.726 434.936 222.846C435.2 222.966 435.432 223.138 435.613 223.35C435.892 223.689 436.035 224.105 436.018 224.528C436.001 224.952 435.825 225.357 435.519 225.676L435.083 226.15C435.093 226.168 435.098 226.187 435.1 226.207C435.476 225.95 435.94 225.824 436.409 225.85C436.878 225.876 437.321 226.054 437.66 226.351C438.021 226.686 438.229 227.132 438.244 227.601C438.259 228.071 438.08 228.527 437.742 228.881L436.658 230.056C436.686 230.049 436.715 230.049 436.744 230.054C436.772 230.06 436.799 230.071 436.821 230.088C436.847 230.11 436.865 230.138 436.874 230.169C437.279 230.025 437.725 230.006 438.142 230.116C438.56 230.226 438.927 230.458 439.185 230.777C439.45 231.116 439.582 231.526 439.559 231.942C439.536 232.358 439.36 232.754 439.059 233.067L429.916 242.983C428.637 244.37 426.933 245.377 425.023 245.875C423.112 246.372 421.082 246.338 419.193 245.777C417.564 245.293 416.206 244.249 415.407 242.866C414.609 241.484 414.434 239.872 414.918 238.373L415.506 236.542Z" fill="#BE8C78"/>
<g opacity="0.2">
<path d="M425.463 230.732C425.499 230.759 425.546 230.772 425.593 230.769C425.64 230.765 425.684 230.745 425.716 230.713L431.509 224.632C431.541 224.599 431.557 224.555 431.554 224.511C431.55 224.467 431.528 224.426 431.491 224.397C431.454 224.368 431.407 224.354 431.358 224.357C431.31 224.36 431.265 224.381 431.233 224.414L425.439 230.494C425.424 230.51 425.412 230.53 425.404 230.55C425.396 230.571 425.393 230.593 425.395 230.615C425.397 230.637 425.403 230.658 425.414 230.678C425.425 230.697 425.439 230.715 425.458 230.729L425.463 230.732Z" fill="#0C0C0C"/>
</g>
<g opacity="0.2">
<path d="M428.332 233.136C428.369 233.163 428.416 233.176 428.463 233.173C428.51 233.169 428.554 233.149 428.585 233.117L435.051 226.331C435.067 226.315 435.079 226.295 435.086 226.275C435.094 226.254 435.097 226.232 435.095 226.21C435.094 226.188 435.087 226.167 435.076 226.147C435.066 226.128 435.051 226.11 435.033 226.096C434.995 226.069 434.948 226.055 434.9 226.058C434.852 226.061 434.807 226.081 434.775 226.113L428.313 232.898C428.298 232.915 428.286 232.934 428.278 232.955C428.27 232.976 428.267 232.997 428.269 233.019C428.271 233.041 428.277 233.062 428.288 233.082C428.299 233.102 428.314 233.119 428.332 233.133L428.332 233.136Z" fill="#0C0C0C"/>
</g>
<g opacity="0.2">
<path d="M431.424 235.757C431.46 235.784 431.507 235.797 431.554 235.794C431.601 235.79 431.645 235.77 431.676 235.738L436.834 230.325C436.863 230.292 436.877 230.249 436.872 230.207C436.868 230.164 436.845 230.125 436.81 230.097C436.775 230.069 436.729 230.054 436.682 230.056C436.635 230.058 436.591 230.076 436.558 230.106L431.4 235.519C431.385 235.536 431.372 235.555 431.365 235.576C431.357 235.596 431.354 235.618 431.356 235.64C431.358 235.662 431.364 235.683 431.375 235.703C431.386 235.723 431.4 235.74 431.419 235.754L431.424 235.757Z" fill="#0C0C0C"/>
</g>
<path d="M437.049 241.324L423.364 297.948C423.332 298.075 423.301 298.208 423.263 298.335C420.189 301.268 416.86 303.969 413.307 306.411C412.593 306.896 411.878 307.374 411.145 307.835C410.692 307.881 410.236 307.905 409.78 307.905C407.341 307.904 404.945 307.318 402.832 306.206C400.72 305.094 398.965 303.495 397.745 301.569L371.664 260.409L395.747 247.721L403.908 260.6L409.887 235.862L437.049 241.324Z" fill="#11AB80"/>
<path d="M394.931 267.14C394.849 268.038 394.684 269.642 394.457 271.752C393.319 282.538 390.658 306.579 389.425 317.688C373.854 322.228 357.143 322.383 341.474 318.132H341.467C329.896 314.973 319.247 309.488 310.305 302.082C310.355 292.149 310.197 280.976 309.464 273.793C307.271 252.329 309.344 248.968 312.751 245.861C313.029 245.607 313.32 245.359 313.611 245.117C317.132 242.2 321.55 240.297 327.991 239.501C332.251 238.977 338.661 238.597 338.661 238.597C338.661 238.597 339.205 248.616 352.144 249.169C369.76 249.925 368.585 238.597 368.673 238.597C373.104 238.597 382.965 238.85 389.185 241.739C389.191 241.739 389.191 241.739 389.198 241.744C390.45 242.3 391.589 243.047 392.567 243.952C399.691 250.836 396.176 253.78 394.931 267.14Z" fill="#11AB80"/>
<path d="M367.287 218.481C364.745 219.659 361.844 220.032 359.044 219.54C358.947 219.524 358.847 219.532 358.755 219.566C358.663 219.599 358.584 219.655 358.526 219.728C358.468 219.801 358.435 219.888 358.429 219.977C358.423 220.067 358.445 220.157 358.493 220.236C359.329 221.577 361.308 223.871 364.705 222.937C366.898 222.333 367.728 220.275 368.035 219.001C368.056 218.913 368.05 218.821 368.015 218.737C367.981 218.652 367.922 218.578 367.843 218.523C367.764 218.469 367.67 218.435 367.572 218.428C367.473 218.42 367.374 218.439 367.287 218.481Z" fill="white"/>
<path d="M367.445 208.17C368.123 208.17 368.673 207.668 368.673 207.049C368.673 206.431 368.123 205.929 367.445 205.929C366.767 205.929 366.217 206.431 366.217 207.049C366.217 207.668 366.767 208.17 367.445 208.17Z" fill="#0C0C0C"/>
<path d="M355.642 210.054C356.321 210.054 356.87 209.553 356.87 208.934C356.87 208.315 356.321 207.814 355.642 207.814C354.964 207.814 354.414 208.315 354.414 208.934C354.414 209.553 354.964 210.054 355.642 210.054Z" fill="#0C0C0C"/>
<path d="M392.215 291.321C392.207 291.322 392.199 291.322 392.191 291.321C392.141 291.315 392.096 291.291 392.066 291.254C392.035 291.218 392.022 291.171 392.029 291.126L394.2 271.174C394.203 271.151 394.211 271.129 394.224 271.109C394.236 271.089 394.253 271.072 394.273 271.058C394.293 271.044 394.316 271.034 394.34 271.029C394.365 271.023 394.39 271.022 394.415 271.026C394.464 271.032 394.509 271.056 394.54 271.093C394.57 271.13 394.583 271.176 394.577 271.221L392.405 291.173C392.398 291.215 392.375 291.253 392.34 291.28C392.306 291.307 392.261 291.322 392.215 291.321Z" fill="#0C0C0C"/>
<path d="M379.073 290.36L390.941 285.526C391.202 285.42 391.484 285.365 391.769 285.364C392.054 285.363 392.336 285.416 392.598 285.52C392.86 285.624 393.095 285.776 393.288 285.967C393.482 286.158 393.63 286.384 393.722 286.63C393.878 287.089 393.842 287.585 393.62 288.021C393.398 288.457 393.007 288.803 392.521 288.991L389.977 290.029L399.62 290.119C400.694 290.112 402.013 290.729 401.942 291.827C401.945 292.251 401.791 292.663 401.504 292.997C401.217 293.33 400.814 293.565 400.362 293.663C400.365 293.672 400.366 293.682 400.366 293.691C400.365 293.698 400.364 293.705 400.362 293.712L402.016 293.702C402.322 293.7 402.624 293.761 402.901 293.879C403.178 293.997 403.423 294.17 403.618 294.386C403.812 294.601 403.952 294.853 404.026 295.124C404.1 295.395 404.107 295.677 404.047 295.95C403.941 296.38 403.677 296.763 403.298 297.035C402.92 297.308 402.45 297.454 401.968 297.449L401.265 297.454C401.255 297.473 401.243 297.49 401.227 297.504C401.703 297.602 402.125 297.851 402.419 298.206C402.713 298.562 402.858 299.001 402.829 299.445C402.782 299.931 402.535 300.382 402.139 300.709C401.743 301.036 401.227 301.214 400.693 301.209L398.945 301.22C398.97 301.236 398.99 301.257 399.004 301.281C399.018 301.306 399.026 301.333 399.026 301.36C399.025 301.393 399.013 301.425 398.993 301.452C399.391 301.646 399.708 301.955 399.895 302.33C400.082 302.705 400.129 303.125 400.028 303.527C399.913 303.946 399.646 304.318 399.271 304.582C398.896 304.846 398.434 304.987 397.96 304.981L383.214 305.077C381.151 305.091 379.13 304.542 377.412 303.501C375.693 302.46 374.354 300.975 373.567 299.236C372.887 297.736 372.876 296.054 373.535 294.547C374.194 293.04 375.472 291.827 377.096 291.165L379.073 290.36Z" fill="#BE8C78"/>
<g opacity="0.2">
<path d="M390.816 293.616C390.816 293.662 390.836 293.706 390.872 293.738C390.907 293.771 390.956 293.789 391.006 293.789L400.177 293.864C400.227 293.865 400.275 293.847 400.311 293.815C400.347 293.783 400.367 293.739 400.368 293.693C400.368 293.647 400.349 293.603 400.313 293.57C400.278 293.538 400.23 293.519 400.18 293.519L391.008 293.443C390.958 293.443 390.909 293.462 390.874 293.494C390.838 293.526 390.818 293.57 390.818 293.616H390.816Z" fill="#0C0C0C"/>
</g>
<g opacity="0.2">
<path d="M390.669 297.306C390.669 297.351 390.689 297.395 390.724 297.428C390.76 297.46 390.808 297.478 390.858 297.478L401.092 297.563C401.142 297.563 401.191 297.544 401.226 297.512C401.262 297.479 401.282 297.436 401.282 297.39C401.28 297.344 401.26 297.301 401.224 297.269C401.189 297.237 401.142 297.218 401.092 297.217L390.858 297.133C390.807 297.133 390.759 297.151 390.723 297.183C390.688 297.216 390.668 297.26 390.668 297.306H390.669Z" fill="#0C0C0C"/>
</g>
<g opacity="0.2">
<path d="M390.482 301.297C390.482 301.343 390.502 301.387 390.538 301.419C390.574 301.451 390.622 301.47 390.672 301.47L398.836 301.537C398.886 301.537 398.934 301.519 398.97 301.486C399.005 301.454 399.025 301.41 399.025 301.364C399.025 301.318 399.005 301.274 398.97 301.242C398.934 301.21 398.886 301.191 398.836 301.191L390.672 301.125C390.622 301.125 390.574 301.143 390.538 301.175C390.502 301.208 390.482 301.252 390.482 301.297V301.297Z" fill="#0C0C0C"/>
</g>
<path d="M382.472 309.634L341.474 318.132H341.468C329.896 314.973 319.247 309.488 310.305 302.082C309.344 301.286 308.405 300.471 307.486 299.637C305.885 298.179 304.353 296.663 302.891 295.089L308.63 252.98C309.256 249.586 311.335 246.558 314.41 244.561C317.484 242.565 321.302 241.764 325.024 242.335C328.745 242.906 332.066 244.802 334.255 247.606C336.444 250.41 337.322 253.893 336.696 257.287L333.067 296.824L378.781 287.386L382.472 309.634Z" fill="#11AB80"/>
<path d="M323.82 298.377C323.795 298.379 323.77 298.376 323.746 298.369C323.722 298.362 323.7 298.351 323.681 298.336C323.662 298.321 323.647 298.303 323.636 298.282C323.624 298.262 323.618 298.24 323.616 298.217C323.614 298.195 323.617 298.172 323.625 298.15C323.633 298.128 323.645 298.108 323.661 298.091C323.678 298.074 323.697 298.06 323.72 298.049C323.742 298.039 323.766 298.033 323.791 298.031L332.957 296.244C332.981 296.241 333.006 296.242 333.031 296.247C333.055 296.253 333.078 296.262 333.098 296.276C333.118 296.289 333.135 296.306 333.148 296.326C333.161 296.345 333.169 296.367 333.173 296.389C333.177 296.412 333.175 296.435 333.169 296.457C333.163 296.479 333.152 296.5 333.138 296.518C333.123 296.536 333.104 296.552 333.083 296.563C333.061 296.575 333.038 296.583 333.013 296.586L323.844 298.373C323.836 298.375 323.828 298.377 323.82 298.377Z" fill="#0C0C0C"/>
<path d="M382.472 309.634C382.482 309.678 382.474 309.724 382.448 309.763C382.422 309.802 382.381 309.83 382.333 309.841L342.504 318.403C342.251 318.339 342.005 318.276 341.758 318.206L382.055 309.553L378.464 287.646L333.023 296.587C332.993 296.591 332.963 296.589 332.935 296.582C332.906 296.574 332.88 296.56 332.858 296.541C332.839 296.521 332.825 296.497 332.817 296.471C332.808 296.445 332.805 296.418 332.808 296.392L335.355 273.798C335.36 273.776 335.369 273.754 335.382 273.735C335.396 273.716 335.414 273.7 335.434 273.687C335.455 273.674 335.478 273.665 335.502 273.66C335.527 273.655 335.552 273.655 335.576 273.659C335.626 273.666 335.67 273.691 335.7 273.728C335.729 273.765 335.742 273.811 335.734 273.856L333.225 296.219L378.547 287.26C378.571 287.253 378.597 287.252 378.622 287.256C378.647 287.26 378.671 287.269 378.692 287.283C378.714 287.293 378.733 287.308 378.748 287.326C378.763 287.344 378.774 287.364 378.781 287.386L382.472 309.634Z" fill="#0C0C0C"/>
<path d="M74.2557 406.31C115.266 406.31 148.511 375.989 148.511 338.586C148.511 301.182 115.266 270.861 74.2557 270.861C33.2454 270.861 0 301.182 0 338.586C0 375.989 33.2454 406.31 74.2557 406.31Z" fill="white"/>
<path opacity="0.09" d="M74.2557 406.31C115.266 406.31 148.511 375.989 148.511 338.586C148.511 301.182 115.266 270.861 74.2557 270.861C33.2454 270.861 0 301.182 0 338.586C0 375.989 33.2454 406.31 74.2557 406.31Z" fill="#346ACF"/>
<path d="M53.8066 300.172C53.8066 300.172 54.6113 320.57 69.5384 321.507L72.0668 294.609L53.8066 300.172Z" fill="#0A0A0A" fill-opacity="0.9"/>
<path d="M56.681 325.674C61.5649 325.674 65.5241 322.063 65.5241 317.608C65.5241 313.154 61.5649 309.543 56.681 309.543C51.7971 309.543 47.8379 313.154 47.8379 317.608C47.8379 322.063 51.7971 325.674 56.681 325.674Z" fill="#0A0A0A" fill-opacity="0.9"/>
<path d="M91.2816 330.974C91.2026 330.964 90.329 344.19 73.4822 343.037C61.8193 342.242 57.6613 330.956 57.3945 330.956C58.7273 330.755 60.042 330.464 61.3281 330.087C63.1644 329.187 65.4368 328.25 66.0284 324.998C66.3698 323.123 65.7914 313.531 65.969 311.635L83.8714 315.279C83.6186 319.285 81.8702 328.572 88.0066 330.216C89.0269 330.488 90.1267 330.738 91.2816 330.974Z" fill="#BE8C78"/>
<path opacity="0.5" d="M84.1226 326.42C83.842 325.595 83.6614 324.744 83.5841 323.883C83.3875 321.92 83.4267 319.944 83.701 317.989C80.0624 317.541 76.6345 316.172 73.8067 314.036C73.4742 315.155 71.6462 320.048 72.1525 321.112C73.1095 323.127 77.6056 326.42 84.1226 326.42Z" fill="#0C0C0C"/>
<path d="M81.3179 322.856C74.2276 322.938 65.3637 319.675 64.2651 310.989L63.2739 303.148C62.1747 294.461 66.2865 286.89 75.2548 285.949C84.2225 285.006 91.8159 291.342 92.9151 300.03L93.3538 303.5C93.7754 306.835 93.9689 322.71 81.3179 322.856Z" fill="#BE8C78"/>
<path d="M90.7837 303.267C91.3978 303.267 91.8956 302.813 91.8956 302.253C91.8956 301.693 91.3978 301.239 90.7837 301.239C90.1697 301.239 89.6719 301.693 89.6719 302.253C89.6719 302.813 90.1697 303.267 90.7837 303.267Z" fill="#0C0C0C"/>
<path d="M79.4185 304.452C80.0326 304.452 80.5304 303.998 80.5304 303.438C80.5304 302.878 80.0326 302.424 79.4185 302.424C78.8044 302.424 78.3066 302.878 78.3066 303.438C78.3066 303.998 78.8044 304.452 79.4185 304.452Z" fill="#0C0C0C"/>
<path opacity="0.5" d="M85.0583 311.159H85.076C85.4393 311.118 85.7999 311.059 86.1562 310.982C86.6885 310.864 87.3901 310.656 87.3351 310.222C87.2719 309.727 85.1107 304.543 84.8642 303.953C84.8536 303.928 84.8375 303.905 84.8169 303.885C84.7964 303.865 84.7718 303.849 84.7445 303.838C84.7172 303.827 84.6878 303.821 84.6579 303.82C84.628 303.819 84.5982 303.824 84.5703 303.833C84.5424 303.843 84.5168 303.858 84.4951 303.877C84.4733 303.895 84.4559 303.918 84.4437 303.943C84.4315 303.968 84.4248 303.994 84.4239 304.022C84.4231 304.049 84.4281 304.076 84.4388 304.102C85.361 306.309 86.8408 309.936 86.8825 310.27C86.3136 310.562 85.676 310.726 85.0235 310.746C84.9633 310.751 84.9074 310.776 84.8681 310.818C84.8288 310.86 84.8094 310.914 84.814 310.969C84.8186 311.024 84.8469 311.075 84.8927 311.111C84.9385 311.147 84.9981 311.165 85.0583 311.16V311.159Z" fill="#0C0C0C"/>
<path opacity="0.5" d="M83.4554 314.774C84.9119 314.698 86.3286 314.311 87.5912 313.645C87.641 313.617 87.6769 313.572 87.6917 313.52C87.7065 313.469 87.6989 313.414 87.6706 313.367C87.6422 313.32 87.5953 313.285 87.5395 313.269C87.4837 313.253 87.4232 313.257 87.3706 313.281C84.6437 314.657 82.0357 314.737 79.8296 313.512C79.7851 313.486 79.7391 313.462 79.6918 313.44C79.6372 313.421 79.5764 313.421 79.5222 313.442C79.4679 313.462 79.4244 313.501 79.4005 313.549C79.3767 313.598 79.3744 313.654 79.3942 313.704C79.4139 313.754 79.4542 313.796 79.5066 313.82C79.5237 313.828 79.5528 313.844 79.5926 313.867C80.7524 314.513 82.0975 314.829 83.4554 314.774Z" fill="#0C0C0C"/>
<path d="M55.9824 305.377L64.0184 304.574C70.1997 302.753 72.7679 293.39 72.7679 293.39C72.7679 293.39 78.307 299.135 94.7215 296.511C94.7215 296.511 94.0856 277.211 69.1213 279.928C60.4293 280.875 53.875 288.825 53.8074 299.22C53.7606 306.505 55.9824 305.377 55.9824 305.377Z" fill="#0A0A0A" fill-opacity="0.9"/>
<path d="M65.1563 313.577C62.4307 313.865 59.8852 311.437 59.5711 308.951C59.2569 306.465 61.2923 304.862 64.0179 304.576L65.633 306.093L67.4996 313.33L65.1563 313.577Z" fill="#BE8C78"/>
<path d="M86.8515 299.722C87.6554 299.317 88.5639 299.115 89.4823 299.139C89.9358 299.148 90.3852 299.22 90.8154 299.351C91.2428 299.479 91.6508 299.655 92.0297 299.876C92.0676 299.898 92.0947 299.933 92.1055 299.973C92.1162 300.012 92.1097 300.054 92.0873 300.09C92.0649 300.125 92.0283 300.152 91.9852 300.163C91.9421 300.175 91.8957 300.171 91.8558 300.152L91.8445 300.146C91.4855 299.952 91.1011 299.799 90.7004 299.693C90.3034 299.585 89.8908 299.532 89.4766 299.537C88.6524 299.54 87.8439 299.743 87.1334 300.124L87.1163 300.133C87.087 300.151 87.054 300.163 87.0195 300.169C86.9849 300.174 86.9494 300.174 86.9151 300.167C86.8809 300.16 86.8485 300.146 86.8199 300.128C86.7914 300.109 86.7673 300.085 86.749 300.058C86.7308 300.031 86.7188 300 86.7137 299.969C86.7086 299.937 86.7106 299.905 86.7195 299.874C86.7284 299.843 86.7441 299.814 86.7655 299.788C86.787 299.763 86.8139 299.742 86.8445 299.726L86.8515 299.722Z" fill="#0C0C0C"/>
<path d="M79.6477 300.931C78.8619 300.704 78.0241 300.671 77.2198 300.836C76.8147 300.917 76.4254 301.053 76.0649 301.24C75.7007 301.425 75.3635 301.652 75.0612 301.915L75.0517 301.923C75.0173 301.946 74.9748 301.957 74.9322 301.953C74.8896 301.95 74.8499 301.932 74.8206 301.904C74.7914 301.875 74.7746 301.838 74.7735 301.799C74.7724 301.76 74.787 301.722 74.8147 301.692C75.1298 301.399 75.484 301.144 75.869 300.932C76.2564 300.716 76.677 300.555 77.1168 300.454C78.0062 300.244 78.9411 300.255 79.8241 300.487C79.8582 300.495 79.8902 300.509 79.9182 300.528C79.9462 300.548 79.9695 300.572 79.9869 300.6C80.0043 300.628 80.0153 300.659 80.0193 300.691C80.0232 300.723 80.0201 300.755 80.0101 300.786C80 300.817 79.9833 300.845 79.9608 300.87C79.9383 300.895 79.9106 300.915 79.8793 300.93C79.848 300.945 79.8138 300.954 79.7787 300.956C79.7435 300.958 79.7082 300.954 79.6749 300.944H79.6679L79.6477 300.931Z" fill="#0C0C0C"/>
<path opacity="0.52" d="M83.6074 316.737C83.871 316.727 84.1332 316.697 84.3913 316.647C84.4486 316.634 84.4983 316.601 84.5297 316.556C84.5611 316.51 84.5718 316.455 84.5596 316.402C84.5474 316.35 84.5132 316.303 84.4642 316.273C84.4152 316.243 84.3553 316.231 84.2971 316.24C83.8942 316.348 83.4709 316.375 83.0554 316.322C82.6398 316.268 82.2417 316.134 81.8875 315.929C81.8407 315.894 81.7807 315.877 81.7206 315.883C81.6605 315.888 81.6052 315.915 81.567 315.958C81.5288 316.001 81.5107 316.055 81.5168 316.11C81.5228 316.165 81.5525 316.215 81.5993 316.25C82.1867 316.619 82.8964 316.791 83.6074 316.737Z" fill="#0C0C0C"/>
<path opacity="0.1" d="M77.8779 311.319C79.0471 311.282 79.9705 310.618 79.9405 309.836C79.9104 309.054 78.9383 308.45 77.7692 308.487C76.6001 308.524 75.6767 309.189 75.7067 309.971C75.7367 310.753 76.7088 311.357 77.8779 311.319Z" fill="#0C0C0C"/>
<path opacity="0.1" d="M90.3912 309.161C90.4241 309.942 91.3956 310.544 92.565 310.509C92.7671 310.502 92.9679 310.477 93.1642 310.432C93.3026 309.515 93.3874 308.628 93.4335 307.805C93.1187 307.707 92.7866 307.663 92.4544 307.677C91.2875 307.712 90.3646 308.375 90.3912 309.161Z" fill="#0C0C0C"/>
<path d="M116.443 344.905C116.392 349.523 114.654 355.028 114.035 361.681C113.87 363.457 109.691 368.594 109.085 374.307C108.32 381.582 110.021 392.928 110.248 397.834C98.5025 403.762 85.2159 406.678 71.7993 406.272C58.3827 405.865 45.3372 402.153 34.0482 395.528C33.7448 382.926 33.3845 367.366 32.923 363.636C31.425 351.321 31.8295 343.533 33.9913 339.889C37.5248 333.94 43.8142 332.124 50.3944 331.305C54.4145 330.809 60.4511 330.458 60.4511 330.458C60.4511 330.458 60.9631 339.895 73.1627 340.42C89.7681 341.134 88.6619 330.458 88.7441 330.458C94.768 330.458 106.184 331.772 110.558 334.493C115.198 337.37 116.5 340.783 116.443 344.905Z" fill="#FFC239"/>
<path d="M59.0736 352.088L36.5455 396.927C27.8957 392.269 20.3699 386.063 14.4219 378.68L33.2143 341.276L59.0736 352.088Z" fill="#FFC239"/>
<path d="M134.641 378.002C130.228 383.618 124.901 388.587 118.845 392.738C116.851 394.11 114.782 395.388 112.644 396.566L89.5215 350.203L115.412 339.457L134.641 378.002Z" fill="#FFC239"/>
<path d="M228.794 141.025C271.492 141.025 306.106 109.455 306.106 70.5123C306.106 31.5694 271.492 0 228.794 0C186.096 0 151.482 31.5694 151.482 70.5123C151.482 109.455 186.096 141.025 228.794 141.025Z" fill="white"/>
<path opacity="0.09" d="M228.794 141.025C271.492 141.025 306.106 109.455 306.106 70.5123C306.106 31.5694 271.492 0 228.794 0C186.096 0 151.482 31.5694 151.482 70.5123C151.482 109.455 186.096 141.025 228.794 141.025Z" fill="#346ACF"/>
<path d="M243.743 28.2886C243.743 28.2886 248.638 23.4494 248.26 14.2321C247.967 7.09554 241.826 12.7644 241.826 12.7644C241.826 12.7644 241.559 7.62766 237.654 8.78644C233.748 9.94523 232.547 15.5858 232.547 15.5858" fill="#0C0C0C"/>
<path d="M217.056 12.793C217.056 12.793 197.558 18.019 209.623 41.4057L211.403 41.2224L215.018 40.8511" fill="#0C0C0C"/>
<path d="M244.686 65.6647C244.598 65.6543 243.612 80.5732 224.609 79.2703C211.453 78.3715 206.762 65.6416 206.461 65.6416C207.879 65.3666 209.632 64.9498 210.329 64.8062C211.847 64.4849 213.222 63.7495 214.271 62.6979C215.32 61.6464 215.993 60.3284 216.2 58.9195C216.585 56.8049 215.932 45.9861 216.133 43.8467L236.327 47.9572C236.045 52.4764 234.07 62.9522 240.991 64.8062C242.144 65.1135 243.385 65.396 244.686 65.6647Z" fill="#BE8C78"/>
<path opacity="0.52" d="M236.609 60.5256C236.293 59.5958 236.09 58.6374 236.002 57.6673C235.78 55.4534 235.824 53.224 236.134 51.019C232.03 50.5137 228.163 48.9685 224.974 46.5591C224.598 47.8222 222.536 53.3411 223.107 54.5414C224.187 56.8106 229.258 60.5256 236.609 60.5256Z" fill="#0C0C0C"/>
<path d="M233.314 55.7759C225.349 56.4291 215.068 53.4606 213.007 43.7776L211.147 35.0406C209.085 25.3552 212.991 16.5202 222.987 14.7504C232.983 12.9799 242.125 19.5066 244.187 29.1896L245.009 33.0574C245.267 34.3899 245.424 35.7369 245.481 37.0889C245.659 40.6633 245.915 46.0957 244.031 50.1117C242.254 53.904 238.404 55.3591 233.314 55.7759Z" fill="#BE8C78"/>
<path opacity="0.5" d="M234.517 46.2027C235.976 46.1777 237.408 45.8404 238.698 45.2181C238.726 45.2065 238.751 45.1899 238.772 45.1692C238.792 45.1485 238.808 45.1242 238.819 45.0977C238.829 45.0712 238.833 45.0432 238.831 45.0152C238.829 44.9871 238.821 44.9598 238.807 44.9347C238.793 44.9097 238.774 44.8874 238.75 44.8693C238.727 44.8513 238.7 44.8377 238.67 44.8295C238.641 44.8213 238.61 44.8186 238.579 44.8215C238.549 44.8245 238.519 44.8331 238.492 44.8468C235.711 46.1272 233.101 46.1151 230.947 44.8157C230.904 44.7882 230.859 44.7628 230.813 44.7396C230.786 44.7275 230.757 44.7204 230.727 44.7187C230.697 44.7169 230.667 44.7206 230.639 44.7294C230.61 44.7382 230.584 44.752 230.562 44.77C230.539 44.788 230.521 44.8099 230.508 44.8344C230.495 44.8589 230.487 44.8855 230.485 44.9128C230.483 44.94 230.487 44.9673 230.497 44.9931C230.506 45.019 230.521 45.0428 230.541 45.0633C230.561 45.0838 230.585 45.1005 230.612 45.1126C230.629 45.1212 230.657 45.1385 230.696 45.1622C231.828 45.8482 233.158 46.2106 234.517 46.2027Z" fill="#0C0C0C"/>
<path opacity="0.52" d="M234.588 48.1719C234.852 48.1712 235.115 48.15 235.375 48.1085C235.405 48.104 235.433 48.0942 235.458 48.0796C235.484 48.0651 235.505 48.0462 235.523 48.024C235.54 48.0018 235.552 47.9767 235.559 47.9501C235.566 47.9235 235.566 47.8961 235.561 47.8692C235.556 47.8423 235.546 47.8166 235.53 47.7936C235.514 47.7705 235.493 47.7506 235.469 47.7348C235.444 47.719 235.417 47.7078 235.388 47.7018C235.358 47.6957 235.328 47.695 235.299 47.6995C234.892 47.7925 234.468 47.8053 234.055 47.7372C233.642 47.669 233.249 47.5215 232.904 47.3044C232.858 47.2693 232.8 47.252 232.74 47.2559C232.681 47.2599 232.626 47.2849 232.586 47.3256C232.547 47.3663 232.526 47.4195 232.53 47.4736C232.533 47.5278 232.559 47.5787 232.603 47.6154C233.174 48.0047 233.876 48.2013 234.588 48.1719Z" fill="#0C0C0C"/>
<path d="M241.795 35.4971C242.488 35.4971 243.049 34.985 243.049 34.3533C243.049 33.7216 242.488 33.2095 241.795 33.2095C241.102 33.2095 240.541 33.7216 240.541 34.3533C240.541 34.985 241.102 35.4971 241.795 35.4971Z" fill="#0C0C0C"/>
<path d="M229.6 36.7974C230.292 36.7974 230.854 36.2853 230.854 35.6536C230.854 35.0219 230.292 34.5098 229.6 34.5098C228.907 34.5098 228.346 35.0219 228.346 35.6536C228.346 36.2853 228.907 36.7974 229.6 36.7974Z" fill="#0C0C0C"/>
<path d="M214.256 46.6175C211.218 47.1553 208.124 44.6273 207.534 41.8566C206.943 39.0859 209.082 37.1224 212.119 36.5845L214.079 38.1635L216.866 46.1551L214.256 46.6175Z" fill="#BE8C78"/>
<path d="M216.4 41.6548C216.4 41.6548 214.702 27.7523 219.1 26.1507C222.028 25.0836 230.183 27.8001 236.778 25.4849C239.663 24.4714 242.634 24.6777 243.177 25.9178C243.393 26.4084 243.801 18.776 238.018 13.9893C233.414 10.1785 220.974 10.9413 215.715 13.3084C201.153 19.8627 211.612 37.2912 211.612 37.2912L213.236 41.9125L216.4 41.6548Z" fill="#0C0C0C"/>
<g opacity="0.52">
<path d="M236.388 42.76H236.407C237.387 42.587 239.009 42.2025 238.872 41.5343C238.755 40.9803 235.838 35.2936 235.507 34.6473C235.493 34.6198 235.473 34.5951 235.448 34.5746C235.424 34.5541 235.395 34.5383 235.363 34.5279C235.332 34.5176 235.299 34.513 235.266 34.5144C235.232 34.5158 235.2 34.5232 235.169 34.5361C235.139 34.549 235.112 34.5672 235.09 34.5896C235.067 34.6121 235.05 34.6384 235.039 34.6669C235.027 34.6955 235.022 34.7259 235.024 34.7562C235.025 34.7866 235.033 34.8164 235.047 34.8439C236.341 37.3621 238.294 41.2432 238.374 41.6208C238.31 41.7937 237.329 42.1275 236.315 42.3045C236.248 42.3136 236.188 42.3466 236.148 42.3963C236.107 42.446 236.09 42.5083 236.1 42.5694C236.11 42.6306 236.146 42.6856 236.201 42.7224C236.255 42.7593 236.324 42.7748 236.391 42.7657L236.388 42.76Z" fill="#0C0C0C"/>
</g>
<path d="M237.08 28.8258C238.06 28.3972 239.149 28.2179 240.232 28.3069C240.763 28.3477 241.284 28.4608 241.778 28.6424C242.266 28.8194 242.728 29.0519 243.153 29.3342C243.231 29.3839 243.286 29.4595 243.305 29.5452C243.324 29.6308 243.305 29.7198 243.254 29.7933C243.202 29.8669 243.121 29.9194 243.028 29.9397C242.935 29.96 242.837 29.9465 242.754 29.9021L242.726 29.8929C242.341 29.6688 241.927 29.4896 241.493 29.3596C241.067 29.2297 240.621 29.1596 240.172 29.1515C239.285 29.129 238.408 29.3205 237.629 29.7067L237.597 29.7234C237.534 29.7564 237.464 29.7777 237.391 29.7861C237.319 29.7944 237.245 29.7897 237.175 29.7722C237.105 29.7547 237.039 29.7247 236.981 29.6839C236.923 29.6431 236.875 29.5924 236.839 29.5346C236.803 29.4768 236.779 29.413 236.77 29.347C236.761 29.281 236.766 29.2139 236.785 29.1497C236.804 29.0855 236.837 29.0254 236.882 28.9728C236.927 28.9201 236.982 28.8761 237.046 28.8431L237.08 28.8258Z" fill="#0C0C0C"/>
<path d="M229.89 30.5978C229.036 30.38 228.134 30.3714 227.276 30.573C226.84 30.6721 226.422 30.8309 226.038 31.0441C225.646 31.2587 225.285 31.5173 224.964 31.8137L224.943 31.8321C224.874 31.8933 224.781 31.9274 224.685 31.9271C224.589 31.9268 224.496 31.8922 224.427 31.8306C224.358 31.769 224.319 31.6854 224.317 31.5975C224.314 31.5095 224.35 31.4243 224.416 31.36C224.76 30.9978 225.153 30.6768 225.586 30.4047C226.023 30.1272 226.504 29.9109 227.012 29.7631C227.52 29.6104 228.048 29.5219 228.582 29.5002C229.129 29.4727 229.678 29.5162 230.211 29.6293C230.355 29.6599 230.479 29.7412 230.557 29.8554C230.635 29.9695 230.66 30.1072 230.626 30.2381C230.592 30.369 230.503 30.4824 230.378 30.5533C230.253 30.6242 230.102 30.6469 229.959 30.6163L229.926 30.6082L229.89 30.5978Z" fill="#0C0C0C"/>
<path d="M233.737 19.6149C235.906 18.8135 236.615 15.8039 235.321 12.8929C234.028 9.98185 231.222 8.27173 229.053 9.07321C226.885 9.87469 226.176 12.8843 227.469 15.7953C228.763 18.7063 231.569 20.4164 233.737 19.6149Z" fill="#0C0C0C"/>
<path d="M270.951 81.081C271.027 85.8603 268.979 91.2333 268.296 98.5089C268.157 99.9847 267.828 103.236 267.392 107.474C266.678 114.49 265.667 124.192 264.782 132.938C252.126 138.996 237.879 141.741 223.618 140.868C209.358 139.995 195.64 135.538 183.986 127.992C183.708 127.801 183.43 127.617 183.152 127.438C182.412 117.551 181.54 107.174 180.743 100.619C179.245 88.3796 177.204 82.2859 178.348 78.1696C178.439 77.8191 178.562 77.4759 178.714 77.1434C182.008 69.8564 192.494 66.6049 199.599 65.7286C203.935 65.1924 210.459 64.8062 210.459 64.8062C210.459 64.8062 211.009 74.9988 224.175 75.5638C242.102 76.3363 240.907 64.8062 240.996 64.8062C243.897 64.8062 259.706 66.7317 263.656 69.0838C264.319 69.476 264.952 69.9074 265.553 70.3752C267.269 71.6809 268.645 73.3196 269.578 75.1717C270.512 77.0238 270.981 79.0426 270.951 81.081Z" fill="#383838"/>
<path d="M204.947 88.4717L183.986 127.991C183.708 127.801 183.43 127.617 183.152 127.438C175.026 122.004 168.135 115.183 162.861 107.352L178.348 78.1695L178.961 77.0107L204.947 88.4717Z" fill="#383838"/>
<path d="M202.923 93.0204L183.859 127.905C183.733 127.819 183.613 127.738 183.486 127.663L202.525 92.8417C202.553 92.7932 202.6 92.7565 202.656 92.7392C202.713 92.722 202.775 92.7257 202.829 92.7495C202.881 92.774 202.92 92.8162 202.938 92.8671C202.955 92.9179 202.95 92.973 202.923 93.0204Z" fill="white"/>
<path d="M299.586 98.9011C295.786 106.755 290.451 113.913 283.84 120.024L267.393 107.474L246.502 91.5275L265.554 70.3754L265.61 70.312L299.586 98.9011Z" fill="#383838"/>
<path d="M267.645 107.628C267.699 107.625 267.749 107.605 267.788 107.571C267.827 107.537 267.851 107.491 267.855 107.443L268.941 95.8374C268.946 95.7838 268.927 95.7306 268.889 95.6894C268.851 95.6482 268.797 95.6224 268.738 95.6177C268.68 95.6139 268.622 95.631 268.577 95.6654C268.532 95.6999 268.504 95.749 268.498 95.8022L267.413 107.408C267.408 107.461 267.427 107.514 267.464 107.556C267.502 107.597 267.557 107.622 267.615 107.627L267.645 107.628Z" fill="white"/>
<path d="M592.835 446.362C633.56 446.362 666.574 416.252 666.574 379.108C666.574 341.965 633.56 311.854 592.835 311.854C552.11 311.854 519.096 341.965 519.096 379.108C519.096 416.252 552.11 446.362 592.835 446.362Z" fill="white"/>
<path opacity="0.09" d="M519.095 379.107C519.095 392.408 523.42 405.411 531.522 416.47C539.624 427.53 551.141 436.15 564.614 441.24C578.088 446.331 592.915 447.663 607.218 445.068C621.522 442.473 634.661 436.068 644.974 426.662C655.286 417.257 662.309 405.273 665.154 392.228C668 379.182 666.539 365.66 660.958 353.371C655.377 341.082 645.926 330.578 633.8 323.189C621.674 315.799 607.417 311.854 592.833 311.854C583.14 311.822 573.535 313.539 564.573 316.907C555.611 320.276 547.468 325.228 540.613 331.48C533.759 337.731 528.329 345.158 524.636 353.332C520.943 361.506 519.06 370.266 519.095 379.107Z" fill="#346ACF"/>
<path d="M626.294 341.996C625.117 354.448 626.208 358.67 631.878 365.805C636.659 371.821 609.452 366.708 597.414 364.752L608.037 336.435C608.037 336.435 626.708 337.623 626.294 341.996Z" fill="#0A0A0A" fill-opacity="0.9"/>
<path d="M584.762 336.815C581.21 348.886 581.609 352.621 574.659 358.96C568.898 364.214 591.349 365.283 603.396 367.191L604.005 337.271C604.005 337.271 586.01 332.576 584.762 336.815Z" fill="#0A0A0A" fill-opacity="0.9"/>
<path d="M585.96 371.925C586.039 371.915 586.921 385.265 603.926 384.101C615.697 383.297 619.894 371.906 620.164 371.906C618.819 371.702 617.492 371.409 616.194 371.028C614.341 370.119 612.047 369.174 611.45 365.891C611.105 363.998 611.689 354.318 611.51 352.401L593.44 356.08C593.692 360.123 595.462 369.497 589.268 371.156C588.236 371.433 587.125 371.685 585.96 371.925Z" fill="#BE8C78"/>
<path opacity="0.5" d="M593.186 367.327C593.469 366.495 593.651 365.637 593.729 364.769C593.928 362.788 593.889 360.793 593.612 358.82C597.284 358.368 600.744 356.986 603.599 354.83C603.934 355.96 605.78 360.898 605.269 361.972C604.302 364.002 599.764 367.327 593.186 367.327Z" fill="#0C0C0C"/>
<path d="M595.523 363.168C602.647 363.797 611.864 361.198 613.774 352.545L615.497 344.737C617.407 336.085 613.971 328.155 605.039 326.516C596.106 324.876 587.881 330.666 585.972 339.318L585.209 342.777C584.477 346.094 582.812 362.048 595.523 363.168Z" fill="#BE8C78"/>
<path d="M624.119 347.202L616.083 346.399C600.359 343.762 596.508 332.19 596.508 332.19C596.508 332.19 589.912 340.221 584.312 338.377C584.312 338.377 586.117 319.011 610.979 322.414C620.747 323.751 626.294 331.137 626.294 341.044C626.294 348.327 624.119 347.202 624.119 347.202Z" fill="#0A0A0A" fill-opacity="0.9"/>
<path opacity="0.1" d="M602.356 350.637C602.459 349.853 601.591 349.114 600.419 348.986C599.247 348.859 598.213 349.391 598.111 350.175C598.008 350.96 598.875 351.699 600.048 351.827C601.22 351.954 602.253 351.422 602.356 350.637Z" fill="#0C0C0C"/>
<path opacity="0.1" d="M587.666 348.694C587.561 349.477 586.528 350.009 585.355 349.883C585.152 349.861 584.953 349.819 584.759 349.76C584.705 348.826 584.702 347.927 584.732 347.096C585.057 347.022 585.395 347.004 585.728 347.042C586.897 347.169 587.764 347.908 587.666 348.694Z" fill="#0C0C0C"/>
<path opacity="0.5" d="M592.843 351.115H592.826C592.464 351.046 592.107 350.959 591.755 350.854C591.231 350.694 590.544 350.432 590.64 349.999C590.749 349.506 593.403 344.458 593.706 343.884C593.718 343.859 593.736 343.835 593.759 343.816C593.781 343.797 593.807 343.782 593.836 343.773C593.865 343.763 593.896 343.759 593.927 343.76C593.957 343.761 593.988 343.768 594.015 343.78C594.043 343.793 594.068 343.81 594.088 343.831C594.108 343.852 594.124 343.876 594.134 343.903C594.144 343.93 594.147 343.958 594.145 343.986C594.143 344.014 594.134 344.041 594.12 344.066C592.987 346.215 591.164 349.75 591.09 350.082C591.636 350.419 592.262 350.633 592.916 350.704C592.974 350.715 593.025 350.746 593.058 350.79C593.092 350.835 593.105 350.889 593.096 350.942C593.087 350.995 593.055 351.043 593.008 351.076C592.961 351.109 592.902 351.124 592.843 351.118V351.115Z" fill="#0C0C0C"/>
<path d="M612.637 355.08C615.352 355.578 618.137 353.333 618.684 350.857C619.23 348.381 617.331 346.612 614.616 346.114L612.851 347.516L610.304 354.651L612.637 355.08Z" fill="#BE8C78"/>
<path d="M591.781 339.855C591.446 339.639 591.081 339.464 590.695 339.337C590.304 339.203 589.894 339.119 589.478 339.087C589.062 339.051 588.642 339.072 588.233 339.15C587.82 339.227 587.42 339.35 587.041 339.518L587.029 339.523C586.988 339.536 586.943 339.535 586.903 339.52C586.862 339.505 586.83 339.477 586.811 339.441C586.792 339.405 586.789 339.364 586.801 339.326C586.814 339.288 586.842 339.255 586.879 339.235C587.281 339.042 587.707 338.895 588.149 338.799C588.594 338.7 589.053 338.663 589.51 338.689C590.436 338.736 591.331 339.008 592.102 339.478C592.157 339.515 592.195 339.57 592.207 339.631C592.219 339.693 592.204 339.757 592.166 339.809C592.127 339.861 592.068 339.897 592 339.909C591.933 339.922 591.862 339.91 591.805 339.876L591.798 339.872L591.781 339.855Z" fill="#0C0C0C"/>
<path d="M599.097 340.779C600.006 340.614 600.947 340.674 601.822 340.955C602.255 341.09 602.663 341.285 603.033 341.531C603.401 341.774 603.734 342.058 604.024 342.377C604.055 342.408 604.071 342.45 604.069 342.492C604.067 342.535 604.047 342.575 604.012 342.603C603.978 342.632 603.932 342.647 603.886 342.645C603.839 342.643 603.795 342.624 603.764 342.593L603.754 342.584C603.474 342.297 603.156 342.043 602.806 341.828C602.461 341.613 602.081 341.447 601.682 341.335C600.888 341.108 600.042 341.077 599.231 341.244L599.211 341.249C599.143 341.264 599.071 341.254 599.011 341.221C598.951 341.188 598.908 341.134 598.891 341.072C598.875 341.01 598.886 340.945 598.922 340.89C598.958 340.835 599.017 340.796 599.085 340.781L599.097 340.779Z" fill="#0C0C0C"/>
<path d="M558.573 438.671C555.674 437.518 553.506 436.284 548.556 432.883C544.984 430.438 541.664 427.7 538.639 424.704L564.056 380.593L565.16 378.677L588.086 389.669L568.2 424.185L568.108 424.337L568.281 424.951" fill="#EA394A"/>
<path d="M643.101 403.187C642.434 409.728 642.29 419.901 642.336 428.946C632.752 436.874 621.049 442.362 608.402 444.856C595.755 447.351 582.611 446.764 570.292 443.156C568.784 429.516 566.542 409.471 565.279 397.129C563.998 384.344 560.232 380.122 570.511 373.999C576.174 371.37 585.153 371.139 589.188 371.139C587.818 383.257 615.82 384.748 616.516 371.139C637.459 372.925 647.155 373.369 643.101 403.187Z" fill="#EA394A"/>
<path d="M590.455 352.82C592.77 353.894 595.411 354.233 597.961 353.784C598.049 353.769 598.141 353.777 598.224 353.808C598.308 353.838 598.38 353.889 598.433 353.956C598.486 354.023 598.517 354.101 598.522 354.183C598.527 354.265 598.507 354.347 598.463 354.419C597.704 355.64 595.899 357.729 592.806 356.878C590.809 356.328 590.054 354.457 589.772 353.295C589.752 353.215 589.758 353.131 589.789 353.053C589.82 352.976 589.875 352.908 589.947 352.858C590.019 352.808 590.105 352.778 590.195 352.771C590.285 352.764 590.376 352.781 590.455 352.82Z" fill="white"/>
<path d="M590.311 343.431C590.928 343.431 591.429 342.974 591.429 342.411C591.429 341.848 590.928 341.391 590.311 341.391C589.693 341.391 589.192 341.848 589.192 342.411C589.192 342.974 589.693 343.431 590.311 343.431Z" fill="#0C0C0C"/>
<path d="M601.059 345.147C601.676 345.147 602.177 344.69 602.177 344.127C602.177 343.564 601.676 343.107 601.059 343.107C600.441 343.107 599.94 343.564 599.94 344.127C599.94 344.69 600.441 345.147 601.059 345.147Z" fill="#0C0C0C"/>
<path d="M567.756 419.146H567.777C567.823 419.14 567.864 419.118 567.891 419.084C567.919 419.051 567.931 419.009 567.924 418.967L565.947 400.8C565.945 400.779 565.937 400.759 565.926 400.741C565.915 400.723 565.9 400.707 565.881 400.695C565.863 400.682 565.842 400.673 565.82 400.668C565.798 400.663 565.775 400.662 565.753 400.666C565.73 400.668 565.708 400.675 565.689 400.686C565.669 400.696 565.652 400.71 565.638 400.726C565.625 400.743 565.615 400.762 565.609 400.782C565.603 400.802 565.602 400.823 565.605 400.843L567.582 419.011C567.588 419.049 567.609 419.083 567.641 419.108C567.673 419.133 567.714 419.146 567.756 419.146Z" fill="#0C0C0C"/>
<path d="M565.171 405.31H544.988V427.885H565.171V405.31Z" fill="white"/>
<path d="M556.906 416.598C556.907 415.107 557.392 413.649 558.3 412.41C559.209 411.171 560.5 410.205 562.01 409.634C563.52 409.064 565.182 408.915 566.786 409.206C568.389 409.497 569.861 410.215 571.017 411.27C572.173 412.324 572.96 413.667 573.278 415.13C573.597 416.592 573.433 418.108 572.807 419.485C572.182 420.862 571.122 422.04 569.763 422.868C568.404 423.696 566.806 424.138 565.171 424.138C562.979 424.136 560.878 423.34 559.329 421.927C557.779 420.513 556.908 418.597 556.906 416.598ZM560.291 416.598C560.291 417.478 560.577 418.338 561.114 419.07C561.65 419.802 562.412 420.373 563.304 420.71C564.195 421.046 565.176 421.135 566.123 420.963C567.07 420.791 567.939 420.367 568.622 419.745C569.304 419.122 569.769 418.329 569.957 417.466C570.145 416.603 570.049 415.708 569.679 414.895C569.31 414.081 568.685 413.386 567.882 412.897C567.08 412.408 566.136 412.147 565.171 412.147C563.877 412.148 562.637 412.618 561.722 413.452C560.807 414.287 560.293 415.418 560.291 416.598Z" fill="white"/>
<path d="M565.01 419.391C565.078 419.009 565.291 418.661 565.612 418.408C565.933 418.155 566.341 418.013 566.765 418.008C566.754 417.992 566.745 417.975 566.741 417.956L566.14 417.837C565.721 417.762 565.343 417.557 565.071 417.256C564.799 416.956 564.649 416.579 564.646 416.19C564.65 415.946 564.714 415.705 564.832 415.486C564.95 415.267 565.12 415.074 565.33 414.922C565.539 414.77 565.783 414.662 566.044 414.607C566.305 414.551 566.576 414.549 566.838 414.6L568.256 414.879C568.256 414.875 568.256 414.87 568.256 414.865C568.259 414.855 568.263 414.845 568.268 414.835C567.899 414.677 567.599 414.409 567.418 414.075C567.237 413.742 567.185 413.362 567.271 412.998C567.426 412.041 568.684 411.726 569.606 411.908L573.278 412.508L572.039 411.758C571.648 411.511 571.374 411.138 571.273 410.714C571.172 410.29 571.251 409.847 571.495 409.474C571.628 409.286 571.801 409.124 572.005 408.999C572.209 408.874 572.438 408.788 572.68 408.746C572.921 408.704 573.169 408.708 573.409 408.757C573.649 408.806 573.875 408.898 574.074 409.03L588.878 424.48L585.591 423.12C584.571 424.489 583.126 425.548 581.441 426.162C579.756 426.777 577.909 426.918 576.136 426.569L568.108 424.973C567.689 424.897 567.311 424.692 567.039 424.392C566.767 424.092 566.617 423.715 566.614 423.325C566.62 422.974 566.749 422.633 566.982 422.353C567.215 422.073 567.54 421.869 567.909 421.769C567.898 421.744 567.894 421.717 567.897 421.69C567.902 421.665 567.913 421.641 567.93 421.621C567.947 421.601 567.969 421.585 567.995 421.575L566.513 421.283C566.046 421.2 565.631 420.959 565.352 420.608C565.073 420.256 564.951 419.822 565.01 419.391Z" fill="#BE8C78"/>
<path opacity="0.2" d="M570.937 415.423C570.976 415.415 571.01 415.396 571.035 415.368C571.059 415.339 571.072 415.304 571.072 415.268C571.071 415.232 571.056 415.198 571.031 415.171C571.005 415.143 570.97 415.125 570.931 415.119L568.451 414.736C568.429 414.732 568.406 414.732 568.383 414.736C568.361 414.74 568.339 414.748 568.32 414.76C568.302 414.771 568.285 414.787 568.273 414.804C568.261 414.822 568.252 414.841 568.248 414.862C568.245 414.882 568.245 414.904 568.251 414.924C568.256 414.944 568.266 414.963 568.279 414.98C568.293 414.997 568.31 415.011 568.33 415.021C568.35 415.032 568.372 415.039 568.394 415.042L570.874 415.424C570.895 415.427 570.916 415.427 570.937 415.423Z" fill="#0C0C0C"/>
<path opacity="0.2" d="M570.339 418.622C570.377 418.615 570.412 418.595 570.437 418.567C570.461 418.539 570.474 418.504 570.474 418.468C570.473 418.432 570.459 418.398 570.433 418.37C570.408 418.343 570.373 418.324 570.334 418.318L566.937 417.769C566.914 417.764 566.891 417.764 566.868 417.768C566.846 417.771 566.824 417.779 566.805 417.791C566.786 417.802 566.769 417.817 566.756 417.835C566.744 417.853 566.735 417.872 566.731 417.893C566.727 417.914 566.728 417.935 566.733 417.955C566.738 417.976 566.748 417.995 566.762 418.012C566.775 418.029 566.793 418.043 566.813 418.054C566.832 418.064 566.855 418.071 566.877 418.074L570.274 418.623C570.296 418.627 570.318 418.626 570.339 418.622Z" fill="#0C0C0C"/>
<path opacity="0.2" d="M569.715 422.091C569.754 422.083 569.789 422.063 569.813 422.035C569.838 422.006 569.851 421.971 569.85 421.935C569.849 421.898 569.834 421.864 569.807 421.837C569.781 421.809 569.745 421.791 569.706 421.786L568.094 421.561C568.051 421.557 568.008 421.569 567.974 421.593C567.939 421.618 567.917 421.653 567.91 421.692C567.904 421.731 567.914 421.771 567.938 421.804C567.963 421.836 568.001 421.859 568.043 421.867L569.654 422.092C569.675 422.095 569.695 422.095 569.715 422.091Z" fill="#0C0C0C"/>
<path d="M653.384 417.481C644.302 429.393 631.251 438.316 616.168 442.926L616.162 442.92C612.812 442.323 580.853 430.814 576.626 430.058L581.252 410.376C593.129 412.532 614.791 420.842 626.736 423.005L618.309 388.157C618.003 386.618 618.036 385.039 618.405 383.511C618.774 381.983 619.472 380.538 620.458 379.258C621.444 377.978 622.699 376.889 624.15 376.055C625.601 375.221 627.219 374.658 628.911 374.399C630.602 374.139 632.333 374.188 634.003 374.544C635.674 374.899 637.25 375.553 638.641 376.469C640.032 377.384 641.21 378.542 642.106 379.875C643.003 381.209 643.6 382.691 643.864 384.237L653.384 417.481Z" fill="#EA394A"/>
<path d="M635.79 425.571C635.833 425.57 635.874 425.555 635.906 425.528C635.937 425.501 635.956 425.464 635.959 425.425C635.963 425.386 635.95 425.347 635.923 425.316C635.897 425.285 635.859 425.264 635.816 425.257L626.835 422.479C626.813 422.475 626.79 422.476 626.768 422.481C626.745 422.486 626.725 422.495 626.706 422.507C626.688 422.519 626.672 422.535 626.661 422.553C626.649 422.571 626.642 422.591 626.639 422.611C626.632 422.652 626.643 422.694 626.671 422.728C626.698 422.762 626.739 422.784 626.784 422.79L635.765 425.569C635.773 425.57 635.782 425.571 635.79 425.571Z" fill="#0C0C0C"/>
<path d="M626.972 422.612C626.977 422.661 626.961 422.71 626.926 422.748C626.907 422.766 626.883 422.778 626.857 422.786C626.831 422.793 626.803 422.795 626.776 422.79L581.539 410.613L577.006 429.984L615.961 442.983C615.84 443.02 615.713 443.056 615.592 443.093C615.505 443.119 615.419 443.145 615.327 443.167L576.752 430.249C576.709 430.238 576.671 430.212 576.648 430.177C576.624 430.142 576.617 430.1 576.626 430.06L581.252 410.378C581.257 410.358 581.267 410.34 581.281 410.323C581.295 410.307 581.312 410.294 581.332 410.284C581.351 410.272 581.373 410.263 581.396 410.26C581.419 410.256 581.442 410.257 581.465 410.263L626.592 422.456L621.484 403.245C621.478 403.204 621.489 403.162 621.516 403.129C621.543 403.095 621.583 403.073 621.628 403.066C621.65 403.062 621.673 403.062 621.695 403.067C621.718 403.071 621.739 403.079 621.758 403.091C621.776 403.102 621.792 403.117 621.805 403.135C621.817 403.152 621.826 403.172 621.83 403.192L626.972 422.612Z" fill="#0C0C0C"/>
<path d="M37.0838 397.507C37.0417 397.507 37 397.499 36.9611 397.484C36.9229 397.47 36.8881 397.448 36.8589 397.421C36.8297 397.394 36.8066 397.362 36.791 397.327C36.7753 397.292 36.7673 397.255 36.7676 397.217C36.7678 397.179 36.7762 397.142 36.7924 397.107L49.1778 370.257C49.2104 370.186 49.2724 370.131 49.3501 370.102C49.4278 370.073 49.5148 370.074 49.5921 370.103C49.6694 370.133 49.7306 370.189 49.7622 370.26C49.7938 370.331 49.7932 370.411 49.7606 370.481L37.3752 397.33C37.3511 397.382 37.3106 397.427 37.2588 397.458C37.2069 397.49 37.146 397.507 37.0838 397.507Z" fill="#0C0C0C"/>
<path d="M109.965 397.812H109.951C109.909 397.814 109.868 397.808 109.829 397.795C109.79 397.782 109.754 397.763 109.723 397.737C109.693 397.712 109.668 397.681 109.65 397.646C109.633 397.612 109.623 397.575 109.621 397.537L108.24 370.076C108.239 370 108.27 369.927 108.326 369.871C108.381 369.815 108.458 369.78 108.541 369.774C108.583 369.772 108.624 369.778 108.663 369.791C108.702 369.804 108.738 369.824 108.769 369.849C108.8 369.875 108.825 369.906 108.842 369.94C108.86 369.974 108.87 370.011 108.872 370.049L110.252 397.511C110.256 397.585 110.229 397.658 110.175 397.714C110.121 397.77 110.046 397.806 109.965 397.812Z" fill="#0C0C0C"/>
</svg>
