<svg width="623" height="436" viewBox="0 0 623 436" fill="none" xmlns="http://www.w3.org/2000/svg">
<g clip-path="url(#clip0_1513_81412)">
<path d="M580.462 75.77H570.997C570.244 75.7715 569.51 75.483 568.896 74.9443C568.282 74.4057 567.818 73.6437 567.569 72.7638C566.844 70.1858 565.987 67.6678 565.003 65.2252C564.663 64.3801 564.547 63.4238 564.671 62.4922C564.795 61.5605 565.152 60.7009 565.693 60.0356L572.42 51.6977C573.104 50.8498 573.487 49.7002 573.487 48.5016C573.487 47.303 573.104 46.1534 572.42 45.3055L557.886 27.3002C557.202 26.453 556.275 25.977 555.308 25.977C554.341 25.977 553.413 26.453 552.729 27.3002L545.881 35.7885C545.348 36.4517 544.66 36.892 543.916 37.0479C543.171 37.2039 542.405 37.0677 541.726 36.6583C539.792 35.4882 537.801 34.471 535.764 33.6127C535.046 33.3096 534.423 32.7353 533.982 31.9705C533.542 31.2058 533.305 30.289 533.307 29.3492V17.3244C533.307 16.7312 533.212 16.1437 533.029 15.5956C532.846 15.0475 532.578 14.5495 532.239 14.13C531.901 13.7105 531.499 13.3777 531.057 13.1508C530.615 12.9238 530.141 12.807 529.662 12.8071H509.116C508.638 12.807 508.164 12.9238 507.721 13.1508C507.279 13.3777 506.877 13.7105 506.539 14.13C506.2 14.5495 505.932 15.0475 505.749 15.5956C505.566 16.1437 505.472 16.7312 505.472 17.3244V29.3492C505.473 30.289 505.237 31.2058 504.796 31.9705C504.355 32.7353 503.732 33.3096 503.014 33.6127C500.977 34.4708 498.986 35.4881 497.053 36.6583C496.374 37.0677 495.608 37.2039 494.863 37.0479C494.118 36.892 493.431 36.4517 492.898 35.7885L486.05 27.3002C485.365 26.4531 484.438 25.9773 483.471 25.9773C482.504 25.9773 481.576 26.4531 480.892 27.3002L466.358 45.3055C465.674 46.1534 465.29 47.303 465.29 48.5016C465.29 49.7002 465.674 50.8498 466.358 51.6977L473.085 60.0356C473.626 60.701 473.983 61.5606 474.107 62.4923C474.231 63.424 474.114 64.3802 473.774 65.2252C472.79 67.6663 471.935 70.1845 471.215 72.7638C470.964 73.6436 470.499 74.4051 469.884 74.9435C469.269 75.4819 468.534 75.7707 467.781 75.77H458.316C457.837 75.7698 457.363 75.8865 456.921 76.1134C456.478 76.3403 456.076 76.6731 455.738 77.0926C455.4 77.5121 455.131 78.0101 454.948 78.5583C454.765 79.1065 454.671 79.694 454.671 80.2873V105.761C454.671 106.354 454.765 106.941 454.948 107.489C455.131 108.038 455.4 108.536 455.738 108.955C456.076 109.375 456.478 109.707 456.921 109.934C457.363 110.161 457.837 110.278 458.316 110.278H467.533C468.299 110.277 469.046 110.577 469.667 111.134C470.288 111.69 470.752 112.476 470.991 113.379C471.702 116.027 472.553 118.614 473.538 121.123C473.872 121.969 473.985 122.922 473.861 123.851C473.738 124.78 473.384 125.638 472.848 126.305L466.357 134.351C466.018 134.77 465.749 135.268 465.566 135.816C465.383 136.364 465.288 136.951 465.288 137.544C465.288 138.138 465.383 138.725 465.566 139.273C465.749 139.821 466.018 140.319 466.357 140.738L480.891 158.748C481.575 159.595 482.502 160.071 483.469 160.071C484.436 160.071 485.364 159.595 486.048 158.748L492.411 150.861C492.953 150.191 493.652 149.749 494.408 149.598C495.164 149.447 495.94 149.595 496.624 150.021C498.683 151.295 500.809 152.395 502.988 153.312C503.71 153.615 504.338 154.19 504.783 154.958C505.229 155.725 505.469 156.647 505.47 157.592V168.714C505.469 169.308 505.563 169.896 505.746 170.445C505.929 170.994 506.197 171.493 506.536 171.913C506.874 172.334 507.276 172.667 507.719 172.895C508.161 173.122 508.636 173.24 509.115 173.24H529.661C530.14 173.24 530.614 173.122 531.057 172.895C531.499 172.667 531.901 172.334 532.24 171.913C532.578 171.493 532.847 170.994 533.03 170.445C533.212 169.896 533.306 169.308 533.305 168.714V157.594C533.307 156.648 533.547 155.727 533.992 154.96C534.437 154.192 535.065 153.616 535.788 153.313C537.967 152.397 540.093 151.297 542.151 150.022C542.836 149.597 543.611 149.449 544.367 149.6C545.123 149.751 545.822 150.192 546.364 150.863L552.728 158.75C553.412 159.597 554.339 160.073 555.306 160.073C556.273 160.073 557.201 159.597 557.885 158.75L572.419 140.736C572.757 140.317 573.026 139.82 573.21 139.271C573.393 138.724 573.487 138.136 573.487 137.543C573.487 136.95 573.393 136.362 573.21 135.814C573.026 135.266 572.757 134.768 572.419 134.349L565.927 126.304C565.392 125.636 565.038 124.778 564.914 123.849C564.791 122.921 564.904 121.967 565.238 121.122C566.223 118.612 567.074 116.025 567.785 113.377C568.024 112.475 568.487 111.689 569.108 111.132C569.729 110.575 570.476 110.275 571.243 110.276H580.459C580.938 110.276 581.412 110.16 581.854 109.933C582.297 109.706 582.698 109.373 583.037 108.954C583.375 108.534 583.644 108.036 583.827 107.488C584.01 106.94 584.104 106.352 584.104 105.759V80.2873C584.104 79.6943 584.01 79.107 583.827 78.5591C583.644 78.0111 583.376 77.5132 583.038 77.0938C582.7 76.6743 582.298 76.3415 581.856 76.1144C581.414 75.8872 580.94 75.7702 580.462 75.77ZM519.392 130.665C513.385 130.665 507.512 128.458 502.517 124.322C497.522 120.186 493.628 114.307 491.329 107.428C489.03 100.549 488.428 92.9799 489.6 85.6773C490.772 78.3747 493.665 71.6669 497.913 66.402C502.16 61.1372 507.573 57.5518 513.464 56.0994C519.356 54.647 525.463 55.3928 531.013 58.2424C536.563 61.092 541.307 65.9175 544.644 72.1086C547.981 78.2997 549.762 85.5783 549.761 93.0239C549.761 103.007 546.561 112.58 540.865 119.639C535.17 126.698 527.446 130.664 519.392 130.665Z" fill="#F4F4F4"/>
<path d="M177.933 350.576H170.98C170.428 350.577 169.888 350.365 169.437 349.969C168.986 349.574 168.646 349.014 168.463 348.367C167.93 346.473 167.301 344.624 166.578 342.83C166.328 342.209 166.243 341.506 166.334 340.822C166.425 340.138 166.687 339.506 167.084 339.018L172.028 332.892C172.53 332.269 172.812 331.424 172.812 330.544C172.812 329.664 172.53 328.819 172.028 328.196L161.353 314.971C160.851 314.349 160.169 313.999 159.459 313.999C158.748 313.999 158.067 314.349 157.565 314.971L152.535 321.206C152.143 321.693 151.639 322.017 151.092 322.131C150.545 322.246 149.982 322.146 149.483 321.845C148.063 320.986 146.601 320.238 145.105 319.608C144.578 319.385 144.12 318.964 143.796 318.402C143.473 317.84 143.299 317.167 143.3 316.477V307.645C143.3 307.21 143.231 306.778 143.096 306.376C142.962 305.973 142.765 305.607 142.516 305.299C142.268 304.991 141.972 304.746 141.648 304.58C141.323 304.413 140.975 304.327 140.623 304.327H125.527C125.175 304.327 124.827 304.413 124.502 304.58C124.178 304.746 123.882 304.991 123.634 305.299C123.385 305.607 123.188 305.973 123.054 306.376C122.919 306.778 122.85 307.21 122.85 307.645V316.478C122.851 317.169 122.677 317.842 122.354 318.404C122.03 318.965 121.572 319.387 121.045 319.61C119.549 320.24 118.086 320.987 116.667 321.847C116.168 322.148 115.605 322.248 115.058 322.133C114.511 322.019 114.007 321.695 113.615 321.208L108.585 314.973C108.082 314.351 107.401 314.001 106.69 314.001C105.98 314.001 105.299 314.351 104.796 314.973L94.1212 328.198C93.6191 328.821 93.337 329.665 93.337 330.546C93.337 331.426 93.6191 332.271 94.1212 332.893L99.0624 339.018C99.4593 339.506 99.7218 340.138 99.8127 340.822C99.9037 341.506 99.8183 342.209 99.5689 342.83C98.8457 344.623 98.2176 346.473 97.6886 348.367C97.5042 349.013 97.1626 349.573 96.711 349.968C96.2593 350.364 95.7199 350.576 95.1668 350.576H88.2132C87.8616 350.576 87.5134 350.662 87.1886 350.828C86.8638 350.995 86.5686 351.239 86.32 351.547C86.0714 351.856 85.8742 352.221 85.7397 352.624C85.6052 353.027 85.536 353.458 85.5361 353.894V372.604C85.536 373.04 85.6052 373.471 85.7397 373.874C85.8742 374.277 86.0714 374.643 86.32 374.951C86.5686 375.259 86.8638 375.503 87.1886 375.67C87.5134 375.837 87.8616 375.922 88.2132 375.922H94.9831C95.5462 375.921 96.0952 376.141 96.5515 376.55C97.0078 376.959 97.3481 377.537 97.5238 378.2C98.0465 380.145 98.6714 382.045 99.3946 383.889C99.6402 384.51 99.7234 385.21 99.6326 385.892C99.5418 386.574 99.2816 387.205 98.8881 387.695L94.1206 393.605C93.8719 393.912 93.6747 394.278 93.5401 394.68C93.4055 395.082 93.3363 395.514 93.3363 395.949C93.3363 396.385 93.4055 396.816 93.5401 397.218C93.6747 397.62 93.8719 397.986 94.1206 398.293L104.796 411.525C105.298 412.147 105.979 412.497 106.69 412.497C107.4 412.497 108.081 412.147 108.584 411.525L113.258 405.731C113.656 405.239 114.169 404.915 114.725 404.804C115.28 404.694 115.849 404.803 116.352 405.116C117.864 406.052 119.426 406.86 121.027 407.533C121.557 407.755 122.018 408.178 122.345 408.742C122.672 409.306 122.849 409.982 122.85 410.676V418.847C122.849 419.283 122.918 419.715 123.053 420.118C123.187 420.521 123.384 420.888 123.633 421.196C123.881 421.505 124.177 421.75 124.502 421.917C124.827 422.084 125.175 422.17 125.527 422.17H140.619C140.971 422.17 141.319 422.084 141.644 421.917C141.969 421.75 142.265 421.505 142.513 421.196C142.762 420.888 142.959 420.521 143.093 420.118C143.228 419.715 143.296 419.283 143.296 418.847V410.676C143.297 409.982 143.473 409.306 143.8 408.742C144.127 408.178 144.589 407.755 145.119 407.533C146.72 406.86 148.282 406.052 149.794 405.116C150.297 404.803 150.866 404.694 151.421 404.804C151.976 404.915 152.49 405.239 152.888 405.731L157.562 411.525C158.064 412.147 158.746 412.497 159.456 412.497C160.167 412.497 160.848 412.147 161.35 411.525L172.028 398.293C172.277 397.986 172.474 397.62 172.608 397.218C172.743 396.816 172.812 396.385 172.812 395.949C172.812 395.514 172.743 395.082 172.608 394.68C172.474 394.278 172.277 393.912 172.028 393.605L167.26 387.695C166.867 387.205 166.607 386.574 166.516 385.892C166.425 385.21 166.508 384.51 166.754 383.889C167.477 382.045 168.102 380.145 168.625 378.2C168.8 377.537 169.141 376.959 169.597 376.55C170.053 376.141 170.602 375.921 171.166 375.922H177.935C178.287 375.922 178.635 375.837 178.96 375.67C179.285 375.503 179.58 375.259 179.829 374.951C180.077 374.643 180.274 374.277 180.409 373.874C180.543 373.471 180.613 373.04 180.612 372.604V353.894C180.613 353.458 180.543 353.026 180.409 352.623C180.274 352.22 180.077 351.854 179.828 351.546C179.579 351.238 179.283 350.994 178.958 350.827C178.633 350.661 178.285 350.575 177.933 350.576ZM133.075 390.897C128.663 390.897 124.35 389.275 120.681 386.237C117.013 383.199 114.153 378.881 112.465 373.828C110.776 368.776 110.335 363.216 111.195 357.853C112.056 352.489 114.181 347.562 117.301 343.696C120.421 339.829 124.396 337.195 128.723 336.128C133.051 335.061 137.536 335.609 141.612 337.702C145.689 339.795 149.173 343.338 151.624 347.885C154.076 352.432 155.384 357.778 155.384 363.247C155.384 366.878 154.807 370.474 153.686 373.828C152.565 377.183 150.921 380.231 148.85 382.798C146.778 385.366 144.319 387.403 141.612 388.792C138.906 390.182 136.005 390.897 133.075 390.897Z" fill="#F4F4F4"/>
<path d="M125.792 197.681H116.326C115.574 197.682 114.839 197.394 114.225 196.855C113.611 196.317 113.147 195.555 112.898 194.675C112.173 192.096 111.316 189.578 110.332 187.135C109.992 186.29 109.876 185.334 110 184.402C110.124 183.471 110.481 182.611 111.022 181.946L117.749 173.608C118.433 172.76 118.817 171.61 118.817 170.412C118.817 169.213 118.433 168.064 117.749 167.216L103.216 149.21C102.532 148.363 101.604 147.887 100.637 147.887C99.6702 147.887 98.7427 148.363 98.0585 149.21L91.21 157.699C90.6768 158.362 89.9897 158.803 89.2448 158.959C88.4998 159.115 87.7341 158.978 87.0547 158.569C85.1213 157.398 83.1301 156.381 81.0931 155.523C80.3753 155.22 79.7522 154.645 79.3114 153.881C78.8707 153.116 78.6343 152.199 78.6357 151.259V139.235C78.6359 138.641 78.5417 138.054 78.3587 137.506C78.1756 136.957 77.9071 136.459 77.5686 136.04C77.2302 135.62 76.8283 135.288 76.386 135.061C75.9438 134.834 75.4697 134.717 74.9911 134.717H54.4454C53.9668 134.717 53.4928 134.834 53.0506 135.061C52.6084 135.288 52.2067 135.621 51.8683 136.04C51.5299 136.46 51.2615 136.958 51.0784 137.506C50.8954 138.054 50.8012 138.641 50.8014 139.235V151.259C50.8027 152.199 50.5663 153.116 50.1256 153.881C49.6848 154.645 49.0618 155.22 48.3441 155.523C46.3069 156.381 44.3157 157.398 42.3824 158.569C41.703 158.978 40.9374 159.115 40.1924 158.959C39.4474 158.803 38.7603 158.362 38.2272 157.699L31.3786 149.21C30.6945 148.363 29.767 147.887 28.7999 147.887C27.8328 147.887 26.9053 148.363 26.2212 149.21L11.6866 167.216C11.0032 168.064 10.6193 169.213 10.6193 170.412C10.6193 171.61 11.0032 172.76 11.6866 173.608L18.4145 181.946C18.955 182.611 19.3124 183.471 19.4361 184.402C19.5598 185.334 19.4434 186.29 19.1034 187.135C18.1187 189.577 17.2639 192.095 16.5444 194.675C16.2929 195.554 15.8276 196.316 15.2125 196.854C14.5974 197.393 13.8629 197.681 13.1099 197.681H3.64466C3.16601 197.681 2.69201 197.797 2.24975 198.024C1.80748 198.251 1.40562 198.584 1.06714 199.003C0.728657 199.422 0.46019 199.92 0.277084 200.469C0.0939774 201.017 -0.000177705 201.604 5.68378e-07 202.197V227.671C-0.000266836 228.264 0.0938224 228.852 0.276889 229.4C0.459955 229.948 0.728408 230.446 1.0669 230.866C1.40539 231.285 1.80728 231.618 2.24959 231.845C2.6919 232.072 3.16596 232.188 3.64466 232.188H12.8611C13.6276 232.188 14.3746 232.487 14.9956 233.044C15.6166 233.601 16.0798 234.387 16.3192 235.289C17.0305 237.937 17.8813 240.525 18.8661 243.034C19.2002 243.88 19.3133 244.833 19.1897 245.762C19.0661 246.69 18.7119 247.548 18.1765 248.216L11.6853 256.261C11.3466 256.68 11.0779 257.178 10.8945 257.726C10.7112 258.274 10.6168 258.861 10.6168 259.455C10.6168 260.048 10.7112 260.635 10.8945 261.183C11.0779 261.731 11.3466 262.229 11.6853 262.648L26.2191 280.661C26.9033 281.508 27.8308 281.984 28.7979 281.984C29.7649 281.984 30.6924 281.508 31.3766 280.661L37.7396 272.774C38.2818 272.103 38.9805 271.661 39.7366 271.51C40.4927 271.36 41.268 271.507 41.9525 271.933C44.011 273.208 46.1372 274.307 48.3163 275.224C49.0389 275.526 49.6669 276.102 50.1122 276.87C50.5575 277.637 50.7978 278.558 50.7994 279.504V290.627C50.7986 291.221 50.8922 291.809 51.075 292.358C51.2577 292.906 51.526 293.405 51.8645 293.826C52.2029 294.246 52.6049 294.579 53.0474 294.807C53.4899 295.034 53.9643 295.152 54.4434 295.152H74.989C75.4682 295.152 75.9426 295.035 76.3852 294.807C76.8278 294.58 77.2298 294.246 77.5684 293.826C77.9069 293.406 78.1752 292.907 78.358 292.358C78.5408 291.809 78.6345 291.221 78.6337 290.627V279.504C78.6353 278.558 78.8755 277.637 79.3209 276.87C79.7662 276.102 80.3942 275.526 81.1168 275.224C83.2956 274.307 85.4216 273.208 87.4799 271.933C88.1644 271.507 88.9396 271.36 89.6958 271.51C90.4519 271.661 91.1506 272.103 91.6927 272.774L98.0565 280.661C98.7406 281.508 99.6681 281.984 100.635 281.984C101.602 281.984 102.53 281.508 103.214 280.661L117.747 262.648C118.086 262.229 118.355 261.731 118.538 261.183C118.721 260.635 118.816 260.048 118.816 259.455C118.816 258.861 118.721 258.274 118.538 257.726C118.355 257.178 118.086 256.68 117.747 256.261L111.256 248.216C110.72 247.548 110.366 246.69 110.243 245.762C110.119 244.833 110.232 243.88 110.566 243.034C111.551 240.525 112.402 237.937 113.113 235.289C113.353 234.387 113.816 233.601 114.437 233.044C115.058 232.487 115.805 232.188 116.571 232.188H125.788C126.267 232.188 126.741 232.071 127.183 231.845C127.625 231.618 128.027 231.285 128.366 230.865C128.704 230.446 128.973 229.948 129.156 229.4C129.339 228.851 129.433 228.264 129.432 227.671V202.197C129.433 201 129.049 199.852 128.367 199.005C127.684 198.158 126.758 197.682 125.792 197.681ZM64.7209 252.575C58.7136 252.576 52.8411 250.368 47.8459 246.232C42.8508 242.096 38.9575 236.217 36.6584 229.338C34.3592 222.459 33.7575 214.89 34.9293 207.587C36.1012 200.285 38.9939 193.577 43.2417 188.312C47.4895 183.047 52.9016 179.462 58.7935 178.01C64.6855 176.557 70.7925 177.303 76.3425 180.153C81.8924 183.002 86.6359 187.828 89.973 194.019C93.3102 200.21 95.0911 207.488 95.0906 214.934C95.0897 224.917 91.8897 234.49 86.1945 241.549C80.4993 248.608 72.7752 252.574 64.7209 252.575Z" fill="#D1ECFA" fill-opacity="0.25"/>
<path d="M95.8221 363.476L452.343 363.476C461.098 363.476 468.195 354.679 468.195 343.827L468.195 20.3029C468.195 9.45145 461.098 0.654633 452.343 0.654633L95.8221 0.654633C87.0669 0.654633 79.9694 9.45145 79.9694 20.3029L79.9694 343.827C79.9694 354.679 87.0669 363.476 95.8221 363.476Z" fill="white"/>
<path d="M79.4404 343.827V20.303C79.4456 14.9201 81.1732 9.75959 84.2443 5.95342C87.3153 2.14726 91.479 0.00622757 95.8221 0L452.344 0C456.687 0.00622757 460.851 2.14726 463.922 5.95342C466.993 9.75959 468.72 14.9201 468.725 20.303V343.827C468.72 349.21 466.993 354.371 463.922 358.177C460.851 361.983 456.687 364.124 452.344 364.13H95.8221C91.479 364.124 87.3152 361.983 84.2441 358.177C81.173 354.371 79.4455 349.21 79.4404 343.827ZM95.8221 1.31022C91.7592 1.316 87.864 3.31896 84.9911 6.8797C82.1183 10.4404 80.5022 15.2682 80.4975 20.3038V343.827C80.5022 348.863 82.1183 353.691 84.9911 357.251C87.864 360.812 91.7592 362.815 95.8221 362.821H452.344C456.407 362.815 460.302 360.812 463.175 357.251C466.048 353.691 467.664 348.863 467.668 343.827V20.303C467.664 15.2673 466.048 10.4394 463.175 6.87861C460.302 3.31783 456.407 1.31494 452.344 1.30938L95.8221 1.31022Z" fill="#202020"/>
<path d="M79.9697 20.3006V40.0716H468.194V20.3006C468.194 15.0901 466.525 10.093 463.552 6.40838C460.58 2.72371 456.548 0.653235 452.344 0.652344H95.8225C91.6181 0.652344 87.5858 2.72242 84.6129 6.40719C81.6399 10.092 79.9697 15.0896 79.9697 20.3006Z" fill="#202020"/>
<path d="M148.304 220.138C139.815 220.138 131.516 217.018 124.458 211.172C117.399 205.327 111.898 197.018 108.649 187.297C105.4 177.577 104.55 166.88 106.207 156.56C107.863 146.241 111.951 136.762 117.953 129.322C123.956 121.882 131.604 116.815 139.93 114.762C148.256 112.71 156.887 113.763 164.73 117.79C172.573 121.816 179.276 128.635 183.993 137.383C188.709 146.132 191.226 156.417 191.226 166.939C191.213 181.043 186.687 194.565 178.64 204.538C170.593 214.512 159.684 220.122 148.304 220.138ZM148.304 115.421C140.083 115.421 132.047 118.443 125.211 124.103C118.376 129.764 113.048 137.81 109.902 147.224C106.756 156.638 105.933 166.996 107.537 176.99C109.141 186.983 113.099 196.163 118.912 203.368C124.726 210.573 132.132 215.479 140.195 217.467C148.258 219.455 156.615 218.435 164.211 214.535C171.806 210.636 178.298 204.033 182.865 195.561C187.432 187.089 189.87 177.128 189.87 166.939C189.858 153.28 185.475 140.184 177.683 130.526C169.89 120.867 159.325 115.434 148.304 115.418V115.421Z" fill="#202020"/>
<path d="M274.081 220.138C265.592 220.138 257.294 217.018 250.235 211.172C243.177 205.327 237.675 197.018 234.426 187.297C231.178 177.577 230.328 166.88 231.984 156.56C233.64 146.241 237.728 136.762 243.731 129.322C249.734 121.882 257.382 116.815 265.708 114.762C274.034 112.71 282.664 113.763 290.507 117.79C298.35 121.816 305.053 128.635 309.77 137.383C314.486 146.132 317.004 156.417 317.004 166.939C316.99 181.043 312.464 194.565 304.417 204.538C296.371 214.512 285.461 220.122 274.081 220.138ZM274.081 115.421C265.86 115.421 257.824 118.443 250.989 124.103C244.153 129.764 238.825 137.81 235.679 147.224C232.533 156.638 231.71 166.996 233.314 176.99C234.918 186.983 238.877 196.163 244.69 203.368C250.503 210.573 257.909 215.479 265.972 217.467C274.035 219.455 282.393 218.435 289.988 214.535C297.583 210.636 304.075 204.033 308.642 195.561C313.21 187.089 315.647 177.128 315.647 166.939C315.635 153.28 311.252 140.184 303.46 130.526C295.667 120.867 285.102 115.434 274.081 115.418V115.421Z" fill="#202020"/>
<path d="M399.861 220.138C391.371 220.138 383.073 217.018 376.014 211.172C368.956 205.327 363.454 197.018 360.206 187.297C356.957 177.577 356.107 166.88 357.763 156.56C359.419 146.241 363.507 136.762 369.51 129.322C375.513 121.882 383.161 116.815 391.487 114.762C399.813 112.71 408.443 113.763 416.286 117.79C424.129 121.816 430.833 128.635 435.549 137.383C440.265 146.132 442.783 156.417 442.783 166.939C442.77 181.043 438.243 194.565 430.197 204.538C422.15 214.512 411.24 220.122 399.861 220.138ZM399.861 115.421C391.64 115.421 383.603 118.443 376.768 124.103C369.932 129.764 364.605 137.81 361.459 147.224C358.313 156.638 357.49 166.996 359.093 176.99C360.697 186.983 364.656 196.163 370.469 203.368C376.282 210.573 383.689 215.479 391.752 217.467C399.815 219.455 408.172 218.435 415.767 214.535C423.363 210.636 429.854 204.033 434.422 195.561C438.989 187.089 441.427 177.128 441.427 166.939C441.415 153.28 437.032 140.184 429.239 130.526C421.447 120.867 410.881 115.434 399.861 115.418V115.421Z" fill="#202020"/>
<path opacity="0.6" d="M426.58 174.603V141.479H395.744V167.469H418.544L426.58 174.603Z" fill="#66C0EE"/>
<path d="M373.141 198.674V153.876H414.845V189.026H384.009L373.141 198.674Z" fill="#66C0EE"/>
<path d="M382.594 176.275C384.59 176.275 386.208 174.269 386.208 171.795C386.208 169.321 384.59 167.316 382.594 167.316C380.598 167.316 378.979 169.321 378.979 171.795C378.979 174.269 380.598 176.275 382.594 176.275Z" fill="white"/>
<path d="M393.993 176.275C395.989 176.275 397.607 174.269 397.607 171.795C397.607 169.321 395.989 167.316 393.993 167.316C391.997 167.316 390.379 169.321 390.379 171.795C390.379 174.269 391.997 176.275 393.993 176.275Z" fill="white"/>
<path d="M405.391 176.275C407.388 176.275 409.006 174.269 409.006 171.795C409.006 169.321 407.388 167.316 405.391 167.316C403.395 167.316 401.777 169.321 401.777 171.795C401.777 174.269 403.395 176.275 405.391 176.275Z" fill="white"/>
<path d="M169.689 183.216C170.104 183.56 170.397 184.088 170.507 184.692C170.616 185.296 170.534 185.929 170.277 186.46L167.939 191.288C167.319 192.594 166.317 193.554 165.141 193.969C161.255 195.29 152.686 195.555 138.949 178.533C125.213 161.51 125.429 150.883 126.495 146.069C126.83 144.611 127.604 143.369 128.657 142.6L132.554 139.703C132.982 139.384 133.492 139.283 133.979 139.419C134.466 139.555 134.892 139.918 135.169 140.433L141.381 151.983C141.653 152.489 141.76 153.103 141.681 153.703C141.603 154.302 141.344 154.843 140.958 155.216L137.468 158.578C137.102 158.928 136.85 159.429 136.756 159.99C136.663 160.551 136.734 161.136 136.958 161.637C137.982 163.919 138.953 166.61 143.757 172.572C148.562 178.535 150.742 179.73 152.581 180.999C152.985 181.277 153.456 181.366 153.909 181.25C154.362 181.133 154.766 180.819 155.047 180.365L157.76 176.043C158.061 175.563 158.497 175.242 158.981 175.144C159.465 175.047 159.961 175.18 160.369 175.517L169.689 183.216Z" fill="#8DD0F2"/>
<path opacity="0.6" d="M296.201 185.637H252.137C251.641 185.64 251.165 185.399 250.813 184.967C250.461 184.535 250.261 183.948 250.258 183.334L250.105 150.6C250.103 150.329 250.145 150.06 250.228 149.809C250.31 149.558 250.432 149.329 250.586 149.136C250.739 148.944 250.922 148.79 251.124 148.685C251.326 148.58 251.542 148.525 251.761 148.524L296.233 148.242C296.674 148.239 297.098 148.453 297.412 148.838C297.726 149.223 297.904 149.746 297.906 150.293L298.06 183.309C298.061 183.613 298.014 183.915 297.922 184.196C297.829 184.478 297.692 184.734 297.52 184.95C297.347 185.167 297.142 185.339 296.916 185.456C296.69 185.574 296.447 185.636 296.201 185.637Z" fill="#138660"/>
<path d="M297.432 148.86C294.801 151.255 275.694 168.685 275.673 168.702C275.154 169.063 274.567 169.245 273.972 169.23C273.377 169.216 272.796 169.004 272.29 168.618L250.557 149.179C250.711 148.974 250.898 148.81 251.106 148.697C251.314 148.584 251.538 148.525 251.764 148.524L296.232 148.238C296.455 148.237 296.677 148.291 296.883 148.398C297.089 148.505 297.276 148.662 297.432 148.86Z" fill="#138660"/>
<path d="M479.82 189.236C488.354 189.236 495.273 180.66 495.273 170.082C495.273 159.504 488.354 150.929 479.82 150.929C471.285 150.929 464.366 159.504 464.366 170.082C464.366 180.66 471.285 189.236 479.82 189.236Z" fill="url(#paint0_linear_1513_81412)"/>
<path d="M472.578 168.268C472.18 168.268 471.791 168.124 471.459 167.853C471.127 167.582 470.866 167.197 470.709 166.745C470.43 165.944 463.961 146.809 470.988 118.739C478.598 88.3333 505.108 87.9795 505.374 87.9795C505.914 87.9795 506.431 88.2451 506.813 88.718C507.194 89.1908 507.409 89.8321 507.409 90.5008C507.409 91.1694 507.194 91.8107 506.813 92.2836C506.431 92.7564 505.914 93.022 505.374 93.022C504.406 93.022 481.582 93.4179 474.87 120.232C468.285 146.537 474.379 164.566 474.441 164.745C474.575 165.129 474.629 165.548 474.6 165.964C474.571 166.38 474.459 166.78 474.273 167.129C474.088 167.478 473.836 167.765 473.54 167.963C473.243 168.162 472.911 168.266 472.574 168.266L472.578 168.268Z" fill="url(#paint1_linear_1513_81412)"/>
<path d="M474.225 189.236C482.759 189.236 489.678 180.66 489.678 170.082C489.678 159.504 482.759 150.929 474.225 150.929C465.69 150.929 458.771 159.504 458.771 170.082C458.771 180.66 465.69 189.236 474.225 189.236Z" fill="url(#paint2_linear_1513_81412)"/>
<path opacity="0.3" d="M474.225 189.236C482.759 189.236 489.678 180.66 489.678 170.082C489.678 159.504 482.759 150.929 474.225 150.929C465.69 150.929 458.771 159.504 458.771 170.082C458.771 180.66 465.69 189.236 474.225 189.236Z" fill="white"/>
<path d="M477.933 189.236C486.467 189.236 493.386 180.66 493.386 170.082C493.386 159.504 486.467 150.929 477.933 150.929C469.398 150.929 462.479 159.504 462.479 170.082C462.479 180.66 469.398 189.236 477.933 189.236Z" fill="url(#paint3_linear_1513_81412)"/>
<path d="M550.827 135.62C550.827 135.62 555.792 165.106 561.721 174.027C578.792 199.708 586.284 230.557 574.034 249.374C561.785 268.191 476.451 283.39 465.542 246.639C456.361 215.699 466.211 210.22 466.331 183.41C466.385 171.279 467.739 145.695 467.739 145.695" fill="#202020"/>
<path d="M479.507 231.039C479.663 231.014 481.394 266.614 514.763 263.51C537.863 261.366 546.1 230.986 546.632 230.986C544.142 230.331 539.948 229.376 538.842 228.645C535.204 226.222 530.705 223.701 529.53 214.946C528.852 209.903 530.002 184.084 529.648 178.976L494.189 188.785C494.685 199.568 498.153 224.566 485.998 228.99C483.973 229.727 481.794 230.4 479.507 231.039Z" fill="#B68978"/>
<path opacity="0.5" d="M493.689 218.779C494.245 216.56 494.603 214.273 494.756 211.958C495.146 206.675 495.068 201.355 494.524 196.093C501.731 194.887 508.52 191.2 514.121 185.451C514.78 188.465 518.401 201.634 517.398 204.499C515.504 209.913 506.599 218.779 493.689 218.779Z" fill="#333333"/>
<path d="M500.002 210.959C514.038 210.305 531.216 200.44 532.442 176.951L533.548 155.757C534.773 132.269 525.813 112.43 507.969 111C490.126 109.571 475.794 127.542 474.569 151.031L474.08 160.413C473.61 169.429 474.959 212.123 500.002 210.959Z" fill="#B68978"/>
<path opacity="0.1" d="M505.546 179.525C507.862 179.481 509.719 177.738 509.693 175.632C509.667 173.526 507.768 171.854 505.452 171.898C503.135 171.942 501.278 173.685 501.304 175.791C501.33 177.897 503.229 179.569 505.546 179.525Z" fill="#333333"/>
<path opacity="0.1" d="M480.552 175.26C480.573 177.361 478.717 179.105 476.401 179.153C476 179.16 475.6 179.116 475.207 179.021C474.832 176.571 474.568 174.198 474.387 171.99C474.999 171.688 475.651 171.531 476.309 171.525C478.627 171.478 480.526 173.149 480.552 175.26Z" fill="#333333"/>
<path d="M479.921 159.439C481.134 159.439 482.116 158.221 482.116 156.718C482.116 155.216 481.134 153.998 479.921 153.998C478.709 153.998 477.727 155.216 477.727 156.718C477.727 158.221 478.709 159.439 479.921 159.439Z" fill="#333333"/>
<path d="M501.641 161.45C502.853 161.45 503.836 160.232 503.836 158.73C503.836 157.227 502.853 156.009 501.641 156.009C500.429 156.009 499.446 157.227 499.446 158.73C499.446 160.232 500.429 161.45 501.641 161.45Z" fill="#333333"/>
<path opacity="0.5" d="M491.325 179.974H491.29C490.567 179.909 489.847 179.795 489.133 179.633C488.067 179.38 486.657 178.908 486.719 177.734C486.787 176.395 490.499 162.192 490.923 160.577C490.963 160.441 491.044 160.33 491.149 160.266C491.254 160.203 491.375 160.193 491.486 160.237C491.597 160.282 491.69 160.378 491.745 160.506C491.8 160.634 491.813 160.783 491.781 160.922C490.197 166.973 487.667 176.905 487.62 177.806C487.776 178.196 489.555 178.712 491.349 178.857C491.465 178.868 491.573 178.933 491.651 179.04C491.729 179.146 491.77 179.286 491.767 179.43C491.764 179.574 491.717 179.71 491.634 179.812C491.552 179.913 491.442 179.971 491.326 179.975L491.325 179.974Z" fill="#333333"/>
<path opacity="0.5" d="M494.891 189.49C492.001 189.468 489.157 188.604 486.586 186.969C486.533 186.937 486.485 186.892 486.446 186.837C486.407 186.782 486.377 186.717 486.357 186.648C486.319 186.508 486.326 186.354 486.379 186.221C486.432 186.088 486.525 185.986 486.638 185.938C486.751 185.89 486.875 185.899 486.982 185.965C492.527 189.326 497.696 189.219 501.925 185.654C502.011 185.578 502.099 185.508 502.19 185.444C502.296 185.384 502.417 185.378 502.527 185.426C502.637 185.474 502.728 185.572 502.781 185.701C502.833 185.83 502.843 185.98 502.809 186.118C502.775 186.256 502.699 186.372 502.597 186.443C502.563 186.466 502.508 186.513 502.432 186.579C500.208 188.458 497.582 189.471 494.891 189.49Z" fill="#333333"/>
<path d="M547.995 160.827L532.01 159.659C519.583 155.528 513.48 130.674 513.48 130.674C513.48 130.674 503.538 150.238 467.71 145.675C467.71 145.675 465.964 83.5102 519.224 94.0357C536.351 97.4209 550.357 116.067 551.625 144.003C552.513 163.581 547.995 160.827 547.995 160.827Z" fill="#202020"/>
<path d="M530.96 184.018C536.385 184.453 541.154 177.615 541.504 170.894C541.855 164.173 537.653 160.115 532.23 159.68L529.201 163.96L526.298 183.645L530.96 184.018Z" fill="#B68978"/>
<path d="M486.022 150.566C484.575 149.629 482.953 149.184 481.322 149.275C480.502 149.314 479.692 149.507 478.918 149.846C478.138 150.183 477.394 150.64 476.705 151.206L476.684 151.223C476.607 151.281 476.514 151.3 476.427 151.275C476.339 151.25 476.262 151.184 476.213 151.09C476.164 150.996 476.147 150.883 476.165 150.773C476.183 150.664 476.235 150.567 476.309 150.504C477.035 149.863 477.822 149.337 478.654 148.94C479.491 148.534 480.372 148.287 481.268 148.207C483.082 148.03 484.901 148.46 486.535 149.451C486.658 149.527 486.752 149.66 486.795 149.822C486.839 149.983 486.829 150.16 486.767 150.312C486.706 150.464 486.598 150.58 486.468 150.634C486.337 150.688 486.195 150.676 486.072 150.599L486.059 150.591L486.022 150.566Z" fill="#333333"/>
<path d="M500.513 150.625C502.235 149.894 504.083 149.749 505.865 150.205C506.746 150.423 507.595 150.803 508.385 151.334C509.17 151.857 509.899 152.5 510.555 153.249C510.621 153.323 510.662 153.426 510.668 153.536C510.674 153.647 510.645 153.756 510.588 153.841C510.531 153.925 510.449 153.979 510.36 153.991C510.272 154.003 510.183 153.972 510.112 153.904L510.091 153.884C509.465 153.216 508.773 152.647 508.033 152.192C507.299 151.737 506.514 151.421 505.704 151.256C504.095 150.914 502.442 151.105 500.912 151.812L500.875 151.83C500.811 151.861 500.744 151.876 500.676 151.874C500.608 151.872 500.541 151.854 500.478 151.82C500.416 151.786 500.359 151.737 500.312 151.676C500.265 151.616 500.228 151.544 500.203 151.465C500.179 151.387 500.167 151.303 500.168 151.219C500.169 151.134 500.184 151.051 500.212 150.974C500.239 150.896 500.278 150.827 500.327 150.768C500.376 150.71 500.434 150.664 500.498 150.633L500.513 150.625Z" fill="#333333"/>
<path opacity="0.52" d="M494.804 194.794C494.282 194.8 493.76 194.751 493.245 194.647C493.186 194.636 493.13 194.61 493.079 194.571C493.029 194.533 492.985 194.483 492.95 194.423C492.915 194.364 492.89 194.296 492.877 194.225C492.863 194.154 492.861 194.08 492.87 194.007C492.879 193.935 492.9 193.865 492.931 193.802C492.962 193.74 493.003 193.685 493.05 193.642C493.098 193.599 493.153 193.568 493.21 193.551C493.268 193.534 493.328 193.531 493.386 193.543C496.489 194.155 498.053 192.478 498.119 192.406C498.207 192.307 498.324 192.255 498.444 192.263C498.563 192.27 498.675 192.336 498.756 192.446C498.836 192.556 498.877 192.701 498.871 192.849C498.865 192.998 498.812 193.137 498.723 193.236C497.601 194.301 496.217 194.851 494.804 194.794Z" fill="#333333"/>
<path d="M532.184 159.365C521.19 156.287 516.741 147.905 514.946 141.416C513.769 137.084 513.336 132.496 513.674 127.945L514.013 128.002C513.682 132.493 514.111 137.021 515.273 141.295C517.043 147.677 521.427 155.918 532.263 158.956L532.184 159.365Z" fill="#333333"/>
<path d="M363.119 244.743L352.238 219.312C351.998 218.754 351.668 218.263 351.267 217.872C350.867 217.48 350.405 217.196 349.91 217.038C349.416 216.88 348.901 216.851 348.398 216.953C347.894 217.056 347.413 217.287 346.986 217.632C346.212 218.299 345.666 219.298 345.453 220.436C345.24 221.574 345.376 222.77 345.833 223.791L348.166 229.244L334.479 216.27C332.978 214.794 330.374 214.174 329.149 216.371C328.634 217.178 328.354 218.178 328.356 219.208C328.358 220.237 328.641 221.235 329.159 222.04C329.145 222.054 329.131 222.07 329.119 222.087C329.11 222.102 329.108 222.119 329.1 222.135L326.785 219.855C326.356 219.433 325.857 219.136 325.323 218.985C324.79 218.833 324.236 218.831 323.702 218.978C323.168 219.126 322.667 219.419 322.236 219.837C321.804 220.255 321.454 220.786 321.21 221.393C320.841 222.359 320.75 223.452 320.953 224.49C321.157 225.529 321.641 226.449 322.326 227.097L323.312 228.065C323.303 228.114 323.3 228.164 323.305 228.213C322.517 227.751 321.622 227.651 320.78 227.931C319.938 228.211 319.203 228.853 318.708 229.743C318.19 230.736 317.992 231.936 318.156 233.101C318.319 234.267 318.831 235.313 319.59 236.032L322.037 238.436C321.983 238.432 321.929 238.445 321.879 238.472C321.83 238.499 321.787 238.54 321.753 238.593C321.715 238.657 321.694 238.734 321.69 238.813C320.896 238.643 320.079 238.8 319.364 239.262C318.649 239.724 318.076 240.463 317.734 241.368C317.39 242.327 317.317 243.402 317.527 244.418C317.737 245.435 318.218 246.334 318.891 246.97L339.541 267.259C342.43 270.097 345.936 271.801 349.612 272.153C353.287 272.505 356.964 271.488 360.17 269.234C362.934 267.29 364.978 264.087 365.868 260.305C366.757 256.523 366.421 252.46 364.933 248.979L363.119 244.743Z" fill="#B68978"/>
<g opacity="0.2">
<path d="M342.657 234.963C342.602 235.048 342.521 235.104 342.433 235.117C342.346 235.13 342.257 235.1 342.187 235.033L329.183 222.674C329.147 222.641 329.118 222.599 329.095 222.551C329.073 222.503 329.059 222.45 329.053 222.396C329.047 222.341 329.05 222.285 329.061 222.232C329.073 222.179 329.093 222.129 329.12 222.085C329.147 222.041 329.181 222.004 329.219 221.977C329.258 221.949 329.301 221.931 329.345 221.924C329.389 221.917 329.434 221.92 329.477 221.934C329.52 221.949 329.56 221.973 329.596 222.007L342.6 234.366C342.671 234.434 342.717 234.534 342.729 234.644C342.741 234.755 342.717 234.866 342.662 234.955L342.657 234.963Z" fill="#333333"/>
</g>
<g opacity="0.2">
<path d="M338.417 242.222C338.361 242.307 338.281 242.362 338.193 242.375C338.105 242.388 338.016 242.358 337.946 242.291L323.435 228.499C323.364 228.431 323.318 228.331 323.306 228.221C323.294 228.111 323.318 227.999 323.372 227.911C323.429 227.826 323.509 227.771 323.597 227.756C323.685 227.742 323.774 227.769 323.847 227.833L338.36 241.621C338.431 241.689 338.478 241.789 338.489 241.899C338.501 242.01 338.477 242.121 338.423 242.21L338.417 242.222Z" fill="#333333"/>
</g>
<g opacity="0.2">
<path d="M333.863 250.117C333.807 250.202 333.727 250.257 333.639 250.27C333.551 250.283 333.462 250.253 333.392 250.186L321.815 239.184C321.744 239.116 321.697 239.016 321.686 238.906C321.674 238.795 321.698 238.683 321.753 238.595C321.807 238.506 321.888 238.448 321.978 238.434C322.067 238.419 322.157 238.449 322.228 238.517L333.804 249.522C333.876 249.589 333.922 249.689 333.934 249.8C333.946 249.91 333.922 250.021 333.868 250.11L333.863 250.117Z" fill="#333333"/>
</g>
<path d="M440.622 246.152L405.437 322.592L369.477 241.21L326.505 270.948L384.357 396.944C386.23 400.992 388.843 404.44 391.985 407.011C397.256 411.293 403.684 412.804 409.854 411.212C416.024 409.62 421.431 405.056 424.885 398.523L425.182 397.961L486.887 281.255L440.622 246.152Z" fill="url(#paint4_linear_1513_81412)"/>
<path d="M363.119 244.743L352.238 219.313C351.998 218.754 351.668 218.263 351.267 217.872C350.866 217.48 350.404 217.196 349.91 217.038C349.416 216.88 348.901 216.851 348.398 216.953C347.894 217.056 347.413 217.287 346.986 217.632C346.212 218.299 345.666 219.298 345.453 220.436C345.24 221.574 345.375 222.77 345.833 223.791L348.166 229.244L351.794 239.09" fill="#B68978"/>
<path d="M515.385 254.611C538.502 253.261 539.475 228.942 539.475 228.942C539.475 228.942 550.929 229.859 558.543 231.137C571.009 233.227 579.232 238.466 585.777 246.577C591.865 254.123 595.571 262.286 591.649 314.408C588.81 352.143 590.808 435.16 590.808 435.16H451.294C451.294 435.16 442.928 326.354 441.762 309.366C439.536 276.935 430.421 258.655 443.161 241.949C452.4 229.833 476.251 228.942 485.851 228.944C486.008 228.944 483.903 256.451 515.385 254.611Z" fill="url(#paint5_linear_1513_81412)"/>
<path d="M442.574 303.942C442.569 303.831 442.527 303.727 442.46 303.653C442.392 303.579 442.304 303.542 442.214 303.549C442.124 303.556 442.04 303.607 441.98 303.69C441.921 303.774 441.891 303.884 441.896 303.995L444.733 360.159C444.738 360.26 444.773 360.355 444.83 360.427C444.887 360.499 444.963 360.544 445.044 360.552C445.061 360.553 445.077 360.553 445.093 360.552C445.137 360.548 445.181 360.534 445.221 360.51C445.261 360.485 445.297 360.452 445.326 360.41C445.355 360.369 445.378 360.32 445.392 360.268C445.407 360.216 445.413 360.161 445.41 360.105" fill="#333333"/>
<path d="M473.312 385.928L450.744 379.132C450.248 378.983 449.733 378.963 449.23 379.074C448.728 379.185 448.25 379.425 447.826 379.778C447.403 380.131 447.043 380.589 446.77 381.124C446.497 381.658 446.317 382.257 446.242 382.883C446.131 384.043 446.371 385.212 446.917 386.165C447.462 387.118 448.273 387.785 449.193 388.039L454.033 389.496L437.118 393.57C435.231 393.982 433.128 395.984 433.641 398.578C433.786 399.591 434.203 400.514 434.826 401.196C435.448 401.878 436.238 402.278 437.068 402.332C437.066 402.354 437.066 402.377 437.068 402.4C437.068 402.418 437.08 402.432 437.084 402.449L434.175 403.085C433.636 403.203 433.125 403.469 432.679 403.863C432.234 404.257 431.865 404.769 431.599 405.362C431.333 405.955 431.178 406.614 431.144 407.291C431.11 407.968 431.198 408.646 431.402 409.275C431.74 410.258 432.339 411.068 433.101 411.569C433.862 412.069 434.739 412.231 435.585 412.026L436.823 411.755C436.846 411.796 436.875 411.832 436.907 411.86C436.105 412.284 435.451 413.047 435.061 414.014C434.671 414.98 434.571 416.087 434.779 417.137C435.034 418.277 435.626 419.257 436.438 419.88C437.25 420.503 438.221 420.724 439.159 420.498L442.234 419.826C442.196 419.873 442.168 419.931 442.151 419.995C442.135 420.059 442.131 420.126 442.14 420.192C442.154 420.27 442.186 420.342 442.232 420.397C441.601 421.02 441.154 421.883 440.958 422.852C440.762 423.821 440.828 424.843 441.147 425.76C441.497 426.716 442.097 427.497 442.85 427.977C443.603 428.458 444.464 428.609 445.295 428.407L471.246 422.733C474.877 421.94 478.233 419.821 480.886 416.647C483.538 413.474 485.365 409.392 486.133 404.923C486.795 401.07 486.219 397.048 484.527 393.713C482.835 390.378 480.161 387.991 477.072 387.061L473.312 385.928Z" fill="#B68978"/>
<g opacity="0.2">
<path d="M453.827 398.402C453.842 398.511 453.822 398.622 453.771 398.712C453.72 398.803 453.643 398.865 453.556 398.885L437.466 402.734C437.422 402.745 437.377 402.744 437.333 402.733C437.29 402.722 437.248 402.701 437.211 402.67C437.175 402.639 437.143 402.599 437.118 402.553C437.094 402.507 437.077 402.455 437.069 402.401C437.06 402.347 437.06 402.291 437.069 402.237C437.078 402.183 437.096 402.132 437.121 402.086C437.146 402.04 437.178 402.001 437.215 401.971C437.252 401.94 437.294 401.919 437.337 401.909L453.428 398.059C453.471 398.049 453.517 398.049 453.56 398.06C453.604 398.072 453.646 398.093 453.683 398.125C453.72 398.156 453.751 398.196 453.776 398.242C453.8 398.289 453.817 398.341 453.825 398.395L453.827 398.402Z" fill="#333333"/>
</g>
<g opacity="0.2">
<path d="M455.396 407.151C455.41 407.259 455.39 407.37 455.339 407.46C455.289 407.551 455.212 407.613 455.124 407.633L437.168 411.929C437.124 411.94 437.079 411.939 437.035 411.928C436.991 411.916 436.95 411.895 436.913 411.863C436.876 411.832 436.845 411.792 436.82 411.746C436.796 411.699 436.779 411.648 436.771 411.593C436.757 411.484 436.777 411.372 436.828 411.28C436.878 411.189 436.955 411.125 437.042 411.101L454.999 406.805C455.043 406.795 455.088 406.795 455.132 406.807C455.175 406.818 455.217 406.84 455.254 406.871C455.29 406.902 455.322 406.942 455.346 406.989C455.371 407.035 455.387 407.087 455.396 407.141V407.151Z" fill="#333333"/>
</g>
<g opacity="0.2">
<path d="M457.132 416.614C457.147 416.722 457.127 416.833 457.076 416.924C457.025 417.014 456.948 417.076 456.861 417.096L442.537 420.524C442.494 420.534 442.449 420.534 442.405 420.523C442.361 420.512 442.32 420.49 442.283 420.459C442.246 420.428 442.215 420.389 442.19 420.343C442.165 420.296 442.148 420.245 442.14 420.191C442.132 420.137 442.132 420.081 442.141 420.027C442.15 419.973 442.167 419.921 442.192 419.876C442.217 419.83 442.249 419.791 442.286 419.76C442.323 419.73 442.365 419.709 442.408 419.698L456.732 416.271C456.776 416.261 456.821 416.261 456.865 416.272C456.909 416.283 456.95 416.305 456.987 416.337C457.024 416.368 457.056 416.408 457.08 416.454C457.105 416.501 457.121 416.553 457.129 416.607L457.132 416.614Z" fill="#333333"/>
</g>
<path d="M471.064 433.735L592.33 434.555C596.236 435.082 600.187 434.48 603.873 432.797C607.56 431.113 610.881 428.393 613.577 424.851C616.273 421.309 618.271 417.041 619.412 412.382C620.554 407.723 620.809 402.799 620.157 397.997L593.141 263.865C592.605 259.765 591.42 255.836 589.654 252.305C587.888 248.774 585.576 245.711 582.852 243.291C580.128 240.871 577.044 239.143 573.779 238.206C570.514 237.268 567.131 237.14 563.826 237.829C560.52 238.518 557.357 240.009 554.519 242.218C551.68 244.428 549.222 247.31 547.286 250.701C545.35 254.092 543.973 257.924 543.236 261.976C542.499 266.029 542.415 270.222 542.99 274.314L563.709 375.363L471.651 379.115L471.064 433.735Z" fill="url(#paint6_linear_1513_81412)"/>
<path d="M579.56 374.94C579.645 374.939 579.727 374.898 579.789 374.826C579.851 374.754 579.889 374.656 579.895 374.55C579.901 374.445 579.875 374.341 579.823 374.258C579.77 374.176 579.693 374.121 579.609 374.104L563.904 374.811C563.86 374.802 563.815 374.804 563.772 374.817C563.728 374.83 563.688 374.854 563.652 374.887C563.616 374.92 563.585 374.961 563.563 375.009C563.54 375.057 563.525 375.109 563.519 375.164C563.506 375.274 563.529 375.386 563.582 375.476C563.635 375.565 563.715 375.625 563.804 375.642L579.509 374.935C579.526 374.938 579.543 374.94 579.56 374.94Z" fill="#333333"/>
<path d="M588.803 435.16C588.893 435.167 588.981 435.13 589.049 435.056C589.116 434.982 589.158 434.878 589.164 434.767C589.169 434.655 589.139 434.546 589.08 434.462C589.02 434.378 588.937 434.326 588.847 434.319L471.774 433.414L472.288 379.627L563.795 375.641C563.848 375.649 563.901 375.643 563.951 375.621C564.002 375.599 564.047 375.563 564.084 375.516C564.121 375.469 564.148 375.411 564.164 375.348C564.179 375.286 564.183 375.219 564.174 375.154L554.195 314.417C554.188 314.362 554.173 314.31 554.149 314.262C554.126 314.215 554.095 314.174 554.058 314.142C554.022 314.11 553.981 314.087 553.937 314.075C553.893 314.063 553.848 314.062 553.804 314.072C553.716 314.091 553.637 314.152 553.585 314.243C553.532 314.334 553.511 314.446 553.526 314.556L563.426 374.731L472.03 378.734C471.985 378.727 471.939 378.731 471.896 378.746C471.852 378.761 471.811 378.786 471.776 378.821C471.74 378.855 471.71 378.899 471.688 378.948C471.667 378.997 471.653 379.051 471.648 379.107L471.062 433.734C471.052 433.843 471.077 433.953 471.132 434.039C471.187 434.126 471.267 434.182 471.355 434.196L588.756 435.155C588.771 435.158 588.787 435.16 588.803 435.16Z" fill="#333333"/>
<path d="M413.944 419.377L380.77 292.987C380.187 290.766 379.052 288.83 377.528 287.458C376.003 286.086 374.167 285.346 372.283 285.346H237.13C235.721 285.346 234.332 285.76 233.077 286.552C231.822 287.345 230.736 288.495 229.908 289.908C229.08 291.321 228.534 292.956 228.314 294.681C228.094 296.406 228.206 298.171 228.642 299.831L261.816 426.222C262.399 428.443 263.534 430.379 265.059 431.751C266.583 433.124 268.419 433.863 270.304 433.863H405.456C406.865 433.863 408.254 433.449 409.509 432.656C410.764 431.863 411.85 430.714 412.678 429.301C413.506 427.888 414.053 426.252 414.273 424.527C414.493 422.803 414.38 421.038 413.944 419.377Z" fill="#202020"/>
<path d="M477.354 423.615H386.884C384.629 423.615 382.802 425.88 382.802 428.674V428.803C382.802 431.597 384.629 433.863 386.884 433.863H477.354C479.608 433.863 481.436 431.597 481.436 428.803V428.674C481.436 425.88 479.608 423.615 477.354 423.615Z" fill="#202020"/>
<path d="M319.259 380.818C327.088 380.818 333.434 372.952 333.434 363.249C333.434 353.546 327.088 345.68 319.259 345.68C311.43 345.68 305.084 353.546 305.084 363.249C305.084 372.952 311.43 380.818 319.259 380.818Z" fill="white"/>
<path d="M540.179 167.208C539.64 167.208 539.122 166.942 538.741 166.47C538.359 165.997 538.145 165.356 538.145 164.687V135.966C538.145 121.351 534.881 109.771 528.706 102.478C522.854 95.5645 514.455 92.3852 503.753 93.0214C503.485 93.0391 503.217 92.991 502.965 92.88C502.712 92.769 502.48 92.5972 502.281 92.3745C502.082 92.1518 501.921 91.8825 501.806 91.5823C501.691 91.282 501.626 90.9566 501.613 90.6247C501.6 90.2929 501.64 89.9612 501.731 89.6486C501.822 89.3361 501.962 89.0489 502.142 88.8036C502.323 88.5583 502.541 88.3596 502.784 88.2191C503.027 88.0786 503.29 87.9989 503.558 87.9847C515.418 87.2746 524.826 90.9262 531.516 98.8262C538.516 107.095 542.216 119.938 542.216 135.965V164.686C542.216 165.017 542.164 165.346 542.061 165.652C541.959 165.958 541.809 166.236 541.62 166.471C541.43 166.705 541.206 166.89 540.959 167.017C540.711 167.144 540.447 167.209 540.179 167.208Z" fill="url(#paint7_linear_1513_81412)"/>
<path d="M537.139 189.236C545.674 189.236 552.592 180.66 552.592 170.082C552.592 159.504 545.674 150.929 537.139 150.929C528.604 150.929 521.686 159.504 521.686 170.082C521.686 180.66 528.604 189.236 537.139 189.236Z" fill="url(#paint8_linear_1513_81412)"/>
<path d="M537.735 184.43C537.627 184.333 537.504 184.264 537.374 184.225C537.244 184.187 537.11 184.181 536.978 184.207C536.846 184.233 536.719 184.291 536.606 184.378C536.492 184.465 536.393 184.579 536.315 184.713L535.133 186.737C533.683 189.212 531.783 191.227 529.585 192.618C527.388 194.009 524.956 194.737 522.489 194.741H503.675V194.247C503.675 193.579 503.461 192.937 503.079 192.465C502.698 191.992 502.18 191.726 501.641 191.726H495.273C494.734 191.726 494.217 191.992 493.835 192.465C493.454 192.937 493.239 193.579 493.239 194.247V197.939C493.239 198.607 493.454 199.249 493.835 199.721C494.217 200.194 494.734 200.46 495.273 200.46H501.641C502.18 200.46 502.698 200.194 503.079 199.721C503.461 199.249 503.675 198.607 503.675 197.939V197.266H522.489C525.278 197.261 528.026 196.439 530.51 194.867C532.994 193.295 535.142 191.017 536.781 188.22L537.963 186.195C538.042 186.061 538.099 185.909 538.13 185.747C538.161 185.586 538.166 185.418 538.145 185.254C538.124 185.09 538.077 184.933 538.007 184.792C537.936 184.65 537.844 184.527 537.735 184.43Z" fill="url(#paint9_linear_1513_81412)"/>
<path d="M540.846 189.236C549.381 189.236 556.299 180.66 556.299 170.082C556.299 159.504 549.381 150.929 540.846 150.929C532.311 150.929 525.393 159.504 525.393 170.082C525.393 180.66 532.311 189.236 540.846 189.236Z" fill="url(#paint10_linear_1513_81412)"/>
<path opacity="0.3" d="M540.846 189.236C549.381 189.236 556.299 180.66 556.299 170.082C556.299 159.504 549.381 150.929 540.846 150.929C532.311 150.929 525.393 159.504 525.393 170.082C525.393 180.66 532.311 189.236 540.846 189.236Z" fill="white"/>
</g>
<defs>
<linearGradient id="paint0_linear_1513_81412" x1="479.82" y1="150.929" x2="479.82" y2="189.236" gradientUnits="userSpaceOnUse">
<stop stop-color="#1CC990" stop-opacity="0.9"/>
<stop offset="1" stop-color="#F5F5F5"/>
</linearGradient>
<linearGradient id="paint1_linear_1513_81412" x1="487.567" y1="87.9795" x2="487.567" y2="168.268" gradientUnits="userSpaceOnUse">
<stop stop-color="#1CC990" stop-opacity="0.9"/>
<stop offset="1" stop-color="#F5F5F5"/>
</linearGradient>
<linearGradient id="paint2_linear_1513_81412" x1="474.225" y1="150.929" x2="474.225" y2="189.236" gradientUnits="userSpaceOnUse">
<stop stop-color="#1CC990" stop-opacity="0.9"/>
<stop offset="1" stop-color="#F5F5F5"/>
</linearGradient>
<linearGradient id="paint3_linear_1513_81412" x1="477.933" y1="150.929" x2="477.933" y2="189.236" gradientUnits="userSpaceOnUse">
<stop stop-color="#1CC990" stop-opacity="0.9"/>
<stop offset="1" stop-color="#F5F5F5"/>
</linearGradient>
<linearGradient id="paint4_linear_1513_81412" x1="406.696" y1="241.21" x2="406.696" y2="411.83" gradientUnits="userSpaceOnUse">
<stop stop-color="#1CC990" stop-opacity="0.9"/>
<stop offset="1" stop-color="#F5F5F5"/>
</linearGradient>
<linearGradient id="paint5_linear_1513_81412" x1="514.894" y1="228.942" x2="514.894" y2="435.16" gradientUnits="userSpaceOnUse">
<stop stop-color="#1CC990" stop-opacity="0.9"/>
<stop offset="1" stop-color="#F5F5F5"/>
</linearGradient>
<linearGradient id="paint6_linear_1513_81412" x1="545.787" y1="237.393" x2="545.787" y2="434.74" gradientUnits="userSpaceOnUse">
<stop stop-color="#1CC990" stop-opacity="0.9"/>
<stop offset="1" stop-color="#F5F5F5"/>
</linearGradient>
<linearGradient id="paint7_linear_1513_81412" x1="521.913" y1="87.8979" x2="521.913" y2="167.208" gradientUnits="userSpaceOnUse">
<stop stop-color="#1CC990" stop-opacity="0.9"/>
<stop offset="1" stop-color="#F5F5F5"/>
</linearGradient>
<linearGradient id="paint8_linear_1513_81412" x1="537.139" y1="150.929" x2="537.139" y2="189.236" gradientUnits="userSpaceOnUse">
<stop stop-color="#1CC990" stop-opacity="0.9"/>
<stop offset="1" stop-color="#F5F5F5"/>
</linearGradient>
<linearGradient id="paint9_linear_1513_81412" x1="515.699" y1="184.191" x2="515.699" y2="200.46" gradientUnits="userSpaceOnUse">
<stop stop-color="#1CC990" stop-opacity="0.9"/>
<stop offset="1" stop-color="#F5F5F5"/>
</linearGradient>
<linearGradient id="paint10_linear_1513_81412" x1="540.846" y1="150.929" x2="540.846" y2="189.236" gradientUnits="userSpaceOnUse">
<stop stop-color="#1CC990" stop-opacity="0.9"/>
<stop offset="1" stop-color="#F5F5F5"/>
</linearGradient>
<clipPath id="clip0_1513_81412">
<rect width="623" height="436" fill="white"/>
</clipPath>
</defs>
</svg>
