<svg width="656" height="555" viewBox="0 0 656 555" fill="none" xmlns="http://www.w3.org/2000/svg">
<path opacity="0.1" d="M127.996 527.483H16.4277V385.591H106.655L127.996 407.373V527.483Z" fill="#17A878"/>
<path opacity="0.1" d="M106.656 385.591V407.049L127.997 407.373L106.656 385.591Z" fill="#17A878"/>
<path d="M79.8319 441.673V448.381C79.8317 449.839 79.2379 451.238 78.1811 452.269C77.1244 453.3 75.6912 453.879 74.1967 453.879H5.63519C4.14065 453.879 2.70731 454.459 1.65051 455.49C0.593706 456.521 0 457.92 0 459.378V548.952C0 550.41 0.593706 551.809 1.65051 552.84C2.70731 553.872 4.14065 554.451 5.63519 554.451H138.789C140.283 554.451 141.716 553.872 142.773 552.84C143.83 551.809 144.424 550.41 144.424 548.952V441.673C144.424 440.214 143.83 438.816 142.773 437.784C141.716 436.753 140.283 436.174 138.789 436.174H85.4671C83.9726 436.174 82.5393 436.753 81.4825 437.784C80.4257 438.816 79.8319 440.214 79.8319 441.673Z" fill="#D1ECFA"/>
<path opacity="0.1" d="M224.669 175.118H113.102V33.2256H203.329L224.669 55.008V175.118Z" fill="#17A878"/>
<path opacity="0.1" d="M203.328 33.2256V54.6841L224.668 55.008L203.328 33.2256Z" fill="#17A878"/>
<path d="M176.505 89.3067V96.014C176.505 96.7361 176.36 97.4512 176.076 98.1184C175.793 98.7856 175.378 99.3918 174.855 99.9024C174.332 100.413 173.71 100.818 173.027 101.094C172.343 101.371 171.61 101.513 170.87 101.513H102.306C100.812 101.513 99.3787 102.093 98.3221 103.124C97.2655 104.155 96.6719 105.554 96.6719 107.012V196.583C96.6719 198.041 97.2655 199.439 98.3221 200.471C99.3787 201.502 100.812 202.081 102.306 202.082H235.462C236.957 202.082 238.39 201.502 239.447 200.471C240.504 199.44 241.097 198.041 241.097 196.583V89.3067C241.097 87.8483 240.504 86.4496 239.447 85.4183C238.39 84.387 236.957 83.8076 235.462 83.8076H182.138C180.644 83.8082 179.211 84.3879 178.155 85.4191C177.099 86.4503 176.505 87.8487 176.505 89.3067Z" fill="#D1ECFA"/>
<path opacity="0.05" d="M176.505 89.3067V96.014C176.505 96.7361 176.36 97.4512 176.076 98.1184C175.793 98.7856 175.378 99.3918 174.855 99.9024C174.332 100.413 173.71 100.818 173.027 101.094C172.343 101.371 171.61 101.513 170.87 101.513H102.306C100.812 101.513 99.3787 102.093 98.3221 103.124C97.2655 104.155 96.6719 105.554 96.6719 107.012V196.583C96.6719 198.041 97.2655 199.439 98.3221 200.471C99.3787 201.502 100.812 202.081 102.306 202.082H235.462C236.957 202.082 238.39 201.502 239.447 200.471C240.504 199.44 241.097 198.041 241.097 196.583V89.3067C241.097 87.8483 240.504 86.4496 239.447 85.4183C238.39 84.387 236.957 83.8076 235.462 83.8076H182.138C180.644 83.8082 179.211 84.3879 178.155 85.4191C177.099 86.4503 176.505 87.8487 176.505 89.3067Z" fill="#17A878"/>
<path opacity="0.1" d="M639.236 479.514H527.669V337.623H617.896L639.236 359.405V479.514Z" fill="#17A878"/>
<path opacity="0.1" d="M617.896 337.623V359.082L639.237 359.405L617.896 337.623Z" fill="#17A878"/>
<path d="M591.073 393.703V400.411C591.073 401.134 590.927 401.849 590.644 402.516C590.361 403.183 589.946 403.789 589.423 404.3C588.899 404.811 588.278 405.216 587.594 405.492C586.911 405.768 586.178 405.911 585.438 405.911H516.875C515.381 405.911 513.948 406.49 512.891 407.521C511.834 408.553 511.24 409.951 511.24 411.41V500.979C511.24 502.438 511.834 503.836 512.891 504.868C513.948 505.899 515.381 506.478 516.875 506.478H650.03C651.524 506.478 652.957 505.899 654.014 504.868C655.071 503.836 655.665 502.438 655.665 500.979V393.703C655.665 392.245 655.071 390.847 654.014 389.815C652.957 388.784 651.524 388.205 650.03 388.205H596.708C595.214 388.205 593.781 388.784 592.724 389.815C591.667 390.847 591.073 392.245 591.073 393.703Z" fill="white"/>
<path opacity="0.05" d="M591.073 393.703V400.411C591.073 401.134 590.927 401.849 590.644 402.516C590.361 403.183 589.946 403.789 589.423 404.3C588.899 404.811 588.278 405.216 587.594 405.492C586.911 405.768 586.178 405.911 585.438 405.911H516.875C515.381 405.911 513.948 406.49 512.891 407.521C511.834 408.553 511.24 409.951 511.24 411.41V500.979C511.24 502.438 511.834 503.836 512.891 504.868C513.948 505.899 515.381 506.478 516.875 506.478H650.03C651.524 506.478 652.957 505.899 654.014 504.868C655.071 503.836 655.665 502.438 655.665 500.979V393.703C655.665 392.245 655.071 390.847 654.014 389.815C652.957 388.784 651.524 388.205 650.03 388.205H596.708C595.214 388.205 593.781 388.784 592.724 389.815C591.667 390.847 591.073 392.245 591.073 393.703Z" fill="#D1ECFA"/>
<path d="M577.038 72.4704C579.48 57.9117 576.57 42.9793 568.821 30.3121C564.566 23.288 558.924 17.1583 552.222 12.2783C545.521 7.39836 537.893 3.86529 529.781 1.88399C525.63 0.869926 521.385 0.264087 517.11 0.0755436V0.0166016H495.314V2.89672C479.701 7.70046 466.609 18.2326 458.799 32.2726C453.588 28.929 447.484 27.1542 441.248 27.1688C440.265 27.1688 439.242 27.2163 438.269 27.3074H423.54L418.727 36.1702L418.621 36.2706C418.479 36.4046 418.339 36.5385 418.202 36.6725C413.225 41.6701 410.061 48.1194 409.191 55.0363C383.843 56.8086 363.595 77.6017 362.987 102.614C362.647 115.556 367.584 128.101 376.715 137.493C381.205 142.143 386.599 145.874 392.582 148.469C398.565 151.064 405.017 152.47 411.563 152.607L568.166 152.627C590.918 152.627 609.429 134.435 609.429 112.073C609.427 92.7076 596.142 76.5119 577.038 72.4704Z" fill="#40B1E9"/>
<g filter="url(#filter0_d_1746_82056)">
<path d="M552.025 151.981C574.409 151.981 592.627 134.083 592.627 112.075C592.707 102.89 589.509 93.9647 583.582 86.8305C577.654 79.6962 569.366 74.7979 560.141 72.9766C562.774 58.3835 559.924 43.3532 552.115 30.6455C546.447 21.2978 538.328 13.5938 528.594 8.32714C518.86 3.06052 507.862 0.421739 496.735 0.682674C485.608 0.94361 474.754 4.09482 465.29 9.81165C455.826 15.5285 448.096 23.6042 442.894 33.2068C436.776 29.1048 429.368 27.2479 421.981 27.9651C414.594 28.6822 407.706 31.9271 402.536 37.1251C397.529 42.1516 394.399 48.6747 393.649 55.6463C368.561 57.1198 348.118 77.6263 347.511 102.63C347.174 115.401 352.045 127.78 361.054 137.049C365.482 141.635 370.802 145.316 376.702 147.876C382.603 150.436 388.966 151.825 395.422 151.962L552.025 151.981Z" fill="white"/>
<path d="M552.026 152.651L395.423 152.632C388.874 152.495 382.418 151.087 376.432 148.491C370.445 145.895 365.049 142.162 360.555 137.51C351.421 128.113 346.482 115.562 346.823 102.614C347.431 77.5957 367.678 56.7999 393.03 55.0156C393.904 48.1001 397.069 41.6526 402.045 36.6551C407.237 31.4364 414.126 28.1416 421.534 27.3351C428.941 26.5286 436.406 28.2606 442.648 32.2345C447.997 22.647 455.853 14.6139 465.418 8.95332C474.982 3.29274 485.913 0.2069 497.097 0.0100465C508.282 -0.186807 519.32 2.51236 529.087 7.83267C538.855 13.153 547.003 20.9044 552.702 30.2974C560.45 42.9628 563.363 57.8926 560.926 72.4503C580.03 76.5013 593.312 92.7016 593.312 112.072C593.314 134.449 574.792 152.651 552.026 152.651ZM425.107 28.4829C420.988 28.469 416.908 29.2689 413.114 30.8344C409.32 32.3999 405.89 34.6986 403.031 37.5922C398.131 42.5127 395.067 48.8969 394.331 55.7202L394.271 56.2848L393.69 56.319C368.775 57.7818 348.792 78.1322 348.197 102.649C347.866 115.243 352.669 127.451 361.553 136.593C365.92 141.114 371.165 144.742 376.982 147.267C382.8 149.791 389.074 151.16 395.439 151.295L552.026 151.315C574.035 151.315 591.941 133.713 591.941 112.078C591.941 93.135 578.808 77.3271 560.005 73.6365L559.349 73.5079L559.464 72.8649C562.038 58.4292 559.221 43.5713 551.525 30.99C545.92 21.7433 537.89 14.1222 528.263 8.91209C518.635 3.70198 507.758 1.09132 496.752 1.34913C485.746 1.60694 475.01 4.7239 465.65 10.3788C456.29 16.0337 448.644 24.022 443.5 33.5205L443.137 34.1836L442.504 33.7562C437.391 30.3084 431.321 28.4684 425.107 28.4829Z" fill="#40B1E9"/>
</g>
<path d="M406.253 98.3828H338.719V518.357H406.253V98.3828Z" fill="#17A878"/>
<path d="M406.925 519.013H338.047V97.7266H406.925V519.013ZM339.391 517.701H405.581V99.0384H339.391V517.701Z" fill="#40B1E9"/>
<path d="M127.768 518.356H338.719L338.719 98.3826H127.768L127.768 518.356Z" fill="white"/>
<path d="M339.39 519.013H127.096V97.7266H339.39V519.013ZM128.44 517.701H338.046V99.0384H128.44V517.701Z" fill="#40B1E9"/>
<path d="M323.071 115.272H143.42V154.609H323.071V115.272Z" fill="#40B1E9"/>
<g opacity="0.5">
<path d="M323.071 115.272H143.42V154.609H323.071V115.272Z" fill="white"/>
</g>
<path d="M323.071 155.265H143.42C143.242 155.265 143.071 155.196 142.945 155.073C142.819 154.95 142.748 154.783 142.748 154.609V115.273C142.748 115.099 142.819 114.932 142.945 114.809C143.071 114.686 143.242 114.617 143.42 114.617H323.071C323.249 114.617 323.42 114.686 323.546 114.809C323.673 114.932 323.743 115.099 323.743 115.273V154.609C323.743 154.783 323.673 154.95 323.546 155.073C323.42 155.196 323.249 155.265 323.071 155.265ZM144.092 153.953H322.399V115.929H144.092V153.953Z" fill="#40B1E9"/>
<path d="M163.783 143.011C168.35 143.011 172.053 139.398 172.053 134.941C172.053 130.484 168.35 126.871 163.783 126.871C159.216 126.871 155.514 130.484 155.514 134.941C155.514 139.398 159.216 143.011 163.783 143.011Z" fill="white"/>
<path d="M163.783 143.667C162.015 143.667 160.287 143.155 158.817 142.196C157.347 141.238 156.201 139.875 155.524 138.281C154.848 136.687 154.671 134.933 155.016 133.241C155.36 131.548 156.212 129.994 157.462 128.774C158.712 127.554 160.305 126.723 162.039 126.386C163.774 126.05 165.571 126.223 167.205 126.883C168.838 127.543 170.234 128.661 171.217 130.096C172.199 131.531 172.723 133.217 172.723 134.943C172.72 137.255 171.777 139.473 170.101 141.108C168.425 142.743 166.153 143.663 163.783 143.667ZM163.783 127.531C162.281 127.531 160.813 127.965 159.564 128.78C158.315 129.594 157.341 130.752 156.766 132.106C156.191 133.461 156.041 134.951 156.334 136.389C156.627 137.826 157.35 139.147 158.413 140.184C159.475 141.22 160.828 141.926 162.302 142.212C163.775 142.498 165.302 142.351 166.69 141.79C168.078 141.229 169.264 140.279 170.099 139.061C170.933 137.842 171.379 136.409 171.379 134.943C171.377 132.977 170.576 131.092 169.153 129.702C167.729 128.312 165.798 127.53 163.783 127.527V127.531Z" fill="#40B1E9"/>
<path d="M285.549 134.785H182.723C182.545 134.785 182.374 134.716 182.248 134.593C182.122 134.47 182.051 134.304 182.051 134.13C182.051 133.956 182.122 133.789 182.248 133.666C182.374 133.543 182.545 133.474 182.723 133.474H285.549C285.727 133.474 285.898 133.543 286.024 133.666C286.15 133.789 286.221 133.956 286.221 134.13C286.221 134.304 286.15 134.47 286.024 134.593C285.898 134.716 285.727 134.785 285.549 134.785Z" fill="#40B1E9"/>
<path d="M300.665 134.785H298.532C298.353 134.785 298.182 134.716 298.056 134.593C297.93 134.47 297.859 134.304 297.859 134.13C297.859 133.956 297.93 133.789 298.056 133.666C298.182 133.543 298.353 133.474 298.532 133.474H300.665C300.843 133.474 301.014 133.543 301.14 133.666C301.266 133.789 301.337 133.956 301.337 134.13C301.337 134.304 301.266 134.47 301.14 134.593C301.014 134.716 300.843 134.785 300.665 134.785Z" fill="#40B1E9"/>
<path d="M293.175 134.785H291.041C290.863 134.785 290.692 134.716 290.566 134.593C290.44 134.47 290.369 134.304 290.369 134.13C290.369 133.956 290.44 133.789 290.566 133.666C290.692 133.543 290.863 133.474 291.041 133.474H293.175C293.354 133.474 293.525 133.543 293.651 133.666C293.777 133.789 293.848 133.956 293.848 134.13C293.848 134.304 293.777 134.47 293.651 134.593C293.525 134.716 293.354 134.785 293.175 134.785Z" fill="#40B1E9"/>
<path d="M308.668 134.785H306.533C306.355 134.785 306.184 134.716 306.058 134.593C305.932 134.47 305.861 134.304 305.861 134.13C305.861 133.956 305.932 133.789 306.058 133.666C306.184 133.543 306.355 133.474 306.533 133.474H308.668C308.846 133.474 309.017 133.543 309.143 133.666C309.269 133.789 309.34 133.956 309.34 134.13C309.34 134.304 309.269 134.47 309.143 134.593C309.017 134.716 308.846 134.785 308.668 134.785Z" fill="#40B1E9"/>
<path d="M323.071 169.882H143.42V209.218H323.071V169.882Z" fill="#40B1E9"/>
<g opacity="0.5">
<path d="M323.071 169.882H143.42V209.218H323.071V169.882Z" fill="white"/>
</g>
<path d="M323.071 209.874H143.42C143.242 209.874 143.071 209.805 142.945 209.682C142.819 209.559 142.748 209.392 142.748 209.218V169.879C142.748 169.705 142.819 169.538 142.945 169.415C143.071 169.292 143.242 169.223 143.42 169.223H323.071C323.249 169.223 323.42 169.292 323.546 169.415C323.673 169.538 323.743 169.705 323.743 169.879V209.215C323.744 209.301 323.727 209.387 323.693 209.467C323.66 209.547 323.61 209.619 323.548 209.681C323.485 209.742 323.411 209.791 323.329 209.824C323.247 209.857 323.16 209.874 323.071 209.874ZM144.092 208.562H322.399V170.535H144.092V208.562Z" fill="#40B1E9"/>
<path d="M163.783 197.62C168.35 197.62 172.053 194.007 172.053 189.55C172.053 185.094 168.35 181.48 163.783 181.48C159.216 181.48 155.514 185.094 155.514 189.55C155.514 194.007 159.216 197.62 163.783 197.62Z" fill="white"/>
<path d="M163.783 198.276C162.015 198.276 160.287 197.764 158.817 196.806C157.347 195.847 156.201 194.485 155.524 192.891C154.848 191.296 154.671 189.542 155.016 187.85C155.36 186.158 156.212 184.603 157.462 183.383C158.712 182.163 160.305 181.332 162.039 180.996C163.774 180.659 165.571 180.832 167.205 181.492C168.838 182.152 170.234 183.271 171.217 184.705C172.199 186.14 172.723 187.827 172.723 189.552C172.72 191.865 171.777 194.082 170.101 195.717C168.425 197.353 166.153 198.273 163.783 198.276ZM163.783 182.14C162.281 182.14 160.813 182.575 159.564 183.389C158.315 184.204 157.341 185.361 156.766 186.716C156.191 188.07 156.041 189.56 156.334 190.998C156.627 192.436 157.35 193.757 158.413 194.793C159.475 195.83 160.828 196.536 162.302 196.822C163.775 197.108 165.302 196.961 166.69 196.4C168.078 195.839 169.264 194.889 170.099 193.67C170.933 192.451 171.379 191.018 171.379 189.552C171.377 187.586 170.576 185.702 169.153 184.312C167.729 182.922 165.798 182.139 163.783 182.137V182.14Z" fill="#40B1E9"/>
<path d="M285.549 189.396H182.723C182.545 189.396 182.374 189.327 182.248 189.204C182.122 189.081 182.051 188.914 182.051 188.74C182.051 188.566 182.122 188.399 182.248 188.276C182.374 188.153 182.545 188.084 182.723 188.084H285.549C285.727 188.084 285.898 188.153 286.024 188.276C286.15 188.399 286.221 188.566 286.221 188.74C286.221 188.914 286.15 189.081 286.024 189.204C285.898 189.327 285.727 189.396 285.549 189.396Z" fill="#40B1E9"/>
<path d="M300.665 189.396H298.532C298.353 189.396 298.182 189.327 298.056 189.204C297.93 189.081 297.859 188.914 297.859 188.74C297.859 188.566 297.93 188.399 298.056 188.276C298.182 188.153 298.353 188.084 298.532 188.084H300.665C300.843 188.084 301.014 188.153 301.14 188.276C301.266 188.399 301.337 188.566 301.337 188.74C301.337 188.914 301.266 189.081 301.14 189.204C301.014 189.327 300.843 189.396 300.665 189.396Z" fill="#40B1E9"/>
<path d="M293.175 189.396H291.041C290.863 189.396 290.692 189.327 290.566 189.204C290.44 189.081 290.369 188.914 290.369 188.74C290.369 188.566 290.44 188.399 290.566 188.276C290.692 188.153 290.863 188.084 291.041 188.084H293.175C293.354 188.084 293.525 188.153 293.651 188.276C293.777 188.399 293.848 188.566 293.848 188.74C293.848 188.914 293.777 189.081 293.651 189.204C293.525 189.327 293.354 189.396 293.175 189.396Z" fill="#40B1E9"/>
<path d="M308.668 189.396H306.533C306.355 189.396 306.184 189.327 306.058 189.204C305.932 189.081 305.861 188.914 305.861 188.74C305.861 188.566 305.932 188.399 306.058 188.276C306.184 188.153 306.355 188.084 306.533 188.084H308.668C308.846 188.084 309.017 188.153 309.143 188.276C309.269 188.399 309.34 188.566 309.34 188.74C309.34 188.914 309.269 189.081 309.143 189.204C309.017 189.327 308.846 189.396 308.668 189.396Z" fill="#40B1E9"/>
<path d="M323.071 224.492H143.42V263.828H323.071V224.492Z" fill="#40B1E9"/>
<g opacity="0.5">
<path d="M323.071 224.491H143.42V263.827H323.071V224.491Z" fill="white"/>
</g>
<path d="M323.071 264.483H143.42C143.242 264.483 143.071 264.414 142.945 264.291C142.819 264.168 142.748 264.001 142.748 263.827V224.491C142.748 224.317 142.819 224.15 142.945 224.027C143.071 223.904 143.242 223.835 143.42 223.835H323.071C323.249 223.835 323.42 223.904 323.546 224.027C323.673 224.15 323.743 224.317 323.743 224.491V263.827C323.743 264.001 323.673 264.168 323.546 264.291C323.42 264.414 323.249 264.483 323.071 264.483ZM144.092 263.171H322.399V225.147H144.092V263.171Z" fill="#40B1E9"/>
<path d="M163.783 252.228C168.35 252.228 172.053 248.615 172.053 244.158C172.053 239.701 168.35 236.088 163.783 236.088C159.216 236.088 155.514 239.701 155.514 244.158C155.514 248.615 159.216 252.228 163.783 252.228Z" fill="white"/>
<path d="M163.783 252.884C162.015 252.884 160.287 252.373 158.817 251.414C157.347 250.455 156.201 249.093 155.524 247.499C154.848 245.905 154.671 244.151 155.016 242.458C155.36 240.766 156.212 239.212 157.462 237.992C158.712 236.772 160.305 235.941 162.039 235.604C163.774 235.268 165.571 235.44 167.205 236.101C168.838 236.761 170.234 237.879 171.217 239.314C172.199 240.748 172.723 242.435 172.723 244.16C172.72 246.473 171.777 248.69 170.101 250.326C168.425 251.961 166.153 252.881 163.783 252.884ZM163.783 236.745C162.281 236.745 160.813 237.18 159.564 237.994C158.315 238.809 157.341 239.966 156.766 241.321C156.191 242.675 156.041 244.165 156.334 245.603C156.627 247.041 157.35 248.362 158.413 249.398C159.475 250.435 160.828 251.141 162.302 251.427C163.775 251.713 165.302 251.566 166.69 251.005C168.078 250.444 169.264 249.494 170.099 248.275C170.933 247.056 171.379 245.623 171.379 244.157C171.376 242.192 170.575 240.308 169.151 238.919C167.727 237.529 165.797 236.748 163.783 236.745Z" fill="#40B1E9"/>
<path d="M285.549 244.004H182.723C182.545 244.004 182.374 243.935 182.248 243.812C182.122 243.689 182.051 243.522 182.051 243.348C182.051 243.174 182.122 243.008 182.248 242.885C182.374 242.761 182.545 242.692 182.723 242.692H285.549C285.727 242.692 285.898 242.761 286.024 242.885C286.15 243.008 286.221 243.174 286.221 243.348C286.221 243.522 286.15 243.689 286.024 243.812C285.898 243.935 285.727 244.004 285.549 244.004Z" fill="#40B1E9"/>
<path d="M300.665 244.004H298.532C298.353 244.004 298.182 243.935 298.056 243.812C297.93 243.689 297.859 243.522 297.859 243.348C297.859 243.174 297.93 243.008 298.056 242.885C298.182 242.761 298.353 242.692 298.532 242.692H300.665C300.843 242.692 301.014 242.761 301.14 242.885C301.266 243.008 301.337 243.174 301.337 243.348C301.337 243.522 301.266 243.689 301.14 243.812C301.014 243.935 300.843 244.004 300.665 244.004Z" fill="#40B1E9"/>
<path d="M293.175 244.004H291.041C290.863 244.004 290.692 243.935 290.566 243.812C290.44 243.689 290.369 243.522 290.369 243.348C290.369 243.174 290.44 243.008 290.566 242.885C290.692 242.761 290.863 242.692 291.041 242.692H293.175C293.354 242.692 293.525 242.761 293.651 242.885C293.777 243.008 293.848 243.174 293.848 243.348C293.848 243.522 293.777 243.689 293.651 243.812C293.525 243.935 293.354 244.004 293.175 244.004Z" fill="#40B1E9"/>
<path d="M308.668 244.004H306.533C306.355 244.004 306.184 243.935 306.058 243.812C305.932 243.689 305.861 243.522 305.861 243.348C305.861 243.174 305.932 243.008 306.058 242.885C306.184 242.761 306.355 242.692 306.533 242.692H308.668C308.846 242.692 309.017 242.761 309.143 242.885C309.269 243.008 309.34 243.174 309.34 243.348C309.34 243.522 309.269 243.689 309.143 243.812C309.017 243.935 308.846 244.004 308.668 244.004Z" fill="#40B1E9"/>
<path d="M323.071 319.09H143.42C143.242 319.09 143.071 319.021 142.945 318.898C142.819 318.775 142.748 318.608 142.748 318.435V279.098C142.748 278.924 142.819 278.758 142.945 278.634C143.071 278.511 143.242 278.442 143.42 278.442H323.071C323.249 278.442 323.42 278.511 323.546 278.634C323.673 278.758 323.743 278.924 323.743 279.098V318.435C323.743 318.608 323.673 318.775 323.546 318.898C323.42 319.021 323.249 319.09 323.071 319.09ZM144.092 317.779H322.399V279.754H144.092V317.779Z" fill="#40B1E9"/>
<path d="M254.152 279.099H67.7793V318.435H254.152V279.099Z" fill="#40B1E9"/>
<g opacity="0.5">
<path d="M254.152 279.098H67.7793V318.434H254.152V279.098Z" fill="white"/>
</g>
<path d="M254.151 319.09H67.7796C67.6013 319.09 67.4303 319.021 67.3043 318.898C67.1782 318.775 67.1074 318.608 67.1074 318.435V279.098C67.1074 278.924 67.1782 278.758 67.3043 278.634C67.4303 278.511 67.6013 278.442 67.7796 278.442H254.151C254.329 278.442 254.5 278.511 254.626 278.634C254.752 278.758 254.823 278.924 254.823 279.098V318.435C254.823 318.608 254.752 318.775 254.626 318.898C254.5 319.021 254.329 319.09 254.151 319.09ZM68.4504 317.779H253.479V279.754H68.4517L68.4504 317.779Z" fill="#40B1E9"/>
<path d="M88.1407 306.836C92.7079 306.836 96.4103 303.223 96.4103 298.766C96.4103 294.309 92.7079 290.696 88.1407 290.696C83.5735 290.696 79.8711 294.309 79.8711 298.766C79.8711 303.223 83.5735 306.836 88.1407 306.836Z" fill="white"/>
<path d="M88.1409 307.493C86.3728 307.493 84.6444 306.981 83.1743 306.022C81.7041 305.064 80.5583 303.701 79.8817 302.107C79.2051 300.513 79.028 298.759 79.3729 297.067C79.7179 295.375 80.5693 293.82 81.8196 292.6C83.0698 291.38 84.6627 290.549 86.3969 290.213C88.131 289.876 89.9285 290.049 91.562 290.709C93.1955 291.369 94.5917 292.487 95.574 293.922C96.5563 295.357 97.0806 297.043 97.0806 298.769C97.0774 301.082 96.1346 303.299 94.4587 304.934C92.7829 306.569 90.5109 307.49 88.1409 307.493ZM88.1409 291.357C86.6387 291.357 85.1702 291.791 83.9211 292.606C82.6721 293.42 81.6985 294.578 81.1237 295.932C80.5488 297.287 80.3984 298.777 80.6914 300.215C80.9845 301.653 81.7079 302.973 82.7701 304.01C83.8324 305.047 85.1858 305.752 86.6591 306.038C88.1325 306.324 89.6597 306.178 91.0475 305.617C92.4354 305.056 93.6217 304.106 94.4563 302.887C95.2909 301.668 95.7363 300.235 95.7363 298.769C95.7349 296.803 94.9344 294.918 93.5104 293.528C92.0864 292.137 90.1553 291.355 88.1409 291.352V291.357Z" fill="#40B1E9"/>
<path d="M216.629 298.612H107.082C106.904 298.612 106.733 298.543 106.607 298.42C106.481 298.297 106.41 298.13 106.41 297.956C106.41 297.782 106.481 297.615 106.607 297.492C106.733 297.369 106.904 297.3 107.082 297.3H216.629C216.807 297.3 216.978 297.369 217.104 297.492C217.23 297.615 217.301 297.782 217.301 297.956C217.301 298.13 217.23 298.297 217.104 298.42C216.978 298.543 216.807 298.612 216.629 298.612Z" fill="#40B1E9"/>
<path d="M231.746 298.612H229.612C229.433 298.612 229.262 298.543 229.136 298.42C229.01 298.297 228.939 298.13 228.939 297.956C228.939 297.782 229.01 297.615 229.136 297.492C229.262 297.369 229.433 297.3 229.612 297.3H231.746C231.924 297.3 232.095 297.369 232.221 297.492C232.347 297.615 232.418 297.782 232.418 297.956C232.418 298.13 232.347 298.297 232.221 298.42C232.095 298.543 231.924 298.612 231.746 298.612Z" fill="#40B1E9"/>
<path d="M224.255 298.612H222.121C221.943 298.612 221.772 298.543 221.646 298.42C221.52 298.297 221.449 298.13 221.449 297.956C221.449 297.782 221.52 297.615 221.646 297.492C221.772 297.369 221.943 297.3 222.121 297.3H224.255C224.433 297.3 224.604 297.369 224.73 297.492C224.856 297.615 224.927 297.782 224.927 297.956C224.927 298.13 224.856 298.297 224.73 298.42C224.604 298.543 224.433 298.612 224.255 298.612Z" fill="#40B1E9"/>
<path d="M239.748 298.612H237.616C237.437 298.612 237.266 298.543 237.14 298.42C237.014 298.297 236.943 298.13 236.943 297.956C236.943 297.782 237.014 297.615 237.14 297.492C237.266 297.369 237.437 297.3 237.616 297.3H239.75C239.928 297.3 240.099 297.369 240.225 297.492C240.351 297.615 240.422 297.782 240.422 297.956C240.422 298.13 240.351 298.297 240.225 298.42C240.099 298.543 239.928 298.612 239.75 298.612H239.748Z" fill="#40B1E9"/>
<path d="M323.071 333.707H143.42V373.043H323.071V333.707Z" fill="#40B1E9"/>
<g opacity="0.5">
<path d="M323.071 333.707H143.42V373.043H323.071V333.707Z" fill="white"/>
</g>
<path d="M323.071 373.699H143.42C143.242 373.699 143.071 373.63 142.945 373.507C142.819 373.384 142.748 373.217 142.748 373.043V333.707C142.748 333.533 142.819 333.366 142.945 333.243C143.071 333.12 143.242 333.051 143.42 333.051H323.071C323.249 333.051 323.42 333.12 323.546 333.243C323.673 333.366 323.743 333.533 323.743 333.707V373.043C323.743 373.217 323.673 373.384 323.546 373.507C323.42 373.63 323.249 373.699 323.071 373.699ZM144.092 372.387H322.399V334.363H144.092V372.387Z" fill="#40B1E9"/>
<path d="M163.783 361.444C168.35 361.444 172.053 357.831 172.053 353.374C172.053 348.917 168.35 345.304 163.783 345.304C159.216 345.304 155.514 348.917 155.514 353.374C155.514 357.831 159.216 361.444 163.783 361.444Z" fill="white"/>
<path d="M163.783 362.099C162.015 362.099 160.287 361.587 158.817 360.629C157.347 359.67 156.201 358.308 155.524 356.714C154.848 355.12 154.671 353.366 155.016 351.673C155.36 349.981 156.212 348.427 157.462 347.207C158.712 345.986 160.305 345.156 162.039 344.819C163.774 344.482 165.571 344.655 167.205 345.315C168.838 345.976 170.234 347.094 171.217 348.529C172.199 349.963 172.723 351.65 172.723 353.375C172.72 355.688 171.777 357.905 170.101 359.541C168.425 361.176 166.153 362.096 163.783 362.099ZM163.783 345.96C162.281 345.96 160.813 346.395 159.564 347.209C158.315 348.024 157.341 349.181 156.766 350.536C156.191 351.89 156.041 353.38 156.334 354.818C156.627 356.256 157.35 357.576 158.413 358.613C159.475 359.65 160.828 360.356 162.302 360.642C163.775 360.928 165.302 360.781 166.69 360.22C168.078 359.659 169.264 358.709 170.099 357.49C170.933 356.271 171.379 354.838 171.379 353.372C171.376 351.407 170.575 349.523 169.151 348.134C167.727 346.744 165.797 345.963 163.783 345.96Z" fill="#40B1E9"/>
<path d="M285.549 353.22H182.723C182.545 353.22 182.374 353.151 182.248 353.028C182.122 352.905 182.051 352.738 182.051 352.564C182.051 352.39 182.122 352.223 182.248 352.1C182.374 351.977 182.545 351.908 182.723 351.908H285.549C285.727 351.908 285.898 351.977 286.024 352.1C286.15 352.223 286.221 352.39 286.221 352.564C286.221 352.738 286.15 352.905 286.024 353.028C285.898 353.151 285.727 353.22 285.549 353.22Z" fill="#40B1E9"/>
<path d="M300.665 353.22H298.532C298.353 353.22 298.182 353.151 298.056 353.028C297.93 352.905 297.859 352.738 297.859 352.564C297.859 352.39 297.93 352.223 298.056 352.1C298.182 351.977 298.353 351.908 298.532 351.908H300.665C300.843 351.908 301.014 351.977 301.14 352.1C301.266 352.223 301.337 352.39 301.337 352.564C301.337 352.738 301.266 352.905 301.14 353.028C301.014 353.151 300.843 353.22 300.665 353.22Z" fill="#40B1E9"/>
<path d="M293.175 353.22H291.041C290.863 353.22 290.692 353.151 290.566 353.028C290.44 352.905 290.369 352.738 290.369 352.564C290.369 352.39 290.44 352.223 290.566 352.1C290.692 351.977 290.863 351.908 291.041 351.908H293.175C293.354 351.908 293.525 351.977 293.651 352.1C293.777 352.223 293.848 352.39 293.848 352.564C293.848 352.738 293.777 352.905 293.651 353.028C293.525 353.151 293.354 353.22 293.175 353.22Z" fill="#40B1E9"/>
<path d="M308.668 353.22H306.533C306.355 353.22 306.184 353.151 306.058 353.028C305.932 352.905 305.861 352.738 305.861 352.564C305.861 352.39 305.932 352.223 306.058 352.1C306.184 351.977 306.355 351.908 306.533 351.908H308.668C308.846 351.908 309.017 351.977 309.143 352.1C309.269 352.223 309.34 352.39 309.34 352.564C309.34 352.738 309.269 352.905 309.143 353.028C309.017 353.151 308.846 353.22 308.668 353.22Z" fill="#40B1E9"/>
<path d="M323.071 388.313H143.42V427.65H323.071V388.313Z" fill="#40B1E9"/>
<g opacity="0.5">
<path d="M323.071 388.315H143.42V427.652H323.071V388.315Z" fill="white"/>
</g>
<path d="M323.071 428.306H143.42C143.242 428.306 143.071 428.237 142.945 428.114C142.819 427.991 142.748 427.824 142.748 427.65V388.314C142.748 388.14 142.819 387.973 142.945 387.85C143.071 387.727 143.242 387.658 143.42 387.658H323.071C323.249 387.658 323.42 387.727 323.546 387.85C323.673 387.973 323.743 388.14 323.743 388.314V427.65C323.743 427.824 323.673 427.991 323.546 428.114C323.42 428.237 323.249 428.306 323.071 428.306ZM144.092 426.994H322.399V388.97H144.092V426.994Z" fill="#40B1E9"/>
<path d="M163.783 416.053C168.35 416.053 172.053 412.44 172.053 407.983C172.053 403.526 168.35 399.913 163.783 399.913C159.216 399.913 155.514 403.526 155.514 407.983C155.514 412.44 159.216 416.053 163.783 416.053Z" fill="white"/>
<path d="M163.783 416.706C162.015 416.706 160.287 416.194 158.817 415.235C157.347 414.277 156.201 412.914 155.524 411.32C154.848 409.726 154.671 407.972 155.016 406.28C155.36 404.587 156.212 403.033 157.462 401.813C158.712 400.593 160.305 399.762 162.039 399.425C163.774 399.089 165.571 399.262 167.205 399.922C168.838 400.582 170.234 401.7 171.217 403.135C172.199 404.57 172.723 406.256 172.723 407.982C172.72 410.294 171.777 412.512 170.101 414.147C168.425 415.782 166.153 416.702 163.783 416.706ZM163.783 400.57C162.281 400.57 160.813 401.004 159.564 401.819C158.315 402.633 157.341 403.791 156.766 405.145C156.191 406.5 156.041 407.99 156.334 409.428C156.627 410.865 157.35 412.186 158.413 413.223C159.475 414.259 160.828 414.965 162.302 415.251C163.775 415.537 165.302 415.391 166.69 414.83C168.078 414.269 169.264 413.318 170.099 412.1C170.933 410.881 171.379 409.448 171.379 407.982C171.376 406.017 170.575 404.133 169.151 402.743C167.727 401.354 165.797 400.572 163.783 400.57Z" fill="#40B1E9"/>
<path d="M285.549 407.827H182.723C182.545 407.827 182.374 407.758 182.248 407.635C182.122 407.512 182.051 407.346 182.051 407.172C182.051 406.998 182.122 406.831 182.248 406.708C182.374 406.585 182.545 406.516 182.723 406.516H285.549C285.727 406.516 285.898 406.585 286.024 406.708C286.15 406.831 286.221 406.998 286.221 407.172C286.221 407.346 286.15 407.512 286.024 407.635C285.898 407.758 285.727 407.827 285.549 407.827Z" fill="#40B1E9"/>
<path d="M300.665 407.827H298.532C298.353 407.827 298.182 407.758 298.056 407.635C297.93 407.512 297.859 407.346 297.859 407.172C297.859 406.998 297.93 406.831 298.056 406.708C298.182 406.585 298.353 406.516 298.532 406.516H300.665C300.843 406.516 301.014 406.585 301.14 406.708C301.266 406.831 301.337 406.998 301.337 407.172C301.337 407.346 301.266 407.512 301.14 407.635C301.014 407.758 300.843 407.827 300.665 407.827Z" fill="#40B1E9"/>
<path d="M293.175 407.827H291.041C290.863 407.827 290.692 407.758 290.566 407.635C290.44 407.512 290.369 407.346 290.369 407.172C290.369 406.998 290.44 406.831 290.566 406.708C290.692 406.585 290.863 406.516 291.041 406.516H293.175C293.354 406.516 293.525 406.585 293.651 406.708C293.777 406.831 293.848 406.998 293.848 407.172C293.848 407.346 293.777 407.512 293.651 407.635C293.525 407.758 293.354 407.827 293.175 407.827Z" fill="#40B1E9"/>
<path d="M308.668 407.827H306.533C306.355 407.827 306.184 407.758 306.058 407.635C305.932 407.512 305.861 407.346 305.861 407.172C305.861 406.998 305.932 406.831 306.058 406.708C306.184 406.585 306.355 406.516 306.533 406.516H308.668C308.846 406.516 309.017 406.585 309.143 406.708C309.269 406.831 309.34 406.998 309.34 407.172C309.34 407.346 309.269 407.512 309.143 407.635C309.017 407.758 308.846 407.827 308.668 407.827Z" fill="#40B1E9"/>
<path d="M323.071 442.925H143.42V482.261H323.071V442.925Z" fill="#40B1E9"/>
<g opacity="0.5">
<path d="M323.071 442.922H143.42V482.258H323.071V442.922Z" fill="white"/>
</g>
<path d="M323.071 482.916H143.42C143.242 482.916 143.071 482.847 142.945 482.724C142.819 482.601 142.748 482.434 142.748 482.26V442.924C142.748 442.75 142.819 442.583 142.945 442.46C143.071 442.337 143.242 442.268 143.42 442.268H323.071C323.249 442.268 323.42 442.337 323.546 442.46C323.673 442.583 323.743 442.75 323.743 442.924V482.26C323.743 482.434 323.673 482.601 323.546 482.724C323.42 482.847 323.249 482.916 323.071 482.916ZM144.092 481.604H322.399V443.579H144.092V481.604Z" fill="#40B1E9"/>
<path d="M163.783 470.662C168.35 470.662 172.053 467.049 172.053 462.592C172.053 458.136 168.35 454.522 163.783 454.522C159.216 454.522 155.514 458.136 155.514 462.592C155.514 467.049 159.216 470.662 163.783 470.662Z" fill="white"/>
<path d="M163.783 471.318C162.015 471.318 160.287 470.806 158.817 469.848C157.347 468.889 156.201 467.527 155.524 465.933C154.848 464.338 154.671 462.584 155.016 460.892C155.36 459.2 156.212 457.645 157.462 456.425C158.712 455.205 160.305 454.374 162.039 454.038C163.774 453.701 165.571 453.874 167.205 454.534C168.838 455.194 170.234 456.313 171.217 457.747C172.199 459.182 172.723 460.869 172.723 462.594C172.72 464.907 171.777 467.124 170.101 468.759C168.425 470.395 166.153 471.315 163.783 471.318ZM163.783 455.179C162.281 455.179 160.813 455.613 159.564 456.428C158.315 457.242 157.341 458.4 156.766 459.754C156.191 461.109 156.041 462.599 156.334 464.037C156.627 465.475 157.35 466.795 158.413 467.832C159.475 468.868 160.828 469.574 162.302 469.86C163.775 470.146 165.302 470 166.69 469.439C168.078 468.878 169.264 467.928 170.099 466.709C170.933 465.49 171.379 464.057 171.379 462.591C171.376 460.626 170.575 458.742 169.151 457.353C167.727 455.963 165.797 455.181 163.783 455.179Z" fill="#40B1E9"/>
<path d="M285.549 462.437H182.723C182.545 462.437 182.374 462.368 182.248 462.245C182.122 462.122 182.051 461.955 182.051 461.781C182.051 461.607 182.122 461.44 182.248 461.317C182.374 461.194 182.545 461.125 182.723 461.125H285.549C285.727 461.125 285.898 461.194 286.024 461.317C286.15 461.44 286.221 461.607 286.221 461.781C286.221 461.955 286.15 462.122 286.024 462.245C285.898 462.368 285.727 462.437 285.549 462.437Z" fill="#40B1E9"/>
<path d="M300.665 462.437H298.532C298.353 462.437 298.182 462.368 298.056 462.245C297.93 462.122 297.859 461.955 297.859 461.781C297.859 461.607 297.93 461.44 298.056 461.317C298.182 461.194 298.353 461.125 298.532 461.125H300.665C300.843 461.125 301.014 461.194 301.14 461.317C301.266 461.44 301.337 461.607 301.337 461.781C301.337 461.955 301.266 462.122 301.14 462.245C301.014 462.368 300.843 462.437 300.665 462.437Z" fill="#40B1E9"/>
<path d="M293.175 462.437H291.041C290.863 462.437 290.692 462.368 290.566 462.245C290.44 462.122 290.369 461.955 290.369 461.781C290.369 461.607 290.44 461.44 290.566 461.317C290.692 461.194 290.863 461.125 291.041 461.125H293.175C293.354 461.125 293.525 461.194 293.651 461.317C293.777 461.44 293.848 461.607 293.848 461.781C293.848 461.955 293.777 462.122 293.651 462.245C293.525 462.368 293.354 462.437 293.175 462.437Z" fill="#40B1E9"/>
<path d="M308.668 462.437H306.533C306.355 462.437 306.184 462.368 306.058 462.245C305.932 462.122 305.861 461.955 305.861 461.781C305.861 461.607 305.932 461.44 306.058 461.317C306.184 461.194 306.355 461.125 306.533 461.125H308.668C308.846 461.125 309.017 461.194 309.143 461.317C309.269 461.44 309.34 461.607 309.34 461.781C309.34 461.955 309.269 462.122 309.143 462.245C309.017 462.368 308.846 462.437 308.668 462.437Z" fill="#40B1E9"/>
<path d="M526.643 401.673H491.969V400.44H526.643C535.178 400.431 543.36 397.119 549.394 391.23C555.429 385.341 558.823 377.356 558.832 369.028V151.786H560.096V369.028C560.086 377.683 556.558 385.981 550.287 392.101C544.015 398.221 535.512 401.663 526.643 401.673Z" fill="#40B1E9"/>
<path d="M559.464 194.15C561.706 194.15 563.523 192.376 563.523 190.188C563.523 188 561.706 186.227 559.464 186.227C557.222 186.227 555.404 188 555.404 190.188C555.404 192.376 557.222 194.15 559.464 194.15Z" fill="white"/>
<path d="M559.464 194.768C558.536 194.768 557.629 194.499 556.858 193.996C556.086 193.493 555.485 192.778 555.13 191.941C554.774 191.104 554.682 190.184 554.863 189.296C555.044 188.407 555.491 187.592 556.147 186.951C556.803 186.311 557.639 185.875 558.549 185.698C559.46 185.522 560.403 185.612 561.26 185.959C562.118 186.306 562.85 186.893 563.366 187.646C563.881 188.399 564.156 189.284 564.156 190.19C564.155 191.403 563.66 192.567 562.78 193.425C561.901 194.284 560.708 194.766 559.464 194.768ZM559.464 186.844C558.786 186.844 558.124 187.04 557.56 187.408C556.996 187.776 556.557 188.298 556.297 188.909C556.038 189.521 555.97 190.193 556.102 190.842C556.234 191.491 556.561 192.087 557.04 192.555C557.52 193.023 558.131 193.342 558.796 193.471C559.461 193.6 560.15 193.534 560.776 193.28C561.403 193.027 561.938 192.598 562.315 192.048C562.692 191.498 562.893 190.851 562.893 190.19C562.892 189.303 562.53 188.452 561.887 187.825C561.245 187.198 560.373 186.845 559.464 186.844Z" fill="#40B1E9"/>
<path d="M559.464 249.906C561.706 249.906 563.523 248.133 563.523 245.945C563.523 243.757 561.706 241.983 559.464 241.983C557.222 241.983 555.404 243.757 555.404 245.945C555.404 248.133 557.222 249.906 559.464 249.906Z" fill="#40B1E9"/>
<path d="M559.464 250.523C558.536 250.523 557.629 250.254 556.858 249.751C556.086 249.248 555.485 248.533 555.13 247.696C554.775 246.859 554.682 245.939 554.863 245.051C555.044 244.162 555.491 243.347 556.147 242.706C556.803 242.066 557.639 241.63 558.549 241.453C559.459 241.277 560.403 241.367 561.26 241.714C562.117 242.06 562.85 242.647 563.366 243.4C563.881 244.153 564.156 245.038 564.156 245.944C564.155 247.158 563.66 248.322 562.781 249.18C561.901 250.038 560.708 250.521 559.464 250.523ZM559.464 242.599C558.786 242.599 558.123 242.795 557.56 243.163C556.996 243.53 556.556 244.053 556.297 244.664C556.038 245.276 555.97 245.948 556.102 246.597C556.234 247.246 556.561 247.843 557.04 248.31C557.52 248.778 558.131 249.097 558.796 249.226C559.461 249.355 560.15 249.288 560.777 249.035C561.403 248.782 561.939 248.353 562.315 247.803C562.692 247.252 562.893 246.606 562.893 245.944C562.892 245.057 562.53 244.207 561.887 243.58C561.245 242.953 560.373 242.6 559.464 242.599Z" fill="white"/>
<path d="M559.464 305.66C561.706 305.66 563.523 303.887 563.523 301.699C563.523 299.511 561.706 297.737 559.464 297.737C557.222 297.737 555.404 299.511 555.404 301.699C555.404 303.887 557.222 305.66 559.464 305.66Z" fill="white"/>
<path d="M559.464 306.277C558.536 306.277 557.629 306.009 556.858 305.506C556.086 305.003 555.485 304.288 555.13 303.451C554.775 302.614 554.682 301.694 554.863 300.806C555.044 299.917 555.491 299.102 556.147 298.461C556.803 297.821 557.639 297.385 558.549 297.208C559.459 297.031 560.403 297.122 561.26 297.469C562.117 297.815 562.85 298.402 563.366 299.155C563.881 299.908 564.156 300.793 564.156 301.699C564.155 302.913 563.66 304.077 562.781 304.935C561.901 305.793 560.708 306.276 559.464 306.277ZM559.464 298.354C558.786 298.354 558.123 298.55 557.56 298.918C556.996 299.285 556.556 299.808 556.297 300.419C556.038 301.031 555.97 301.703 556.102 302.352C556.234 303.001 556.561 303.597 557.04 304.065C557.52 304.533 558.131 304.852 558.796 304.981C559.461 305.11 560.15 305.043 560.777 304.79C561.403 304.537 561.939 304.108 562.315 303.558C562.692 303.007 562.893 302.36 562.893 301.699C562.891 300.812 562.53 299.962 561.887 299.335C561.244 298.708 560.373 298.356 559.464 298.355V298.354Z" fill="#40B1E9"/>
<path d="M559.464 361.416C561.706 361.416 563.523 359.643 563.523 357.455C563.523 355.267 561.706 353.493 559.464 353.493C557.222 353.493 555.404 355.267 555.404 357.455C555.404 359.643 557.222 361.416 559.464 361.416Z" fill="white"/>
<path d="M559.464 362.033C558.536 362.033 557.629 361.765 556.858 361.262C556.086 360.759 555.485 360.043 555.13 359.207C554.775 358.37 554.682 357.45 554.863 356.561C555.044 355.673 555.491 354.857 556.147 354.217C556.803 353.577 557.639 353.141 558.549 352.964C559.459 352.787 560.403 352.878 561.26 353.225C562.117 353.571 562.85 354.158 563.366 354.911C563.881 355.664 564.156 356.549 564.156 357.455C564.155 358.669 563.66 359.832 562.781 360.691C561.901 361.549 560.708 362.032 559.464 362.033ZM559.464 354.11C558.786 354.11 558.123 354.306 557.56 354.674C556.996 355.041 556.556 355.564 556.297 356.175C556.038 356.786 555.97 357.459 556.102 358.108C556.234 358.757 556.561 359.353 557.04 359.821C557.52 360.289 558.131 360.608 558.796 360.737C559.461 360.866 560.15 360.799 560.777 360.546C561.403 360.293 561.939 359.864 562.315 359.313C562.692 358.763 562.893 358.116 562.893 357.455C562.892 356.568 562.53 355.718 561.887 355.09C561.245 354.463 560.373 354.111 559.464 354.11Z" fill="#40B1E9"/>
<path d="M528.445 405.163C530.687 405.163 532.505 403.39 532.505 401.202C532.505 399.014 530.687 397.24 528.445 397.24C526.203 397.24 524.386 399.014 524.386 401.202C524.386 403.39 526.203 405.163 528.445 405.163Z" fill="#40B1E9"/>
<path d="M528.446 405.78C527.518 405.78 526.611 405.511 525.84 405.008C525.068 404.505 524.467 403.79 524.112 402.954C523.757 402.117 523.664 401.197 523.845 400.309C524.026 399.421 524.473 398.605 525.129 397.965C525.785 397.325 526.621 396.889 527.53 396.712C528.44 396.535 529.384 396.626 530.241 396.972C531.098 397.319 531.831 397.905 532.346 398.658C532.862 399.41 533.137 400.295 533.138 401.201C533.136 402.415 532.642 403.579 531.762 404.437C530.882 405.296 529.69 405.779 528.446 405.78ZM528.446 397.857C527.768 397.857 527.105 398.054 526.541 398.421C525.978 398.789 525.538 399.311 525.279 399.923C525.02 400.534 524.952 401.207 525.085 401.855C525.217 402.504 525.544 403.1 526.023 403.568C526.503 404.036 527.114 404.354 527.779 404.483C528.443 404.612 529.133 404.545 529.759 404.292C530.385 404.039 530.92 403.61 531.297 403.059C531.673 402.509 531.874 401.862 531.874 401.201C531.873 400.314 531.511 399.464 530.868 398.837C530.226 398.21 529.354 397.858 528.446 397.857Z" fill="white"/>
<defs>
<filter id="filter0_d_1746_82056" x="342.807" y="0" width="254.506" height="160.651" filterUnits="userSpaceOnUse" color-interpolation-filters="sRGB">
<feFlood flood-opacity="0" result="BackgroundImageFix"/>
<feColorMatrix in="SourceAlpha" type="matrix" values="0 0 0 0 0 0 0 0 0 0 0 0 0 0 0 0 0 0 127 0" result="hardAlpha"/>
<feOffset dy="4"/>
<feGaussianBlur stdDeviation="2"/>
<feComposite in2="hardAlpha" operator="out"/>
<feColorMatrix type="matrix" values="0 0 0 0 0.401307 0 0 0 0 0.754248 0 0 0 0 0.932026 0 0 0 0.25 0"/>
<feBlend mode="normal" in2="BackgroundImageFix" result="effect1_dropShadow_1746_82056"/>
<feBlend mode="normal" in="SourceGraphic" in2="effect1_dropShadow_1746_82056" result="shape"/>
</filter>
</defs>
</svg>
