<svg width="302" height="226" viewBox="0 0 302 226" fill="none" xmlns="http://www.w3.org/2000/svg">
<g opacity="0.9">
<path d="M302 197.75H0V197.901H302V197.75Z" fill="#EBEBEB"/>
<path d="M51.69 203.5H31.6855V203.651H51.69V203.5Z" fill="#EBEBEB"/>
<path d="M131.605 201.863H103.368V202.014H131.605V201.863Z" fill="#EBEBEB"/>
<path d="M79.7216 208.168H68.1309V208.319H79.7216V208.168Z" fill="#EBEBEB"/>
<path d="M206.894 205.547H188.647V205.698H206.894V205.547Z" fill="#EBEBEB"/>
<path d="M223.939 205.547H212.27V205.698H223.939V205.547Z" fill="#EBEBEB"/>
<path d="M271.745 208.096H236.375V208.247H271.745V208.096Z" fill="#EBEBEB"/>
<path d="M143.148 170.811H26.5219C25.6083 170.81 24.7326 170.446 24.0871 169.799C23.4416 169.152 23.0791 168.276 23.0791 167.362V3.41864C23.0871 2.51024 23.4531 1.64166 24.0977 1.00156C24.7423 0.361469 25.6135 0.00155614 26.5219 0H143.148C144.063 0 144.94 0.363359 145.587 1.01014C146.234 1.65693 146.597 2.53415 146.597 3.44884V167.362C146.597 168.277 146.234 169.154 145.587 169.801C144.94 170.448 144.063 170.811 143.148 170.811ZM26.5219 0.1208C25.6483 0.1224 24.811 0.470555 24.1939 1.08885C23.5767 1.70714 23.2301 2.54504 23.2301 3.41864V167.362C23.2301 168.236 23.5767 169.074 24.1939 169.692C24.811 170.31 25.6483 170.659 26.5219 170.66H143.148C144.022 170.659 144.86 170.311 145.478 169.693C146.097 169.074 146.445 168.237 146.446 167.362V3.41864C146.445 2.54449 146.097 1.7066 145.478 1.08848C144.86 0.470359 144.022 0.122397 143.148 0.1208H26.5219Z" fill="#EBEBEB"/>
<path d="M273.799 170.811H157.167C156.252 170.81 155.376 170.446 154.73 169.799C154.083 169.153 153.719 168.277 153.718 167.362V3.41864C153.727 2.50969 154.095 1.64111 154.74 1.00119C155.386 0.361258 156.258 0.00153917 157.167 0H273.799C274.706 0.00314352 275.576 0.363759 276.219 1.00368C276.863 1.64361 277.228 2.51128 277.236 3.41864V167.362C277.236 168.275 276.874 169.15 276.23 169.797C275.586 170.443 274.712 170.808 273.799 170.811ZM157.167 0.1208C156.292 0.122397 155.455 0.470359 154.836 1.08848C154.218 1.7066 153.87 2.54449 153.869 3.41864V167.362C153.87 168.237 154.218 169.074 154.836 169.693C155.455 170.311 156.292 170.659 157.167 170.66H273.799C274.673 170.659 275.511 170.311 276.129 169.693C276.747 169.074 277.095 168.237 277.097 167.362V3.41864C277.095 2.54449 276.747 1.7066 276.129 1.08848C275.511 0.470359 274.673 0.122397 273.799 0.1208H157.167Z" fill="#EBEBEB"/>
<path d="M176.882 23.0066H41.4648V107.748H176.882V23.0066Z" fill="#D1ECFA"/>
<path d="M174.236 103.767V26.9929L44.1166 26.9929V103.767L174.236 103.767Z" fill="#EAF9F4"/>
<path d="M61.2393 103.761L74.5877 26.9868H84.4329L71.0845 103.761H61.2393Z" fill="white"/>
<path d="M73.3555 103.761L86.7039 26.9868H91.107L77.7586 103.761H73.3555Z" fill="white"/>
<path d="M94.8945 103.761L108.243 26.9868H118.082L104.734 103.761H94.8945Z" fill="white"/>
<path d="M119.707 103.761L133.055 26.9868H137.459L124.11 103.761H119.707Z" fill="white"/>
<path d="M78.9727 103.761V26.9868H78.3022V103.761H78.9727Z" fill="#E0E0E0"/>
<path d="M44.7871 103.761L44.7871 26.9868H44.1167L44.1167 103.761H44.7871Z" fill="#E0E0E0"/>
<path d="M78.3027 103.761V26.9868H75.6512V103.761H78.3027Z" fill="#D1ECFA"/>
<path d="M111.824 103.767V26.9929H111.154V103.767H111.824Z" fill="#E0E0E0"/>
<path d="M111.148 103.767V26.9929H108.497V103.767H111.148Z" fill="#D1ECFA"/>
<path d="M144.688 103.761V26.9868H144.018V103.761H144.688Z" fill="#E0E0E0"/>
<path d="M144.018 103.761V26.9868H141.366V103.761H144.018Z" fill="#D1ECFA"/>
<path d="M177.552 107.748V23.0066H176.881V107.748H177.552Z" fill="#E0E0E0"/>
<path d="M190.64 17.1846H35.4482C35.2159 17.183 34.9934 17.0904 34.8285 16.9267C34.6637 16.763 34.5696 16.5411 34.5664 16.3088C34.5664 16.0743 34.6591 15.8494 34.8243 15.6831C34.9895 15.5167 35.2138 15.4225 35.4482 15.4209H190.64C190.757 15.4209 190.872 15.4439 190.98 15.4885C191.088 15.5331 191.185 15.5985 191.268 15.681C191.35 15.7634 191.416 15.8613 191.46 15.969C191.505 16.0767 191.528 16.1922 191.528 16.3088C191.525 16.5422 191.43 16.7649 191.264 16.9288C191.097 17.0927 190.873 17.1846 190.64 17.1846Z" fill="#E0E0E0"/>
<g opacity="0.8">
<path d="M96.507 13.7107H37.623V128.126H96.507V13.7107Z" fill="#F5F5F5"/>
<path d="M60.6964 129.39H55.7617L57.1509 14.9739H59.3555L60.6964 129.39Z" fill="#E6E6E6"/>
<path d="M49.8116 129.39H47.4258L48.0962 14.9739H49.1593L49.8116 129.39Z" fill="#E6E6E6"/>
<path d="M75.0108 129.39H72.625L73.2954 14.9739H74.3585L75.0108 129.39Z" fill="#E6E6E6"/>
<path d="M87.1327 129.39H84.7529L85.4173 14.9739H86.4864L87.1327 129.39Z" fill="#E6E6E6"/>
</g>
<g opacity="0.8">
<path d="M187.602 13.7048H158.163V128.121H187.602V13.7048Z" fill="#F5F5F5"/>
<path d="M169.7 129.383H167.235L167.924 14.9736H169.029L169.7 129.383Z" fill="#E6E6E6"/>
<path d="M164.257 129.383H163.067L163.4 14.9736H163.931L164.257 129.383Z" fill="#E6E6E6"/>
<path d="M176.857 129.383H175.667L175.999 14.9736H176.531L176.857 129.383Z" fill="#E6E6E6"/>
<path d="M182.915 129.383H181.726L182.064 14.9736H182.595L182.915 129.383Z" fill="#E6E6E6"/>
</g>
<path d="M156.611 196.717H162.276V138.962H156.611V196.717Z" fill="#D1ECFA"/>
<path d="M38.7954 138.969L163.654 138.969V135.514L38.7954 135.514V138.969Z" fill="#D1ECFA"/>
<path d="M42.4856 197.75L159.97 197.75V196.717L42.4856 196.717V197.75Z" fill="#D1ECFA"/>
<path d="M156.611 138.962H40.1777V196.717H156.611V138.962Z" fill="#EAF9F4"/>
<path d="M151.894 145.395H44.9072V163.116H151.894V145.395Z" fill="#D1ECFA"/>
<path d="M151.894 171.463H44.9072V189.184H151.894V171.463Z" fill="#D1ECFA"/>
<path d="M61.2814 147.111H135.513C136.12 147.111 136.612 146.618 136.612 146.011V145.456C136.612 144.849 136.12 144.356 135.513 144.356H61.2814C60.6743 144.356 60.1821 144.849 60.1821 145.456V146.011C60.1821 146.618 60.6743 147.111 61.2814 147.111Z" fill="#EAF9F4"/>
<path d="M61.2814 173.167H135.513C136.12 173.167 136.612 172.675 136.612 172.068V171.513C136.612 170.905 136.12 170.413 135.513 170.413H61.2814C60.6743 170.413 60.1821 170.905 60.1821 171.513V172.068C60.1821 172.675 60.6743 173.167 61.2814 173.167Z" fill="#EAF9F4"/>
<path d="M251.02 195.061C254.603 191.478 254.603 185.668 251.02 182.085C247.437 178.503 241.628 178.503 238.045 182.085C234.462 185.668 234.462 191.478 238.045 195.061C241.628 198.644 247.437 198.644 251.02 195.061Z" fill="#EBEBEB"/>
<path d="M258.621 197.743C264.942 197.743 270.066 192.619 270.066 186.297C270.066 179.976 264.942 174.852 258.621 174.852C252.299 174.852 247.175 179.976 247.175 186.297C247.175 192.619 252.299 197.743 258.621 197.743Z" fill="#F5F5F5"/>
<path d="M201.072 100.753L265.573 100.753V20.2523L201.072 20.2523V100.753Z" fill="#E6E6E6"/>
<path d="M198.239 100.753L264.606 100.753V20.2523L198.239 20.2523V100.753Z" fill="#F5F5F5"/>
<path d="M262.583 98.5066V22.4993L200.256 22.4993V98.5066H262.583Z" fill="#EAF9F4"/>
<path d="M200.842 98.5066V22.4993H200.262V98.5066H200.842Z" fill="#E6E6E6"/>
<path d="M248.878 89.1994H213.961C213.422 89.1978 212.905 88.9828 212.524 88.6014C212.142 88.2201 211.927 87.7032 211.926 87.1639C211.927 86.6245 212.142 86.1077 212.524 85.7264C212.905 85.345 213.422 85.13 213.961 85.1284H248.878C249.418 85.13 249.935 85.345 250.316 85.7264C250.697 86.1077 250.912 86.6245 250.914 87.1639C250.912 87.7032 250.697 88.2201 250.316 88.6014C249.935 88.9828 249.418 89.1978 248.878 89.1994Z" fill="white"/>
<path d="M151 225.027C215.678 225.027 268.11 221.965 268.11 218.189C268.11 214.413 215.678 211.352 151 211.352C86.3224 211.352 33.8906 214.413 33.8906 218.189C33.8906 221.965 86.3224 225.027 151 225.027Z" fill="#F5F5F5"/>
<path d="M118.311 133.231H115.871V209.1H118.311V133.231Z" fill="#B3E0F6"/>
<path opacity="0.8" d="M118.311 133.231H115.871V209.1H118.311V133.231Z" fill="white"/>
<path d="M113.431 209.106H115.871L115.871 133.237H113.431L113.431 209.106Z" fill="#B3E0F6"/>
<path opacity="0.7" d="M113.431 209.106H115.871L115.871 133.237H113.431L113.431 209.106Z" fill="white"/>
<path d="M115.871 213.437C116.922 213.437 117.774 212.585 117.774 211.534C117.774 210.483 116.922 209.631 115.871 209.631C114.821 209.631 113.969 210.483 113.969 211.534C113.969 212.585 114.821 213.437 115.871 213.437Z" fill="#263238"/>
<path d="M118.003 209.106H113.739V209.927H118.003V209.106Z" fill="#263238"/>
<path d="M163.49 133.232V127.5H116.662V133.232H163.49Z" fill="#B3E0F6"/>
<path opacity="0.8" d="M163.49 133.232V127.5H116.662V133.232H163.49Z" fill="white"/>
<path d="M116.662 133.232V127.5H102.438V133.232H116.662Z" fill="#B3E0F6"/>
<path opacity="0.7" d="M116.662 133.232V127.5H102.438V133.232H116.662Z" fill="white"/>
<path d="M108.509 133.231H106.068V209.1H108.509V133.231Z" fill="#B3E0F6"/>
<path opacity="0.8" d="M108.509 133.231H106.068V209.1H108.509V133.231Z" fill="white"/>
<path d="M103.622 209.106H106.062L106.062 133.237H103.622L103.622 209.106Z" fill="#B3E0F6"/>
<path opacity="0.7" d="M103.622 209.106H106.062L106.062 133.237H103.622L103.622 209.106Z" fill="white"/>
<path d="M106.069 213.437C107.119 213.437 107.971 212.585 107.971 211.534C107.971 210.483 107.119 209.631 106.069 209.631C105.018 209.631 104.166 210.483 104.166 211.534C104.166 212.585 105.018 213.437 106.069 213.437Z" fill="#263238"/>
<path d="M108.201 209.106H103.937V209.927H108.201V209.106Z" fill="#263238"/>
<path d="M162.126 133.231H159.686V209.1H162.126V133.231Z" fill="#B3E0F6"/>
<path opacity="0.8" d="M162.126 133.231H159.686V209.1H162.126V133.231Z" fill="white"/>
<path d="M157.245 209.106H159.686V133.237H157.245V209.106Z" fill="#B3E0F6"/>
<path opacity="0.7" d="M157.245 209.106H159.686V133.237H157.245V209.106Z" fill="white"/>
<path d="M161.588 211.534C161.588 211.91 161.477 212.278 161.268 212.591C161.059 212.904 160.762 213.148 160.414 213.292C160.066 213.436 159.684 213.473 159.315 213.4C158.946 213.327 158.607 213.145 158.34 212.879C158.074 212.613 157.893 212.274 157.82 211.905C157.746 211.536 157.784 211.154 157.928 210.806C158.072 210.458 158.316 210.161 158.629 209.952C158.942 209.743 159.31 209.631 159.686 209.631C160.19 209.633 160.673 209.834 161.029 210.19C161.386 210.547 161.587 211.03 161.588 211.534Z" fill="#263238"/>
<path d="M161.818 209.106H157.554V209.927H161.818V209.106Z" fill="#263238"/>
<path d="M152.323 133.231H149.883V209.1H152.323V133.231Z" fill="#B3E0F6"/>
<path opacity="0.8" d="M152.323 133.231H149.883V209.1H152.323V133.231Z" fill="white"/>
<path d="M147.443 209.106H149.883V133.237H147.443V209.106Z" fill="#B3E0F6"/>
<path opacity="0.7" d="M147.443 209.106H149.883V133.237H147.443V209.106Z" fill="white"/>
<path d="M151.785 211.534C151.786 211.912 151.675 212.282 151.466 212.597C151.257 212.911 150.959 213.157 150.61 213.302C150.261 213.447 149.876 213.486 149.506 213.412C149.135 213.339 148.794 213.157 148.527 212.89C148.26 212.622 148.078 212.282 148.004 211.911C147.931 211.54 147.969 211.156 148.114 210.807C148.259 210.458 148.505 210.16 148.82 209.95C149.135 209.741 149.504 209.63 149.882 209.631C150.387 209.633 150.87 209.834 151.226 210.19C151.582 210.547 151.783 211.03 151.785 211.534Z" fill="#263238"/>
<path d="M152.014 209.106H147.75V209.927H152.014V209.106Z" fill="#263238"/>
<path d="M115.014 169.658V166.228H104.166V169.658H115.014Z" fill="#B3E0F6"/>
<path opacity="0.7" d="M115.014 169.658V166.228H104.166V169.658H115.014Z" fill="white"/>
<path d="M161.383 169.646V166.215H117.091V169.646H161.383Z" fill="#B3E0F6"/>
<path opacity="0.8" d="M161.383 169.646V166.215H117.091V169.646H161.383Z" fill="white"/>
<path d="M134.178 156.467H129.28C128.69 156.467 128.211 156.946 128.211 157.536V165.153C128.211 165.743 128.69 166.222 129.28 166.222H134.178C134.769 166.222 135.248 165.743 135.248 165.153V157.536C135.248 156.946 134.769 156.467 134.178 156.467Z" fill="#B3E0F6"/>
<path opacity="0.3" d="M134.178 156.467H129.28C128.69 156.467 128.211 156.946 128.211 157.536V165.153C128.211 165.743 128.69 166.222 129.28 166.222H134.178C134.769 166.222 135.248 165.743 135.248 165.153V157.536C135.248 156.946 134.769 156.467 134.178 156.467Z" fill="white"/>
<path d="M135.247 159.257H132.819V164.156H135.247V159.257Z" fill="white"/>
<path d="M132.143 159.257H129.715V164.156H132.143V159.257Z" fill="white"/>
<path d="M133.973 155.144H129.479C129.303 155.144 129.159 155.288 129.159 155.464V156.141C129.159 156.318 129.303 156.461 129.479 156.461H133.973C134.15 156.461 134.293 156.318 134.293 156.141V155.464C134.293 155.288 134.15 155.144 133.973 155.144Z" fill="#B3E0F6"/>
<path d="M127.679 155.628H122.358C121.717 155.628 121.198 156.147 121.198 156.788V165.063C121.198 165.703 121.717 166.222 122.358 166.222H127.679C128.32 166.222 128.839 165.703 128.839 165.063V156.788C128.839 156.147 128.32 155.628 127.679 155.628Z" fill="#B3E0F6"/>
<path opacity="0.5" d="M127.679 155.628H122.358C121.717 155.628 121.198 156.147 121.198 156.788V165.063C121.198 165.703 121.717 166.222 122.358 166.222H127.679C128.32 166.222 128.839 165.703 128.839 165.063V156.788C128.839 156.147 128.32 155.628 127.679 155.628Z" fill="white"/>
<path d="M128.036 158.66H123.693V163.981H128.036V158.66Z" fill="white"/>
<path d="M127.462 154.191H122.582C122.388 154.191 122.231 154.348 122.231 154.541V155.272C122.231 155.465 122.388 155.622 122.582 155.622H127.462C127.656 155.622 127.812 155.465 127.812 155.272V154.541C127.812 154.348 127.656 154.191 127.462 154.191Z" fill="#B3E0F6"/>
<path d="M125.499 117.473H109.191V127.5H125.499V117.473Z" fill="#B3E0F6"/>
<path opacity="0.2" d="M114.651 127.5H125.499V117.473H114.651V127.5Z" fill="white"/>
<path opacity="0.5" d="M109.191 121.61H125.499V117.467H109.191V121.61Z" fill="white"/>
<path opacity="0.5" d="M109.191 123.357H125.499V122.487H109.191V123.357Z" fill="white"/>
<path d="M124.629 124.274H115.521V126.581H124.629V124.274Z" fill="white"/>
<path d="M146.488 123.585C146.396 123.507 146.338 123.395 146.326 123.275C146.315 123.154 146.351 123.034 146.427 122.939L151.259 117.153C151.338 117.059 151.451 117 151.573 116.988C151.695 116.977 151.817 117.014 151.912 117.092C152.004 117.171 152.062 117.283 152.073 117.403C152.085 117.524 152.048 117.644 151.972 117.739L147.14 123.525C147.061 123.619 146.949 123.678 146.826 123.69C146.704 123.701 146.583 123.663 146.488 123.585Z" fill="#B3E0F6"/>
<path d="M148.058 123.622C147.964 123.543 147.905 123.43 147.894 123.308C147.882 123.186 147.92 123.064 147.998 122.97L152.83 117.189C152.868 117.142 152.915 117.103 152.968 117.075C153.021 117.046 153.08 117.028 153.14 117.023C153.2 117.017 153.261 117.024 153.319 117.042C153.376 117.06 153.43 117.09 153.476 117.129C153.523 117.167 153.562 117.214 153.591 117.267C153.619 117.321 153.637 117.379 153.643 117.439C153.648 117.5 153.642 117.56 153.623 117.618C153.605 117.676 153.576 117.729 153.536 117.775L148.704 123.561C148.626 123.654 148.514 123.712 148.394 123.723C148.273 123.734 148.152 123.698 148.058 123.622Z" fill="#B3E0F6"/>
<path d="M149.381 123.954C149.334 123.915 149.295 123.868 149.266 123.814C149.237 123.76 149.219 123.701 149.214 123.64C149.208 123.58 149.215 123.518 149.233 123.46C149.251 123.402 149.281 123.348 149.321 123.302L154.153 117.521C154.191 117.474 154.238 117.435 154.291 117.407C154.344 117.378 154.403 117.36 154.463 117.355C154.523 117.349 154.584 117.356 154.642 117.374C154.699 117.392 154.753 117.422 154.799 117.461C154.893 117.539 154.952 117.65 154.963 117.772C154.974 117.893 154.937 118.013 154.859 118.107L150.027 123.894C149.95 123.987 149.838 124.046 149.717 124.058C149.595 124.069 149.475 124.032 149.381 123.954Z" fill="#B3E0F6"/>
<path d="M143.432 122.571C141.197 122.571 138.672 121.925 136.444 121.363C134.831 120.946 132.397 120.324 132.053 120.681C132.053 120.681 131.986 120.844 132.216 121.393C132.253 121.467 132.275 121.548 132.28 121.631C132.285 121.714 132.273 121.797 132.244 121.875C132.215 121.953 132.171 122.024 132.113 122.084C132.056 122.144 131.987 122.192 131.91 122.224C131.834 122.256 131.751 122.272 131.668 122.271C131.585 122.269 131.503 122.251 131.428 122.217C131.352 122.183 131.284 122.133 131.229 122.071C131.173 122.01 131.131 121.937 131.104 121.858C130.971 121.538 130.561 120.566 131.141 119.889C131.944 118.959 133.852 119.448 136.746 120.191C138.902 120.747 141.348 121.399 143.432 121.399C145.516 121.399 147.956 120.795 150.118 120.191C153.011 119.448 154.95 118.983 155.723 119.889C156.327 120.566 155.892 121.538 155.754 121.858C155.693 122.008 155.576 122.128 155.428 122.191C155.28 122.255 155.112 122.257 154.962 122.197C154.813 122.137 154.693 122.019 154.629 121.871C154.566 121.723 154.564 121.555 154.624 121.405C154.86 120.856 154.787 120.687 154.787 120.687C154.443 120.336 152.009 120.958 150.402 121.375C148.191 121.925 145.661 122.571 143.432 122.571Z" fill="#B3E0F6"/>
<path opacity="0.5" d="M143.432 122.571C141.197 122.571 138.672 121.925 136.444 121.363C134.831 120.946 132.397 120.324 132.053 120.681C132.053 120.681 131.986 120.844 132.216 121.393C132.253 121.467 132.275 121.548 132.28 121.631C132.285 121.714 132.273 121.797 132.244 121.875C132.215 121.953 132.171 122.024 132.113 122.084C132.056 122.144 131.987 122.192 131.91 122.224C131.834 122.256 131.751 122.272 131.668 122.271C131.585 122.269 131.503 122.251 131.428 122.217C131.352 122.183 131.284 122.133 131.229 122.071C131.173 122.01 131.131 121.937 131.104 121.858C130.971 121.538 130.561 120.566 131.141 119.889C131.944 118.959 133.852 119.448 136.746 120.191C138.902 120.747 141.348 121.399 143.432 121.399C145.516 121.399 147.956 120.795 150.118 120.191C153.011 119.448 154.95 118.983 155.723 119.889C156.327 120.566 155.892 121.538 155.754 121.858C155.693 122.008 155.576 122.128 155.428 122.191C155.28 122.255 155.112 122.257 154.962 122.197C154.813 122.137 154.693 122.019 154.629 121.871C154.566 121.723 154.564 121.555 154.624 121.405C154.86 120.856 154.787 120.687 154.787 120.687C154.443 120.336 152.009 120.958 150.402 121.375C148.191 121.925 145.661 122.571 143.432 122.571Z" fill="white"/>
<path d="M143.432 121.967C137.905 121.967 130.023 117.739 131.66 121.616C133.297 125.494 137.802 127.499 143.432 127.499C149.061 127.499 153.561 125.506 155.198 121.616C156.834 117.727 148.958 121.967 143.432 121.967Z" fill="#B3E0F6"/>
<path d="M110.985 75.3191C111.033 75.5864 111.175 75.8281 111.384 76.0016L113.196 77.5358C113.368 77.6795 113.576 77.7727 113.798 77.8047C114.02 77.8367 114.246 77.8063 114.452 77.717L116.264 76.9016C118.036 76.1106 119.614 74.9442 120.891 73.4829L121.319 72.9997C121.492 72.802 121.623 72.572 121.705 72.3231C121.788 72.0741 121.82 71.8113 121.799 71.5498C121.779 71.2884 121.707 71.0336 121.587 70.8003C121.468 70.5671 121.303 70.36 121.102 70.1911L119.242 68.6268C118.886 68.3246 118.434 68.1587 117.967 68.1587C117.5 68.1587 117.049 68.3246 116.693 68.6268L114.524 70.4871C114.524 70.4871 110.574 72.8729 110.985 75.3191Z" fill="#D5945A"/>
<path d="M109.813 76.2731C109.878 75.346 110.082 74.4339 110.417 73.5672C111.952 73.2833 115.793 76.4603 116.3 77.7952C115.974 78.532 114.126 80.0058 114.126 80.0058C112.948 78.7253 110.732 77.1851 109.813 76.2731Z" fill="#E0E0E0"/>
<path d="M94.0424 66.3369C94.574 68.1489 95.1538 69.9609 95.7397 71.7729C96.3256 73.5849 96.9477 75.3969 97.5517 77.2089C98.1557 79.0209 98.8322 80.7484 99.5207 82.4094C99.865 83.2429 100.221 84.0462 100.578 84.7589C100.747 85.1153 100.922 85.4233 101.067 85.6891L101.158 85.8401L101.2 85.9126C101.2 85.9126 101.23 85.9669 101.2 85.9126C101.156 85.8555 101.1 85.8083 101.037 85.7736L100.662 85.4656C100.509 85.3819 100.344 85.3209 100.173 85.2844C100.002 85.2497 99.825 85.2497 99.6536 85.2844C99.4724 85.3569 99.7865 85.3206 100.197 85.073C101.328 84.3293 102.345 83.4261 103.217 82.3912C104.3 81.158 105.309 79.8611 106.237 78.5075C106.72 77.819 107.198 77.1062 107.651 76.3875L108.327 75.3063L108.931 74.2554L116.626 78.2418C116.372 78.7552 116.167 79.1538 115.931 79.6008L115.309 80.9356C114.838 81.7852 114.347 82.6288 113.836 83.4664C112.795 85.1873 111.653 86.8452 110.417 88.4312C109.75 89.2745 109.039 90.081 108.285 90.8472C107.434 91.726 106.5 92.519 105.494 93.2149C104.158 94.1611 102.627 94.7949 101.013 95.0692C99.9348 95.2311 98.836 95.186 97.7752 94.9363C96.7146 94.6774 95.7125 94.2204 94.8216 93.5894H94.7914C94.6766 93.5048 94.5498 93.4022 94.4411 93.3055C94.2116 93.0941 93.9881 92.8706 93.7706 92.6411C93.5532 92.4116 93.4626 92.2848 93.3116 92.0975L93.1002 91.8318L92.9371 91.6083L92.617 91.1492C92.2486 90.5875 91.9284 90.056 91.6446 89.5547C91.0768 88.546 90.5996 87.5856 90.1466 86.6374C89.2406 84.7408 88.4434 82.8805 87.6702 81.0202C86.8971 79.1598 86.1723 77.3056 85.4596 75.4452C84.7469 73.5849 84.0644 71.7427 83.3818 69.816L94.0424 66.3369Z" fill="#B3E0F6"/>
<path opacity="0.6" d="M94.0424 66.3369C94.574 68.1489 95.1538 69.9609 95.7397 71.7729C96.3256 73.5849 96.9477 75.3969 97.5517 77.2089C98.1557 79.0209 98.8322 80.7484 99.5207 82.4094C99.865 83.2429 100.221 84.0462 100.578 84.7589C100.747 85.1153 100.922 85.4233 101.067 85.6891L101.158 85.8401L101.2 85.9126C101.2 85.9126 101.23 85.9669 101.2 85.9126C101.156 85.8555 101.1 85.8083 101.037 85.7736L100.662 85.4656C100.509 85.3819 100.344 85.3209 100.173 85.2844C100.002 85.2497 99.825 85.2497 99.6536 85.2844C99.4724 85.3569 99.7865 85.3206 100.197 85.073C101.328 84.3293 102.345 83.4261 103.217 82.3912C104.3 81.158 105.309 79.8611 106.237 78.5075C106.72 77.819 107.198 77.1062 107.651 76.3875L108.327 75.3063L108.931 74.2554L116.626 78.2418C116.372 78.7552 116.167 79.1538 115.931 79.6008L115.309 80.9356C114.838 81.7852 114.347 82.6288 113.836 83.4664C112.795 85.1873 111.653 86.8452 110.417 88.4312C109.75 89.2745 109.039 90.081 108.285 90.8472C107.434 91.726 106.5 92.519 105.494 93.2149C104.158 94.1611 102.627 94.7949 101.013 95.0692C99.9348 95.2311 98.836 95.186 97.7752 94.9363C96.7146 94.6774 95.7125 94.2204 94.8216 93.5894H94.7914C94.6766 93.5048 94.5498 93.4022 94.4411 93.3055C94.2116 93.0941 93.9881 92.8706 93.7706 92.6411C93.5532 92.4116 93.4626 92.2848 93.3116 92.0975L93.1002 91.8318L92.9371 91.6083L92.617 91.1492C92.2486 90.5875 91.9284 90.056 91.6446 89.5547C91.0768 88.546 90.5996 87.5856 90.1466 86.6374C89.2406 84.7408 88.4434 82.8805 87.6702 81.0202C86.8971 79.1598 86.1723 77.3056 85.4596 75.4452C84.7469 73.5849 84.0644 71.7427 83.3818 69.816L94.0424 66.3369Z" fill="white"/>
<path d="M82.5305 159.07C75.4153 136.516 69.9189 109.071 69.9189 109.071L91.3066 106.969C91.3066 106.969 92.7079 142.279 94.0427 157.916C95.4319 174.176 100.868 211.938 100.868 211.938L94.3628 212.469C94.3628 212.469 83.1888 179.255 82.5305 159.07Z" fill="#B3E0F6"/>
<path opacity="0.2" d="M78.26 127.499L75.2822 132.802C76.8043 138.993 78.5861 145.8 80.531 152.462C80.2592 142.007 79.166 129.927 78.26 127.499Z" fill="#202020"/>
<path d="M109.571 213.447C109.571 213.447 100.373 212.686 99.4907 211.382L94.5439 212.131L95.3654 217.343L98.3854 216.884L98.784 216.334L99.6236 216.697C102.094 216.328 108.629 215.247 110.097 214.456C110.103 214.257 110.058 214.059 109.966 213.883C109.874 213.706 109.738 213.556 109.571 213.447Z" fill="#263238"/>
<path d="M61.7344 157.566C62.1209 134.378 60.629 118.879 62.6162 107.434L82.1616 107.138C82.1616 107.138 77.3659 143.927 74.974 159.245C72.5822 174.562 69.538 212.397 69.538 212.397H63.498C63.498 212.397 58.2432 175.498 61.7344 157.566Z" fill="#B3E0F6"/>
<path d="M75.4994 215.627C75.4994 215.627 69.701 213.507 68.9339 212.088H63.9268L64.3073 217.367H68.3903L68.8312 216.878L69.6466 217.367C72.1412 217.367 74.4303 217.27 75.9645 216.708C75.9827 216.504 75.9498 216.298 75.8686 216.109C75.7874 215.92 75.6605 215.755 75.4994 215.627Z" fill="#263238"/>
<path d="M63.4927 61.1853C70.4024 60.3276 80.2839 60.4062 86.9037 61.5477C88.5577 61.8501 90.0751 62.6638 91.2421 63.8741C92.4091 65.0845 93.1669 66.6305 93.4088 68.2944C94.804 78.2966 93.6021 95.7764 92.7142 113.371C77.6142 118.547 61.6263 113.298 61.6263 113.298C61.0767 109.753 62.3149 98.1199 63.1484 91.9108C61.8981 85.5024 59.2526 78.1577 57.501 69.6413C57.288 68.6881 57.2774 67.7008 57.4699 66.7432C57.6623 65.7857 58.0535 64.8791 58.6182 64.0822C59.1829 63.2852 59.9085 62.6156 60.7481 62.1167C61.5878 61.6177 62.5228 61.3004 63.4927 61.1853Z" fill="white"/>
<path d="M69.6592 47.9817L78.1997 54.4324C77.185 57.1444 76.8589 59.9651 81.3043 61.0462C82.4157 62.5139 80.4587 64.1991 78.6165 64.9662C75.6509 64.5977 71.4651 63.6132 69.6592 61.1247C70.2269 59.1919 70.4202 51.9862 69.6592 47.9817Z" fill="#D5945A"/>
<path d="M80.4945 63.3355C80.1661 64.2806 79.6053 65.128 78.8637 65.7998C77.6557 65.7998 75.9102 64.4468 75.9102 64.4468C75.9102 64.4468 76.5866 62.5442 77.541 62.1516C79.9751 62.7496 80.4945 63.3355 80.4945 63.3355Z" fill="#263238"/>
<path d="M77.7588 65.0813C77.922 64.8992 78.1298 64.7628 78.3617 64.6855C78.5937 64.6082 78.8418 64.5926 79.0815 64.6404C80.658 67.5879 83.1283 85.7381 84.0947 91.0171C83.678 94.2183 83.0559 95.3175 82.2223 98.9778C81.4613 96.145 80.3741 94.4659 79.1661 91.307C79.5104 87.532 78.2541 69.9314 77.7588 65.0813Z" fill="#263238"/>
<path opacity="0.2" d="M78.2056 54.4328L78.1331 54.3784L73.3615 50.7544C72.8843 50.7544 71.9663 50.7242 72.3589 54.0704C72.6005 56.2025 75.8319 58.5037 77.958 58.9326C77.2634 57.6521 77.6016 56.0454 78.1935 54.469L78.2056 54.4328Z" fill="#202020"/>
<path d="M83.956 40.1357C85.6714 42.8054 84.4694 46.9186 83.1527 48.2353C80.7548 43.802 81.3286 38.9217 83.956 40.1357Z" fill="#263238"/>
<path d="M70.3476 42.884C70.2147 47.867 69.8825 50.7843 72.1596 53.5264C75.6024 57.6578 81.9383 55.87 83.5631 51.0078C85.0248 46.6348 84.9946 39.2116 80.2955 36.856C79.2565 36.3363 78.1028 36.0883 76.9421 36.1353C75.7814 36.1822 74.6515 36.5226 73.658 37.1247C72.6645 37.7267 71.8397 38.5707 71.2608 39.5778C70.6819 40.585 70.3677 41.7224 70.3476 42.884Z" fill="#D5945A"/>
<path d="M71.5801 46.8098C74.0445 46.5803 74.7511 42.304 73.2774 38.8733C76.3759 38.082 79.3778 39.3806 81.4495 40.1477C83.5212 40.9148 86.5956 41.0295 86.5956 38.4625C85.5325 39.0665 83.4487 38.1122 83.2313 37.0492C85.4782 37.3391 85.7077 33.8238 84.4393 33.2561C84.4393 35.0681 78.4416 33.9386 75.2887 32.8151C69.3212 30.683 65.8663 34.1258 67.6843 37.2847C63.0094 39.5799 65.8723 44.0495 69.5809 47.5527C70.2133 47.2217 70.8851 46.9721 71.5801 46.8098Z" fill="#263238"/>
<path d="M73.0836 44.7502C72.7031 48.1145 82.3248 49.8782 83.9556 49.7393C84.463 52.6566 86.4622 54.5713 84.4449 56.3833C82.4275 58.1953 75.252 58.6604 72.7152 54.976C70.1784 51.2916 72.1414 45.01 72.1414 45.01L73.0836 44.7502Z" fill="#263238"/>
<path d="M80.0599 50.9232C80.3172 50.9439 80.5758 50.9439 80.833 50.9232C80.8536 50.9204 80.8732 50.9128 80.8903 50.901C80.9075 50.8893 80.9216 50.8736 80.9315 50.8554C80.9415 50.8372 80.9471 50.817 80.9478 50.7962C80.9486 50.7755 80.9444 50.7548 80.9357 50.736C80.9284 50.6996 80.9074 50.6674 80.8771 50.6461C80.8467 50.6247 80.8093 50.6158 80.7726 50.6212C80.1926 50.6948 79.6034 50.6376 79.0484 50.4536C78.4934 50.2696 77.9866 49.9637 77.5654 49.5582C77.5395 49.5331 77.5048 49.519 77.4688 49.519C77.4327 49.519 77.398 49.5331 77.3721 49.5582C77.347 49.5841 77.333 49.6187 77.333 49.6548C77.333 49.6909 77.347 49.7255 77.3721 49.7514C78.0956 50.4561 79.0513 50.8727 80.0599 50.9232Z" fill="#D5945A"/>
<path d="M69.1456 37.206C66.8685 37.5805 66.1256 35.3216 66.9772 33.582C63.776 35.0316 66.3007 38.8731 69.1456 37.206Z" fill="#263238"/>
<path d="M68.0464 46.363C68.1838 46.9128 68.4292 47.4298 68.7683 47.884C69.1074 48.3382 69.5333 48.7204 70.0214 49.0085C71.3381 49.7756 72.3831 48.6944 72.3529 47.2569C72.3166 45.9643 71.5979 44.0074 70.1181 43.8322C69.7955 43.7984 69.4696 43.8453 69.1697 43.9686C68.8697 44.092 68.6051 44.2879 68.3997 44.5389C68.1943 44.7898 68.0544 45.0879 67.9927 45.4063C67.9311 45.7247 67.9495 46.0534 68.0464 46.363Z" fill="#D5945A"/>
<path d="M78.0904 44.3881C78.0542 44.7927 78.2414 45.137 78.5072 45.1551C78.7729 45.1732 79.0146 44.8652 79.0508 44.4666C79.087 44.0679 78.8998 43.7176 78.634 43.6934C78.3683 43.6693 78.1267 43.9834 78.0904 44.3881Z" fill="#263238"/>
<path d="M82.8746 45.0943C82.8384 45.499 83.0256 45.8432 83.2914 45.8614C83.5571 45.8795 83.7987 45.5714 83.835 45.1668C83.8712 44.7621 83.684 44.4178 83.4182 44.3997C83.1524 44.3816 82.9108 44.6956 82.8746 45.0943Z" fill="#263238"/>
<path d="M81.5394 45.4148C81.9102 46.6933 82.4592 47.9133 83.1702 49.0388C82.8769 49.2145 82.5489 49.3244 82.2089 49.3608C81.869 49.3973 81.5251 49.3596 81.2012 49.2502L81.5394 45.4148Z" fill="#EE8E46"/>
<path d="M76.1885 42.8294C76.1475 42.8287 76.1077 42.8161 76.0737 42.7932C76.0209 42.7596 75.9833 42.7068 75.9686 42.646C75.954 42.5851 75.9635 42.521 75.9952 42.467C76.1845 42.1341 76.4503 41.8509 76.7706 41.6409C77.0909 41.4308 77.4566 41.2999 77.8374 41.259C77.8942 41.2681 77.9458 41.2971 77.9831 41.3408C78.0204 41.3845 78.0409 41.4401 78.0409 41.4976C78.0409 41.5551 78.0204 41.6107 77.9831 41.6544C77.9458 41.6981 77.8942 41.7271 77.8374 41.7362C77.5381 41.7687 77.2508 41.8716 76.9988 42.0364C76.7469 42.2012 76.5375 42.4233 76.3878 42.6845C76.3725 42.7255 76.3454 42.7611 76.3099 42.7869C76.2745 42.8127 76.2323 42.8275 76.1885 42.8294Z" fill="#263238"/>
<path d="M84.5599 43.6143C84.5208 43.6151 84.482 43.6062 84.4472 43.5882C84.4124 43.5703 84.3826 43.544 84.3606 43.5117C84.2023 43.2582 83.9839 43.0478 83.7246 42.8992C83.4654 42.7506 83.1734 42.6685 82.8747 42.66C82.8433 42.6608 82.812 42.6553 82.7827 42.6439C82.7534 42.6324 82.7268 42.6152 82.7042 42.5932C82.6817 42.5712 82.6638 42.545 82.6516 42.516C82.6394 42.487 82.6331 42.4559 82.6331 42.4245C82.6315 42.3933 82.6362 42.3622 82.647 42.3329C82.6578 42.3037 82.6745 42.2769 82.6959 42.2543C82.7174 42.2317 82.7433 42.2137 82.7719 42.2014C82.8006 42.1891 82.8315 42.1828 82.8627 42.1829C83.2397 42.1935 83.6085 42.2951 83.9377 42.4792C84.2669 42.6632 84.5467 42.9242 84.7532 43.2399C84.7714 43.2655 84.7844 43.2945 84.7912 43.3252C84.7981 43.356 84.7987 43.3877 84.7931 43.4187C84.7875 43.4497 84.7757 43.4792 84.7585 43.5055C84.7412 43.5319 84.7189 43.5545 84.6928 43.5721C84.6543 43.6004 84.6076 43.6152 84.5599 43.6143Z" fill="#263238"/>
<path d="M69.8398 59.7961C69.8398 59.7961 67.4238 60.4485 67.4238 60.4545C67.4238 61.0585 68.0943 62.2061 69.7855 63.6859C71.368 65.063 74.7926 67.4428 76.3208 67.4428C76.1335 65.6308 76.6892 63.0336 77.5288 62.1517C75.5416 62.2544 71.7666 61.1008 69.8398 59.7961Z" fill="#E0E0E0"/>
<path d="M77.541 62.1518C79.2383 62.8162 81.1106 65.3349 81.6301 67.0503C82.524 66.5731 83.4783 63.1364 82.9529 60.9197C82.1263 60.4713 81.1792 60.2959 80.2469 60.4183C80.1322 61.1552 79.6007 62.0431 77.541 62.1518Z" fill="#E0E0E0"/>
<path d="M69.9011 212.571L63.1967 212.759L62.4961 208.953L70.3481 209.424L69.9011 212.571Z" fill="#B3E0F6"/>
<path opacity="0.2" d="M69.9011 212.571L63.1967 212.759L62.4961 208.953L70.3481 209.424L69.9011 212.571Z" fill="#202020"/>
<path d="M101.17 211.889L93.9943 213L92.7803 209.829L100.735 208.029L101.17 211.889Z" fill="#B3E0F6"/>
<path opacity="0.2" d="M101.17 211.889L93.9943 213L92.7803 209.829L100.735 208.029L101.17 211.889Z" fill="#202020"/>
<path d="M66.2106 59.7961C72.2506 67.8897 74.7451 115.117 71.3507 155.832C62.496 157.372 53.5508 144.743 53.5508 144.743C53.5508 144.743 59.4277 103.792 57.8875 90.7028C56.3473 77.6141 54.6319 69.9615 55.0547 66.0717C55.4775 62.1819 61.8377 60.4485 66.2106 59.7961Z" fill="#B3E0F6"/>
<path opacity="0.7" d="M66.2106 59.7961C72.2506 67.8897 74.7451 115.117 71.3507 155.832C62.496 157.372 53.5508 144.743 53.5508 144.743C53.5508 144.743 59.4277 103.792 57.8875 90.7028C56.3473 77.6141 54.6319 69.9615 55.0547 66.0717C55.4775 62.1819 61.8377 60.4485 66.2106 59.7961Z" fill="white"/>
<path d="M83.1045 60.3995C87.0909 74.4667 92.0316 123.91 90.2257 153.494C93.5839 150.728 97.4314 144.368 97.3468 142.066C97.2683 139.922 95.8066 101.405 95.2509 95.6671C94.9308 86.3292 95.1664 72.1594 94.0429 66.7053C92.9195 61.2512 87.2298 60.0371 83.1045 60.3995Z" fill="#B3E0F6"/>
<path opacity="0.7" d="M83.1045 60.3995C87.0909 74.4667 92.0316 123.91 90.2257 153.494C93.5839 150.728 97.4314 144.368 97.3468 142.066C97.2683 139.922 95.8066 101.405 95.2509 95.6671C94.9308 86.3292 95.1664 72.1594 94.0429 66.7053C92.9195 61.2512 87.2298 60.0371 83.1045 60.3995Z" fill="white"/>
<path d="M80.5492 106.304L63.4198 105.954C63.2607 105.954 63.1037 105.919 62.9603 105.85C62.8169 105.781 62.6909 105.681 62.5916 105.557C62.4923 105.432 62.4224 105.287 62.3869 105.132C62.3515 104.977 62.3515 104.816 62.3869 104.661L66.8928 80.4287C66.9714 80.0877 67.1626 79.7832 67.4354 79.564C67.7082 79.3449 68.0468 79.224 68.3967 79.2207L85.5201 79.5891C85.6792 79.5888 85.8362 79.6243 85.9796 79.6931C86.123 79.7618 86.249 79.8621 86.3483 79.9863C86.4476 80.1105 86.5175 80.2556 86.553 80.4106C86.5884 80.5656 86.5884 80.7267 86.553 80.8817L82.0532 105.096C81.9726 105.436 81.7809 105.739 81.5085 105.958C81.2361 106.177 80.8986 106.299 80.5492 106.304Z" fill="#B3E0F6"/>
<path d="M75.1252 95.2446C74.9942 95.005 74.9535 94.7264 75.0104 94.4594L75.4574 92.14C75.5023 91.9204 75.6075 91.7177 75.7611 91.5545C75.9147 91.3913 76.1107 91.2741 76.3271 91.2159L78.2599 90.7206C80.1382 90.2323 82.1002 90.1581 84.01 90.5032L84.614 90.6179C84.8724 90.6642 85.119 90.7616 85.3392 90.9046C85.5594 91.0475 85.7488 91.2331 85.8963 91.4503C86.0437 91.6676 86.1462 91.9121 86.1978 92.1695C86.2494 92.4269 86.2489 92.6921 86.1965 92.9494L85.7193 95.3291C85.6266 95.7876 85.3742 96.1984 85.007 96.4882C84.6397 96.778 84.1816 96.928 83.714 96.9116L80.8632 96.8089C80.8632 96.8089 76.3271 97.4129 75.1252 95.2446Z" fill="#D5945A"/>
<path d="M75.4998 90.5454C76.3657 90.2074 77.2782 90.0037 78.2057 89.9414C79.0996 91.2158 77.807 96.0297 76.7863 97.0626C75.983 97.0626 73.875 95.9995 73.875 95.9995C74.5938 94.3929 75.077 91.7594 75.4998 90.5454Z" fill="#E0E0E0"/>
<path d="M65.3707 69.3516C64.6942 71.0851 64.0177 72.9092 63.3654 74.697C62.7131 76.4849 62.0849 78.321 61.487 80.0787C60.889 81.8363 60.3273 83.6604 59.8501 85.3999C59.6146 86.2636 59.3971 87.1213 59.2461 87.8944C59.1676 88.287 59.1072 88.6374 59.0649 88.9333V89.1085V89.193V89.2232C59.0649 89.2232 59.0649 89.2836 59.0649 89.2232C59.0602 89.1512 59.046 89.0801 59.0226 89.0118L58.9079 88.5407C58.8689 88.4287 58.8072 88.3259 58.7267 88.2387C58.6663 88.1844 58.6602 88.2387 58.7267 88.287C59.1085 88.5749 59.5378 88.7936 59.9951 88.9333C61.5334 89.4081 63.1233 89.6961 64.7304 89.791C66.5614 89.9237 68.3983 89.956 70.2329 89.8876C71.1691 89.8876 72.1113 89.8031 73.0536 89.7306L74.4609 89.6098L75.8018 89.4709L77.1849 98.0235C76.5809 98.1322 76.0917 98.2108 75.5481 98.2893L73.9716 98.5128C72.9207 98.6517 71.8637 98.7725 70.8006 98.8691C68.6345 99.0713 66.4588 99.154 64.2835 99.1168C61.882 99.097 59.4922 98.7806 57.1684 98.1745C55.6869 97.7798 54.2808 97.1431 53.0068 96.29C52.1933 95.729 51.4668 95.0513 50.8505 94.2787C50.1548 93.3974 49.6303 92.3936 49.3043 91.3191V91.2829C49.2615 91.138 49.2272 90.9908 49.2016 90.842C49.1533 90.5339 49.111 90.238 49.0808 89.9058C49.0506 89.5736 49.0808 89.4346 49.0808 89.193V88.589L49.111 88.0334C49.1654 87.3629 49.2378 86.7468 49.3224 86.1791C49.4976 85.0315 49.7029 83.9805 49.9264 82.9537C50.3734 80.9001 50.8868 78.9432 51.4183 76.9983C51.9498 75.0534 52.5176 73.1448 53.0974 71.2422C53.6772 69.3396 54.2692 67.4611 54.9094 65.5283L65.3707 69.3516Z" fill="#B3E0F6"/>
<path opacity="0.7" d="M65.3707 69.3516C64.6942 71.0851 64.0177 72.9092 63.3654 74.697C62.7131 76.4849 62.0849 78.321 61.487 80.0787C60.889 81.8363 60.3273 83.6604 59.8501 85.3999C59.6146 86.2636 59.3971 87.1213 59.2461 87.8944C59.1676 88.287 59.1072 88.6374 59.0649 88.9333V89.1085V89.193V89.2232C59.0649 89.2232 59.0649 89.2836 59.0649 89.2232C59.0602 89.1512 59.046 89.0801 59.0226 89.0118L58.9079 88.5407C58.8689 88.4287 58.8072 88.3259 58.7267 88.2387C58.6663 88.1844 58.6602 88.2387 58.7267 88.287C59.1085 88.5749 59.5378 88.7936 59.9951 88.9333C61.5334 89.4081 63.1233 89.6961 64.7304 89.791C66.5614 89.9237 68.3983 89.956 70.2329 89.8876C71.1691 89.8876 72.1113 89.8031 73.0536 89.7306L74.4609 89.6098L75.8018 89.4709L77.1849 98.0235C76.5809 98.1322 76.0917 98.2108 75.5481 98.2893L73.9716 98.5128C72.9207 98.6517 71.8637 98.7725 70.8006 98.8691C68.6345 99.0713 66.4588 99.154 64.2835 99.1168C61.882 99.097 59.4922 98.7806 57.1684 98.1745C55.6869 97.7798 54.2808 97.1431 53.0068 96.29C52.1933 95.729 51.4668 95.0513 50.8505 94.2787C50.1548 93.3974 49.6303 92.3936 49.3043 91.3191V91.2829C49.2615 91.138 49.2272 90.9908 49.2016 90.842C49.1533 90.5339 49.111 90.238 49.0808 89.9058C49.0506 89.5736 49.0808 89.4346 49.0808 89.193V88.589L49.111 88.0334C49.1654 87.3629 49.2378 86.7468 49.3224 86.1791C49.4976 85.0315 49.7029 83.9805 49.9264 82.9537C50.3734 80.9001 50.8868 78.9432 51.4183 76.9983C51.9498 75.0534 52.5176 73.1448 53.0974 71.2422C53.6772 69.3396 54.2692 67.4611 54.9094 65.5283L65.3707 69.3516Z" fill="white"/>
<path d="M195.309 205.928C185.866 211.012 175.308 213.672 164.584 213.672H162.476C161.877 213.672 161.302 213.91 160.878 214.333C160.455 214.757 160.217 215.331 160.217 215.931C160.217 216.53 160.455 217.104 160.878 217.528C161.302 217.952 161.877 218.19 162.476 218.19H230.239C230.668 218.19 231.093 218.105 231.489 217.941C231.885 217.777 232.246 217.536 232.549 217.232C232.853 216.929 233.093 216.569 233.257 216.172C233.422 215.776 233.506 215.351 233.506 214.922V208.809C233.506 208.38 233.422 207.955 233.257 207.559C233.093 207.162 232.853 206.802 232.549 206.499C232.246 206.195 231.885 205.955 231.489 205.79C231.093 205.626 230.668 205.542 230.239 205.542H196.861C196.32 205.542 195.787 205.674 195.309 205.928Z" fill="#263238"/>
<path d="M219.855 208.81H206.054C205.19 208.809 204.347 208.553 203.629 208.073C202.911 207.594 202.351 206.913 202.019 206.116L194.626 188.316C194.352 187.652 194.246 186.931 194.317 186.217C194.388 185.503 194.634 184.817 195.033 184.22C195.431 183.623 195.971 183.133 196.604 182.794C197.236 182.455 197.943 182.277 198.661 182.276H212.45C213.314 182.276 214.159 182.532 214.878 183.011C215.597 183.491 216.158 184.172 216.491 184.97L223.878 202.776C224.151 203.438 224.258 204.157 224.188 204.871C224.117 205.584 223.873 206.269 223.475 206.865C223.078 207.461 222.539 207.951 221.908 208.29C221.277 208.629 220.572 208.807 219.855 208.81Z" fill="#E0E0E0"/>
<path opacity="0.2" d="M218.146 208.205H205.963C205.42 208.207 204.889 208.047 204.437 207.745C203.986 207.444 203.634 207.016 203.426 206.514L195.502 187.427C195.329 187.01 195.262 186.557 195.306 186.107C195.35 185.658 195.505 185.226 195.756 184.85C196.006 184.475 196.346 184.167 196.744 183.953C197.142 183.74 197.587 183.629 198.039 183.628H210.197C210.741 183.628 211.272 183.789 211.724 184.091C212.175 184.393 212.527 184.823 212.734 185.325L220.658 204.406C220.83 204.821 220.898 205.273 220.855 205.72C220.812 206.168 220.659 206.598 220.411 206.973C220.163 207.348 219.827 207.656 219.432 207.871C219.037 208.086 218.595 208.201 218.146 208.205Z" fill="#202020"/>
<path d="M216.135 172.641H192.12C189.772 172.641 187.868 174.545 187.868 176.894V180.33C187.868 182.679 189.772 184.582 192.12 184.582H216.135C218.484 184.582 220.388 182.679 220.388 180.33V176.894C220.388 174.545 218.484 172.641 216.135 172.641Z" fill="#263238"/>
<path d="M185.608 145.141H231.905V165.593C231.907 166.928 231.645 168.251 231.135 169.486C230.624 170.72 229.876 171.842 228.932 172.786C227.987 173.731 226.866 174.48 225.632 174.991C224.398 175.502 223.075 175.765 221.74 175.764H185.608V145.141Z" fill="#E0E0E0"/>
<path opacity="0.2" d="M186.557 149.4H223.479V165.708C223.479 167.858 222.625 169.92 221.105 171.44C219.585 172.96 217.523 173.814 215.373 173.814H186.557V149.4Z" fill="#202020"/>
<path opacity="0.6" d="M190.967 217.743H162.778C162.308 217.735 161.859 217.545 161.527 217.212C161.194 216.88 161.004 216.431 160.996 215.961C161.004 215.491 161.194 215.042 161.527 214.71C161.859 214.377 162.308 214.187 162.778 214.179H190.967C191.437 214.187 191.885 214.377 192.218 214.71C192.55 215.042 192.741 215.491 192.748 215.961C192.741 216.431 192.55 216.88 192.218 217.212C191.885 217.545 191.437 217.735 190.967 217.743Z" fill="#202020"/>
<path d="M154.176 148.584C154.178 148.832 154.105 149.074 153.969 149.281C153.832 149.487 153.637 149.648 153.409 149.744C153.18 149.839 152.929 149.865 152.686 149.817C152.443 149.77 152.22 149.651 152.044 149.477C151.869 149.302 151.749 149.079 151.7 148.837C151.652 148.594 151.676 148.342 151.77 148.113C151.865 147.885 152.025 147.689 152.231 147.551C152.437 147.414 152.679 147.34 152.926 147.34C153.09 147.339 153.252 147.371 153.404 147.433C153.556 147.495 153.694 147.587 153.81 147.702C153.926 147.818 154.018 147.955 154.081 148.107C154.144 148.258 154.176 148.42 154.176 148.584Z" fill="#263238"/>
<path d="M170.111 187.168C171.538 187.168 172.696 186.01 172.696 184.582C172.696 183.155 171.538 181.997 170.111 181.997C168.683 181.997 167.525 183.155 167.525 184.582C167.525 186.01 168.683 187.168 170.111 187.168Z" fill="#263238"/>
<path d="M175.105 202.045C174.979 202.075 174.847 202.056 174.735 201.992C174.623 201.928 174.539 201.824 174.501 201.701L159.365 148.76C159.334 148.634 159.353 148.502 159.417 148.39C159.481 148.278 159.586 148.194 159.709 148.156C159.835 148.126 159.967 148.144 160.079 148.208C160.191 148.272 160.275 148.377 160.313 148.5L175.455 201.441C175.487 201.567 175.468 201.701 175.403 201.814C175.337 201.927 175.23 202.009 175.105 202.045Z" fill="#E0E0E0"/>
<path d="M152.721 148.584C152.722 148.45 152.776 148.322 152.871 148.227C152.966 148.132 153.094 148.078 153.228 148.077H159.824C159.958 148.078 160.086 148.132 160.181 148.227C160.276 148.322 160.33 148.45 160.331 148.584C160.331 148.719 160.278 148.849 160.183 148.945C160.088 149.041 159.959 149.096 159.824 149.098H153.228C153.093 149.096 152.964 149.041 152.869 148.945C152.774 148.849 152.721 148.719 152.721 148.584Z" fill="#E0E0E0"/>
<path d="M152.902 152.449H152.962C153.226 152.449 153.439 152.236 153.439 151.972V146.264C153.439 146.001 153.226 145.787 152.962 145.787H152.902C152.638 145.787 152.425 146.001 152.425 146.264V151.972C152.425 152.236 152.638 152.449 152.902 152.449Z" fill="#E0E0E0"/>
<path d="M142.272 148.246C141.696 148.034 141.162 147.721 140.695 147.322C140.532 147.172 140.413 146.979 140.352 146.765C140.291 146.552 140.29 146.325 140.349 146.111C140.409 145.897 140.526 145.703 140.688 145.551C140.851 145.399 141.052 145.295 141.269 145.25C144.893 144.471 152.57 142.714 155.802 141.481C154.751 144.338 148.034 147.932 145.848 148.361C144.666 148.637 143.433 148.598 142.272 148.246Z" fill="#202020"/>
<path d="M142.271 148.247C144.851 148.971 147.387 146.839 147.424 143.904C147.43 143.576 147.533 143.257 147.72 142.987C147.907 142.717 148.17 142.509 148.475 142.388C151.102 141.331 156.719 139.718 159.443 138.957C159.646 138.9 159.86 138.89 160.067 138.928C160.274 138.966 160.47 139.051 160.64 139.176C160.81 139.301 160.948 139.464 161.046 139.651C161.143 139.838 161.196 140.045 161.201 140.256C161.231 142.068 160.718 144.701 157.577 145.577C147.279 148.452 144.585 149.128 142.271 148.247Z" fill="#263238"/>
<path d="M276.958 116.651L276.354 116.56C276.451 115.808 276.388 115.043 276.167 114.316C275.947 113.59 275.574 112.919 275.074 112.348C274.574 111.776 273.959 111.318 273.268 111.003C272.578 110.688 271.828 110.523 271.069 110.52H260.801V109.916H271.069C271.917 109.92 272.756 110.104 273.527 110.458C274.299 110.811 274.986 111.325 275.543 111.966C276.1 112.606 276.514 113.358 276.757 114.171C277 114.984 277.066 115.84 276.952 116.681L276.958 116.651Z" fill="#B3E0F6"/>
<path d="M273.285 121.851L272.868 121.41L275.109 119.29L275.562 119.683L275.508 119.749L273.285 121.851Z" fill="#B3E0F6"/>
<path d="M208.12 159.118H162.748C158.441 159.118 157.372 153.133 161.413 151.641L178.663 145.275C187.208 142.121 195.129 137.484 202.062 131.576L221.807 114.761C223.968 112.921 226.712 111.911 229.55 111.91H271.075C271.824 111.909 272.557 112.124 273.188 112.528C273.818 112.933 274.319 113.51 274.631 114.19C274.942 114.871 275.052 115.628 274.946 116.369C274.841 117.11 274.524 117.806 274.035 118.372L257.358 134.076C252.346 138.347 246.855 142.022 240.996 145.027L220.134 155.73C214.982 158.375 213.918 159.118 208.12 159.118Z" fill="#B3E0F6"/>
<path opacity="0.2" d="M249.337 138.648C249.282 138.649 249.229 138.635 249.182 138.607C249.135 138.579 249.097 138.539 249.071 138.491L248.467 137.362C247.873 136.29 247.003 135.396 245.948 134.774C244.892 134.151 243.689 133.823 242.463 133.822H201.832C201.752 133.822 201.675 133.79 201.619 133.734C201.562 133.677 201.53 133.6 201.53 133.52C201.53 133.44 201.562 133.363 201.619 133.307C201.675 133.25 201.752 133.218 201.832 133.218H242.445C243.779 133.217 245.088 133.574 246.237 134.252C247.385 134.93 248.331 135.904 248.974 137.072L249.578 138.201C249.616 138.272 249.624 138.354 249.601 138.431C249.579 138.508 249.527 138.573 249.458 138.612C249.42 138.632 249.379 138.644 249.337 138.648Z" fill="#202020"/>
<path opacity="0.2" d="M205.734 152.287H162.596C158.791 153.495 159.799 158.466 163.852 158.466H205.734C207.926 158.466 209.581 156.726 209.195 154.842C208.998 154.084 208.546 153.417 207.916 152.951C207.286 152.486 206.516 152.252 205.734 152.287Z" fill="#202020"/>
<path d="M177.322 186.467H135.156C134.142 186.467 133.151 186.16 132.316 185.585C131.48 185.01 130.839 184.195 130.476 183.247C130.114 182.3 130.049 181.264 130.288 180.279C130.527 179.293 131.06 178.403 131.816 177.727L153.24 158.562C155.529 156.51 158.495 155.377 161.569 155.379H203.734C204.749 155.378 205.74 155.686 206.575 156.261C207.411 156.836 208.052 157.651 208.414 158.599C208.777 159.546 208.842 160.581 208.603 161.567C208.364 162.553 207.831 163.443 207.075 164.119L185.651 183.284C183.362 185.335 180.395 186.469 177.322 186.467Z" fill="#B3E0F6"/>
<path opacity="0.2" d="M173.408 185.725H134.752C133.835 185.721 132.957 185.356 132.308 184.707C131.66 184.059 131.294 183.181 131.291 182.264C131.294 181.347 131.66 180.468 132.308 179.82C132.957 179.172 133.835 178.806 134.752 178.803H173.408C174.326 178.804 175.206 179.169 175.856 179.818C176.505 180.466 176.872 181.346 176.875 182.264C176.872 183.182 176.505 184.061 175.856 184.71C175.206 185.358 174.326 185.723 173.408 185.725Z" fill="#202020"/>
<path d="M209.231 84.8445L207.389 86.2095C207.956 92.1529 213.876 94.1823 215.476 90.1114C216.835 86.7169 213.326 84.9049 209.231 84.8445Z" fill="#263238"/>
<path d="M210.916 84.899C210.783 86.6506 209.823 88.982 206.918 88.0519C206.818 88.0182 206.728 87.9605 206.656 87.8839C206.584 87.8073 206.532 87.7141 206.505 87.6126C206.477 87.5111 206.475 87.4044 206.499 87.302C206.522 87.1995 206.571 87.1044 206.64 87.0251C207.585 85.9474 208.696 85.0278 209.932 84.301C210.033 84.2383 210.15 84.2048 210.269 84.2044C210.388 84.2039 210.505 84.2364 210.607 84.2982C210.709 84.3601 210.792 84.449 210.846 84.555C210.901 84.6611 210.925 84.7801 210.916 84.899Z" fill="#B3E0F6"/>
<path d="M194.94 68.1374C195.26 65.7214 204.199 64.0363 208.228 71.5984C210.451 75.7539 210.578 80.2839 210.342 83.1589C210.269 84.0574 209.938 84.9158 209.389 85.6313C208.841 86.3468 208.098 86.8892 207.25 87.1936C204.066 88.3533 198.794 89.7909 196.13 87.9245C190.815 84.2341 194.94 68.1374 194.94 68.1374Z" fill="#263238"/>
<path d="M194.94 68.1377C186.08 74.5522 186.913 83.4129 192.307 85.8591C199.543 81.6975 194.94 68.1377 194.94 68.1377Z" fill="#263238"/>
<path d="M162.765 109.379L161.388 105.7L157.075 110.406C157.075 110.406 159.533 112.918 162.1 113.347L162.475 112.743C162.773 112.24 162.953 111.676 163.003 111.094C163.054 110.512 162.972 109.925 162.765 109.379Z" fill="#7F3E3B"/>
<path d="M157.137 105.797L155.977 107.489C155.732 107.841 155.629 108.273 155.69 108.697C155.75 109.122 155.969 109.508 156.303 109.778L157.076 110.412L161.389 105.701L158.973 105.097C158.632 105.012 158.273 105.034 157.945 105.159C157.617 105.284 157.335 105.507 157.137 105.797Z" fill="#7F3E3B"/>
<path d="M190.784 101.883C190.615 102.36 190.476 102.716 190.319 103.091C190.162 103.465 189.999 103.864 189.83 104.238C189.498 104.999 189.148 105.742 188.779 106.479C188.048 107.959 187.242 109.401 186.363 110.798C185.471 112.206 184.501 113.563 183.458 114.863C182.4 116.187 181.25 117.434 180.015 118.595L179.055 119.453L178.819 119.665L178.759 119.719L178.65 119.809L178.324 120.063C177.902 120.347 177.44 120.567 176.953 120.715C176.222 120.927 175.456 120.99 174.7 120.903C174.139 120.846 173.585 120.735 173.045 120.571C171.336 120.016 169.71 119.232 168.213 118.239C165.495 116.485 162.965 114.455 160.663 112.181C160.374 111.897 160.197 111.517 160.167 111.112C160.136 110.708 160.254 110.306 160.498 109.982C160.742 109.658 161.095 109.433 161.492 109.35C161.889 109.266 162.303 109.33 162.656 109.529H162.711C165.332 111.015 168.038 112.513 170.677 113.703C171.873 114.271 173.129 114.703 174.422 114.99C174.633 115.029 174.848 115.045 175.062 115.038C175.219 115.038 175.256 114.977 175.117 115.038C174.998 115.061 174.885 115.108 174.784 115.177C174.747 115.197 174.713 115.221 174.682 115.249L174.724 115.201L174.905 115.014L175.63 114.259C177.536 112.137 179.214 109.821 180.637 107.349C181.38 106.105 182.045 104.812 182.703 103.514C183.029 102.861 183.343 102.203 183.633 101.545L184.062 100.554L184.448 99.6238L184.509 99.4788C184.829 98.649 185.466 97.9805 186.279 97.6203C187.093 97.2601 188.016 97.2377 188.846 97.5581C189.675 97.8785 190.344 98.5154 190.704 99.3287C191.064 100.142 191.087 101.065 190.766 101.895L190.784 101.883Z" fill="#7F3E3B"/>
<path d="M187.964 95.8736C182.238 99.256 181.616 105.344 179.013 107.736C181.815 114.38 186.466 114.428 186.466 114.428C186.466 114.428 194.318 92.1288 187.964 95.8736Z" fill="#B3E0F6"/>
<path opacity="0.3" d="M187.964 95.8736C182.238 99.256 181.616 105.344 179.013 107.736C181.815 114.38 186.466 114.428 186.466 114.428C186.466 114.428 194.318 92.1288 187.964 95.8736Z" fill="white"/>
<path d="M210.373 125.282C211.097 117.387 211.347 109.457 211.122 101.532C210.983 98.2586 209.533 95.2446 206.29 94.8883C205.42 94.8037 204.478 94.7312 203.553 94.6829C200.256 94.4501 196.946 94.4501 193.648 94.6829C192.573 94.7856 191.467 94.9185 190.416 95.0695C188.574 95.3275 186.894 96.2623 185.704 97.6916C184.514 99.1209 183.898 100.942 183.978 102.801C184.074 104.945 180.686 109.91 184.866 112.785C185.222 115.883 184.751 121.174 184.902 126.562C182.075 131.424 172.617 135.169 171.795 139.886C170.635 146.579 177.865 149.097 184.739 149.55C205.794 151.036 216.328 148.137 210.373 125.282Z" fill="#B3E0F6"/>
<path opacity="0.4" d="M210.373 125.282C211.097 117.387 211.347 109.457 211.122 101.532C210.983 98.2586 209.533 95.2446 206.29 94.8883C205.42 94.8037 204.478 94.7312 203.553 94.6829C200.256 94.4501 196.946 94.4501 193.648 94.6829C192.573 94.7856 191.467 94.9185 190.416 95.0695C188.574 95.3275 186.894 96.2623 185.704 97.6916C184.514 99.1209 183.898 100.942 183.978 102.801C184.074 104.945 180.686 109.91 184.866 112.785C185.222 115.883 184.751 121.174 184.902 126.562C182.075 131.424 172.617 135.169 171.795 139.886C170.635 146.579 177.865 149.097 184.739 149.55C205.794 151.036 216.328 148.137 210.373 125.282Z" fill="white"/>
<path opacity="0.6" d="M188.514 136.637C185.983 137.187 179.545 135.206 175.782 135.991C174.874 136.16 174.029 136.575 173.34 137.191C172.651 137.806 172.144 138.599 171.874 139.482C171.832 139.623 171.8 139.766 171.777 139.911C170.611 146.603 177.817 149.122 184.715 149.575C190.755 149.986 195.69 150.179 199.634 149.69C200.612 149.58 201.527 149.155 202.241 148.478C202.955 147.801 203.429 146.909 203.59 145.939C204.369 140.732 195.732 135.073 188.514 136.637Z" fill="#B3E0F6"/>
<path opacity="0.3" d="M193.188 114.621C196.208 117.496 202.116 122.642 204.139 123.464C199.633 122.83 194.632 116.989 193.188 114.621Z" fill="#B3E0F6"/>
<path opacity="0.3" d="M188.157 109.221C191.292 114.627 196.444 122.648 198.534 124.75C193.062 120.933 188.725 112.036 188.157 109.221Z" fill="#B3E0F6"/>
<path d="M187.065 140.442C183.815 135.701 176.446 135.508 174.066 137.748C170.098 141.469 162.482 148.125 157.964 153.307C152.304 159.8 144.772 179.956 142.151 186.793C141.022 189.898 135.833 193.026 131.001 192.459C128.851 192.205 130.319 194.875 131.853 195.255C135.694 196.27 135.477 194.911 137.7 195.364C139.572 195.75 139.439 196.228 141.662 196.765C142.912 197.067 143.613 195.835 143.854 194.349C144.096 192.863 144.646 191.77 147.805 186.98C154.12 179.063 159.677 170.57 164.402 161.612C177.461 155.089 180.106 153.03 184.866 148.802C187.33 146.591 189.13 143.45 187.065 140.442Z" fill="#7F3E3B"/>
<path opacity="0.2" d="M187.064 140.443C186.717 139.937 186.325 139.464 185.893 139.029C184.525 139.626 183.264 140.442 182.16 141.445C178.155 145.13 170.642 152.015 168.159 154.534C166.304 156.337 165.157 158.746 164.928 161.323C177.533 155.005 180.197 152.945 184.86 148.766C187.33 146.597 189.13 143.451 187.064 140.443Z" fill="#202020"/>
<path d="M202.557 83.5518C201.953 86.7409 201.306 92.5816 203.535 94.7076C199.414 95.7046 195.636 97.7907 192.597 100.748C190.356 96.5861 193.63 94.7076 193.63 94.7076C197.181 93.862 197.09 91.2226 196.468 88.7462L202.557 83.5518Z" fill="#7F3E3B"/>
<path opacity="0.2" d="M200.074 85.6719L196.45 88.7462C196.605 89.3218 196.708 89.91 196.758 90.5039C198.111 90.3046 199.978 88.8127 200.123 87.3933C200.211 86.8213 200.194 86.238 200.074 85.6719Z" fill="#202020"/>
<path d="M205.916 77.7056C204.672 82.8879 204.255 85.1107 201.186 87.3394C196.56 90.6977 190.592 88.0461 190.314 82.598C190.049 77.6935 192.126 70.0408 197.526 68.8449C202.926 67.649 207.172 72.5172 205.916 77.7056Z" fill="#7F3E3B"/>
<path d="M195.653 68.6693C198.275 73.5013 202.787 74.5161 202.871 77.8683C202.956 81.2205 208.561 82.5553 207.945 78.0797C207.329 73.604 203.705 65.0212 195.653 68.6693Z" fill="#263238"/>
<path d="M196.3 68.4702C195.931 72.4627 198.806 72.4868 199.555 72.215C196.33 73.4653 194.306 71.5627 194.723 69.3883C194.907 69.1335 195.142 68.9202 195.414 68.7621C195.686 68.6039 195.987 68.5045 196.3 68.4702Z" fill="#263238"/>
<path d="M197.822 77.7591C197.743 78.1879 197.454 78.4959 197.176 78.4416C196.898 78.3872 196.735 78.0067 196.807 77.5839C196.88 77.1611 197.17 76.847 197.454 76.9014C197.737 76.9557 197.894 77.3121 197.822 77.7591Z" fill="#263238"/>
<path d="M192.555 76.9079C192.483 77.3307 192.193 77.6387 191.915 77.5904C191.637 77.5421 191.474 77.1555 191.546 76.7267C191.619 76.2978 191.909 75.9958 192.193 76.0441C192.477 76.0925 192.634 76.479 192.555 76.9079Z" fill="#263238"/>
<path d="M192.307 76.1044L191.335 75.6272C191.335 75.6272 191.722 76.509 192.307 76.1044Z" fill="#263238"/>
<path d="M193.884 77.8682C193.336 78.7773 192.665 79.6066 191.891 80.3325C192.082 80.5259 192.312 80.6758 192.567 80.7717C192.821 80.8676 193.093 80.9073 193.364 80.8882L193.884 77.8682Z" fill="#630F0F"/>
<path d="M195.538 82.8876C195.295 82.8883 195.052 82.8661 194.813 82.8211C194.797 82.819 194.781 82.8134 194.767 82.8048C194.752 82.7962 194.74 82.7848 194.73 82.7712C194.721 82.7575 194.714 82.7421 194.71 82.7257C194.707 82.7094 194.707 82.6925 194.711 82.6762C194.713 82.6596 194.718 82.6437 194.727 82.6294C194.736 82.6151 194.747 82.6027 194.761 82.5931C194.774 82.5834 194.79 82.5767 194.806 82.5733C194.822 82.57 194.839 82.57 194.856 82.5735C195.384 82.6798 195.931 82.6597 196.45 82.5149C196.97 82.37 197.448 82.1045 197.845 81.74C197.857 81.7279 197.871 81.7183 197.887 81.7118C197.902 81.7053 197.919 81.7019 197.936 81.7019C197.953 81.7019 197.97 81.7053 197.985 81.7118C198.001 81.7183 198.015 81.7279 198.027 81.74C198.049 81.7636 198.062 81.7949 198.062 81.8276C198.062 81.8602 198.049 81.8915 198.027 81.9151C197.356 82.5519 196.463 82.901 195.538 82.8876Z" fill="#263238"/>
<path d="M206.568 81.794C206.278 82.1834 205.909 82.5069 205.486 82.7433C205.062 82.9796 204.593 83.1234 204.109 83.1651C202.901 83.2315 202.593 81.8363 203.209 80.6223C203.759 79.5351 205.064 78.2063 206.163 78.6955C207.262 79.1847 207.329 80.7793 206.568 81.794Z" fill="#7F3E3B"/>
<path d="M200.249 76.1947C200.182 76.1754 200.124 76.1325 200.086 76.0739C199.933 75.7934 199.716 75.553 199.453 75.3724C199.189 75.1918 198.887 75.0762 198.57 75.035C198.537 75.0335 198.504 75.0254 198.474 75.0112C198.444 74.997 198.417 74.9769 198.394 74.9522C198.372 74.9276 198.354 74.8987 198.343 74.8673C198.332 74.8359 198.327 74.8026 198.328 74.7693C198.333 74.7014 198.364 74.6381 198.415 74.593C198.466 74.5478 198.532 74.5243 198.6 74.5277C199.002 74.5714 199.387 74.7118 199.723 74.9369C200.058 75.162 200.334 75.4651 200.527 75.8202C200.544 75.8486 200.556 75.8802 200.56 75.9131C200.565 75.946 200.563 75.9794 200.555 76.0116C200.546 76.0437 200.531 76.0738 200.511 76.1C200.491 76.1263 200.465 76.1482 200.436 76.1645C200.38 76.1978 200.313 76.2086 200.249 76.1947Z" fill="#263238"/>
<path d="M191.129 74.377C191.064 74.3717 191.003 74.3414 190.96 74.2924C190.914 74.2432 190.889 74.1785 190.889 74.1112C190.889 74.044 190.914 73.9792 190.96 73.93C191.261 73.6578 191.622 73.461 192.014 73.3559C192.405 73.2509 192.816 73.2407 193.213 73.326C193.245 73.3357 193.275 73.3517 193.301 73.3731C193.327 73.3945 193.349 73.4208 193.365 73.4506C193.38 73.4804 193.39 73.5131 193.393 73.5466C193.396 73.5802 193.392 73.614 193.382 73.6462C193.373 73.6782 193.358 73.7082 193.337 73.7342C193.316 73.7602 193.29 73.7817 193.261 73.7975C193.232 73.8133 193.199 73.823 193.166 73.8261C193.133 73.8291 193.1 73.8255 193.068 73.8153C192.755 73.7507 192.431 73.7608 192.122 73.8447C191.814 73.9287 191.529 74.0841 191.292 74.2985C191.25 74.3448 191.192 74.373 191.129 74.377Z" fill="#263238"/>
<path d="M197.568 76.9437L196.596 76.4666C196.596 76.4666 196.982 77.3605 197.568 76.9437Z" fill="#263238"/>
<path d="M201.838 128.544L197.954 128L200.02 134.04C200.02 134.04 203.402 133.08 205.009 131.02L204.64 130.416C204.343 129.915 203.936 129.486 203.451 129.162C202.966 128.838 202.415 128.627 201.838 128.544Z" fill="#7F3E3B"/>
<path d="M196.004 131.781L196.928 133.593C197.122 133.975 197.452 134.27 197.854 134.42C198.256 134.57 198.699 134.564 199.096 134.402L200.02 134.022L197.954 127.982L196.263 129.842C196.027 130.1 195.875 130.424 195.829 130.771C195.782 131.117 195.843 131.47 196.004 131.781Z" fill="#7F3E3B"/>
<path d="M210.3 98.2832C211.073 99.7268 211.683 101.098 212.311 102.511C212.94 103.925 213.477 105.38 213.991 106.86C215.079 109.894 215.801 113.047 216.141 116.252C216.141 116.681 216.201 117.104 216.213 117.545V117.877C216.226 118.078 216.226 118.28 216.213 118.481C216.186 118.828 216.125 119.172 216.032 119.508C215.748 120.511 215.304 121.462 214.715 122.322C213.784 123.701 212.709 124.976 211.508 126.128C209.286 128.296 206.858 130.244 204.26 131.944C203.923 132.169 203.515 132.264 203.113 132.211C202.711 132.157 202.341 131.96 202.074 131.655C201.807 131.35 201.659 130.958 201.659 130.552C201.659 130.147 201.806 129.755 202.074 129.45L202.11 129.407C204.012 127.227 205.939 124.98 207.612 122.763C208.412 121.716 209.125 120.605 209.744 119.441C209.958 119.044 210.109 118.616 210.191 118.173C210.191 118.125 210.191 118.088 210.191 118.106C210.189 118.12 210.189 118.135 210.191 118.149V117.925C210.161 117.623 210.113 117.321 210.065 116.995C209.553 114.31 208.782 111.68 207.763 109.143C207.262 107.82 206.706 106.51 206.151 105.199C205.595 103.888 204.943 102.566 204.393 101.364L204.357 101.297C204.003 100.508 203.966 99.6135 204.255 98.7986C204.544 97.9837 205.137 97.3118 205.909 96.9226C206.681 96.5335 207.573 96.4571 208.4 96.7094C209.227 96.9617 209.925 97.5233 210.348 98.2772L210.3 98.2832Z" fill="#7F3E3B"/>
<path d="M200.702 140.455C198.072 138.183 194.663 137.02 191.193 137.212C187.723 137.403 184.463 138.934 182.099 141.482C178.396 145.468 173.909 150.391 169.415 155.573C162.699 163.28 153.33 190.255 152.696 191.318L155.716 193.456C163.519 184.382 170.268 174.453 175.836 163.86C188.894 157.337 196.045 152.903 200.775 148.675C201.356 148.157 201.82 147.521 202.135 146.809C202.451 146.097 202.611 145.326 202.605 144.547C202.598 143.768 202.426 143 202.099 142.293C201.772 141.586 201.298 140.958 200.708 140.449L200.702 140.455Z" fill="#7F3E3B"/>
<path d="M156.774 197.218C156.714 195.721 156.073 194.029 159.232 189.24C159.232 189.24 154.207 187.343 153.579 189.052C152.443 192.157 148.016 197.907 143.154 197.98C140.991 198.01 143.613 200.396 145.201 200.51C149.17 200.734 148.825 199.804 151.072 199.81C152.423 199.732 153.778 199.805 155.113 200.027C156.381 200.263 156.84 198.716 156.774 197.218Z" fill="#7F3E3B"/>
<path d="M206.676 94.9729C210.536 95.4803 213.127 99.8049 215.477 106.576C213.492 110.195 210.411 113.092 206.676 114.851C204.677 110.925 202.69 105.658 202.321 102.771C201.953 99.8835 202.479 94.4173 206.676 94.9729Z" fill="#B3E0F6"/>
<path opacity="0.4" d="M206.676 94.9729C210.536 95.4803 213.127 99.8049 215.477 106.576C213.492 110.195 210.411 113.092 206.676 114.851C204.677 110.925 202.69 105.658 202.321 102.771C201.953 99.8835 202.479 94.4173 206.676 94.9729Z" fill="white"/>
<path d="M209.781 202.479C209.713 202.468 209.648 202.444 209.59 202.407C209.532 202.371 209.482 202.323 209.443 202.266C209.404 202.21 209.377 202.146 209.364 202.079C209.35 202.012 209.35 201.942 209.364 201.875L218.793 147.624C218.803 147.556 218.828 147.491 218.864 147.433C218.901 147.375 218.949 147.325 219.005 147.286C219.062 147.247 219.126 147.22 219.193 147.207C219.26 147.193 219.329 147.193 219.397 147.207C219.464 147.219 219.528 147.244 219.586 147.28C219.643 147.317 219.693 147.365 219.732 147.421C219.771 147.478 219.798 147.541 219.812 147.608C219.826 147.675 219.826 147.744 219.813 147.811L210.385 202.056C210.375 202.125 210.351 202.19 210.315 202.249C210.278 202.308 210.23 202.358 210.174 202.398C210.117 202.437 210.053 202.465 209.986 202.479C209.918 202.493 209.848 202.493 209.781 202.479Z" fill="#E0E0E0"/>
<path d="M212.215 147.69C212.216 147.556 212.27 147.428 212.365 147.333C212.46 147.238 212.588 147.184 212.722 147.183H219.318C219.452 147.183 219.581 147.236 219.677 147.331C219.772 147.427 219.825 147.556 219.825 147.69C219.826 147.757 219.813 147.823 219.788 147.885C219.763 147.947 219.726 148.004 219.678 148.051C219.631 148.098 219.575 148.135 219.513 148.161C219.451 148.186 219.385 148.198 219.318 148.198H212.722C212.588 148.198 212.459 148.144 212.363 148.049C212.268 147.954 212.215 147.825 212.215 147.69Z" fill="#E0E0E0"/>
<path d="M212.39 151.538H212.451C212.714 151.538 212.928 151.324 212.928 151.061V145.353C212.928 145.089 212.714 144.876 212.451 144.876H212.39C212.127 144.876 211.913 145.089 211.913 145.353V151.061C211.913 151.324 212.127 151.538 212.39 151.538Z" fill="#E0E0E0"/>
<path d="M215.476 184.582C215.477 185.095 215.326 185.597 215.042 186.024C214.758 186.451 214.353 186.784 213.879 186.981C213.406 187.178 212.884 187.23 212.381 187.13C211.878 187.03 211.416 186.783 211.053 186.421C210.69 186.058 210.443 185.596 210.343 185.093C210.244 184.589 210.295 184.068 210.492 183.594C210.689 183.12 211.022 182.716 211.449 182.431C211.876 182.147 212.378 181.996 212.891 181.997C213.577 181.997 214.234 182.27 214.719 182.754C215.204 183.239 215.476 183.897 215.476 184.582Z" fill="white"/>
<path d="M213.676 147.691C213.676 147.938 213.603 148.18 213.466 148.385C213.328 148.591 213.133 148.751 212.905 148.846C212.676 148.94 212.425 148.965 212.182 148.917C211.94 148.869 211.717 148.75 211.542 148.575C211.367 148.4 211.248 148.177 211.2 147.935C211.152 147.692 211.176 147.441 211.271 147.212C211.366 146.984 211.526 146.789 211.731 146.651C211.937 146.514 212.179 146.44 212.426 146.44C212.758 146.44 213.076 146.572 213.31 146.807C213.545 147.041 213.676 147.359 213.676 147.691Z" fill="white"/>
<path d="M201.766 147.329C201.459 147.212 201.162 147.071 200.878 146.906C200.624 146.758 200.42 146.537 200.295 146.271C200.169 146.006 200.126 145.708 200.173 145.418C200.219 145.128 200.352 144.858 200.555 144.645C200.757 144.432 201.019 144.285 201.307 144.224C205.094 143.397 212.221 141.742 215.295 140.6C214.25 143.457 207.534 147.051 205.341 147.48C204.157 147.747 202.923 147.694 201.766 147.329Z" fill="#202020"/>
<path d="M201.766 147.328C204.345 148.059 206.882 145.927 206.924 142.991C206.929 142.663 207.03 142.343 207.216 142.072C207.402 141.802 207.664 141.592 207.969 141.469C210.602 140.418 216.213 138.806 218.937 138.045C219.14 137.986 219.354 137.975 219.562 138.013C219.77 138.05 219.967 138.135 220.136 138.26C220.306 138.386 220.445 138.549 220.542 138.737C220.639 138.924 220.691 139.132 220.695 139.343C220.731 141.155 220.212 143.789 217.071 144.664C206.779 147.54 204.079 148.21 201.766 147.328Z" fill="#263238"/>
<path d="M163.94 156.919L133.948 136.886C131.101 134.984 132.9 130.761 136.196 131.61L150.264 135.236C157.232 137.033 164.41 137.624 171.465 136.982L191.556 135.161C193.755 134.962 195.992 135.54 197.868 136.793L225.317 155.127C225.812 155.457 226.207 155.915 226.454 156.447C226.702 156.979 226.791 157.562 226.713 158.126C226.634 158.691 226.39 159.213 226.009 159.631C225.629 160.049 225.129 160.345 224.568 160.484L206.97 162.963C201.869 163.427 196.701 163.306 191.57 162.602L173.299 160.099C168.786 159.483 167.773 159.479 163.94 156.919Z" fill="#B3E0F6"/>
</g>
</svg>
