<svg width="216" height="205" viewBox="0 0 216 205" fill="none" xmlns="http://www.w3.org/2000/svg">
<g opacity="0.9">
<path d="M213.961 108.413H211.95V108.069C211.949 107.131 211.575 106.23 210.911 105.567C210.247 104.903 209.347 104.529 208.408 104.528H207.047C206.107 104.528 205.206 104.901 204.541 105.565C203.876 106.229 203.502 107.13 203.501 108.069V108.413H201.495C201.227 108.413 200.961 108.465 200.713 108.567C200.466 108.67 200.241 108.82 200.051 109.009C199.862 109.199 199.711 109.424 199.609 109.672C199.507 109.92 199.454 110.185 199.455 110.453V119.746C199.455 120.286 199.67 120.805 200.052 121.188C200.435 121.57 200.954 121.785 201.495 121.785H213.961C214.501 121.784 215.019 121.569 215.401 121.186C215.784 120.804 215.999 120.286 216 119.746V110.453C216 109.912 215.785 109.393 215.403 109.011C215.02 108.628 214.502 108.413 213.961 108.413ZM204.469 108.069C204.471 107.387 204.743 106.732 205.226 106.25C205.709 105.768 206.364 105.497 207.047 105.497H208.408C209.091 105.497 209.745 105.768 210.227 106.25C210.71 106.733 210.981 107.387 210.981 108.069V108.413H204.469V108.069Z" fill="#202020"/>
<path d="M211.442 114.15H208.874V111.587H206.578V114.15H204.01V116.451H206.578V119.014H208.874V116.451H211.442V114.15Z" fill="white"/>
<path d="M209.988 53.037C209.589 53.037 209.193 52.9583 208.824 52.8053C208.455 52.6524 208.12 52.4282 207.838 52.1456C207.556 51.863 207.332 51.5275 207.18 51.1584C207.028 50.7893 206.95 50.3938 206.95 49.9944V41.797C206.95 41.3976 207.028 41.0021 207.18 40.633C207.332 40.2639 207.556 39.9284 207.838 39.6458C208.12 39.3632 208.455 39.1391 208.824 38.9861C209.193 38.8331 209.589 38.7544 209.988 38.7544C210.387 38.7544 210.783 38.8331 211.152 38.9861C211.52 39.1391 211.855 39.3632 212.138 39.6458C212.42 39.9284 212.643 40.2639 212.796 40.633C212.948 41.0021 213.026 41.3976 213.026 41.797V49.9799C213.028 50.3805 212.952 50.7776 212.8 51.1484C212.648 51.5191 212.425 51.8563 212.143 52.1404C211.86 52.4246 211.525 52.6501 211.155 52.8039C210.785 52.9578 210.388 53.037 209.988 53.037Z" fill="white" stroke="#202020" stroke-linecap="round" stroke-linejoin="round"/>
<path d="M209.988 53.0371C209.589 53.0371 209.193 52.9584 208.824 52.8054C208.455 52.6524 208.12 52.4283 207.838 52.1457C207.556 51.8631 207.332 51.5276 207.18 51.1585C207.028 50.7894 206.95 50.3939 206.95 49.9945V45.9006H213.026V49.9945C213.026 50.3939 212.948 50.7894 212.796 51.1585C212.643 51.5276 212.42 51.8631 212.138 52.1457C211.855 52.4283 211.52 52.6524 211.152 52.8054C210.783 52.9584 210.387 53.0371 209.988 53.0371Z" fill="#202020" stroke="#202020" stroke-linecap="round" stroke-linejoin="round"/>
<path d="M194.707 40.9635C194.458 40.6515 194.272 40.2932 194.161 39.9093C194.05 39.5253 194.016 39.1233 194.061 38.7262C194.106 38.3291 194.229 37.9448 194.423 37.5954C194.617 37.246 194.879 36.9384 195.192 36.6903L201.573 31.5645C202.204 31.0622 203.01 30.8311 203.812 30.922C204.614 31.0128 205.347 31.4181 205.851 32.0489C206.353 32.68 206.583 33.4845 206.493 34.2858C206.402 35.087 205.997 35.8194 205.366 36.3221L198.981 41.4431C198.669 41.6925 198.311 41.878 197.927 41.9889C197.543 42.0998 197.141 42.134 196.745 42.0895C196.348 42.0449 195.963 41.9225 195.614 41.7293C195.264 41.5361 194.956 41.2759 194.707 40.9635Z" fill="white" stroke="#202020" stroke-linecap="round" stroke-linejoin="round"/>
<path d="M194.707 40.9635C194.458 40.6516 194.272 40.2933 194.161 39.9094C194.05 39.5254 194.016 39.1233 194.061 38.7262C194.106 38.3291 194.229 37.9448 194.423 37.5955C194.617 37.2461 194.879 36.9385 195.192 36.6904L198.385 34.1274L202.188 38.8706L198.995 41.4286C198.684 41.6811 198.325 41.8695 197.941 41.9828C197.556 42.0962 197.153 42.1323 196.754 42.089C196.356 42.0458 195.97 41.9241 195.618 41.7309C195.267 41.5377 194.957 41.2769 194.707 40.9635Z" fill="#202020" stroke="#202020" stroke-linecap="round" stroke-linejoin="round"/>
<path d="M164.326 18.658C163.947 18.6581 163.577 18.7767 163.269 18.9971L156.21 13.5176C156.556 12.8773 156.719 12.1538 156.679 11.4271C156.64 10.7004 156.401 9.99867 155.988 9.39945L160.299 3.88602C160.664 4.02673 161.065 4.04692 161.442 3.94365C161.819 3.84037 162.153 3.61904 162.396 3.31207C162.638 3.00509 162.776 2.6286 162.789 2.23771C162.802 1.84682 162.689 1.46207 162.468 1.13979C162.246 0.817502 161.927 0.574615 161.557 0.446688C161.188 0.31876 160.787 0.312511 160.414 0.428856C160.04 0.545202 159.714 0.77803 159.482 1.09325C159.251 1.40847 159.126 1.78953 159.127 2.18063C159.125 2.55755 159.242 2.92552 159.461 3.23196L155.266 8.6049C154.703 8.13113 154.02 7.82351 153.292 7.71653C152.564 7.60956 151.821 7.70747 151.146 7.99927C150.471 8.29107 149.89 8.76524 149.469 9.36856C149.049 9.97188 148.804 10.6805 148.764 11.4149H143.861C143.807 10.9797 143.599 10.5781 143.275 10.2832C142.95 9.98834 142.531 9.81966 142.093 9.80787C141.654 9.79607 141.226 9.94194 140.886 10.219C140.546 10.496 140.317 10.8858 140.24 11.3175C140.163 11.7492 140.244 12.1941 140.467 12.5715C140.691 12.9488 141.042 13.2335 141.458 13.3737C141.873 13.514 142.325 13.5005 142.731 13.3357C143.138 13.171 143.471 12.8659 143.672 12.4759H148.856C149.008 13.1804 149.348 13.8301 149.842 14.3553C150.335 14.8805 150.962 15.2612 151.656 15.4566C152.35 15.6519 153.083 15.6544 153.778 15.4638C154.473 15.2733 155.103 14.8969 155.6 14.3751L162.62 19.8353C162.482 20.1995 162.463 20.5984 162.568 20.9738C162.672 21.3492 162.894 21.6814 163.2 21.9218C163.507 22.1622 163.882 22.2983 164.272 22.3101C164.661 22.322 165.044 22.209 165.365 21.9876C165.686 21.7662 165.927 21.4481 166.054 21.0798C166.181 20.7114 166.187 20.3121 166.071 19.9401C165.955 19.5682 165.723 19.2432 165.409 19.0125C165.095 18.7818 164.715 18.6576 164.326 18.658Z" fill="#202020"/>
<path d="M20.9319 53.095C20.345 53.0937 19.7826 52.86 19.3677 52.4451C18.9527 52.0301 18.7191 51.4677 18.7178 50.8809V32.4705H23.146V50.8809C23.146 51.4681 22.9127 52.0313 22.4975 52.4465C22.0822 52.8617 21.5191 53.095 20.9319 53.095Z" fill="white" stroke="#202020" stroke-linecap="round" stroke-linejoin="round"/>
<path d="M20.9319 53.0949C20.345 53.0936 19.7826 52.8599 19.3677 52.445C18.9527 52.03 18.7191 51.4676 18.7178 50.8808V39.5583H23.146V50.8808C23.146 51.468 22.9127 52.0311 22.4975 52.4464C22.0822 52.8616 21.5191 53.0949 20.9319 53.0949Z" fill="#202020" stroke="#202020" stroke-linecap="round" stroke-linejoin="round"/>
<path d="M23.7806 31.3948H18.0879V33.0081H23.7806V31.3948Z" fill="white" stroke="#202020" stroke-linecap="round" stroke-linejoin="round"/>
<path d="M14.2219 53.095C13.6351 53.0937 13.0727 52.86 12.6577 52.4451C12.2428 52.0301 12.0091 51.4677 12.0078 50.8809V32.4705H16.436V50.8809C16.436 51.4681 16.2027 52.0313 15.7875 52.4465C15.3723 52.8617 14.8091 53.095 14.2219 53.095Z" fill="white" stroke="#202020" stroke-linecap="round" stroke-linejoin="round"/>
<path d="M14.2219 53.0949C13.6351 53.0936 13.0727 52.8599 12.6577 52.445C12.2428 52.03 12.0091 51.4676 12.0078 50.8808V39.5583H16.436V50.8808C16.436 51.468 16.2027 52.0311 15.7875 52.4464C15.3723 52.8616 14.8091 53.0949 14.2219 53.0949Z" fill="#202020" stroke="#202020" stroke-linecap="round" stroke-linejoin="round"/>
<path d="M17.0706 31.3948H11.3779V33.0081H17.0706V31.3948Z" fill="white" stroke="#202020" stroke-linecap="round" stroke-linejoin="round"/>
<path d="M78.1017 13.2461L79.8652 9.0117C79.8952 8.94348 79.9449 8.8858 80.0079 8.84607C80.0709 8.80635 80.1444 8.78642 80.2189 8.78884C80.2936 8.79255 80.3653 8.8192 80.4242 8.86515C80.4832 8.91111 80.5265 8.97412 80.5484 9.04561L82.6849 16.09L84.3128 10.9012C84.3352 10.8282 84.38 10.7641 84.4409 10.718C84.5017 10.6719 84.5756 10.6461 84.6519 10.6444C84.7274 10.6465 84.8005 10.6705 84.8625 10.7135C84.9244 10.7565 84.9725 10.8167 85.0008 10.8867L85.9068 13.4932H90.8049C91.8073 12.4456 92.3901 11.0663 92.4425 9.61731C92.4518 8.26386 91.9607 6.95469 91.0636 5.94122C90.1665 4.92776 88.9266 4.28147 87.582 4.12646C86.2374 3.97146 84.883 4.31867 83.7788 5.10142C82.6746 5.88417 81.8986 7.04727 81.5997 8.36733C81.2919 7.05652 80.5131 5.90456 79.4113 5.13055C78.3095 4.35653 76.9617 4.01446 75.6242 4.16938C74.2867 4.32431 73.0528 4.96543 72.1571 5.97081C71.2615 6.97619 70.7666 8.27569 70.7666 9.62215C70.8204 10.9641 71.3238 12.2489 72.1958 13.2703L78.1017 13.2461Z" fill="#202020"/>
<path d="M85.6492 14.2199C85.5738 14.2202 85.5002 14.197 85.4386 14.1536C85.3769 14.1102 85.3303 14.0487 85.3052 13.9777L84.6754 12.1657L83.0233 17.432C82.9997 17.5062 82.9533 17.571 82.8906 17.6171C82.8279 17.6633 82.7523 17.6884 82.6744 17.6888C82.5964 17.6886 82.5207 17.6629 82.4586 17.6157C82.3965 17.5684 82.3515 17.5023 82.3304 17.4272L80.1454 10.2229L78.692 13.75C78.6643 13.8159 78.6179 13.8721 78.5584 13.9118C78.499 13.9514 78.4291 13.9727 78.3577 13.9728H72.7812C73.9779 15.31 75.4701 16.4921 76.5845 17.5919C78.2705 19.2585 79.9226 20.9833 81.6425 22.5918C83.8469 20.4165 86.0658 18.2314 88.2509 16.0561C88.8565 15.4505 89.5154 14.8497 90.1258 14.2199H85.6492Z" fill="#202020"/>
<path d="M3.92125 122.509L6.29688 123.333L8.86739 115.922L6.49177 115.098L3.92125 122.509Z" fill="white" stroke="#202020" stroke-miterlimit="10"/>
<path d="M2.79452 123.686L6.46094 124.957L6.94519 123.561L3.27877 122.289L2.79452 123.686Z" fill="white" stroke="#202020" stroke-miterlimit="10"/>
<path d="M3.87244 117.006L9.74512 119.043L14.4019 105.617L8.52922 103.58L3.87244 117.006Z" fill="white" stroke="#202020" stroke-miterlimit="10"/>
<path d="M6.72779 111.262L11.0625 112.766L13.633 105.355L9.29831 103.852L6.72779 111.262Z" fill="#202020" stroke="#202020" stroke-miterlimit="10"/>
<path d="M5.96129 116.634L8.33691 117.458L10.9074 110.048L8.53181 109.224L5.96129 116.634Z" fill="#202020" stroke="#202020" stroke-miterlimit="10"/>
<path d="M3.45764 116.864L10.168 119.192L10.7507 117.512L4.04034 115.184L3.45764 116.864Z" fill="white" stroke="#202020" stroke-miterlimit="10"/>
<path d="M9.96095 103.3L13.458 104.513L14.2344 102.275L10.7373 101.062L9.96095 103.3Z" fill="white" stroke="#202020" stroke-miterlimit="10"/>
<path d="M7.96741 103.858L14.6777 106.185L15.2604 104.505L8.5501 102.178L7.96741 103.858Z" fill="white" stroke="#202020" stroke-miterlimit="10"/>
<path d="M12.5215 101.364L15.3315 93.2542" stroke="#202020" stroke-miterlimit="10"/>
<path d="M168.758 202.161C182.76 202.161 194.111 199.601 194.111 196.444C194.111 193.287 182.76 190.727 168.758 190.727C154.756 190.727 143.405 193.287 143.405 196.444C143.405 199.601 154.756 202.161 168.758 202.161Z" fill="#202020" stroke="#202020" stroke-linecap="round" stroke-linejoin="round"/>
<path d="M149.209 67.2222C149.209 67.2222 145.779 69.32 145.818 70.2405C145.857 71.161 144.539 87.9484 144.389 90.0463C144.239 92.1441 142.242 96.4754 142.087 98.4424C141.932 100.409 142.427 102.381 143.003 103.287C143.58 104.193 145.697 107.09 145.697 107.09L151.39 98.297C151.529 96.3769 151.558 94.4503 151.477 92.5268C151.39 88.336 149.209 67.2222 149.209 67.2222Z" fill="white" stroke="#202020" stroke-linecap="round" stroke-linejoin="round"/>
<path d="M171.113 25.6243C171.113 25.6243 165.057 25.2367 161.607 29.4372C158.157 33.6377 158.899 40.062 158.874 42.0338C158.85 44.0057 152.993 49.7856 153.642 52.1402C154.291 54.4948 156.016 54.7612 155.464 56.7282C154.911 58.6953 151.307 59.8774 151.83 62.3725C152.353 64.8676 154.252 68.4043 154.252 68.4043L189.135 68.6417C189.135 68.6417 190.381 64.9693 189.053 62.2126C187.726 59.4559 185.841 58.5451 186.146 57.2321C186.451 55.9192 188.137 52.77 187.488 50.4106C186.839 48.0511 184.581 47.3971 184.344 43.1966C184.106 38.9961 183.486 32.0534 180.153 28.662C176.82 25.2706 171.113 25.6243 171.113 25.6243Z" fill="#202020" stroke="#202020" stroke-linecap="round" stroke-linejoin="round"/>
<path d="M160.387 187.495C159.316 189.56 158.015 191.497 156.511 193.27C154.282 195.765 152.121 197.078 152.194 198.391C152.267 199.704 157.131 199.961 159.704 199.041C162.276 198.12 164.146 196.284 164.665 196.134C165.183 195.983 166.632 196.134 166.666 194.293C166.7 192.452 166.419 187.209 166.419 187.209L160.387 187.495Z" fill="white" stroke="#202020" stroke-linecap="round" stroke-linejoin="round"/>
<path d="M159.694 199.041C162.271 198.12 164.137 196.284 164.655 196.134C165.173 195.984 166.622 196.134 166.656 194.293C166.656 193.324 166.603 191.386 166.535 189.802C166.154 190.517 165.589 191.117 164.9 191.543C164.211 191.969 163.421 192.204 162.611 192.224C162.611 192.224 162.562 191.304 161.157 189.734C160.251 188.707 159.335 189.516 158.802 190.218L158.371 190.867L158.337 190.93C157.778 191.755 157.166 192.543 156.506 193.29C154.277 195.785 152.117 197.098 152.189 198.411C152.262 199.724 157.121 199.961 159.694 199.041Z" fill="white" stroke="#202020" stroke-linecap="round" stroke-linejoin="round"/>
<path d="M178.336 187.486C179.638 189.558 181.148 191.491 182.842 193.256C185.337 195.747 187.638 197.055 187.687 198.368C187.735 199.681 182.919 199.942 180.245 199.027C177.571 198.111 175.507 196.275 174.979 196.144C174.451 196.013 173.007 196.144 172.779 194.313C172.551 192.481 172.266 187.229 172.266 187.229L178.336 187.486Z" fill="white" stroke="#202020" stroke-linecap="round" stroke-linejoin="round"/>
<path d="M180.265 199.027C177.595 198.111 175.527 196.275 174.999 196.144C174.47 196.013 173.027 196.144 172.799 194.313C172.678 193.344 172.542 191.406 172.44 189.817C172.888 190.527 173.504 191.117 174.233 191.534C174.962 191.951 175.782 192.183 176.622 192.21C176.622 192.21 176.573 191.289 177.799 189.715C178.598 188.693 179.601 189.497 180.221 190.199C180.381 190.412 180.546 190.626 180.706 190.848L180.749 190.911C181.4 191.735 182.096 192.523 182.833 193.271C185.328 195.761 187.629 197.069 187.677 198.382C187.726 199.695 182.939 199.942 180.265 199.027Z" fill="white" stroke="#202020" stroke-linecap="round" stroke-linejoin="round"/>
<path d="M149.849 118.248C149.849 118.248 150.658 145.529 151.733 150.907C152.809 156.285 157.61 187.108 157.61 187.108C159.078 187.729 160.658 188.039 162.251 188.019H167.498L167.983 165.064L168.162 131.746L170.793 188.145C170.793 188.145 178.021 188.402 178.801 188.271C179.581 188.14 180.231 188.009 180.231 188.009L184.877 152.327L187.537 128.587L187.682 119.144C187.682 119.144 165.473 118.374 159.02 117.851C152.567 117.328 149.912 117.197 149.912 117.197L149.849 118.248Z" fill="#92E3A9" stroke="#202020" stroke-linecap="round" stroke-linejoin="round"/>
<path d="M179.838 166.416C179.78 166.871 179.722 167.292 179.654 167.68" stroke="#202020" stroke-linecap="round" stroke-linejoin="round"/>
<path d="M180.435 133.572C180.435 133.572 180.885 153.01 180.096 163.562" stroke="#202020" stroke-linecap="round" stroke-linejoin="round"/>
<path d="M156.622 132.013C156.622 132.013 157.179 144.871 157.732 147.754" stroke="#202020" stroke-linecap="round" stroke-linejoin="round"/>
<path d="M177.324 123.82V133.635C178.582 133.974 179.868 134.196 181.166 134.299C183.157 134.43 186.873 134.299 186.873 134.299L187.14 130.583L177.324 123.82Z" fill="#202020" stroke="#202020" stroke-linecap="round" stroke-linejoin="round"/>
<path d="M150.261 131.378C150.261 131.378 155.304 132.972 157.426 133.102C159.548 133.233 161.535 133.5 161.535 133.5L161.273 130.85L149.994 129.789L150.261 131.378Z" fill="#202020" stroke="#202020" stroke-linecap="round" stroke-linejoin="round"/>
<path d="M165.57 56.8491L161.612 61.3112L150.634 69.3198L152.974 117.86C152.974 117.86 161.724 120.215 169.233 120.869C176.743 121.523 186.398 119.803 186.398 119.803L184.979 68.9322C184.979 68.9322 180.706 62.6339 178.516 60.9333C176.326 59.2328 175.323 57.6582 172.421 57.3966C169.519 57.135 165.57 56.8491 165.57 56.8491Z" fill="#92E3A9" stroke="#202020" stroke-linecap="round" stroke-linejoin="round"/>
<path d="M160.977 59.2378L149.209 67.2464L151.055 96.7564L150.43 99.7214L145.483 105.419L147.591 115.428L146.651 129.551C146.651 129.551 151.326 131.126 154.495 131.513C156.854 131.766 159.225 131.897 161.597 131.906L162.004 112.623C162.004 112.623 163.569 80.6133 163.753 79.1938C163.937 77.7742 165.57 56.9075 165.57 56.9075L160.977 59.2378Z" fill="white" stroke="#202020" stroke-linecap="round" stroke-linejoin="round"/>
<path d="M161.166 60.4446L155.469 74.732L161.617 77.2853L155.813 78.3414L160.953 98.4815" stroke="#202020" stroke-linecap="round" stroke-linejoin="round"/>
<path d="M164.582 53.0464C164.582 53.0464 166.627 66.6846 168.235 69.8338C169.844 72.9829 170.299 74.0294 170.299 74.0294C170.299 74.0294 173.797 63.3998 174.499 61.8253C175.202 60.2507 175.953 54.6113 175.953 54.6113C175.953 54.6113 168.981 56.8447 164.582 53.0464Z" fill="white" stroke="#202020" stroke-linecap="round" stroke-linejoin="round"/>
<path d="M164.582 53.0464C164.582 53.0464 164.766 54.2867 165.067 56.1035C166.089 56.8835 168.797 58.8118 170.798 58.9135C172.324 58.991 174.262 58.0027 175.551 57.213C175.783 55.7837 175.943 54.6113 175.943 54.6113C175.943 54.6113 168.981 56.8447 164.582 53.0464Z" fill="#202020" stroke="#202020" stroke-linecap="round" stroke-linejoin="round"/>
<path d="M161.806 43.6184C161.806 43.6184 160.411 41.632 159.471 43.6184C158.531 45.6048 160.924 48.5456 161.593 48.9478C163.492 50.0766 162.988 47.9788 162.988 47.9788L161.806 43.6184Z" fill="white" stroke="#202020" stroke-linecap="round" stroke-linejoin="round"/>
<path d="M179.136 44.4758C179.136 44.4758 180.313 42.4216 181.466 44.3595C182.619 46.2974 180.541 49.3449 179.921 49.7761C178.147 51.0018 178.428 48.8991 178.428 48.8991L179.136 44.4758Z" fill="white" stroke="#202020" stroke-linecap="round" stroke-linejoin="round"/>
<path d="M161.477 41.8639C161.477 41.8639 166.535 40.6818 169.083 39.175C170.644 38.2323 172.005 36.9929 173.09 35.5269C173.09 35.5269 175.28 39.6644 177.208 41.3407C179.136 43.017 179.538 43.1139 179.538 43.1139C179.538 43.1139 178.613 50.3569 177.566 52.8763C176.52 55.3956 173.104 57.8471 169.916 57.1397C168.104 56.7425 164.965 55.4343 164.054 53.2299C163.143 51.0255 161.477 41.8639 161.477 41.8639Z" fill="#BE8C78" stroke="#202020" stroke-linecap="round" stroke-linejoin="round"/>
<path d="M168.613 45.0909C168.613 45.0909 166.922 43.0367 164.703 43.2257" stroke="#202020" stroke-linecap="round" stroke-linejoin="round"/>
<path d="M172.969 45.4977C173.508 44.9305 174.178 44.504 174.921 44.2557C175.663 44.0074 176.455 43.9448 177.227 44.0733" stroke="#202020" stroke-linecap="round" stroke-linejoin="round"/>
<path d="M163.729 42.1988C163.729 42.1988 166.152 41.2298 168.298 41.6852" stroke="#202020" stroke-linecap="round" stroke-linejoin="round"/>
<path d="M173.167 42.2131C173.805 41.887 174.528 41.7651 175.238 41.8639C175.948 41.9627 176.61 42.2775 177.135 42.7654" stroke="#202020" stroke-linecap="round" stroke-linejoin="round"/>
<path d="M166.985 44.4175C166.996 44.4919 166.992 44.5678 166.974 44.6408C166.955 44.7138 166.923 44.7824 166.878 44.8427C166.833 44.903 166.776 44.9538 166.712 44.9923C166.647 45.0307 166.575 45.056 166.501 45.0667C166.349 45.0496 166.21 44.9755 166.111 44.8595C166.012 44.7434 165.961 44.5941 165.968 44.4417C165.956 44.3672 165.959 44.291 165.978 44.2178C165.996 44.1446 166.028 44.0757 166.073 44.0152C166.119 43.9548 166.175 43.9039 166.24 43.8657C166.305 43.8274 166.377 43.8025 166.452 43.7925C166.603 43.8106 166.742 43.885 166.841 44.0008C166.94 44.1166 166.991 44.2654 166.985 44.4175Z" fill="#202020"/>
<path d="M175.759 45.0471C175.772 45.1219 175.77 45.1984 175.752 45.2722C175.735 45.346 175.702 45.4154 175.657 45.4762C175.611 45.5369 175.554 45.5878 175.488 45.6257C175.423 45.6635 175.35 45.6876 175.275 45.6964C175.123 45.6805 174.984 45.6074 174.885 45.4921C174.786 45.3768 174.735 45.2281 174.742 45.0762C174.729 45.0015 174.731 44.9249 174.749 44.8512C174.766 44.7774 174.799 44.708 174.844 44.6472C174.889 44.5864 174.947 44.5355 175.012 44.4977C175.078 44.4598 175.151 44.4358 175.226 44.427C175.377 44.4429 175.517 44.516 175.616 44.6313C175.715 44.7465 175.766 44.8953 175.759 45.0471Z" fill="#202020"/>
<path d="M188.807 64.4414C188.807 64.4414 191.631 65.7495 192.683 67.8328C193.734 69.9161 202.14 92.4882 202.101 94.1936C202.062 95.899 199.281 97.866 196.675 98.1325C194.068 98.399 190.27 93.6752 189.703 92.8904C189.136 92.1055 189.034 82.9197 189.034 82.9197L188.807 64.4414Z" fill="white" stroke="#202020" stroke-linecap="round" stroke-linejoin="round"/>
<path d="M175.492 58.4141L176.868 103.539L177.353 132.002C179.991 132.651 182.693 133.001 185.41 133.044C187.675 133.092 189.928 132.69 192.037 131.862C192.037 131.862 191.214 114.154 191.068 111.267C190.923 108.379 189.964 102.87 189.964 102.87L188.82 64.4411C188.82 64.4411 178.176 59.4606 175.492 58.4141Z" fill="white" stroke="#202020" stroke-linecap="round" stroke-linejoin="round"/>
<path d="M178.516 60.9048L183.394 76.8201L178.947 78.0265L183.273 80.1243L177.876 97.2702" fill="white"/>
<path d="M178.516 60.9048L183.394 76.8201L178.947 78.0265L183.273 80.1243L177.876 97.2702" stroke="#202020" stroke-linecap="round" stroke-linejoin="round"/>
<path d="M181.917 75.4629L175.866 104.454C175.866 104.454 180.004 105.763 183.027 105.908C186.05 106.053 192.348 106.034 192.348 106.034L198.647 79.0093C198.647 79.0093 186.249 77.8223 181.917 75.4629Z" fill="#202020" stroke="#202020" stroke-linecap="round" stroke-linejoin="round"/>
<path d="M184.024 102.483L184.223 93.4231L189.024 94.4357C189.024 94.4357 185.851 101.427 184.024 102.483Z" fill="white" stroke="#202020" stroke-linecap="round" stroke-linejoin="round"/>
<path d="M187.702 90.1484C187.702 90.1484 186.423 88.3171 186.011 87.9198C185.599 87.5225 183.564 86.3501 183.172 86.3501C182.78 86.3501 180.672 86.2192 180.265 86.2192C179.858 86.2192 179.398 87.1398 179.814 87.5322C180.231 87.9246 181.68 88.0554 181.68 88.0554L182.673 89.5089L178.191 89.1165C178.191 89.1165 177.445 89.9062 177.615 90.5699C177.742 91.0196 177.904 91.4586 178.099 91.8829C178.082 92.8461 178.133 93.8093 178.25 94.7656C178.424 95.5553 179.219 95.8169 180.309 96.4709C181.399 97.125 185.047 96.7326 185.047 96.7326H186.733L187.702 90.1484Z" fill="white" stroke="#202020" stroke-linecap="round" stroke-linejoin="round"/>
<path d="M198.627 91.0585L186.999 89.4937C186.999 89.4937 186.093 96.9741 185.177 99.4644C184.262 101.955 184.024 102.483 184.024 102.483C184.024 102.483 196.209 102.211 199.082 101.95C201.955 101.688 203.569 99.9779 203.443 97.6185C203.317 95.259 201.878 92.8947 201.878 92.8947" fill="white"/>
<path d="M198.627 91.0585L186.999 89.4937C186.999 89.4937 186.093 96.9741 185.177 99.4644C184.262 101.955 184.024 102.483 184.024 102.483C184.024 102.483 196.209 102.211 199.082 101.95C201.955 101.688 203.569 99.9779 203.443 97.6185C203.317 95.259 201.878 92.8947 201.878 92.8947" stroke="#202020" stroke-linecap="round" stroke-linejoin="round"/>
<path d="M150.14 99.2271C150.14 99.2271 152.853 100.928 153.531 101.456C154.21 101.984 154.268 105.39 154.699 106.044C155.13 106.698 154.621 107.095 153.837 107.095C153.052 107.095 151.865 104.605 151.865 104.605L151.816 103.684L146.274 105.525L144.82 103.035C144.82 103.035 146.468 99.2271 150.14 99.2271Z" fill="white" stroke="#202020" stroke-linecap="round" stroke-linejoin="round"/>
<path d="M109.762 202.161C123.764 202.161 135.115 199.601 135.115 196.444C135.115 193.287 123.764 190.727 109.762 190.727C95.7602 190.727 84.4092 193.287 84.4092 196.444C84.4092 199.601 95.7602 202.161 109.762 202.161Z" fill="#202020" stroke="#202020" stroke-linecap="round" stroke-linejoin="round"/>
<path d="M129.563 60.5894C129.563 60.5894 132.886 77.2702 133.477 80.3563C134.068 83.4425 135.154 90.7776 136.384 93.9946C137.615 97.2116 137.213 101.33 136.598 102.488C135.98 103.494 135.272 104.441 134.48 105.317L130.353 99.9344C130.353 99.9344 127.896 73.559 127.804 69.8236C127.712 66.0883 129.563 60.5894 129.563 60.5894Z" fill="white" stroke="#202020" stroke-linecap="round" stroke-linejoin="round"/>
<path d="M131.753 99.2759C131.753 99.2759 134.369 100.909 134.829 101.601C135.29 102.294 135.619 103.176 135.261 103.927C134.902 104.678 132.95 106.945 132.455 107.386C131.961 107.827 131.545 106.068 131.486 104.557C131.428 103.045 131.753 99.2759 131.753 99.2759Z" fill="white" stroke="#202020" stroke-linecap="round" stroke-linejoin="round"/>
<path d="M117.684 190.746C117.684 190.746 125.886 194.734 126.404 195.509C126.923 196.284 125.053 197.316 120.164 197.316C115.276 197.316 115.13 196.672 113.188 196.158C111.245 195.645 107.374 196.027 106.851 194.869C106.327 193.711 107.238 189.724 107.238 189.724L117.684 190.746Z" fill="white" stroke="#202020" stroke-linecap="round" stroke-linejoin="round"/>
<path d="M106.792 192.805C106.792 192.805 113.575 196.924 112.979 198.338C112.383 199.753 107.48 199.753 104.898 199.365C102.315 198.978 96.8262 195.49 96.5355 194.22C96.2448 192.951 96.9715 191.003 100.949 190.62C104.927 190.238 106.792 192.805 106.792 192.805Z" fill="white" stroke="#202020" stroke-linecap="round" stroke-linejoin="round"/>
<path d="M127.383 125.515C127.383 125.515 123.507 155.364 122.833 159.739C122.16 164.114 120.023 171.062 118.87 176.338C118.217 179.441 117.732 182.577 117.417 185.732C117.299 186.629 117.32 187.54 117.48 188.43C117.645 189.719 117.669 190.746 117.669 190.746C115.943 191.179 114.188 191.48 112.417 191.647C110.232 191.778 107.272 191.778 107.272 191.778L106.303 183.416C106.303 183.416 107.025 171.062 107.451 167.462C107.877 163.862 108.333 135.554 108.313 134.779C108.294 134.003 108.124 127.187 108.124 127.187L121.327 125.772C121.327 125.772 123.129 120.627 125.837 120.884C128.545 121.14 127.383 125.515 127.383 125.515Z" fill="white" stroke="#202020" stroke-linecap="round" stroke-linejoin="round"/>
<path d="M125.856 120.884C123.148 120.627 121.346 125.772 121.346 125.772L108.129 127.187C108.129 127.187 108.173 128.999 108.216 130.859C109.626 130.985 110.929 131.058 112.044 131.058C116.278 131.051 120.509 130.813 124.718 130.346L125.285 124.415L126.171 130.457L126.782 130.258C127.159 127.381 127.402 125.506 127.402 125.506C127.402 125.506 128.564 121.14 125.856 120.884Z" fill="#202020" stroke="#202020" stroke-linecap="round" stroke-linejoin="round"/>
<path d="M94.3408 126.417C94.3408 126.417 94.3408 126.601 94.3699 126.935C94.5491 130.452 95.615 150.835 95.9396 154.594C96.303 158.712 94.4862 163.213 94.5782 166.944C94.6703 170.674 95.5472 190.877 95.5472 190.877L96.5162 194.22C96.5162 194.22 98.7932 192.68 100.978 192.68C103.163 192.68 106.792 192.805 106.792 192.805C106.792 192.805 106.981 190.102 106.962 189.206C106.942 188.309 106.86 185.088 106.86 185.088C106.86 185.088 110.557 168.232 110.779 166.818C111.002 165.403 113.87 140.956 113.851 140.171C113.832 139.386 114.457 128.461 114.457 128.461L94.3408 126.417Z" fill="white" stroke="#202020" stroke-linecap="round" stroke-linejoin="round"/>
<path d="M114.321 131.034C114.403 129.541 114.461 128.476 114.461 128.476L94.3408 126.417C94.3408 126.417 94.3408 126.601 94.3699 126.935C94.3699 127.361 94.4232 128.035 94.4716 128.873C99.176 129.716 107.34 131.043 112.044 131.043C112.819 131.058 113.575 131.048 114.321 131.034Z" fill="#202020" stroke="#202020" stroke-linecap="round" stroke-linejoin="round"/>
<path d="M109.166 47.4162C109.166 47.4162 107.039 47.7747 106.23 48.7243C105.419 49.6479 104.69 50.64 104.05 51.6893C103.939 52.0478 91.4291 59.6397 91.4291 59.6397L92.3303 95.8404C92.3303 95.8404 92.7033 101.417 92.0396 103.316C90.9184 107.05 90.3743 110.934 90.4262 114.832C90.5425 119.459 90.8429 126.944 90.8429 126.944C90.8429 126.944 105.159 129.793 112.044 129.793C116.279 129.783 120.51 129.542 124.718 129.071L125.285 123.136L126.147 129.192L129.088 128.223L131.511 110.297C131.511 110.297 133.197 106.499 133.177 105.666C133.158 104.832 133.604 103.767 133.114 103.054C132.625 102.342 131.753 100.918 131.753 100.918C131.753 100.918 129.563 61.66 129.563 60.5893C129.563 59.5186 123.085 53.2348 122.606 52.9974C122.126 52.76 119.171 48.3658 115.338 47.1836C111.506 46.0015 109.166 47.4162 109.166 47.4162Z" fill="white" stroke="#202020" stroke-linecap="round" stroke-linejoin="round"/>
<path d="M105.266 52.8762L103.832 65.9137L109.723 68.6511L108.251 73.0744L122.984 98.9653" stroke="#202020" stroke-linecap="round" stroke-linejoin="round"/>
<path d="M121.724 54.3394L126.142 64.654L124.248 67.1782L127.407 71.5967L126.142 100.017" stroke="#202020" stroke-linecap="round" stroke-linejoin="round"/>
<path d="M108.618 49.199C108.726 51.7425 109.187 54.2585 109.989 56.6746C111.263 60.2356 119.708 84.8038 119.708 84.8038L125.168 104.028C125.168 104.028 124.446 84.4453 124.427 83.6168C124.408 82.7883 120.289 55.6039 120.289 55.6039C120.289 55.6039 119.587 51.2144 118.477 49.5527C117.368 47.8909 109.931 44.8047 108.618 49.199Z" fill="#B3E0F6" stroke="#202020" stroke-linecap="round" stroke-linejoin="round"/>
<path d="M108.095 47.3C108.095 47.3 104.66 47.6537 105.266 52.8765C105.872 58.0992 106.671 61.6602 106.671 61.6602" stroke="#202020" stroke-width="2" stroke-linecap="round" stroke-linejoin="round"/>
<path d="M106.249 68.5444C106.249 68.5444 107.702 74.5957 108.696 76.2574C109.689 77.9192 112.693 79.581 114.829 79.581" stroke="#202020" stroke-linecap="round" stroke-linejoin="round"/>
<path d="M110.842 67.1204C110.842 67.1204 112.441 74.1212 112.707 75.4293C112.974 76.7374 112.092 79.2228 110.609 81.7276" stroke="#202020" stroke-linecap="round" stroke-linejoin="round"/>
<path d="M110.183 82.5562C110.031 82.4723 109.917 82.3314 109.868 82.1644C109.819 81.9974 109.839 81.8177 109.922 81.6647L110.091 81.3546C110.133 81.2805 110.189 81.2155 110.256 81.1633C110.323 81.1112 110.4 81.0729 110.482 81.0508C110.564 81.0287 110.65 81.0232 110.734 81.0346C110.818 81.046 110.9 81.0741 110.973 81.1172C111.125 81.2012 111.239 81.3417 111.288 81.5085C111.338 81.6752 111.321 81.8548 111.239 82.0087L111.07 82.3139C111.028 82.3886 110.972 82.4542 110.904 82.5069C110.837 82.5596 110.76 82.5983 110.677 82.6209C110.595 82.6434 110.508 82.6493 110.424 82.6382C110.339 82.6271 110.257 82.5992 110.183 82.5562Z" fill="#202020"/>
<path d="M115.625 79.712C115.625 79.7974 115.608 79.882 115.574 79.9606C115.541 80.0393 115.492 80.1103 115.43 80.1696C115.369 80.2289 115.296 80.2751 115.216 80.3055C115.136 80.3359 115.051 80.35 114.966 80.3467H114.612C114.438 80.3429 114.272 80.2706 114.15 80.1455C114.029 80.0204 113.962 79.8525 113.963 79.6781C113.962 79.5929 113.979 79.5085 114.012 79.4298C114.045 79.3512 114.093 79.2801 114.154 79.2208C114.215 79.1615 114.288 79.1152 114.367 79.0847C114.447 79.0542 114.532 79.0402 114.617 79.0434H114.971C115.145 79.0485 115.311 79.1209 115.433 79.2457C115.555 79.3704 115.624 79.5376 115.625 79.712Z" fill="#202020"/>
<path d="M106.259 69.0192L105.445 63.8594C105.354 63.3274 105.47 62.7808 105.768 62.3307C106.066 61.8807 106.524 61.5611 107.049 61.437V61.437C107.615 61.3082 108.209 61.4039 108.706 61.7039C109.203 62.0038 109.564 62.4847 109.714 63.0455L111.104 68.181" stroke="#202020" stroke-width="2" stroke-linecap="round" stroke-linejoin="round"/>
<path d="M125.411 72.5066C126.577 72.3898 127.413 71.2051 127.278 69.8606C127.144 68.5161 126.089 67.5208 124.923 67.6376C123.757 67.7544 122.921 68.9391 123.055 70.2836C123.19 71.6281 124.245 72.6234 125.411 72.5066Z" fill="white" stroke="#202020" stroke-linecap="round" stroke-linejoin="round"/>
<path d="M119.451 49.4753C119.451 49.4753 124.117 56.0401 125.604 69.4216" stroke="#202020" stroke-width="2" stroke-linecap="round" stroke-linejoin="round"/>
<path d="M125.728 70.9709C126.365 70.9117 126.825 70.2611 126.756 69.5178C126.687 68.7745 126.115 68.2199 125.478 68.2791C124.841 68.3383 124.381 68.9888 124.45 69.7321C124.519 70.4755 125.092 71.0301 125.728 70.9709Z" fill="white" stroke="#202020" stroke-linecap="round" stroke-linejoin="round"/>
<path d="M132.547 100.298C132.261 101.185 132.026 102.087 131.845 103.001C131.845 103.389 131.753 104.547 130.847 104.285C129.941 104.024 130.212 99.3967 130.328 98.8832C130.445 98.3696 132.649 100.031 132.649 100.031" fill="white"/>
<path d="M132.547 100.298C132.261 101.185 132.026 102.087 131.845 103.001C131.845 103.389 131.753 104.547 130.847 104.285C129.941 104.024 130.212 99.3967 130.328 98.8832C130.445 98.3696 132.649 100.031 132.649 100.031" stroke="#202020" stroke-linecap="round" stroke-linejoin="round"/>
<path d="M103.139 96.1987C103.945 96.6424 104.846 96.8866 105.765 96.9109C107.19 96.9109 109.791 96.4264 110.746 96.6735C111.7 96.9206 114.137 99.9922 114.137 99.9922C114.137 99.9922 114.864 100.704 114.52 101.063C114.176 101.421 113.473 102.032 112.989 101.654C112.504 101.276 110.082 99.2801 110.082 99.2801L103.973 101.775L101.463 100.467L103.139 96.1987Z" fill="white" stroke="#202020" stroke-linecap="round" stroke-linejoin="round"/>
<path d="M93.7836 58.8113C93.7836 58.8113 89.7576 59.2958 89.0744 60.3519C88.3913 61.4081 77.3596 85.6324 77.3838 86.7031C77.4081 87.7738 99.4424 105.114 99.4424 105.114L104.2 96.0585L92.2963 85.0219L97.4609 73.0358" fill="white"/>
<path d="M93.7836 58.8113C93.7836 58.8113 89.7576 59.2958 89.0744 60.3519C88.3913 61.4081 77.3596 85.6324 77.3838 86.7031C77.4081 87.7738 99.4424 105.114 99.4424 105.114L104.2 96.0585L92.2963 85.0219L97.4609 73.0358" stroke="#202020" stroke-linecap="round" stroke-linejoin="round"/>
<path d="M101.211 109.489L112.848 109.726L112.79 102.488" stroke="#202020" stroke-linecap="round" stroke-linejoin="round"/>
<path d="M103.987 101.775L100.91 102.924" stroke="#202020" stroke-linecap="round" stroke-linejoin="round"/>
<path d="M107.495 42.1937C107.495 42.1937 108.818 52.5229 109.69 54.0636C110.562 55.6042 116.763 61.7766 116.763 61.7766C116.763 61.7766 118.701 54.6595 118.919 52.9977C119.137 51.3359 119.307 44.6888 119.307 44.6888L107.471 41.3652L107.495 42.1937Z" fill="white" stroke="#202020" stroke-linecap="round" stroke-linejoin="round"/>
<path d="M107.495 42.1937C107.495 42.1937 107.65 43.4049 107.887 45.057C108.815 45.9208 109.875 46.6307 111.027 47.1597C112.553 47.8331 116.623 48.211 119.195 47.9106C119.263 46.1713 119.307 44.6888 119.307 44.6888L107.471 41.3652L107.495 42.1937Z" fill="#202020" stroke="#202020" stroke-linecap="round" stroke-linejoin="round"/>
<path d="M104.064 33.1771C104.064 33.1771 102.48 31.5153 101.695 33.4097C100.91 35.304 102.664 38.1576 103.599 38.2788C104.154 38.3511 104.717 38.3099 105.256 38.1576C105.256 38.1576 105.92 40.8901 106.53 41.7186C107.731 43.2378 109.271 44.4555 111.026 45.2747C113.187 46.2437 120.42 46.5877 121.336 45.2747C122.252 43.9618 122.198 36.9658 122.184 36.3747C122.169 35.7837 122.067 27.3245 122.067 27.3245C122.067 27.3245 122.717 24.3886 121.835 22.3683C120.953 20.348 112.102 17.5234 109.878 18.691C107.654 19.8586 105.091 21.8935 104.917 24.5048C104.742 27.1162 104.849 31.3894 104.849 31.3894L104.064 33.1771Z" fill="#DF977B" stroke="#202020" stroke-linecap="round" stroke-linejoin="round"/>
<path d="M117.146 29.4954C117.146 29.4954 118.623 36.2782 118.284 37.0921C117.945 37.906 116.884 37.9206 115.557 37.2084C114.229 36.4962 114.922 35.5466 114.922 35.5466" stroke="#202020" stroke-linecap="round" stroke-linejoin="round"/>
<path d="M112 37.3293C112 37.3293 112.64 39.1074 113.827 39.2285C115.013 39.3496 117.993 39.5822 117.993 39.5822" stroke="#202020" stroke-linecap="round" stroke-linejoin="round"/>
<path d="M107.761 29.7328L107.95 32.5816C107.95 32.5816 109.035 33.1775 111.525 33.1775C114.015 33.1775 114.834 32.5816 114.834 32.5816L114.766 29.7328C114.766 29.7328 111.152 27.5962 107.761 29.7328Z" stroke="#202020" stroke-linecap="round" stroke-linejoin="round"/>
<path d="M117.155 29.7327L118.056 32.7026C118.056 32.7026 118.425 33.1871 120.92 33.1871C123.415 33.1871 124.234 32.5912 124.234 32.5912L124.161 29.7424C124.161 29.7424 120.542 27.5962 117.155 29.7327Z" stroke="#202020" stroke-linecap="round" stroke-linejoin="round"/>
<path d="M114.781 29.7329H117.155" stroke="#202020" stroke-linecap="round" stroke-linejoin="round"/>
<path d="M107.776 29.7329L103.096 32.4654" stroke="#202020" stroke-linecap="round" stroke-linejoin="round"/>
<path d="M108.929 28.3086C108.929 28.3086 110.198 26.8842 113.076 28.0712" stroke="#202020" stroke-linecap="round" stroke-linejoin="round"/>
<path d="M117.591 28.3083C118.018 27.9654 118.534 27.7503 119.078 27.6877C119.622 27.6251 120.173 27.7177 120.667 27.9547" stroke="#202020" stroke-linecap="round" stroke-linejoin="round"/>
<path d="M111.961 31.0407C111.961 31.564 111.772 32.0097 111.511 32.0097C111.249 32.0097 111.026 31.5834 111.026 31.0407C111.026 30.4981 111.215 30.0718 111.482 30.0718C111.748 30.0718 111.952 30.5127 111.961 31.0407Z" fill="#202020"/>
<path d="M119.558 30.9197C119.558 31.4429 119.369 31.8886 119.108 31.8886C118.846 31.8886 118.623 31.4623 118.623 30.9197C118.623 30.377 118.812 29.9507 119.074 29.9507C119.335 29.9507 119.544 30.3964 119.558 30.9197Z" fill="#202020"/>
<path d="M111.429 19.9411C111.429 19.9411 112.572 22.4653 111.153 23.3858C110.715 23.6393 110.218 23.7728 109.712 23.7728C109.205 23.7728 108.708 23.6393 108.27 23.3858C108.648 23.9071 108.858 24.5304 108.875 25.1738C108.891 25.8172 108.713 26.4505 108.362 26.9904C107.666 28.1498 106.855 29.2358 105.94 30.2316C105.94 30.2316 106.197 33.2984 105.664 33.6569C105.131 34.0154 103.677 33.4776 103.653 32.5765C103.629 31.6753 103.047 29.8731 103.023 28.9719C102.999 28.0708 102.582 25.7259 102.582 25.7259C102.582 25.7259 98.939 24.1028 100.872 22.1213C102.805 20.1397 106.909 18.5167 106.909 18.5167C106.909 18.5167 107.001 14.9122 109.496 13.8318C111.991 12.7514 117.359 11.1283 117.403 12.9306C117.471 13.8582 117.304 14.7879 116.918 15.634C116.918 15.634 121.419 15.4548 124.559 18.5409C127.698 21.6271 127.591 24.4904 125.968 24.4904C124.345 24.4904 123.817 24.8489 123.817 24.8489C123.817 24.8489 126.923 26.6512 125.324 27.5524C123.725 28.4535 122.078 27.3731 122.078 27.3731C122.078 27.3731 122.766 26.1135 120.741 24.4662C118.716 22.819 111.429 19.9411 111.429 19.9411Z" fill="#202020" stroke="#202020" stroke-linecap="round" stroke-linejoin="round"/>
<path d="M49.9527 202.161C63.9548 202.161 75.3058 199.601 75.3058 196.444C75.3058 193.286 63.9548 190.727 49.9527 190.727C35.9506 190.727 24.5996 193.286 24.5996 196.444C24.5996 199.601 35.9506 202.161 49.9527 202.161Z" fill="#202020" stroke="#202020" stroke-linecap="round" stroke-linejoin="round"/>
<path d="M66.6484 78.1958V82.8275L73.3828 85.9136C73.3828 85.9136 74.0853 82.8275 73.5233 77.3528L66.6484 78.1958Z" fill="#C17557" stroke="#202020" stroke-linecap="round" stroke-linejoin="round"/>
<path d="M33.2241 189.342C31.6827 190.665 30.2263 192.084 28.8637 193.591C26.9258 195.776 26.5479 197.951 28.3502 198.993C30.1524 200.034 32.9818 199.763 36.068 197.835C39.1542 195.906 39.0282 195.131 40.8305 194.492C42.6328 193.852 43.7907 192.554 43.7907 190.5C43.7907 188.445 37.2259 188.184 35.8112 188.077C34.3965 187.971 33.2241 189.342 33.2241 189.342Z" fill="white" stroke="#202020" stroke-linecap="round" stroke-linejoin="round"/>
<path d="M43.7762 190.499C43.7762 190.499 40.8693 191.788 39.4594 192.96C38.0496 194.133 35.2396 198.353 31.9548 198.353C30.282 198.354 28.6369 197.925 27.1777 197.107C27.1799 197.497 27.289 197.879 27.4931 198.212C27.6973 198.544 27.9887 198.814 28.3357 198.992C30.1379 200.019 32.9673 199.762 36.0535 197.834C39.1397 195.906 39.0137 195.131 40.816 194.491C42.6183 193.852 43.7762 192.558 43.7762 190.499Z" stroke="#202020" stroke-linecap="round" stroke-linejoin="round"/>
<path d="M65.8733 189.342C67.4147 190.665 68.871 192.084 70.2336 193.591C72.1716 195.776 72.5495 197.951 70.7472 198.993C68.9449 200.034 66.1155 199.763 63.0293 197.835C59.9432 195.906 60.0691 195.131 58.2668 194.492C56.4646 193.852 55.3066 192.554 55.3066 190.5C55.3066 188.445 61.8714 188.184 63.2861 188.077C64.7008 187.971 65.8733 189.342 65.8733 189.342Z" fill="white" stroke="#202020" stroke-linecap="round" stroke-linejoin="round"/>
<path d="M55.3213 190.499C55.3213 190.499 58.2282 191.788 59.6381 192.96C61.0479 194.133 63.8579 198.353 67.1427 198.353C68.8155 198.354 70.4605 197.925 71.9197 197.107C71.9176 197.497 71.8085 197.879 71.6044 198.212C71.4002 198.544 71.1088 198.814 70.7618 198.992C68.9595 200.019 66.1301 199.762 63.044 197.834C59.9578 195.906 60.0838 195.131 58.2815 194.491C56.4792 193.852 55.3213 192.558 55.3213 190.499Z" stroke="#202020" stroke-linecap="round" stroke-linejoin="round"/>
<path d="M29.4932 116.262C29.4932 116.262 30.2635 145.21 30.6511 149.459C31.0387 153.708 32.1821 163.354 32.1821 163.887C32.1821 164.42 32.8216 185.761 32.8216 185.761L31.6637 187.699L32.0512 190.403L37.1965 191.43C39.7691 191.943 43.1169 192.718 43.6304 192.205C44.144 191.691 44.2748 190.659 44.5316 189.245C44.7884 187.83 45.3019 185.252 44.7884 183.198C44.2748 181.144 45.4327 159.265 45.5635 158.751C45.6943 158.238 48.6545 137.104 48.6545 137.104C48.6545 137.104 50.5925 154.478 51.9975 159.749C53.4025 165.02 52.8986 172.874 53.4122 175.96C53.9257 179.046 54.9577 189.472 55.0885 190.243C55.2193 191.013 55.4713 192.181 55.4713 192.181C55.4713 192.181 61.9052 191.28 63.0631 190.761C64.2371 190.329 65.4421 189.985 66.6677 189.734C66.6677 189.734 67.0504 182.399 66.5369 179.439C66.1627 177.359 65.9473 175.253 65.8925 173.14C65.8925 172.239 66.5369 143.679 66.5369 143.679L65.8925 116.015C65.8925 116.015 48.5237 117.817 41.833 116.528C35.1423 115.24 29.624 114.469 29.624 114.469L29.4932 116.262Z" fill="#8CD0F2" stroke="#202020" stroke-linecap="round" stroke-linejoin="round"/>
<path d="M41.8427 116.519C35.152 115.235 29.624 114.469 29.624 114.469L29.4932 116.267C29.4932 116.267 29.5368 117.928 29.6094 120.506C32.6762 121.363 38.9067 122.87 44.9289 122.87C51.295 122.87 61.4353 120.932 65.9991 120.007L65.9022 116.01C65.9022 116.01 48.5334 117.807 41.8427 116.519Z" fill="#202020" stroke="#202020" stroke-linecap="round" stroke-linejoin="round"/>
<path d="M64.1914 181.711C64.2738 182.598 64.3271 183.107 64.3271 183.107" stroke="#202020" stroke-linecap="round" stroke-linejoin="round"/>
<path d="M62.2197 123.054C62.2197 123.054 62.7042 147.918 62.7042 157.302C62.7042 163.795 63.4891 173.649 63.9736 179.104" stroke="#202020" stroke-linecap="round" stroke-linejoin="round"/>
<path d="M36.1787 121.649L37.3512 148.626" stroke="#202020" stroke-linecap="round" stroke-linejoin="round"/>
<path d="M37.1143 150.733V155.19" stroke="#202020" stroke-linecap="round" stroke-linejoin="round"/>
<path d="M43.2132 48.3077C42.5798 48.3111 41.9563 48.4653 41.3943 48.7577C40.8323 49.0501 40.3481 49.4721 39.9817 49.9889C39.1805 51.0461 38.2889 52.0317 37.3171 52.9345L25.8105 59.1117L26.9346 103.035L27.3561 118.054C27.3561 118.054 36.1931 121 44.6134 121C53.0338 121 68.0479 117.608 68.0479 117.608C68.0479 117.608 66.7883 59.0923 67.2098 59.0923C67.6313 59.0923 58.9299 51.5344 55.0008 49.548C51.0716 47.5616 43.2132 48.3077 43.2132 48.3077Z" fill="#8CD0F2" stroke="#202020" stroke-linecap="round" stroke-linejoin="round"/>
<path d="M39.9336 53.6177C39.9336 53.6177 44.3909 61.8297 46.2707 65.5845C48.1505 69.3392 51.6581 74.7412 51.6581 74.7412L57.5252 59.0245" stroke="#202020" stroke-linecap="round" stroke-linejoin="round"/>
<path d="M43.2284 105.705L43.0007 99.1497L29.7598 98.3794C29.7598 98.3794 29.8906 108.03 30.1474 108.554" stroke="#202020" stroke-linecap="round" stroke-linejoin="round"/>
<path d="M43.3882 110.346L43.3252 108.505" stroke="#202020" stroke-linecap="round" stroke-linejoin="round"/>
<path d="M59.0858 109.314L58.6982 98.5104C58.6982 98.5104 63.3299 98.8932 67.1913 96.3206" stroke="#202020" stroke-linecap="round" stroke-linejoin="round"/>
<path d="M39.2309 72.7643C39.6379 74.0482 40.8782 74.804 41.9973 74.4455C43.1165 74.0869 43.6833 72.7546 43.2715 71.4707C42.8597 70.1868 41.6243 69.431 40.5051 69.7896C39.386 70.1481 38.8191 71.4804 39.2309 72.7643Z" stroke="#202020" stroke-linecap="round" stroke-linejoin="round"/>
<path d="M39.3619 50.2844C39.3619 50.2844 37.8745 56.0013 41.2562 71.5194" stroke="#202020" stroke-width="2" stroke-linecap="round" stroke-linejoin="round"/>
<path d="M42.298 72.052C42.1983 72.2531 42.043 72.4212 41.8506 72.5366C41.6582 72.652 41.4367 72.7098 41.2124 72.703C40.9881 72.6963 40.7705 72.6253 40.5853 72.4985C40.4002 72.3718 40.2553 72.1946 40.1679 71.9879C40.0804 71.7813 40.0541 71.5539 40.0921 71.3328C40.1301 71.1116 40.2307 70.906 40.382 70.7403C40.5333 70.5747 40.729 70.4559 40.9458 70.3981C41.1627 70.3404 41.3915 70.3461 41.6052 70.4145C41.913 70.5413 42.1583 70.7844 42.288 71.0909C42.4177 71.3975 42.4213 71.7429 42.298 72.052V72.052Z" stroke="#202020" stroke-linecap="round" stroke-linejoin="round"/>
<path d="M66.6487 58.2688C66.6487 58.2688 68.7513 59.8143 68.8918 60.3763C69.0323 60.9383 76.1882 78.0552 76.1882 78.0552L65.8057 79.5861L65.9462 69.4798" fill="#8CD0F2"/>
<path d="M66.6487 58.2688C66.6487 58.2688 68.7513 59.8143 68.8918 60.3763C69.0323 60.9383 76.1882 78.0552 76.1882 78.0552L65.8057 79.5861L65.9462 69.4798" stroke="#202020" stroke-linecap="round" stroke-linejoin="round"/>
<path d="M27.216 58.5498C27.216 58.5498 24.8275 58.8308 24.2655 60.6525C23.7035 62.4741 19.6387 81.0008 19.6387 81.0008L34.5124 79.5861L33.1074 65.6911" fill="#8CD0F2"/>
<path d="M27.216 58.5498C27.216 58.5498 24.8275 58.8308 24.2655 60.6525C23.7035 62.4741 19.6387 81.0008 19.6387 81.0008L34.5124 79.5861L33.1074 65.6911" stroke="#202020" stroke-linecap="round" stroke-linejoin="round"/>
<path d="M55.9463 49.4124C55.9463 49.4124 59.6332 51.515 59.9966 56.7475C60.3599 61.9799 59.9966 63.3074 59.9966 63.3074" stroke="#202020" stroke-width="2" stroke-linecap="round" stroke-linejoin="round"/>
<path d="M61.6633 70.0081C61.6633 70.0081 61.3339 76.1949 60.6604 77.9827C59.987 79.7704 57.3223 81.8876 55.21 82.2268" stroke="#202020" stroke-linecap="round" stroke-linejoin="round"/>
<path d="M56.8905 69.3391C56.8905 69.3391 56.595 76.4756 56.5659 77.8031C56.5368 79.1306 57.874 81.4415 59.7926 83.6556" stroke="#202020" stroke-linecap="round" stroke-linejoin="round"/>
<path d="M60.3426 84.4336L60.399 84.3878C60.663 84.1738 60.7034 83.7863 60.4894 83.5223L60.2178 83.1874C60.0038 82.9235 59.6163 82.883 59.3524 83.0971L59.2959 83.1429C59.032 83.3569 58.9915 83.7444 59.2056 84.0083L59.4771 84.3432C59.6912 84.6072 60.0787 84.6476 60.3426 84.4336Z" fill="#202020"/>
<path d="M54.451 82.4527L54.4645 82.5241C54.5278 82.858 54.8498 83.0774 55.1836 83.0141L55.6073 82.9338C55.9412 82.8706 56.1605 82.5486 56.0973 82.2147L56.0837 82.1433C56.0205 81.8095 55.6985 81.5901 55.3646 81.6533L54.941 81.7336C54.6071 81.7969 54.3877 82.1188 54.451 82.4527Z" fill="#202020"/>
<path d="M61.7357 70.478L61.5952 65.2794C61.5821 64.7372 61.3674 64.2193 60.9929 63.8269C60.6184 63.4345 60.1111 63.1958 59.5701 63.1574V63.1574C58.9954 63.1146 58.4272 63.301 57.9896 63.676C57.552 64.0509 57.2807 64.5839 57.2349 65.1583L56.7988 70.4295" stroke="#202020" stroke-width="2" stroke-linecap="round" stroke-linejoin="round"/>
<path d="M73.8039 82.4058L70.4561 81.7033L58.6686 79.7412L42.138 76.592L38.2185 74.8624C38.2185 74.8624 34.5122 70.0175 34.1924 69.5331C33.8727 69.0486 29.6819 70.7394 29.8321 71.3838C29.9823 72.0282 30.4764 78.467 30.801 78.8739C31.1256 79.2809 34.7447 79.2761 34.7447 79.2761C34.7447 79.2761 52.0118 87.6092 52.7288 87.9144C62.6947 92.1149 67.5008 92.0762 69.2013 92.3523C70.9019 92.6285 72.0113 91.9405 72.99 90.8165C73.9686 89.6925 73.8039 82.4058 73.8039 82.4058Z" fill="#C17557" stroke="#202020" stroke-linecap="round" stroke-linejoin="round"/>
<path d="M33.6889 69.4653C33.6889 69.4653 31.6782 69.5477 28.6987 71.5583C27.5892 72.3093 27.0078 72.847 27.0078 73.1716C27.0713 73.5578 27.1803 73.9351 27.3324 74.2956C29.2642 73.3654 31.2872 72.638 33.3691 72.1252" fill="#C17557"/>
<path d="M33.6889 69.4653C33.6889 69.4653 31.6782 69.5477 28.6987 71.5583C27.5892 72.3093 27.0078 72.847 27.0078 73.1716C27.0713 73.5578 27.1803 73.9351 27.3324 74.2956C29.2642 73.3654 31.2872 72.638 33.3691 72.1252" stroke="#202020" stroke-linecap="round" stroke-linejoin="round"/>
<path d="M34.4928 74.6197C34.4928 74.6197 29.0229 75.9859 28.1363 76.1507C27.2497 76.3154 27.0898 75.4239 27.0898 75.1042C27.0898 74.7844 27.3321 74.2951 28.2962 73.8155C29.2603 73.3358 34.11 72.0422 34.11 72.0422" fill="#C17557"/>
<path d="M34.4928 74.6197C34.4928 74.6197 29.0229 75.9859 28.1363 76.1507C27.2497 76.3154 27.0898 75.4239 27.0898 75.1042C27.0898 74.7844 27.3321 74.2951 28.2962 73.8155C29.2603 73.3358 34.11 72.0422 34.11 72.0422" stroke="#202020" stroke-linecap="round" stroke-linejoin="round"/>
<path d="M35.0603 77.1153C35.0603 77.1153 28.699 77.7596 28.2145 77.3575C28.0662 77.1961 27.9538 77.0052 27.8845 76.7973C27.8152 76.5894 27.7906 76.3692 27.8124 76.1512L33.5293 74.9399" fill="#C17557"/>
<path d="M35.0603 77.1153C35.0603 77.1153 28.699 77.7596 28.2145 77.3575C28.0662 77.1961 27.9538 77.0052 27.8845 76.7973C27.8152 76.5894 27.7906 76.3692 27.8124 76.1512L33.5293 74.9399" stroke="#202020" stroke-linecap="round" stroke-linejoin="round"/>
<path d="M33.2867 77.4348L28.3789 77.6771C28.3789 77.6771 28.6163 78.4038 28.8634 78.4813C30.0261 78.7685 31.2107 78.9581 32.405 79.0482C33.1881 79.0739 33.9685 79.1548 34.7402 79.2904" fill="#C17557"/>
<path d="M33.2867 77.4348L28.3789 77.6771C28.3789 77.6771 28.6163 78.4038 28.8634 78.4813C30.0261 78.7685 31.2107 78.9581 32.405 79.0482C33.1881 79.0739 33.9685 79.1548 34.7402 79.2904" stroke="#202020" stroke-linecap="round" stroke-linejoin="round"/>
<path d="M22.7246 80.7197C22.7246 80.7197 24.9678 90.4094 25.5298 91.1071C26.0918 91.8047 30.7235 91.1071 35.3551 89.7021C39.9868 88.2971 59.6327 79.8815 59.6327 79.8815L62.4378 80.4387C62.4378 80.4387 61.3138 76.931 59.3517 76.7905C57.3895 76.65 34.5121 79.586 34.5121 79.586L22.7246 80.7197Z" fill="#C17557" stroke="#202020" stroke-linecap="round" stroke-linejoin="round"/>
<path d="M42.3564 42.1306C42.3564 42.1306 42.3564 42.3389 42.3564 42.6926C42.4 44.5385 42.5793 50.4008 43.0493 51.8155C43.6113 53.4966 51.1886 67.6727 51.77 66.5487C52.3514 65.4247 55.8397 50.1295 55.8397 50.1295V44.0976C55.8397 44.0976 54.0132 45.6383 50.646 45.6383C47.2788 45.6383 42.3564 42.1306 42.3564 42.1306Z" fill="#C17557" stroke="#202020" stroke-linecap="round" stroke-linejoin="round"/>
<path d="M53.5965 50.4444C54.3822 49.9646 55.1334 49.4303 55.8445 48.8456V44.0976C55.8445 44.0976 54.018 45.6383 50.6508 45.6383C47.2837 45.6383 42.3564 42.1306 42.3564 42.1306C42.3564 42.1306 42.3564 42.3389 42.3564 42.6926C42.3564 43.3418 42.4049 44.4901 42.463 45.7691C42.5959 45.9821 42.7449 46.1845 42.9088 46.3747C43.8777 47.4939 48.5191 50.3039 49.6431 50.5849C50.7671 50.8659 52.332 51.142 53.5965 50.4444Z" fill="#202020" stroke="#202020" stroke-linecap="round" stroke-linejoin="round"/>
<path d="M59.2109 33.9912C59.2109 33.9912 61.4541 32.7267 61.4541 35.1152C61.4541 37.5037 59.3514 40.3089 59.3514 40.3089L59.2109 33.9912Z" fill="#C17557" stroke="#202020" stroke-linecap="round" stroke-linejoin="round"/>
<path d="M39.1438 34.1317C39.1438 34.1317 36.0527 33.2887 36.0527 36.0987C36.0527 38.9087 38.8627 40.7255 38.8627 40.7255H40.8007C40.8007 40.7255 41.9247 43.5356 42.9082 44.6547C43.8917 45.7739 48.5185 48.5839 49.6425 48.8649C50.7665 49.1459 52.3072 49.4269 53.5717 48.7244C55.1604 47.734 56.6243 46.5564 57.9321 45.2167C58.4941 44.5191 59.4776 39.7469 59.4776 39.7469C59.4776 39.7469 59.7586 31.186 59.1966 28.2404C58.6346 25.2947 54.9864 20.663 49.9332 20.101C44.8801 19.539 40.1079 23.6087 39.4102 26.8354C38.7126 30.062 39.1438 34.1317 39.1438 34.1317Z" fill="#C17557" stroke="#202020" stroke-linecap="round" stroke-linejoin="round"/>
<path d="M48.2618 36.3799C48.2618 36.3799 47.2928 38.342 48.9643 38.904C50.6357 39.4661 52.7529 39.3256 53.1744 38.4825C53.5959 37.6395 52.8934 36.6609 52.8934 36.6609" stroke="#202020" stroke-linecap="round" stroke-linejoin="round"/>
<path d="M46.5811 39.8877C46.5811 39.8877 50.0887 42.8334 54.8609 40.0282" stroke="#202020" stroke-linecap="round" stroke-linejoin="round"/>
<path d="M48.543 42.5522C48.543 42.5522 51.4935 44.2382 53.4556 42.2712" stroke="#202020" stroke-linecap="round" stroke-linejoin="round"/>
<path d="M46.8617 34.6938C47.2497 34.6938 47.5642 34.1906 47.5642 33.5698C47.5642 32.949 47.2497 32.4458 46.8617 32.4458C46.4737 32.4458 46.1592 32.949 46.1592 33.5698C46.1592 34.1906 46.4737 34.6938 46.8617 34.6938Z" fill="#202020"/>
<path d="M54.4392 33.4295C54.4392 34.0496 54.1243 34.5535 53.7367 34.5535C53.3491 34.5535 53.0342 34.069 53.0342 33.4295C53.0342 32.7899 53.3491 32.3103 53.7367 32.3103C54.1243 32.3103 54.4392 32.8093 54.4392 33.4295Z" fill="#202020"/>
<path d="M44.8945 32.0288C44.8945 32.0288 45.597 30.9048 48.2859 31.3263" stroke="#202020" stroke-linecap="round" stroke-linejoin="round"/>
<path d="M52.6123 31.4672C52.6123 31.4672 53.8768 29.5002 55.8438 31.4672" stroke="#202020" stroke-linecap="round" stroke-linejoin="round"/>
<path d="M59.2115 28.2307C59.0293 27.3974 58.7135 26.599 58.2765 25.8665C58.113 26.6432 58.056 27.4386 58.1069 28.2307C58.3104 29.2578 59.0323 30.6919 59.0323 31.409C59.0323 32.126 58.9257 34.999 59.4392 34.592C59.4901 34.5383 59.5311 34.4759 59.5604 34.4079C59.5924 32.3432 59.4758 30.2788 59.2115 28.2307Z" fill="#202020" stroke="#202020" stroke-linecap="round" stroke-linejoin="round"/>
<path d="M52.1572 22.4173C53.0582 22.3696 53.9549 22.2611 54.8413 22.0927C53.4098 21.0211 51.7228 20.343 49.948 20.1257C44.8948 19.5637 40.1226 23.6334 39.4249 26.86C38.7273 30.0867 39.144 34.1564 39.144 34.1564C39.144 34.1564 40.2583 34.9315 40.6701 34.1128C41.0819 33.294 40.6701 31.9568 41.0819 30.5227C41.4937 29.0887 42.1042 28.3668 42.2059 27.2379C42.3076 26.1091 41.5906 24.4715 42.0024 23.5461C42.4142 22.6208 44.9771 20.8815 46.6196 21.4968C48.3866 22.166 50.2687 22.4789 52.1572 22.4173Z" fill="#202020" stroke="#202020" stroke-linecap="round" stroke-linejoin="round"/>
</g>
</svg>
